<?xml version="1.0" encoding="UTF-8" standalone="no"?>
<svg width="1269px" height="3606px" viewBox="0 0 1269 3606" version="1.1" xmlns="http://www.w3.org/2000/svg" xmlns:xlink="http://www.w3.org/1999/xlink" xmlns:sketch="http://www.bohemiancoding.com/sketch/ns">
    <!-- Generator: Sketch 3.3 (11970) - http://www.bohemiancoding.com/sketch -->
    <title>background</title>
    <desc>Created with Sketch.</desc>
    <defs></defs>
    <g id="Page-1" stroke="none" stroke-width="1" fill="none" fill-rule="evenodd" sketch:type="MSPage">
        <g id="background" sketch:type="MSLayerGroup" transform="translate(0.000000, -1.000000)">
            <g id="eurucamp" transform="translate(55.000000, 1663.000000)" sketch:type="MSShapeGroup">
                <path d="M450.106875,238.123333 L0.8128125,282.8475 C0.8128125,282.8475 28.744875,204.649567 28.744875,137.644633 C28.744875,70.6397 0.8128125,0.831733333 0.8128125,0.831733333 L450.106875,45.5463333 L327.219187,139.041367 L450.106875,238.123333" id="Fill-1" fill="#404040"></path>
                <path d="M55.175625,6.24646667 L316.1745,251.4497 L450.106875,238.123333 L327.219188,139.041367 L450.106875,45.5463333 L55.175625,6.24646667" id="Fill-2" fill="#555555"></path>
                <path d="M450.106875,238.123333 L0.8128125,282.8475 C0.8128125,282.8475 28.744875,204.649567 28.744875,137.644633 C28.744875,70.6397 0.8128125,0.831733333 0.8128125,0.831733333 L450.106875,45.5463333 L327.219187,139.041367 L450.106875,238.123333" id="Fill-1-Copy" stroke-opacity="0.496659873" stroke="#FFFFFF" stroke-width="5" stroke-dasharray="16"></path>
                <path d="M178.723125,58.4039333 C128.013187,58.4039333 91.4270625,93.9536667 91.4270625,143.662067 C91.4270625,193.724433 125.584312,226.518967 180.444375,226.518967 C211.857188,226.518967 242.906625,214.780667 258.091875,189.5725 L218.417062,162.3075 C208.405125,177.154967 196.662375,183.009767 182.175187,183.009767 C165.96675,183.009767 151.12575,173.357 149.394937,155.744767 L262.58625,155.400367 C263.27475,150.5692 263.27475,146.092 263.27475,141.605233 C263.27475,92.2412333 232.21575,58.4039333 178.723125,58.4039333 L178.723125,58.4039333 Z M150.093,120.539433 C153.5355,106.036367 165.27825,97.7516333 179.067375,97.7516333 C192.875625,97.7516333 204.264562,106.036367 208.070437,120.539433 L150.093,120.539433 L150.093,120.539433 Z" id="Fill-3" fill="#FFFFFF"></path>
                <path d="M178.723125,58.4039333 C128.013187,58.4039333 91.4270625,93.9536667 91.4270625,143.662067 C91.4270625,193.724433 125.584312,226.518967 180.444375,226.518967 C211.857188,226.518967 242.906625,214.780667 258.091875,189.5725 L218.417062,162.3075 C208.405125,177.154967 196.662375,183.009767 182.175187,183.009767 C165.96675,183.009767 151.12575,173.357 149.394937,155.744767 L262.58625,155.400367 C263.27475,150.5692 263.27475,146.092 263.27475,141.605233 C263.27475,92.2412333 232.21575,58.4039333 178.723125,58.4039333 L178.723125,58.4039333 Z M150.093,120.539433 C153.5355,106.036367 165.27825,97.7516333 179.067375,97.7516333 C192.875625,97.7516333 204.264562,106.036367 208.070437,120.539433 L150.093,120.539433 L150.093,120.539433 Z" id="Fill-3-Copy" stroke-opacity="0.496659873" stroke="#FFFFFF" stroke-width="5" stroke-dasharray="16"></path>
            </g>
            <path d="M55.25,1.51469353 L55.25,3606.5478" id="Line" stroke="#DADADA" stroke-width="0.5" stroke-linecap="square" stroke-dasharray="2" sketch:type="MSShapeGroup"></path>
            <path d="M503.25,1.51469353 L503.25,3606.5478" id="Line-Copy" stroke="#DADADA" stroke-width="0.5" stroke-linecap="square" stroke-dasharray="2" sketch:type="MSShapeGroup"></path>
            <path d="M1268.50037,1802.52063 L0.499601007,1802.52063" id="Line-Copy-2" stroke="#DADADA" stroke-width="0.5" stroke-linecap="square" stroke-dasharray="2" sketch:type="MSShapeGroup"></path>
            <path d="M1268.50037,1664.52063 L0.499601007,1664.52063" id="Line-Copy-3" stroke="#DADADA" stroke-width="0.5" stroke-linecap="square" stroke-dasharray="2" sketch:type="MSShapeGroup"></path>
            <path d="M560.0802,1947.52063 L0,1947.52063" id="Line-Copy-4" stroke="#DADADA" stroke-width="0.5" stroke-linecap="square" stroke-dasharray="2" sketch:type="MSShapeGroup"></path>
        </g>
    </g>
</svg>