<?xml version="1.0" encoding="utf-8"?>


<!-- The icon can be used freely in both personal and commercial projects with no attribution required, but always appreciated. 
You may NOT sub-license, resell, rent, redistribute or otherwise transfer the icon without express written permission from iconmonstr.com -->


<!DOCTYPE svg PUBLIC "-//W3C//DTD SVG 1.1//EN" "http://www.w3.org/Graphics/SVG/1.1/DTD/svg11.dtd">

<svg version="1.1" xmlns="http://www.w3.org/2000/svg" xmlns:xlink="http://www.w3.org/1999/xlink" x="0px" y="0px"

	 width="512px" height="512px" viewBox="0 0 512 512" enable-background="new 0 0 512 512" xml:space="preserve">

<path id="dribbble-icon" d="M256,50C142.229,50,50,142.229,50,256c0,113.767,92.229,206,206,206s206-92.233,206-206

	C462,142.229,369.771,50,256,50z M425.688,246.404c-44.2-7.251-84.854-7.639-121.924-1.254c-4.188-9.673-8.532-19.304-13.163-28.842

	c39.64-17.163,71.503-40.484,95.238-70.065C409.005,173.606,423.55,208.354,425.688,246.404z M359.73,121.402

	c-20.673,26.665-49.222,47.766-85.585,63.165c-17.445-31.947-37.384-63.099-59.889-93.344c13.381-3.398,27.319-5.397,41.743-5.397

	C295.059,85.826,330.979,99.191,359.73,121.402z M179.218,104.338c22.859,29.91,43.108,60.729,60.714,92.374

	c-41.712,12.28-91.516,18.591-149.081,18.985C102.737,167.021,135.52,126.55,179.218,104.338z M85.826,256

	c0-1.482,0.184-2.921,0.223-4.391c66.063-0.092,123.056-7.696,170.808-22.698c4.003,8.144,7.834,16.335,11.493,24.578

	c-58.012,18.133-105.825,55.305-143.111,111.247C100.656,335.228,85.826,297.318,85.826,256z M151.562,390.067

	c33.801-53.01,76.952-87.513,130.43-103.463c15.918,41.541,27.621,84.282,35.062,128.06c-18.984,7.329-39.519,11.51-61.053,11.51

	C216.622,426.174,180.425,412.608,151.562,390.067z M350.454,397.45c-7.521-40.384-18.543-79.878-32.956-118.399

	c32.191-4.543,67.641-3.362,106.411,3.372C416.403,330.247,389.093,371.56,350.454,397.45z"/>

</svg>

