<?xml version="1.0" encoding="UTF-8" standalone="no"?>
<svg width="390px" height="405px" viewBox="0 0 390 405" version="1.1" xmlns="http://www.w3.org/2000/svg" xmlns:xlink="http://www.w3.org/1999/xlink" xmlns:sketch="http://www.bohemiancoding.com/sketch/ns">
    <!-- Generator: Sketch 3.0 (7573) - http://www.bohemiancoding.com/sketch -->
    <title>cover</title>
    <description>Created with Sketch.</description>
    <defs></defs>
    <g id="Page-1" stroke="none" stroke-width="1" fill="none" fill-rule="evenodd" sketch:type="MSPage">
        <g id="cover" sketch:type="MSLayerGroup">
            <circle id="Oval" opacity="0.5" fill="#BCAE00" sketch:type="MSShapeGroup" cx="56.534" cy="276.534" r="56.534"></circle>
            <g id="Group" transform="translate(28.000000, 243.000000)" sketch:type="MSShapeGroup">
                <path d="M28.22,-0.471 L0.166,56.267 L11.184,56.267 L28.288,5.869 L28.219,5.208 L28.22,5.208 L28.365,5.639 L28.512,5.208 L28.443,5.869 L45.547,56.267 L56.903,56.267 L28.22,-0.471 Z" id="Shape" fill="#F94203"></path>
                <path d="M28.365,6.62 L33.519,56.267 L45.547,56.267 L28.443,5.869 L28.365,6.62 Z" id="Shape" fill="#FFFFFF"></path>
                <path d="M28.22,5.208 L28.219,5.208 L28.288,5.869 L28.365,5.639 L28.22,5.208 Z" id="Shape" fill="#CCCCCC"></path>
                <path d="M28.512,5.208 L28.512,5.208 L28.365,5.639 L28.443,5.869 L28.512,5.208 Z" id="Shape" fill="#CCCCCC"></path>
                <path d="M28.288,5.869 L11.184,56.267 L23.212,56.267 L28.365,6.62 L28.288,5.869 Z" id="Shape" fill="#FFFFFF"></path>
                <path d="M28.443,5.869 L28.365,5.639 L28.288,5.869 L28.365,6.62 L28.443,5.869 Z" id="Shape" fill="#CCCCCC"></path>
            </g>
            <path d="M61.057,294.817 L56.365,249.62 L51.674,294.817 L61.057,294.817 Z" id="Shape" fill="#CE2F00" sketch:type="MSShapeGroup"></path>
            <path d="M56.22,242.529 L48.43,258.281 L51.912,261.763 L56.288,248.869 L56.219,248.208 L56.22,248.208 L56.365,248.639 L56.512,248.208 L56.443,248.869 L65.396,275.247 L80.29,290.141 L56.22,242.529 Z" id="Shape" fill="#FF751E" sketch:type="MSShapeGroup"></path>
            <circle id="Oval" opacity="0.5" fill="#BCAE00" sketch:type="MSShapeGroup" cx="194.535" cy="56.535" r="56.535"></circle>
            <rect id="Rectangle-path" fill="#FFFFFF" sketch:type="MSShapeGroup" x="174" y="31" width="2.917" height="51.342"></rect>
            <circle id="Oval" fill="#FFFFFF" sketch:type="MSShapeGroup" cx="175.21" cy="29.21" r="3.21"></circle>
            <path d="M223.371,56.565 L176.385,61.24 C176.385,61.24 179.307,53.066 179.307,46.062 C179.307,39.058 176.385,31.761 176.385,31.761 L223.371,36.435 L210.519,46.208 L223.371,56.565 L223.371,56.565 Z" id="Shape" fill="#F94203" sketch:type="MSShapeGroup"></path>
            <path d="M182.07,32.328 L209.365,57.959 L223.371,56.565 L210.519,46.209 L223.371,36.436 L182.07,32.328 Z" id="Shape" fill="#FF751E" sketch:type="MSShapeGroup"></path>
            <path d="M194.991,37.779 C189.688,37.779 185.862,41.496 185.862,46.691 C185.862,51.924 189.434,55.352 195.171,55.352 C198.456,55.352 201.703,54.125 203.291,51.49 L199.142,48.64 C198.095,50.192 196.868,50.804 195.352,50.804 C193.657,50.804 192.105,49.795 191.925,47.954 L203.761,47.918 C203.833,47.413 203.833,46.944 203.833,46.476 C203.833,41.316 200.584,37.779 194.991,37.779 L194.991,37.779 Z M191.996,44.274 C192.356,42.758 193.584,41.892 195.026,41.892 C196.47,41.892 197.662,42.758 198.059,44.274 L191.996,44.274 L191.996,44.274 Z" id="Shape" fill="#FFFFFF" sketch:type="MSShapeGroup"></path>
            <circle id="Oval" opacity="0.5" fill="#BCAE00" sketch:type="MSShapeGroup" cx="332.534" cy="132.534" r="56.534"></circle>
            <rect id="Rectangle-path" fill="#FFFFFF" sketch:type="MSShapeGroup" x="328" y="153" width="9.262" height="11.13"></rect>
            <g id="Group" transform="translate(306.000000, 99.000000)" fill="#F94203" sketch:type="MSShapeGroup">
                <path d="M6.502,34.303 L13.391,34.303 L-0.096,54.213 L53.635,54.213 L39.344,34.303 L46.814,34.303 L32.861,15.773 L19.873,15.773 L6.502,34.303 Z" id="Shape"></path>
                <path d="M37.441,15.764 L26.436,0.018 L15.67,15.764 L19.879,15.764 L19.873,15.773 L32.861,15.773 L32.855,15.764 L37.441,15.764 Z" id="Shape"></path>
            </g>
            <path d="M319.391,133.303 L305.904,153.213 L359.635,153.213 L345.344,133.303 L352.814,133.303 L350.254,129.902 L314.957,129.902 L312.502,133.303 L319.391,133.303 Z" id="Shape" fill="#F94203" sketch:type="MSShapeGroup"></path>
            <path d="M325.873,114.773 L312.506,133.298 L352.811,133.298 L338.861,114.773 L325.873,114.773 Z" id="Shape" fill="#CE2F00" sketch:type="MSShapeGroup"></path>
            <path d="M338.861,114.773 L338.855,114.764 L343.441,114.764 L332.436,99.018 L328.838,104.279 L336.178,114.773 L338.861,114.773 Z" id="Shape" fill="#FF751E" sketch:type="MSShapeGroup"></path>
            <path d="M348.242,127.229 L348.242,127.23 L338.861,114.773 L328.182,114.773 L342.773,133.298 L348.242,133.298 L352.811,133.298 L348.242,127.229 Z" id="Shape" fill="#EE5924" sketch:type="MSShapeGroup"></path>
            <path d="M345.344,133.303 L346.746,133.303 L346.742,133.298 L336.061,133.298 L350.738,153.213 L359.635,153.213 L345.344,133.303 Z" id="Shape" fill="#FF751E" sketch:type="MSShapeGroup"></path>
            <path d="M347.17,135.846 L345.344,133.303 L319.391,133.303 L317.668,135.846 L347.17,135.846 Z" id="Shape" fill="#FFFFFF" sketch:type="MSShapeGroup"></path>
            <path d="M340.682,117.318 L338.855,114.775 L325.879,114.775 L324.156,117.318 L340.682,117.318 Z" id="Shape" fill="#FFFFFF" sketch:type="MSShapeGroup"></path>
            <circle id="Oval" opacity="0.5" fill="#BCAE00" sketch:type="MSShapeGroup" cx="56.534" cy="132.534" r="56.534"></circle>
            <rect id="Rectangle-path" fill="#F94203" sketch:type="MSShapeGroup" x="31" y="108" width="51.186" height="35.098"></rect>
            <path d="M88.628,148.456 L24.432,148.456 L30.937,143.096 L82.122,143.096 L88.628,148.456 Z" id="Shape" fill="#CE2F00" sketch:type="MSShapeGroup"></path>
            <rect id="Rectangle-path" fill="#F94203" sketch:type="MSShapeGroup" x="24" y="148" width="64.196" height="4.06"></rect>
            <rect id="Rectangle-path" fill="#FFFFFF" sketch:type="MSShapeGroup" x="37" y="114" width="39.971" height="24.373"></rect>
            <path d="M56.093,108.154 L60.761,113.681 L76.438,113.681 L76.438,127.967 L82.122,133.535 L82.122,108.154 L56.093,108.154 Z" id="Shape" fill="#FF751E" sketch:type="MSShapeGroup"></path>
            <path d="M82.122,143.096 L58.92,143.096 L64.357,148.456 L88.628,148.456 L82.122,143.096 Z" id="Shape" fill="#EE5924" sketch:type="MSShapeGroup"></path>
            <circle id="Oval" fill="#FFFFFF" sketch:type="MSShapeGroup" cx="56.022" cy="111.022" r="1.022"></circle>
            <rect id="Rectangle-path" fill="#FFFFFF" sketch:type="MSShapeGroup" x="50" y="150" width="12.418" height="1.17"></rect>
            <circle id="Oval" opacity="0.5" fill="#BCAE00" sketch:type="MSShapeGroup" cx="195.534" cy="347.534" r="56.534"></circle>
            <path d="M193.352,339.63 L177.653,322.623 L160.521,340.522 L161.376,339.63 L193.352,339.63 Z" id="Shape" fill="#CE2F00" sketch:type="MSShapeGroup"></path>
            <path d="M210.5,322.108 L180.252,322.108 L195.391,338.509 L210.5,322.108 Z" id="Shape" fill="#F94203" sketch:type="MSShapeGroup"></path>
            <path d="M195.392,341.841 L195.367,341.813 L161.812,341.813 L160.521,340.522 L195.445,375.447 L229.08,341.813 L195.417,341.813 L195.392,341.841 Z" id="Shape" fill="#F94203" sketch:type="MSShapeGroup"></path>
            <path d="M229.516,339.63 L230.371,340.522 L213.167,322.547 L197.429,339.63 L229.516,339.63 Z" id="Shape" fill="#CE2F00" sketch:type="MSShapeGroup"></path>
            <path d="M229.516,339.63 L197.429,339.63 L195.417,341.813 L229.08,341.813 L230.371,340.522 L229.516,339.63 Z" id="Shape" fill="#FFFFFF" sketch:type="MSShapeGroup"></path>
            <path d="M195.367,341.813 L193.352,339.63 L161.376,339.63 L160.521,340.522 L161.812,341.813 L195.367,341.813 Z" id="Shape" fill="#FFFFFF" sketch:type="MSShapeGroup"></path>
            <path d="M213.167,322.547 L212.747,322.108 L213.167,322.547 L213.167,322.547 Z" id="Shape" fill="#FFFFFF" sketch:type="MSShapeGroup"></path>
            <path d="M177.653,322.623 L177.653,322.623 L178.146,322.108 L177.653,322.623 Z" id="Shape" fill="#FFFFFF" sketch:type="MSShapeGroup"></path>
            <path d="M195.392,341.841 L195.417,341.813 L195.367,341.813 L195.392,341.841 Z" id="Shape" fill="#FFFFFF" sketch:type="MSShapeGroup"></path>
            <path d="M180.252,322.108 L178.146,322.108 L177.653,322.623 L193.352,339.63 L197.429,339.63 L213.167,322.547 L212.747,322.108 L210.5,322.108 L195.391,338.509" id="Shape" fill="#FFFFFF" sketch:type="MSShapeGroup"></path>
            <path d="M195.367,341.813 L195.417,341.813 L197.429,339.63 L193.352,339.63 L195.367,341.813 Z" id="Shape" fill="#FFFFFF" sketch:type="MSShapeGroup"></path>
            <path d="M187.422,339.63 L193.352,339.63 L177.653,322.623 L174.322,326.103 L187.422,339.63 Z" id="Shape" fill="#EE5924" sketch:type="MSShapeGroup"></path>
            <path d="M210.5,322.108 L199.061,322.108 L204.924,328.162 L210.5,322.108 Z" id="Shape" fill="#FF751E" sketch:type="MSShapeGroup"></path>
            <path d="M222.301,339.63 L229.516,339.63 L230.371,340.522 L213.167,322.547 L209.555,326.467 L222.301,339.63 Z" id="Shape" fill="#EE5924" sketch:type="MSShapeGroup"></path>
            <path d="M215.887,355.006 L228.743,342.15 L228.415,341.813 L203.002,341.813 L215.887,355.006 Z" id="Shape" fill="#FF751E" sketch:type="MSShapeGroup"></path>
            <circle id="Oval" opacity="0.5" fill="#BCAE00" sketch:type="MSShapeGroup" cx="332.534" cy="276.534" r="56.534"></circle>
            <path d="M332.83,289.598 C332.297,289.399 331.771,289.184 331.262,288.939 L322.276,291.487 L318.616,292.524 L319.653,288.863 L322.19,279.907 C321.85,279.21 321.553,278.487 321.299,277.747 L313.039,273.263 L312.242,272.831 C310.422,274.064 309.013,275.856 308.271,277.966 C307.525,277.685 306.714,277.528 305.869,277.528 C302.119,277.528 299.08,280.569 299.08,284.32 C299.08,285.746 299.518,287.067 300.269,288.161 C299.96,288.893 299.79,289.697 299.79,290.541 C299.79,293.932 302.538,296.679 305.929,296.679 C306.415,296.679 306.89,296.62 307.343,296.513 L307.343,296.568 L326.894,296.568 L326.894,296.497 C328.388,296.182 329.507,294.859 329.507,293.271 C329.507,292.932 329.456,292.607 329.362,292.298 C330.816,291.84 332.043,290.869 332.83,289.598 L332.83,289.598 Z" id="Shape" fill="#FFFFFF" sketch:type="MSShapeGroup"></path>
            <path d="M340.764,287.817 C339.104,287.817 337.498,287.576 335.979,287.136 L335.838,287.136 L340.815,296.297 L345.788,287.136 L345.548,287.136 C344.027,287.576 342.424,287.817 340.764,287.817 L340.764,287.817 Z" id="Shape" fill="#F94203" sketch:type="MSShapeGroup"></path>
            <path d="M324.277,275.576 L324.277,275.558 C323.802,273.987 323.547,272.324 323.547,270.601 C323.547,268.878 323.803,267.214 324.277,265.644 L324.277,265.627 L315.115,270.602 L324.277,275.576 L324.277,275.576 Z" id="Shape" fill="#F94203" sketch:type="MSShapeGroup"></path>
            <path d="M325.789,279.081 L325.539,278.832 L322.76,288.649 L332.574,285.867 L332.281,285.575 C329.578,284.037 327.326,281.787 325.789,279.081 L325.789,279.081 Z" id="Shape" fill="#F94203" sketch:type="MSShapeGroup"></path>
            <path d="M355.672,279.197 C354.156,281.812 351.975,283.994 349.36,285.508 L349.018,285.85 L358.834,288.629 L356.053,278.815 L355.672,279.197 L355.672,279.197 Z" id="Shape" fill="#F94203" sketch:type="MSShapeGroup"></path>
            <path d="M325.789,262.121 C327.326,259.416 329.578,257.166 332.281,255.627 L332.556,255.354 L322.74,252.575 L325.523,262.388 L325.789,262.121 L325.789,262.121 Z" id="Shape" fill="#F94203" sketch:type="MSShapeGroup"></path>
            <path d="M327.898,270.602 C327.898,277.706 333.658,283.465 340.763,283.465 C346.544,283.465 351.435,279.651 353.056,274.401 L337.257,258.225 C331.857,259.752 327.898,264.713 327.898,270.602 L327.898,270.602 Z" id="Shape" fill="#F94203" sketch:type="MSShapeGroup"></path>
            <path d="M335.789,254.066 L335.978,254.066 C337.498,253.626 339.103,253.384 340.763,253.384 C342.423,253.384 344.027,253.625 345.546,254.066 L345.737,254.066 L340.76,244.904 L335.789,254.066 L335.789,254.066 Z" id="Shape" fill="#FF751E" sketch:type="MSShapeGroup"></path>
            <path d="M357.299,265.818 C357.738,267.337 357.981,268.941 357.981,270.601 C357.981,272.261 357.739,273.865 357.299,275.384 L357.299,275.575 L366.461,270.598 L357.299,265.626 L357.299,265.818 L357.299,265.818 Z" id="Shape" fill="#FF751E" sketch:type="MSShapeGroup"></path>
            <path d="M349.002,255.336 L349.359,255.695 C351.974,257.209 354.156,259.389 355.67,262.005 L356.037,262.37 L358.816,252.555 L349.002,255.336 L349.002,255.336 Z" id="Shape" fill="#FF751E" sketch:type="MSShapeGroup"></path>
            <path d="M340.764,257.737 C339.547,257.737 338.373,257.91 337.258,258.224 L353.057,274.4 C353.428,273.199 353.627,271.923 353.627,270.601 C353.627,263.497 347.867,257.737 340.764,257.737 L340.764,257.737 Z" id="Shape" fill="#FF751E" sketch:type="MSShapeGroup"></path>
            <path d="M323.812,227.744 L61.251,227.744 L82.528,201.283 L61.251,174.825 L323.812,174.825 L302.535,201.287 L323.812,227.744 Z" id="Shape" fill="#FFFFFF" sketch:type="MSShapeGroup"></path>
            <g id="Group" transform="translate(98.000000, 193.000000)" fill="#F4450F" sketch:type="MSShapeGroup">
                <path d="M7.522,-0.032 C2.985,-0.032 -0.287,3.146 -0.287,7.59 C-0.287,12.067 2.769,15 7.676,15 C10.485,15 13.263,13.95 14.621,11.696 L11.072,9.258 C10.177,10.586 9.127,11.111 7.831,11.111 C6.38,11.111 5.053,10.246 4.898,8.673 L15.022,8.642 C15.084,8.21 15.084,7.808 15.084,7.407 C15.085,2.992 12.307,-0.032 7.522,-0.032 L7.522,-0.032 Z M4.961,5.523 C5.269,4.226 6.319,3.486 7.553,3.486 C8.788,3.486 9.807,4.226 10.146,5.523 L4.961,5.523 L4.961,5.523 Z" id="Shape"></path>
                <path d="M26.322,7.685 C26.322,9.628 25.365,10.678 23.822,10.678 C22.464,10.678 21.63,9.875 21.63,8.3 L21.63,0.245 L15.982,0.245 L15.982,9.474 C15.982,12.932 18.235,15 21.415,15 C23.236,15 25.119,14.29 26.477,12.839 L26.631,14.692 L31.941,14.692 L31.941,0.246 L26.323,0.246 L26.323,7.685 L26.322,7.685 Z" id="Shape"></path>
                <path d="M38.392,2.468 L38.206,0.245 L32.866,0.245 L32.866,14.691 L38.515,14.691 L38.515,8.209 C38.515,5.832 39.872,4.936 42.063,4.936 C42.835,4.936 43.639,5.061 44.411,5.215 L44.442,0.122 C43.979,-0.002 43.484,-0.064 43.022,-0.064 C41.355,-0.063 39.782,0.738 38.392,2.468 L38.392,2.468 Z" id="Shape"></path>
                <path d="M55.617,7.685 C55.617,9.628 54.659,10.678 53.117,10.678 C51.758,10.678 50.926,9.875 50.926,8.3 L50.926,0.245 L45.277,0.245 L45.277,9.474 C45.277,12.932 47.531,15 50.71,15 C52.531,15 54.415,14.29 55.772,12.839 L55.927,14.692 L61.237,14.692 L61.237,0.246 L55.619,0.246 L55.619,7.685 L55.617,7.685 Z" id="Shape"></path>
                <path d="M70.188,10.586 C68.459,10.586 67.317,9.351 67.317,7.468 C67.317,5.615 68.428,4.381 70.064,4.381 C71.022,4.381 72.04,4.843 72.751,5.985 L76.64,3.145 C75.066,0.955 72.966,-0.064 70.035,-0.064 C65.405,-0.064 62.01,2.96 62.01,7.529 C62.01,11.913 65.281,15 69.911,15 C72.967,15 75.127,13.889 76.949,11.572 L73.091,8.857 C72.44,9.938 71.422,10.586 70.188,10.586 L70.188,10.586 Z" id="Shape"></path>
                <path d="M84.539,-0.063 C82.626,-0.063 80.187,0.399 78.335,1.111 L79.754,4.32 C80.928,3.919 82.316,3.579 83.55,3.579 C85.125,3.579 86.359,4.136 86.421,5.802 C85.34,5.338 84.106,5.092 82.871,5.092 C79.383,5.092 77.068,7.222 77.068,10.092 C77.068,13.057 78.982,15.001 82.871,15.001 C84.168,15.001 85.526,14.661 86.668,13.767 L86.884,14.693 L91.236,14.693 L91.236,5.648 C91.236,1.881 88.829,-0.063 84.539,-0.063 L84.539,-0.063 Z M86.329,10.865 C85.589,11.203 84.755,11.358 84.044,11.358 C82.594,11.358 81.822,10.924 81.822,10.028 C81.822,9.165 82.563,8.64 83.922,8.64 C84.693,8.64 85.589,8.886 86.329,9.257 L86.329,10.865 L86.329,10.865 Z" id="Shape"></path>
                <path d="M112.692,-0.063 C110.56,-0.063 108.524,0.863 107.257,2.344 C106.332,0.8 104.666,-0.063 102.629,-0.063 C100.838,-0.063 98.924,0.677 97.597,2.127 L97.443,0.245 L92.103,0.245 L92.103,14.691 L97.752,14.691 L97.752,7.252 C97.752,5.308 98.679,4.257 100.222,4.257 C101.579,4.257 102.413,5.061 102.413,6.634 L102.413,14.692 L108.061,14.692 L108.061,7.253 C108.061,5.309 108.986,4.258 110.56,4.258 C111.92,4.258 112.754,5.062 112.754,6.635 L112.754,14.693 L118.4,14.693 L118.4,5.494 C118.401,1.974 116.179,-0.063 112.692,-0.063 L112.692,-0.063 Z" id="Shape"></path>
                <path d="M128.867,-0.063 C127.294,-0.063 125.751,0.493 124.485,1.666 L124.299,0.246 L119.331,0.246 L119.331,21.391 L124.823,21.391 L124.823,18.304 C124.823,16.914 124.793,15.371 124.762,14.075 C125.871,14.722 127.2,15.001 128.682,15.001 C132.695,15.001 136.059,11.883 136.059,7.562 C136.061,3.084 133.097,-0.063 128.867,-0.063 L128.867,-0.063 Z M127.603,10.678 C126.552,10.678 125.472,10.214 124.824,9.444 L124.824,5.308 C125.565,4.629 126.585,4.257 127.603,4.257 C129.733,4.257 130.75,5.832 130.75,7.468 C130.75,9.104 129.733,10.678 127.603,10.678 L127.603,10.678 Z" id="Shape"></path>
                <path d="M148.188,12.674 L153.428,12.674 L153.428,14.67 L143.979,14.67 L148.862,8.756 C149.342,8.166 149.747,7.655 150.071,7.225 C150.395,6.793 150.643,6.431 150.813,6.14 C151.161,5.569 151.333,5.055 151.333,4.6 C151.333,3.944 151.103,3.394 150.642,2.95 C150.179,2.507 149.607,2.286 148.927,2.286 C147.507,2.286 146.691,3.127 146.486,4.809 L144.371,4.809 C144.711,1.845 146.209,0.362 148.863,0.362 C150.146,0.362 151.222,0.769 152.09,1.583 C152.965,2.398 153.402,3.407 153.402,4.609 C153.402,5.375 153.201,6.125 152.791,6.86 C152.586,7.243 152.283,7.698 151.885,8.223 C151.489,8.747 150.985,9.369 150.379,10.086 L148.188,12.674 L148.188,12.674 Z" id="Shape"></path>
                <path d="M155.826,7.543 C155.826,5.302 156.347,3.513 157.392,2.175 C158.328,0.966 159.46,0.362 160.79,0.362 C162.122,0.362 163.255,0.966 164.19,2.175 C165.235,3.513 165.758,5.332 165.758,7.635 C165.758,9.93 165.235,11.747 164.19,13.085 C163.254,14.293 162.124,14.897 160.799,14.897 C159.477,14.897 158.34,14.293 157.391,13.085 C156.348,11.747 155.826,9.9 155.826,7.543 L155.826,7.543 Z M157.92,7.553 C157.92,9.115 158.193,10.41 158.731,11.444 C159.272,12.459 159.96,12.965 160.797,12.965 C161.627,12.965 162.317,12.458 162.861,11.444 C163.408,10.435 163.679,9.163 163.679,7.626 C163.679,6.089 163.408,4.813 162.861,3.799 C162.316,2.79 161.627,2.286 160.797,2.286 C159.971,2.286 159.287,2.79 158.74,3.799 C158.195,4.8 157.92,6.052 157.92,7.553 L157.92,7.553 Z" id="Shape"></path>
                <path d="M170.17,2.595 L167.736,2.595 L168.902,0.599 L172.293,0.599 L172.293,14.67 L170.17,14.67 L170.17,2.595 L170.17,2.595 Z" id="Shape"></path>
                <path d="M184.359,10.742 L185.853,10.742 L185.853,12.674 L184.359,12.674 L184.359,14.67 L182.236,14.67 L182.236,12.674 L175.328,12.674 L184.359,-0.449 L184.359,10.742 L184.359,10.742 Z M182.236,10.742 L182.236,6.029 L178.99,10.742 L182.236,10.742 L182.236,10.742 Z" id="Shape"></path>
            </g>
        </g>
    </g>
</svg>