<?xml version="1.0" encoding="UTF-8" standalone="no"?>
<svg width="560px" height="178px" viewBox="0 0 560 178" version="1.1" xmlns="http://www.w3.org/2000/svg" xmlns:xlink="http://www.w3.org/1999/xlink" xmlns:sketch="http://www.bohemiancoding.com/sketch/ns">
    <!-- Generator: Sketch 3.0.1 (7597) - http://www.bohemiancoding.com/sketch -->
    <title>eurucamp-2014</title>
    <description>Created with Sketch.</description>
    <defs></defs>
    <g id="Page-1" stroke="none" stroke-width="1" fill="none" fill-rule="evenodd" sketch:type="MSPage">
        <g id="Logo" sketch:type="MSArtboardGroup" transform="translate(-232.000000, -168.000000)">
            <g id="eurucamp-2014" sketch:type="MSLayerGroup" transform="translate(232.000000, 164.000000)">
                <path d="M28.8603516,67.2216797 L4.69042969,67.2216797 C3.46972046,48.74828 9.28834717,33.6320575 22.1464844,21.8725586 C35.0046216,10.1130597 52.1349841,4.23339844 73.5380859,4.23339844 C93.0694336,4.23339844 108.694277,9.1975415 120.413086,19.1259766 C125.483092,23.4213979 129.456341,28.3793948 132.33285,34 L168.422418,34 C170.246961,31.5214128 172.232946,29.1472273 174.380371,26.8774414 C188.662669,11.7813373 207.440964,4.23339844 230.71582,4.23339844 C254.804482,4.23339844 273.623467,11.5168542 287.17334,26.0839844 C289.481662,28.5656041 291.593361,31.204275 293.508439,34 L329.061204,34 L329.061204,34 L352.674805,6.796875 L390.212891,6.796875 L390.212891,34 L453.208795,34 L453.208795,34 L477.688477,7.04101562 L536.160156,7.04101562 L536.160156,106.772461 L559.719727,106.772461 L559.719727,146.445312 L536.160156,146.445312 L536.160156,181.723633 L488.918945,181.723633 L488.918945,147 L390.212891,147 L390.212891,165 L341.750977,165 L341.750977,147 L284.576517,147 C270.709727,160.627669 252.512186,167.441406 229.983398,167.441406 C206.461214,167.441406 187.973115,160.62767 174.518583,147 L174.518583,147 L142.019531,147 L142.019531,165 L0.0517578125,165 L0.0517578125,161.459961 L30.2641602,133.87207 L60.4765625,106.28418 C71.3001843,96.1929834 78.7667438,87.8312506 82.8764648,81.1987305 C86.9861859,74.5662103 89.0410156,68.157583 89.0410156,61.9726563 C89.0410156,56.0318713 87.372738,51.3525562 84.0361328,47.9345703 C80.6995276,44.5165845 76.1829712,42.8076172 70.4863281,42.8076172 C64.2200208,42.8076172 59.5000159,44.984516 56.3261719,49.3383789 C53.1523279,53.6922418 52.0537061,59.6532825 53.0302734,67.2216797 L28.8603516,67.2216797 Z M489.051758,106 L489.051758,58.6817684 L489.051758,58.6817684 L459.468283,90.5 L473.879639,106 L489.051758,106 L489.051758,106 Z M202.761719,86.0205078 C202.761719,98.4717419 205.142066,108.379683 209.902832,115.744629 C214.663598,123.109575 221.438433,126.791992 230.227539,126.791992 C239.342168,126.791992 246.239072,123.190954 250.918457,115.98877 C255.597842,108.786585 257.9375,98.7972644 257.9375,86.0205078 C257.9375,73.8134155 255.455428,63.9258191 250.491211,56.3574219 C245.526993,48.7890247 238.772504,45.0048828 230.227539,45.0048828 C221.03153,45.0048828 214.154971,48.5855762 209.597656,55.7470703 C205.040342,62.9085645 202.761719,72.9996094 202.761719,86.0205078 Z" id="2014" fill="#FFB2D2" sketch:type="MSShapeGroup"></path>
                <path d="M84,44 L129.579455,90.5 L84,137 L489,137 L445.882152,90.5 L489,44 L84,44 Z" id="badge" fill="#FF006A" sketch:type="MSShapeGroup"></path>
                <path d="M152.008,107.66 C158.014,107.66 163.954,105.416 166.858,100.598 L159.268,95.384 C157.354,98.222 155.11,99.344 152.338,99.344 C149.236,99.344 146.398,97.496 146.068,94.13 L167.716,94.064 C167.848,93.14 167.848,92.282 167.848,91.424 C167.848,81.986 161.908,75.518 151.678,75.518 C141.976,75.518 134.98,82.316 134.98,91.82 C134.98,101.39 141.514,107.66 152.008,107.66 Z M151.744,83.042 C154.384,83.042 156.562,84.626 157.288,87.398 L146.2,87.398 C146.86,84.626 149.104,83.042 151.744,83.042 Z M204.726785,76.112 L192.714785,76.112 L192.714785,92.018 C192.714785,96.176 190.668785,98.42 187.368785,98.42 C184.464785,98.42 182.682785,96.704 182.682785,93.338 L182.682785,76.112 L170.604785,76.112 L170.604785,95.846 C170.604785,103.238 175.422785,107.66 182.220785,107.66 C186.114785,107.66 190.140785,106.142 193.044785,103.04 L193.374785,107 L204.726785,107 L204.726785,76.112 Z M210.71757,76.112 L210.71757,107 L222.79557,107 L222.79557,93.14 C222.79557,88.058 225.69957,86.144 230.38557,86.144 C232.03557,86.144 233.75157,86.408 235.40157,86.738 L235.46757,75.848 C234.47757,75.584 233.42157,75.452 232.43157,75.452 C228.86757,75.452 225.50157,77.168 222.53157,80.864 L222.13557,76.112 L210.71757,76.112 Z M271.686356,76.112 L259.674356,76.112 L259.674356,92.018 C259.674356,96.176 257.628356,98.42 254.328356,98.42 C251.424356,98.42 249.642356,96.704 249.642356,93.338 L249.642356,76.112 L237.564356,76.112 L237.564356,95.846 C237.564356,103.238 242.382356,107.66 249.180356,107.66 C253.074356,107.66 257.100356,106.142 260.004356,103.04 L260.334356,107 L271.686356,107 L271.686356,76.112 Z M306.717141,82.316 C303.351141,77.63 298.863141,75.452 292.593141,75.452 C282.693141,75.452 275.433141,81.92 275.433141,91.688 C275.433141,101.06 282.429141,107.66 292.329141,107.66 C298.863141,107.66 303.483141,105.284 307.377141,100.334 L299.127141,94.526 C297.741141,96.836 295.563141,98.222 292.923141,98.222 C289.227141,98.222 286.785141,95.582 286.785141,91.556 C286.785141,87.596 289.161141,84.956 292.659141,84.956 C294.705141,84.956 296.883141,85.946 298.401141,88.388 L306.717141,82.316 Z M329.405926,107 L338.711926,107 L338.711926,87.662 C338.711926,79.61 333.563926,75.452 324.389926,75.452 C320.297926,75.452 315.083926,76.442 311.123926,77.96 L314.159926,84.824 C316.667926,83.966 319.637926,83.24 322.277926,83.24 C325.643926,83.24 328.283926,84.428 328.415926,87.992 C326.105926,87.002 323.465926,86.474 320.825926,86.474 C313.367926,86.474 308.417926,91.028 308.417926,97.166 C308.417926,103.502 312.509926,107.66 320.825926,107.66 C323.597926,107.66 326.501926,106.934 328.943926,105.02 L329.405926,107 Z M323.333926,99.872 C320.231926,99.872 318.581926,98.948 318.581926,97.034 C318.581926,95.186 320.165926,94.064 323.069926,94.064 C324.719926,94.064 326.633926,94.592 328.217926,95.384 L328.217926,98.816 C326.633926,99.542 324.851926,99.872 323.333926,99.872 Z M343.712711,107 L355.790711,107 L355.790711,91.094 C355.790711,86.936 357.770711,84.692 361.070711,84.692 C363.974711,84.692 365.756711,86.408 365.756711,89.774 L365.756711,107 L377.834711,107 L377.834711,91.094 C377.834711,86.936 379.814711,84.692 383.180711,84.692 C386.084711,84.692 387.866711,86.408 387.866711,89.774 L387.866711,107 L399.944711,107 L399.944711,87.332 C399.944711,79.808 395.192711,75.452 387.734711,75.452 C383.180711,75.452 378.824711,77.432 376.118711,80.6 C374.138711,77.3 370.574711,75.452 366.218711,75.452 C362.390711,75.452 358.298711,77.036 355.460711,80.138 L355.130711,76.112 L343.712711,76.112 L343.712711,107 Z M425.339496,75.452 C421.973496,75.452 418.673496,76.64 415.967496,79.148 L415.571496,76.112 L404.945496,76.112 L404.945496,121.322 L416.693496,121.322 L416.693496,114.722 C416.693496,111.752 416.627496,108.452 416.561496,105.68 C418.937496,107.066 421.775496,107.66 424.943496,107.66 C433.523496,107.66 440.717496,100.994 440.717496,91.754 C440.717496,82.184 434.381496,75.452 425.339496,75.452 Z M422.633496,84.692 C427.187496,84.692 429.365496,88.058 429.365496,91.556 C429.365496,95.054 427.187496,98.42 422.633496,98.42 C420.389496,98.42 418.079496,97.43 416.693496,95.78 L416.693496,86.936 C418.277496,85.484 420.455496,84.692 422.633496,84.692 Z" id="eurucamp" fill="#FFFFFF" sketch:type="MSShapeGroup"></path>
            </g>
        </g>
    </g>
</svg>