<?xml version="1.0" encoding="UTF-8" standalone="no"?>
<svg width="560px" height="178px" viewBox="0 0 560 178" version="1.1" xmlns="http://www.w3.org/2000/svg" xmlns:xlink="http://www.w3.org/1999/xlink" xmlns:sketch="http://www.bohemiancoding.com/sketch/ns">
    <!-- Generator: Sketch 3.0.1 (7597) - http://www.bohemiancoding.com/sketch -->
    <title>eurucamp-2014</title>
    <description>Created with Sketch.</description>
    <defs>
        <path id="path-1" d="M-2.84217094e-14,162 L-2.84217094e-14,158.454822 L60.4385211,103.198937 C71.2645998,93.0930904 78.7328542,84.7192182 82.8435082,78.0770691 C86.9541621,71.43492 89.0094583,65.0169887 89.0094583,58.8230828 C89.0094583,52.8736731 87.340802,48.1875646 84.0034394,44.7646166 C80.6660767,41.3416685 76.1484951,39.6302202 70.4505589,39.6302202 C64.1828291,39.6302202 59.4617528,41.8102794 56.2871883,46.1704632 C53.1126239,50.530647 52.0137526,56.5003418 52.9905417,64.0797267 L4.63972485,64.0797267 C3.41873852,45.5795076 4.63972374,0.113282942 4.63972374,0.113282942 L534.519528,0.113282942 L534.519531,162.000002 L142,162 L-2.84217094e-14,162 Z"></path>
    </defs>
    <g id="Page-1" stroke="none" stroke-width="1" fill="none" fill-rule="evenodd" sketch:type="MSPage">
        <g id="Logo" sketch:type="MSArtboardGroup" transform="translate(-232.000000, -168.000000)">
            <g id="eurucamp-2014" sketch:type="MSLayerGroup" transform="translate(232.000000, 167.000000)">
                <path d="M453.414542,103 L459.601731,93.5609396 L450.84375,82.9882812 L489.539062,44.6914063 L489.539063,45.7671225 C489.577782,45.6912893 489.615217,45.6172224 489.651367,45.5449219 L489.539062,47.4541016 L489.539062,103 L453.414542,103 Z M390.212891,100.376131 L390.212891,3.796875 L352.674805,3.796875 L316.859375,45.0566406 L341.750977,45.0566406 L341.750977,162 L390.212891,162 L390.212891,109.743336 L407.620117,143.445312 L488.918945,143.445312 L488.918945,178.723633 L536.160156,178.723633 L536.160156,143.445312 L559.719727,143.445312 L559.719727,103.772461 L536.160156,103.772461 L536.160156,4.04101562 L477.688477,4.04101562 L390.212891,100.376131 L390.212891,100.376131 Z M0.0517578125,162 L0.0517578125,158.459961 L60.4765625,103.28418 C71.3001843,93.1929834 78.7667438,84.8312506 82.8764648,78.1987305 C86.9861859,71.5662103 89.0410156,65.157583 89.0410156,58.9726562 C89.0410156,53.0318713 87.372738,48.3525562 84.0361328,44.9345703 C80.6995276,41.5165845 76.1829712,39.8076172 70.4863281,39.8076172 C64.2200208,39.8076172 59.5000159,41.984516 56.3261719,46.3383789 C53.1523279,50.6922418 52.0537061,56.6532825 53.0302734,64.2216797 L4.69042969,64.2216797 C3.46972046,45.74828 9.28834717,30.6320575 22.1464844,18.8725586 C35.0046216,7.11305969 52.1349841,1.23339844 73.5380859,1.23339844 C93.0694336,1.23339844 108.694277,6.1975415 120.413086,16.1259766 C132.131895,26.0544116 137.991211,39.5227014 137.991211,56.53125 C137.991211,67.11073 135.753278,76.6117743 131.277344,85.034668 C126.80141,93.4575616 118.70416,102.877227 106.985352,113.293945 L97.9521484,120.984375 L142.019531,120.984375 L142.019531,162 L0.0517578125,162 Z M152.957031,83.0205078 C152.957031,58.6877039 160.098073,38.9735455 174.380371,23.8774414 C188.662669,8.78133728 207.440964,1.23339844 230.71582,1.23339844 C254.804482,1.23339844 273.623467,8.51685425 287.17334,23.0839844 C300.723212,37.6511145 307.498047,57.6297559 307.498047,83.0205078 C307.498047,107.597454 300.458729,127.311612 286.379883,142.163574 C272.301036,157.015536 253.502396,164.441406 229.983398,164.441406 C205.731975,164.441406 186.831611,157.19864 173.281738,142.712891 C159.731866,128.227141 152.957031,108.329879 152.957031,83.0205078 Z M202.761719,83.0205078 C202.761719,95.4717419 205.142066,105.379683 209.902832,112.744629 C214.663598,120.109575 221.438433,123.791992 230.227539,123.791992 C239.342168,123.791992 246.239072,120.190954 250.918457,112.98877 C255.597842,105.786585 257.9375,95.7972644 257.9375,83.0205078 C257.9375,70.8134155 255.455428,60.9258191 250.491211,53.3574219 C245.526993,45.7890247 238.772504,42.0048828 230.227539,42.0048828 C221.03153,42.0048828 214.154971,45.5855762 209.597656,52.7470703 C205.040342,59.9085645 202.761719,69.9996094 202.761719,83.0205078 Z M390.212891,100.376131 L390.212891,109.743336 L387.128906,103.772461 L390.212891,100.376131 L390.212891,100.376131 Z" id="2014" fill="#FFB2D2" sketch:type="MSShapeGroup"></path>
                <g id="Badge">
                    <mask id="mask-2" sketch:name="Path 3" fill="white">
                        <use xlink:href="#path-1"></use>
                    </mask>
                    <use id="Path-3" sketch:type="MSShapeGroup" xlink:href="#path-1"></use>
                    <path d="M60,31 L115.530765,87.5 L60,144 L512,144 L459.468283,87.5 L512,31 L60,31 Z" id="Rectangle-25" stroke="#FFB2D2" stroke-width="10" fill="#FF006A" sketch:type="MSShapeGroup" mask="url(#mask-2)"></path>
                </g>
                <path d="M152.008,104.66 C158.014,104.66 163.954,102.416 166.858,97.598 L159.268,92.384 C157.354,95.222 155.11,96.344 152.338,96.344 C149.236,96.344 146.398,94.496 146.068,91.13 L167.716,91.064 C167.848,90.14 167.848,89.282 167.848,88.424 C167.848,78.986 161.908,72.518 151.678,72.518 C141.976,72.518 134.98,79.316 134.98,88.82 C134.98,98.39 141.514,104.66 152.008,104.66 Z M151.744,80.042 C154.384,80.042 156.562,81.626 157.288,84.398 L146.2,84.398 C146.86,81.626 149.104,80.042 151.744,80.042 Z M204.726785,73.112 L192.714785,73.112 L192.714785,89.018 C192.714785,93.176 190.668785,95.42 187.368785,95.42 C184.464785,95.42 182.682785,93.704 182.682785,90.338 L182.682785,73.112 L170.604785,73.112 L170.604785,92.846 C170.604785,100.238 175.422785,104.66 182.220785,104.66 C186.114785,104.66 190.140785,103.142 193.044785,100.04 L193.374785,104 L204.726785,104 L204.726785,73.112 Z M210.71757,73.112 L210.71757,104 L222.79557,104 L222.79557,90.14 C222.79557,85.058 225.69957,83.144 230.38557,83.144 C232.03557,83.144 233.75157,83.408 235.40157,83.738 L235.46757,72.848 C234.47757,72.584 233.42157,72.452 232.43157,72.452 C228.86757,72.452 225.50157,74.168 222.53157,77.864 L222.13557,73.112 L210.71757,73.112 Z M271.686356,73.112 L259.674356,73.112 L259.674356,89.018 C259.674356,93.176 257.628356,95.42 254.328356,95.42 C251.424356,95.42 249.642356,93.704 249.642356,90.338 L249.642356,73.112 L237.564356,73.112 L237.564356,92.846 C237.564356,100.238 242.382356,104.66 249.180356,104.66 C253.074356,104.66 257.100356,103.142 260.004356,100.04 L260.334356,104 L271.686356,104 L271.686356,73.112 Z M306.717141,79.316 C303.351141,74.63 298.863141,72.452 292.593141,72.452 C282.693141,72.452 275.433141,78.92 275.433141,88.688 C275.433141,98.06 282.429141,104.66 292.329141,104.66 C298.863141,104.66 303.483141,102.284 307.377141,97.334 L299.127141,91.526 C297.741141,93.836 295.563141,95.222 292.923141,95.222 C289.227141,95.222 286.785141,92.582 286.785141,88.556 C286.785141,84.596 289.161141,81.956 292.659141,81.956 C294.705141,81.956 296.883141,82.946 298.401141,85.388 L306.717141,79.316 Z M329.405926,104 L338.711926,104 L338.711926,84.662 C338.711926,76.61 333.563926,72.452 324.389926,72.452 C320.297926,72.452 315.083926,73.442 311.123926,74.96 L314.159926,81.824 C316.667926,80.966 319.637926,80.24 322.277926,80.24 C325.643926,80.24 328.283926,81.428 328.415926,84.992 C326.105926,84.002 323.465926,83.474 320.825926,83.474 C313.367926,83.474 308.417926,88.028 308.417926,94.166 C308.417926,100.502 312.509926,104.66 320.825926,104.66 C323.597926,104.66 326.501926,103.934 328.943926,102.02 L329.405926,104 Z M323.333926,96.872 C320.231926,96.872 318.581926,95.948 318.581926,94.034 C318.581926,92.186 320.165926,91.064 323.069926,91.064 C324.719926,91.064 326.633926,91.592 328.217926,92.384 L328.217926,95.816 C326.633926,96.542 324.851926,96.872 323.333926,96.872 Z M343.712711,104 L355.790711,104 L355.790711,88.094 C355.790711,83.936 357.770711,81.692 361.070711,81.692 C363.974711,81.692 365.756711,83.408 365.756711,86.774 L365.756711,104 L377.834711,104 L377.834711,88.094 C377.834711,83.936 379.814711,81.692 383.180711,81.692 C386.084711,81.692 387.866711,83.408 387.866711,86.774 L387.866711,104 L399.944711,104 L399.944711,84.332 C399.944711,76.808 395.192711,72.452 387.734711,72.452 C383.180711,72.452 378.824711,74.432 376.118711,77.6 C374.138711,74.3 370.574711,72.452 366.218711,72.452 C362.390711,72.452 358.298711,74.036 355.460711,77.138 L355.130711,73.112 L343.712711,73.112 L343.712711,104 Z M425.339496,72.452 C421.973496,72.452 418.673496,73.64 415.967496,76.148 L415.571496,73.112 L404.945496,73.112 L404.945496,118.322 L416.693496,118.322 L416.693496,111.722 C416.693496,108.752 416.627496,105.452 416.561496,102.68 C418.937496,104.066 421.775496,104.66 424.943496,104.66 C433.523496,104.66 440.717496,97.994 440.717496,88.754 C440.717496,79.184 434.381496,72.452 425.339496,72.452 Z M422.633496,81.692 C427.187496,81.692 429.365496,85.058 429.365496,88.556 C429.365496,92.054 427.187496,95.42 422.633496,95.42 C420.389496,95.42 418.079496,94.43 416.693496,92.78 L416.693496,83.936 C418.277496,82.484 420.455496,81.692 422.633496,81.692 Z" id="eurucamp" fill="#FFFFFF" sketch:type="MSShapeGroup"></path>
            </g>
        </g>
    </g>
</svg>