<?xml version="1.0" encoding="UTF-8" standalone="no"?>
<svg width="181px" height="104px" viewBox="0 0 181 104" version="1.1" xmlns="http://www.w3.org/2000/svg" xmlns:xlink="http://www.w3.org/1999/xlink" xmlns:sketch="http://www.bohemiancoding.com/sketch/ns">
    <!-- Generator: Sketch 3.0.4 (8053) - http://www.bohemiancoding.com/sketch -->
    <title>logo-2</title>
    <desc>Created with Sketch.</desc>
    <defs></defs>
    <g id="Page-1" stroke="none" stroke-width="1" fill="none" fill-rule="evenodd" sketch:type="MSPage">
        <path d="M141.875023,46.1672898 C140.283863,47.5721754 138.230018,49.2612901 135.884026,50.9504048 C131.543591,54.2057308 125.756345,57.8227598 121.89818,59.9929771 C118.160584,65.6596557 113.337879,72.411443 109.72085,76.993013 C99.9548717,89.2909113 87.8981086,97.6100778 78.6144011,101.709377 C75.3590751,103.276756 72.103749,104.000162 69.5718288,104.000162 C65.3519617,104.000162 62.9406091,102.432783 63.1817444,98.9363218 C63.4228796,91.5816963 76.2030485,82.2979887 87.0541352,75.7873367 C98.3874925,68.9149818 104.174739,66.865332 112.132202,61.8014916 C114.422987,58.7873008 118.88399,52.2766487 120.813072,49.3830256 L120.692504,49.262458 C117.437178,52.0355135 111.891067,56.1348129 106.465524,56.1348129 C102.60736,56.2553806 99.834304,55.0497043 99.9548717,51.4326753 C100.075439,49.5035932 101.522251,46.8511054 103.692468,44.5603204 L103.571901,44.4397528 C103.451333,44.5603204 102.727927,45.1631585 102.245657,45.5248614 C102.054043,45.7164752 101.870888,45.8742529 101.700674,45.9981945 C100.539133,47.0068767 99.1618936,48.1472176 97.7846543,49.1418904 C96.0967075,50.3475667 94.5293283,51.1915401 92.6002462,51.3121077 C91.6357052,51.3121077 90.4300289,51.0709724 89.9477583,50.7092696 C86.813,53.1206222 79.8200774,56.1348129 74.8768045,56.1348129 C68.848423,56.1348129 66.4370704,53.7234603 66.3165028,50.3475667 C66.3165028,48.0567817 67.4016114,45.6454291 69.5718288,43.4752117 L69.4512612,43.3546441 C68.848423,43.8369146 68.2455849,44.3191851 67.4016114,45.1631585 C66.9979903,45.5264176 66.6889526,45.7950932 66.4428349,45.978232 L66.4428349,45.978232 C58.8763497,53.3263898 54.0303688,56.7376511 46.5434114,56.7376511 C42.4441119,56.7376511 38.7065154,55.8936777 34.4866483,54.3262985 C30.2667812,52.7589193 25.444076,50.7092696 23.5149939,50.3475667 C19.7773974,53.1206222 14.4724216,56.3759482 7.23836382,56.4965158 C2.29509097,56.6170834 -0.116261644,55.5319748 0.0043059868,53.7234603 C0.124873617,49.7447285 10.6142575,46.971673 17.9688829,46.8511054 C20.9830737,46.7305377 23.0327234,46.971673 24.479535,47.0922406 C30.5079165,41.0638591 33.6426749,32.0212868 38.9476506,24.787229 C31.7135928,23.2198498 25.3235084,18.9999827 25.3235084,12.8510336 L25.3235084,12.7304659 C25.3235084,6.70208442 31.7135928,0.312 43.0469501,0.312 C51.9689547,0.312 57.8767686,3.32619076 62.0966357,6.82265205 C65.1108265,5.73754337 69.3306935,5.01413759 73.3094253,5.01413759 C80.5434832,4.89356996 86.9335676,8.14889598 86.2101618,13.4538717 C85.1250531,21.4113353 70.0540993,25.1489319 60.4086889,26.2340406 C56.4299571,26.5957435 52.0895224,26.5957435 48.4724935,26.2340406 C40.7561651,37.8085331 31.5930252,44.5603204 27.0114552,47.5745112 C28.699402,47.8156464 32.4369986,48.7801875 37.5008391,50.1064314 C40.7561651,50.9504048 45.3377351,51.6738106 47.5079524,51.6738106 C54.3452047,51.6738106 59.7823109,50.2736646 66.1605732,44.7248875 C66.1723535,44.7102931 66.1841443,44.6956266 66.1959351,44.680888 C67.2810438,43.5957794 68.7278554,42.5106707 70.1746669,41.425562 C71.3803432,40.5815886 73.1888577,39.3759123 75.2385074,38.2908036 C78.7349687,36.3617215 84.2810797,34.0709365 88.6215144,34.0709365 C90.1888936,34.0709365 91.3945699,34.1915042 91.3945699,34.7943423 C91.3945699,35.0354776 90.6711641,35.1560452 89.7066231,35.6383157 C86.9335676,36.9645597 84.2810797,39.134777 81.0257537,42.2695354 C77.7704277,45.5248614 74.1533987,50.5887019 74.1533987,53.2411898 C74.0328311,54.0851632 74.5151016,54.9291366 75.7207779,54.9291366 C78.4938334,54.9291366 83.6782416,51.3121077 87.5364057,47.3333759 C87.5364057,46.007132 87.8981086,44.1986175 89.4654878,41.9078325 C90.7917318,39.9787504 92.359111,39.0142094 93.4442196,38.2908036 C93.5647873,37.6879655 93.4442196,36.7234244 93.4442196,36.2411539 C93.2030844,35.1560452 92.7208138,34.7943423 93.0825167,34.5532071 C93.4442196,34.3120718 94.7704636,34.6737747 95.7350046,35.3971805 C96.9406809,36.2411539 97.905222,37.6879655 97.905222,39.6170475 C97.7846543,42.5106707 95.0115988,46.4894025 91.032867,49.8652961 C91.3945699,50.1064314 92.2385433,50.1064314 92.7208138,50.1064314 C94.1676254,49.9858638 95.7350046,49.262458 97.3023838,48.1773493 C99.4726012,46.6099701 101.281116,44.9220233 102.486792,43.8369146 C102.832795,43.4909119 103.123633,43.2276552 103.3725,43.0867216 L103.3725,43.0867216 C104.285561,42.3213623 105.266737,41.5965487 106.103821,41.0638591 C108.274038,39.4964799 110.564823,38.170236 113.699582,36.843992 C117.075475,35.2766128 121.536478,33.8298013 125.515209,34.0709365 C128.891103,34.1915042 129.735076,36.4822892 129.373374,38.170236 L129.493941,38.170236 C132.6287,34.91491 133.352105,34.4326394 137.089702,34.4326394 C140.345028,34.4326394 140.586163,35.0354776 139.621622,36.2411539 C137.451405,38.7730741 135.64289,41.1844267 133.231538,44.3191851 C131.181888,46.971673 126.841453,53.0000545 123.224424,57.8227598 C126.118047,56.2553806 132.869835,51.9149459 136.366296,49.262458 C138.515758,47.5224176 140.491431,45.8692713 142.072012,44.5243239 C142.350661,44.2558794 142.670855,43.9711017 143.018139,43.6772179 C143.124824,43.5678756 143.238777,43.4741681 143.353792,43.3971303 C144.142572,42.7474723 145.037825,42.0655474 145.891139,41.425562 C147.096815,40.5815886 148.90533,39.4964799 150.834412,38.4113712 C154.451441,36.3617215 160.118119,34.3120718 164.579122,34.0709365 C166.025933,33.9503689 168.437286,33.9503689 170.366368,34.7943423 C170.969206,35.0354776 171.692612,35.5177481 172.054315,35.7588834 C173.862829,36.843992 175.189073,37.2056949 177.35929,37.0851273 C179.167805,36.9645597 180.614616,36.3617215 181.94086,35.3971805 C182.423131,35.0354776 182.784834,34.7943423 182.905401,35.0354776 C183.146537,35.3971805 182.905401,35.6383157 182.423131,36.1205863 C181.338022,37.0851273 179.40894,38.170236 177.35929,38.2908036 C175.068505,38.4113712 173.742262,37.9291007 173.139423,37.5673978 C173.380559,38.170236 173.501126,39.2553447 173.380559,39.9787504 C173.139423,43.5957794 170.125233,47.3333759 166.025933,50.4681343 C162.408904,53.4823251 155.536549,56.1348129 150.593276,56.1348129 L150.472709,56.1348129 C144.564895,56.1348129 142.032975,53.7234603 142.032975,50.3475667 C142.032975,48.0567817 143.118083,45.6454291 145.288301,43.4752117 L145.167733,43.3546441 C144.564895,43.8369146 143.600354,44.680888 143.118083,45.1631585 C142.541465,45.6821152 142.157885,46.0080331 141.875023,46.1672898 Z M49.0753316,25.1489319 C53.5363339,18.7588475 58.1179039,13.2127365 62.337771,10.3191133 C62.9406091,10.9219515 63.9051502,12.0070602 64.5079883,13.2127365 C66.3165028,16.3474949 65.9547999,17.4326035 66.3165028,17.4326035 C66.557638,17.4326035 66.9193409,15.7446567 66.0753675,12.9716012 C65.593097,11.2836544 64.8696912,10.0779781 64.1462854,9.11343703 C66.557638,7.30492257 70.6569375,5.97867863 73.9122635,5.97867863 C78.4938334,5.97867863 82.3519976,8.14889598 81.8697271,12.4893307 C80.7846184,19.7233885 67.2810438,23.9432556 60.5292565,24.787229 C56.3093894,25.2694995 52.6923605,25.5106348 49.0753316,25.1489319 Z M26.5291847,12.7304659 C26.5291847,7.4254902 32.1958633,2.72335261 42.4441119,2.72335261 C50.8838461,2.72335261 56.4299571,5.25527285 59.8058507,7.54605783 C54.3803073,9.47513992 46.3022761,14.1772775 39.6710564,23.8226879 C33.0398367,22.3758764 26.5291847,18.2765769 26.5291847,12.8510336 L26.5291847,12.7304659 Z M21.7064795,49.7447285 C18.5717211,52.6383516 13.2667453,54.9291366 9.16744591,55.0497043 C6.87666093,55.1702719 5.42984936,54.4468661 5.30928173,53.1206222 C5.1887141,50.7092696 9.28801354,48.7801875 13.1461777,48.6596198 C16.2809361,48.5390522 19.0539916,49.0213227 21.7064795,49.7447285 Z M66.4428349,45.978232 C66.7964906,45.6347809 67.1560895,45.2827292 67.5221791,44.9220233 C68.2455849,44.3191851 68.9689906,43.5957794 68.6072877,43.2340765 C68.2455849,42.8723736 67.6427467,43.4752117 67.2810438,43.716347 C66.9040785,44.0668586 66.5307409,44.4028596 66.1605732,44.7248875 C65.6905153,45.3072358 65.2372895,45.7748398 65.4725294,46.1276996 C65.7131459,46.3683161 65.9537625,46.3421561 66.4428349,45.978232 L66.4428349,45.978232 Z M103.3725,43.0867216 C103.643953,42.9329981 103.86547,42.9248073 104.054171,43.1135088 C104.415874,43.3546441 104.174739,43.8369146 103.451333,44.4397528 C102.966735,44.8802961 102.369458,45.4174219 101.700674,45.9981945 C101.228272,46.3421737 100.855541,46.4255312 100.678277,46.2482672 C100.437142,45.8865643 100.919413,45.2837262 101.883954,44.4397528 C102.328645,43.9950616 102.838942,43.5339689 103.3725,43.0867216 L103.3725,43.0867216 Z M111.047094,63.9717089 C108.635741,67.3476026 105.13928,72.411443 100.196007,78.5603922 C90.6711641,90.7377229 83.9193768,97.0072397 78.1321306,100.262566 C75.6002103,101.709377 72.4654519,102.794486 70.5363698,102.312215 C69.3306935,101.950513 68.6072877,100.865404 68.7278554,98.9363218 C69.3306935,92.666805 78.1321306,84.3476385 88.2598115,77.5958512 C99.4726012,70.1206581 104.898145,67.8298731 111.047094,63.9717089 Z M126.118047,35.3971805 C127.444291,35.3971805 128.408832,36.0000186 128.288265,37.5673978 C128.167697,39.4964799 123.586127,44.9220233 119.848531,48.2979169 C116.593205,51.3121077 112.011635,53.9645956 109.72085,53.9645956 C108.876876,53.9645956 108.274038,53.6028927 108.153471,52.7589193 C107.912335,51.1915401 110.20312,47.8156464 114.78469,43.2340765 C119.245693,38.8936418 123.706695,35.3971805 125.99748,35.3971805 L126.118047,35.3971805 Z M141.875023,46.1672898 C142.328225,45.7671428 142.743892,45.390054 143.118083,45.0425909 C143.962057,44.3191851 144.564895,43.5957794 144.32376,43.2340765 C144.154568,43.0648848 143.747951,43.1331185 143.353792,43.3971303 C143.239523,43.4912452 143.127488,43.584683 143.018139,43.6772179 C142.969358,43.7272143 142.922096,43.7804795 142.876948,43.8369146 C142.621976,44.0554624 142.353248,44.2850144 142.072012,44.5243239 C142.017164,44.5771631 141.963926,44.6293696 141.912407,44.680888 C141.430137,45.2837262 140.947866,45.7659967 141.189001,46.1276996 C141.377719,46.3164169 141.566436,46.3410298 141.875023,46.1672898 Z M151.43725,54.9291366 C150.231574,54.9291366 149.749303,54.0851632 149.869871,53.2411898 C149.990438,50.5887019 153.4869,45.5248614 156.742226,42.2695354 C159.876984,39.2553447 162.770607,36.9645597 165.423095,35.6383157 C167.352177,34.6737747 169.281259,35.1560452 169.281259,36.843992 C169.281259,37.9291007 168.919556,39.4964799 168.075583,40.9432915 C167.23161,42.6312383 165.423095,45.2837262 162.65004,47.9362141 C158.791875,51.6738106 153.96917,54.9291366 151.557818,54.9291366 L151.43725,54.9291366 Z" id="logo-2" fill="#FFFFFF" sketch:type="MSShapeGroup"></path>
    </g>
</svg>