<?xml version="1.0" encoding="UTF-8" standalone="no"?>
<svg width="189px" height="76px" viewBox="0 0 189 76" version="1.1" xmlns="http://www.w3.org/2000/svg" xmlns:xlink="http://www.w3.org/1999/xlink" xmlns:sketch="http://www.bohemiancoding.com/sketch/ns">
    <!-- Generator: Sketch 3.0.4 (8053) - http://www.bohemiancoding.com/sketch -->
    <title>logo-1</title>
    <desc>Created with Sketch.</desc>
    <defs></defs>
    <g id="Page-1" stroke="none" stroke-width="1" fill="none" fill-rule="evenodd" sketch:type="MSPage">
        <path d="M1.32,52.3025294 C1.32,52.3025294 15.72,52.2305294 39.408,52.6625294 C39.408,52.6625294 39.336,48.3425294 39.48,40.7105294 C39.48,40.7105294 31.416,40.7825294 15.72,40.4945294 C15.288,11.6945294 15.432,2.91052937 15.432,2.91052937 C5.352,3.05452937 0.888,2.91052937 0.888,2.91052937 C1.248,25.8065294 1.32,52.3025294 1.32,52.3025294 Z M65.256,53.7425294 C77.784,53.7425294 89.088,47.8385294 89.088,34.0145294 C89.16,21.6305294 79.08,14.6465294 65.04,14.6465294 C51.792,14.6465294 41.496,21.3425294 41.568,33.5825294 C41.568,47.3345294 51.648,53.7425294 65.256,53.7425294 Z M65.4,44.0225294 C59.496,44.0225294 56.4,39.8465294 56.4,33.5105294 C56.4,27.5345294 60.216,24.1505294 65.472,24.1505294 C71.448,24.1505294 74.256,28.6145294 74.256,33.7985294 C74.256,40.7825294 70.224,44.0225294 65.4,44.0225294 Z M113.568,74.2625294 C126.24,74.2625294 138.912,69.8705294 138.912,60.5825294 C138.912,53.5265294 133.368,49.5665294 119.4,49.0625294 C110.976,48.7745294 108.888,47.9105294 108.888,46.4705294 C108.888,45.8945294 109.104,45.3905294 109.536,44.9585294 C111.408,45.1745294 113.28,45.3185294 115.296,45.3185294 C125.952,45.3185294 136.608,41.2145294 136.608,30.3425294 C136.608,23.9345294 133.8,19.7585294 129.264,17.1665294 C134.016,10.8305294 137.76,6.43852937 137.76,6.43852937 C129.264,2.83852937 123,-0.0414706278 123,-0.0414706278 C121.632,6.29452937 120.264,11.4065294 119.472,14.3585294 C117.888,14.1425294 116.232,14.0705294 114.576,14.0705294 C103.272,14.0705294 93.336,18.6785294 93.264,29.8385294 C93.264,36.2465294 96.792,40.4945294 102.048,42.8705294 C97.584,44.3825294 94.704,46.8305294 94.704,50.3585294 C94.704,53.2385294 97.512,55.9025294 101.832,56.7665294 C95.424,57.7025294 92.256,60.3665294 92.256,64.6145294 C92.256,71.0945294 101.04,74.2625294 113.568,74.2625294 Z M114.72,37.3265294 C110.4,37.3265294 107.52,34.5905294 107.52,30.4145294 C107.52,26.7425294 109.896,23.6465294 114.72,23.6465294 C119.328,23.6465294 121.992,26.4545294 121.992,30.3425294 C121.992,34.9505294 118.752,37.3265294 114.72,37.3265294 Z M125.016,63.2465294 C125.016,65.1905294 122.064,66.5585294 116.448,66.5585294 C110.904,66.5585294 107.448,65.3345294 107.448,62.6705294 C107.448,61.3745294 108.384,60.1505294 110.184,59.2865294 C122.856,59.5745294 125.016,61.0865294 125.016,63.2465294 Z M164.184,15.7985294 C149.712,15.7985294 140.352,22.7105294 140.352,34.8065294 C140.28,45.8225294 149.568,53.4545294 164.4,53.4545294 C177.864,53.4545294 187.944,47.1185294 187.872,35.2385294 C187.872,21.1265294 177.144,15.7985294 164.184,15.7985294 Z M164.04,25.5185294 C169.8,25.5185294 173.04,29.1905294 173.04,35.3105294 C173.04,40.5665294 169.44,43.9505294 163.968,43.9505294 C158.568,43.9505294 155.184,40.2065294 155.184,35.0225294 C155.184,28.9745294 158.856,25.5185294 164.04,25.5185294 Z" id="logo-1" fill="#FFFFFF" sketch:type="MSShapeGroup"></path>
    </g>
</svg>