<?xml version="1.0" encoding="UTF-8" standalone="no"?>
<svg width="193px" height="30px" viewBox="0 0 193 30" version="1.1" xmlns="http://www.w3.org/2000/svg" xmlns:xlink="http://www.w3.org/1999/xlink" xmlns:sketch="http://www.bohemiancoding.com/sketch/ns">
    <!-- Generator: Sketch 3.0.4 (8053) - http://www.bohemiancoding.com/sketch -->
    <title>logo-4</title>
    <desc>Created with Sketch.</desc>
    <defs></defs>
    <g id="Page-1" stroke="none" stroke-width="1" fill="none" fill-rule="evenodd" sketch:type="MSPage">
        <path d="M56.3804627,14.3116041 C56.3804627,13.6683859 55.9945318,13.4110986 55.57644,13.4110986 L43.8377086,13.4110986 C43.2909731,13.4110986 43.1301686,14.0543168 43.1301686,14.3759259 L43.1301686,18.0422694 L24.5090028,18.0422694 L24.5090028,6.07841162 L31.7773681,6.07841162 C32.1954599,6.07841162 32.4205862,5.82112435 32.4205862,5.43519346 L32.4205862,0.868344517 C32.4205862,0.225126356 32.0346553,0 31.5522417,0 L1.1280227,0 C0.64560908,0 0.388321816,0.225126356 0.388321816,0.546735436 L0.388321816,5.49951527 C0.388321816,5.82112435 0.64560908,6.07841162 1.03153998,6.07841162 L8.13910065,6.07841162 L8.13910065,18.0422694 L1.16018361,18.0422694 C0.516965448,18.0422694 0.324,18.3638785 0.324,18.6211657 L0.324,23.4774629 C0.324,23.8955547 0.64560908,24.120681 0.967218161,24.120681 L55.6729227,24.120681 C55.9945318,24.120681 56.3804627,23.8955547 56.3804627,23.3166583 L56.3804627,14.3116041 Z M81.3694882,24.1850028 C85.0036708,24.1850028 99.1223095,23.4774629 99.1223095,15.6302013 C99.1223095,9.03721516 86.9333253,6.88243432 81.1443619,6.88243432 L77.4780184,6.88243432 C68.6980905,6.88243432 58.3101172,9.13369788 58.3101172,15.4693968 C58.3101172,20.1005675 65.6749651,24.1850028 76.5775129,24.1850028 L81.3694882,24.1850028 Z M78.8930983,11.6744096 C81.2730055,11.6744096 84.585579,13.0251678 84.585579,15.5658795 C84.585579,18.0101085 81.8519019,19.4573494 78.8930983,19.4573494 C75.7413293,19.4573494 73.3292612,17.849304 73.3292612,15.5658795 C73.3292612,13.0894896 76.191582,11.6744096 78.8930983,11.6744096 Z M117.389705,6.88243432 C115.460051,6.88243432 101.727343,7.30052612 101.727343,12.3819496 C101.727343,14.4724086 105.393687,15.9196495 106.133387,16.1447758 C105.007756,16.787994 101.663021,18.3638785 101.663021,20.4221766 C101.663021,22.4804747 104.203733,23.413141 104.621825,23.7990719 C103.624837,24.3136465 101.727343,24.9568646 101.727343,26.4362664 C101.727343,27.9156682 104.879112,29.2985872 106.776606,29.2985872 L138.969675,29.2985872 C140.545559,29.2985872 148.939556,28.1086336 148.939556,23.8955547 C148.939556,19.6181539 141.413904,19.0392576 136.621928,19.0392576 L112.758534,19.0392576 C112.276121,19.0392576 110.82888,18.878453 110.82888,18.2352349 C110.82888,17.7206603 111.118328,17.3668903 111.311294,17.1739249 L125.494254,17.1739249 C129.578689,17.1739249 137.908365,15.5337186 137.908365,12.2211451 C137.908365,11.899536 137.779721,11.5779269 137.683238,11.3849614 C138.10133,11.0311915 139.677214,10.3879733 140.256111,10.2271688 C140.256111,10.7095824 140.963651,13.5719032 144.758638,13.5719032 C148.071211,13.5719032 148.939556,11.191996 148.939556,10.3879733 C148.939556,8.94073243 148.00689,6.88243432 144.694316,6.88243432 C141.381743,6.88243432 138.487261,7.30052612 135.914388,9.06937606 C132.151562,7.33268703 126.652047,6.88243432 121.699267,6.88243432 L117.389705,6.88243432 Z M126.909334,24.5066119 C128.90331,24.5066119 134.306343,24.474451 134.306343,25.5036001 C134.306343,26.4041055 132.730458,26.4362664 129.289241,26.4362664 L110.185662,26.4362664 C108.802743,26.4362664 107.966559,26.21114 107.966559,25.5679219 C107.966559,24.9247037 108.481134,24.6352555 108.834904,24.5066119 L126.909334,24.5066119 Z M120.091221,10.2914906 C122.374646,10.2914906 124.561588,10.6130996 124.561588,12.0603405 C124.561588,13.282455 122.85706,13.5075814 120.155543,13.5075814 C117.421866,13.5075814 115.717338,13.2181332 115.717338,12.0603405 C115.717338,10.7095824 117.164579,10.2914906 120.091221,10.2914906 Z M173.992903,24.1850028 C177.627086,24.1850028 191.745725,23.4774629 191.745725,15.6302013 C191.745725,9.03721516 179.55674,6.88243432 173.767777,6.88243432 L170.101433,6.88243432 C161.321506,6.88243432 150.933532,9.13369788 150.933532,15.4693968 C150.933532,20.1005675 158.29838,24.1850028 169.200928,24.1850028 L173.992903,24.1850028 Z M171.516513,11.6744096 C173.896421,11.6744096 177.208994,13.0251678 177.208994,15.5658795 C177.208994,18.0101085 174.475317,19.4573494 171.516513,19.4573494 C168.364744,19.4573494 165.952676,17.849304 165.952676,15.5658795 C165.952676,13.0894896 168.814997,11.6744096 171.516513,11.6744096 Z" id="logo-4" fill="#FFFFFF" sketch:type="MSShapeGroup"></path>
    </g>
</svg>