<?xml version="1.0" encoding="UTF-8" standalone="no"?>
<svg width="188px" height="39px" viewBox="0 0 188 39" version="1.1" xmlns="http://www.w3.org/2000/svg" xmlns:xlink="http://www.w3.org/1999/xlink" xmlns:sketch="http://www.bohemiancoding.com/sketch/ns">
    <!-- Generator: Sketch 3.0.4 (8053) - http://www.bohemiancoding.com/sketch -->
    <title>logo-3</title>
    <desc>Created with Sketch.</desc>
    <defs></defs>
    <g id="Page-1" stroke="none" stroke-width="1" fill="none" fill-rule="evenodd" sketch:type="MSPage">
        <path d="M0.504,38 L0.504,0.848 L9.144,0.848 L9.144,31.016 L37.008,31.016 L37.008,38 L0.504,38 Z M46.224,14.744 C46.224,11.8639856 46.7759945,9.9440048 47.88,8.984 C48.9840055,8.0239952 51.0719846,7.544 54.144,7.544 L77.688,7.544 C80.7600154,7.544 82.8479945,8.0239952 83.952,8.984 C85.0560055,9.9440048 85.608,11.8639856 85.608,14.744 L85.608,30.8 C85.608,33.6320142 85.0440056,35.5399951 83.916,36.524 C82.7879944,37.5080049 80.7120151,38 77.688,38 L54.144,38 C51.0719846,38 48.9840055,37.5080049 47.88,36.524 C46.7759945,35.5399951 46.224,33.6320142 46.224,30.8 L46.224,14.744 Z M53.64,32.168 L78.192,32.168 L78.192,13.16 L53.64,13.16 L53.64,32.168 Z M128.304,13.16 L105.12,13.16 L105.12,32.168 L128.304,32.168 L128.304,25.688 L116.208,25.688 L116.208,20.288 L135.576,20.288 L135.576,30.8 C135.576,33.6320142 135.024006,35.5399951 133.92,36.524 C132.815994,37.5080049 130.728015,38 127.656,38 L105.624,38 C102.551985,38 100.464006,37.5080049 99.36,36.524 C98.2559945,35.5399951 97.704,33.6320142 97.704,30.8 L97.704,14.744 C97.704,11.9119858 98.2679944,10.0040049 99.396,9.02 C100.524006,8.03599508 102.599985,7.544 105.624,7.544 L127.656,7.544 C130.632015,7.544 132.695994,8.01199532 133.848,8.948 C135.000006,9.88400468 135.576,11.6959866 135.576,14.384 L135.576,15.176 L128.304,16.4 L128.304,13.16 Z M147.528,14.744 C147.528,11.8639856 148.079994,9.9440048 149.184,8.984 C150.288006,8.0239952 152.375985,7.544 155.448,7.544 L178.992,7.544 C182.064015,7.544 184.151994,8.0239952 185.256,8.984 C186.360006,9.9440048 186.912,11.8639856 186.912,14.744 L186.912,30.8 C186.912,33.6320142 186.348006,35.5399951 185.22,36.524 C184.091994,37.5080049 182.016015,38 178.992,38 L155.448,38 C152.375985,38 150.288006,37.5080049 149.184,36.524 C148.079994,35.5399951 147.528,33.6320142 147.528,30.8 L147.528,14.744 Z M154.944,32.168 L179.496,32.168 L179.496,13.16 L154.944,13.16 L154.944,32.168 Z" id="logo-3" fill="#FFFFFF" sketch:type="MSShapeGroup"></path>
    </g>
</svg>