<?xml version="1.0" encoding="UTF-8" standalone="no"?>
<svg width="1158px" height="1158px" viewBox="0 0 1158 1158" version="1.1" xmlns="http://www.w3.org/2000/svg" xmlns:xlink="http://www.w3.org/1999/xlink" xmlns:sketch="http://www.bohemiancoding.com/sketch/ns">
    <!-- Generator: Sketch Beta 3.0.4 (8156) - http://www.bohemiancoding.com/sketch -->
    <title>Shape + Rectangle 1</title>
    <desc>Created with Sketch Beta.</desc>
    <defs></defs>
    <g id="Page-1" stroke="none" stroke-width="1" fill="none" fill-rule="evenodd" sketch:type="MSPage">
        <g id="Shape-+-Rectangle-1" sketch:type="MSLayerGroup">
            <path d="M109.535714,190.785714 C109.202381,183.452381 111.202381,176.619048 115.535714,170.285714 C119.869048,163.952381 124.369048,158.452381 129.035714,153.785714 C133.702381,149.119048 141.535714,143.952381 152.535714,138.285714 C163.535714,132.619048 172.535714,128.285714 179.535714,125.285714 C186.535714,122.285714 197.535714,117.619048 212.535714,111.285714 C227.535714,104.952381 239.035714,100.119048 247.035714,96.7857142 C283.035714,82.1190482 315.369048,76.7857142 344.035714,80.7857142 C372.702381,84.7857142 390.702381,96.4523812 398.035714,115.785714 C414.702381,160.452381 448.869048,266.952381 500.535714,435.285714 C552.202381,603.619048 590.702381,724.119048 616.035714,796.785714 C794.702381,738.119048 903.369048,703.119048 942.035714,691.785714 C952.702381,687.785714 965.202381,686.452381 979.535714,687.785714 C993.86905,689.119048 1004.70238,696.785714 1012.03571,710.785714 C1027.36905,742.119048 1038.20238,774.952381 1044.53571,809.285714 C1050.86905,843.619048 1051.03571,868.452381 1045.03571,883.785714 C1032.36905,893.785714 1012.53571,904.452381 985.53571,915.785714 C958.535714,927.119048 933.369048,936.785714 910.035714,944.785714 C886.702381,952.785714 856.869048,962.45238 820.535714,973.78571 C784.202381,985.11905 759.702381,992.78571 747.035714,996.78571 C740.369048,998.78571 727.702381,1003.11905 709.035714,1009.78571 C690.369048,1016.45238 672.702381,1022.61905 656.035714,1028.28571 C639.369048,1033.95238 620.035714,1040.28571 598.035714,1047.28571 C576.035714,1054.28571 555.702381,1060.11905 537.035714,1064.78571 C518.369048,1069.45238 500.369048,1073.28571 483.035714,1076.28571 C465.702381,1079.28571 450.869048,1080.45238 438.535714,1079.78571 C426.202381,1079.11905 417.702381,1076.11905 413.035714,1070.78571 C401.035714,1058.78571 390.369048,1041.45238 381.035714,1018.78571 C371.702381,996.11905 362.035714,967.11905 352.035714,931.785714 C342.035714,896.452381 335.702381,874.452381 333.035714,865.785714 C305.035714,782.452381 267.369048,669.619048 220.035714,527.285714 C172.702381,384.952381 138.035714,280.785714 116.035714,214.785714 C112.035714,206.119048 109.869048,198.119048 109.535714,190.785714 L109.535714,190.785714 L109.535714,190.785714 Z" id="Shape" fill="$light-tertiary-color" sketch:type="MSShapeGroup"></path>
            <rect id="Rectangle-1" stroke="#979797" sketch:type="MSShapeGroup" x="0" y="0" width="1159" height="1159"></rect>
        </g>
    </g>
</svg>
