<?xml version="1.0" encoding="UTF-8" standalone="no"?>
<svg width="736px" height="736px" viewBox="0 0 736 736" version="1.1" xmlns="http://www.w3.org/2000/svg" xmlns:xlink="http://www.w3.org/1999/xlink" xmlns:sketch="http://www.bohemiancoding.com/sketch/ns">
    <!-- Generator: Sketch 3.3.2 (12043) - http://www.bohemiancoding.com/sketch -->
    <title>eurucamp-2015</title>
    <desc>Created with Sketch.</desc>
    <defs></defs>
    <g id="Page-1" stroke="none" stroke-width="1" fill="none" fill-rule="evenodd" sketch:type="MSPage">
        <g id="eurucamp-flag" sketch:type="MSLayerGroup" transform="translate(28.000000, 154.500000)">
            <g id="flag" transform="translate(1.175652, 0.000000)" sketch:type="MSShapeGroup">
                <path d="M674.6244,356.582311 L3.57049919,423.429878 C3.57049919,423.429878 45.3024938,306.575298 45.3024938,206.446905 C45.3024938,106.318512 3.57049919,2.00142419 3.57049919,2.00142419 L674.6244,68.8204002 L491.072177,208.534104 L674.6244,356.582311 L674.6244,356.582311 Z" id="flag-background" fill="#4FB79B"></path>
                <path d="M84.7636509,10.1071921 L474.605035,376.496481 L674.6244,356.568015 L491.072177,208.534104 L674.6244,68.8204002 L84.7636509,10.1071921 L84.7636509,10.1071921 Z" id="flag-highlight" fill="#7DC5B1"></path>
                <path d="M233.996235,180.628533 C239.137754,158.955968 256.676046,146.57573 277.270685,146.57573 C297.893889,146.57573 314.918029,158.955968 320.587982,180.628533 L233.996235,180.628533 L233.996235,180.628533 Z M276.770816,87.7767465 C201.033387,87.7767465 146.390467,140.914559 146.390467,215.181692 C146.390467,289.992069 197.405759,338.99837 279.341575,338.99837 C326.257934,338.99837 372.631578,321.457316 395.325671,283.80195 L336.055384,243.058672 C321.102134,265.231592 303.578124,273.994971 281.926616,273.994971 C257.718632,273.994971 235.552973,259.556125 232.982213,233.237397 L402.009645,232.722745 C403.052231,225.489026 403.052231,218.798551 403.052231,212.108076 C403.052231,138.341299 356.664306,87.7767465 276.770816,87.7767465 L276.770816,87.7767465 L276.770816,87.7767465 Z" id="flag-e" fill="#FFFFFF"></path>
            </g>
        </g>
    </g>
</svg>