<?xml version="1.0" encoding="UTF-8" standalone="no"?>
<svg width="553px" height="164px" viewBox="0 0 553 164" version="1.1" xmlns="http://www.w3.org/2000/svg" xmlns:xlink="http://www.w3.org/1999/xlink" xmlns:sketch="http://www.bohemiancoding.com/sketch/ns">
    <!-- Generator: Sketch 3.1.1 (8761) - http://www.bohemiancoding.com/sketch -->
    <title>eurucamp-2015</title>
    <desc>Created with Sketch.</desc>
    <defs></defs>
    <g id="Page-1" stroke="none" stroke-width="1" fill="none" fill-rule="evenodd" sketch:type="MSPage">
        <g id="Logo" sketch:type="MSArtboardGroup" transform="translate(-232.000000, -168.000000)">
            <g id="eurucamp-2015" sketch:type="MSLayerGroup" transform="translate(232.000000, 168.000000)">
                <path d="M411.688008,142.950936 L387.396222,142.950936 L387.396222,160.974177 L339.277737,160.974177 L339.277737,142.950936 L282.50845,142.950936 C268.739928,156.596201 250.671346,163.418735 228.30221,163.418735 C204.946717,163.418735 186.589636,156.596202 173.230451,142.950936 L173.230451,142.950936 L140.961706,142.950936 L140.961706,160.974177 L0,160.974177 L0,157.429567 L29.9982995,129.806056 L59.996599,102.182545 C70.7435183,92.0783194 78.1571653,83.7057903 82.2377625,77.0647065 C86.3183597,70.4236227 88.3586277,64.0067209 88.3586277,57.8138084 C88.3586277,51.865353 86.7021725,47.179996 83.3892124,43.757597 C80.0762523,40.335198 75.5917029,38.6240242 69.9354296,38.6240242 C63.7135289,38.6240242 59.0269728,40.8037337 55.8756205,45.1632182 C52.7242682,49.5227026 51.6334319,55.4914399 52.6030788,63.0696091 L28.6044391,63.0696091 L28.6044391,63.0696091 L4.60579952,63.0696091 C3.39374096,44.5723574 9.17113346,29.4366174 21.9381504,17.6619351 C34.7051673,5.88725283 51.714134,0 72.9655609,0 C92.3584979,0 107.872615,4.97055256 119.508377,14.9118068 C124.542454,19.2127743 128.487547,24.1771727 131.34367,29.805035 L167.177487,29.805035 C168.989101,27.3232475 170.961011,24.9459966 173.093218,22.67328 C187.274304,7.55768443 205.919525,0 229.029442,0 C252.947397,0 271.63302,7.29285991 285.08687,21.8787985 C287.378834,24.3636225 289.475569,27.0057003 291.377075,29.805035 L326.677893,29.805035 L326.677893,29.805035 L350.124153,2.56678642 L387.396222,2.56678642 L387.396222,29.805035 L447.030496,29.805035 L447.030496,29.805035 L473.064284,2.72251121 L552.630806,2.72251121 L521.030806,40.1168819 L498.812901,40.1168822 L476.282593,64.5536066 C479.642338,64.2305941 482.513823,64 483.864524,64 C491.914921,64 499.240674,64.8562789 505.842,66.5688623 C512.443326,68.2814457 518.340154,70.899683 523.53266,74.4236527 C528.725167,77.9476224 532.770431,82.6571562 535.668574,88.5523952 C538.566718,94.4476343 540.015767,101.314332 540.015767,109.152695 C540.015767,114.488051 539.110111,119.708058 537.298772,124.812874 C535.487432,129.91769 532.629584,134.775426 528.725141,139.386228 C524.820698,143.997029 520.131412,148.047887 514.657141,151.538922 C509.182871,155.029958 502.460889,157.812864 494.490996,159.887725 C486.521102,161.962585 477.867054,163 468.528593,163 C446.631511,163 426.988835,158.751539 409.599976,150.254491 L411.688008,142.950936 Z M488.419158,121.365872 L456.283915,86.5114863 C467.720565,86.7981263 476.511504,89.3897737 482.65697,92.9281639 C484.717111,94.1143363 486.451814,95.5392749 487.861083,97.1518135 C490.912474,100.643332 492.438154,105.014361 492.438154,109.745509 C492.438154,114.281964 491.098499,118.155399 488.419158,121.365872 Z M201.273439,81.8927095 C201.273439,94.3600202 203.636918,104.280754 208.363946,111.655209 C213.090975,119.029664 219.817799,122.716836 228.544621,122.716836 C237.594658,122.716836 244.442686,119.111149 249.08891,111.899665 C253.735135,104.688181 256.058212,94.685963 256.058212,81.8927095 C256.058212,69.669856 253.59373,59.7694931 248.664692,52.1913238 C243.735654,44.6131546 237.02903,40.8241268 228.544621,40.8241268 C219.413779,40.8241268 212.585952,44.4094435 208.060933,51.5801842 C203.535915,58.750925 201.273439,68.8549991 201.273439,81.8927095 Z" id="2014" fill="#8BEFE5" sketch:type="MSShapeGroup"></path>
                <path d="M84,40 L129.579455,86.5 L84,133 L489,133 L445.882152,86.5 L489,40 L84,40 Z" id="badge" fill="#E138F9" sketch:type="MSShapeGroup"></path>
                <path d="M152.008,103.66 C158.014,103.66 163.954,101.416 166.858,96.598 L159.268,91.384 C157.354,94.222 155.11,95.344 152.338,95.344 C149.236,95.344 146.398,93.496 146.068,90.13 L167.716,90.064 C167.848,89.14 167.848,88.282 167.848,87.424 C167.848,77.986 161.908,71.518 151.678,71.518 C141.976,71.518 134.98,78.316 134.98,87.82 C134.98,97.39 141.514,103.66 152.008,103.66 Z M151.744,79.042 C154.384,79.042 156.562,80.626 157.288,83.398 L146.2,83.398 C146.86,80.626 149.104,79.042 151.744,79.042 Z M204.726785,72.112 L192.714785,72.112 L192.714785,88.018 C192.714785,92.176 190.668785,94.42 187.368785,94.42 C184.464785,94.42 182.682785,92.704 182.682785,89.338 L182.682785,72.112 L170.604785,72.112 L170.604785,91.846 C170.604785,99.238 175.422785,103.66 182.220785,103.66 C186.114785,103.66 190.140785,102.142 193.044785,99.04 L193.374785,103 L204.726785,103 L204.726785,72.112 Z M210.71757,72.112 L210.71757,103 L222.79557,103 L222.79557,89.14 C222.79557,84.058 225.69957,82.144 230.38557,82.144 C232.03557,82.144 233.75157,82.408 235.40157,82.738 L235.46757,71.848 C234.47757,71.584 233.42157,71.452 232.43157,71.452 C228.86757,71.452 225.50157,73.168 222.53157,76.864 L222.13557,72.112 L210.71757,72.112 Z M271.686356,72.112 L259.674356,72.112 L259.674356,88.018 C259.674356,92.176 257.628356,94.42 254.328356,94.42 C251.424356,94.42 249.642356,92.704 249.642356,89.338 L249.642356,72.112 L237.564356,72.112 L237.564356,91.846 C237.564356,99.238 242.382356,103.66 249.180356,103.66 C253.074356,103.66 257.100356,102.142 260.004356,99.04 L260.334356,103 L271.686356,103 L271.686356,72.112 Z M306.717141,78.316 C303.351141,73.63 298.863141,71.452 292.593141,71.452 C282.693141,71.452 275.433141,77.92 275.433141,87.688 C275.433141,97.06 282.429141,103.66 292.329141,103.66 C298.863141,103.66 303.483141,101.284 307.377141,96.334 L299.127141,90.526 C297.741141,92.836 295.563141,94.222 292.923141,94.222 C289.227141,94.222 286.785141,91.582 286.785141,87.556 C286.785141,83.596 289.161141,80.956 292.659141,80.956 C294.705141,80.956 296.883141,81.946 298.401141,84.388 L306.717141,78.316 Z M329.405926,103 L338.711926,103 L338.711926,83.662 C338.711926,75.61 333.563926,71.452 324.389926,71.452 C320.297926,71.452 315.083926,72.442 311.123926,73.96 L314.159926,80.824 C316.667926,79.966 319.637926,79.24 322.277926,79.24 C325.643926,79.24 328.283926,80.428 328.415926,83.992 C326.105926,83.002 323.465926,82.474 320.825926,82.474 C313.367926,82.474 308.417926,87.028 308.417926,93.166 C308.417926,99.502 312.509926,103.66 320.825926,103.66 C323.597926,103.66 326.501926,102.934 328.943926,101.02 L329.405926,103 Z M323.333926,95.872 C320.231926,95.872 318.581926,94.948 318.581926,93.034 C318.581926,91.186 320.165926,90.064 323.069926,90.064 C324.719926,90.064 326.633926,90.592 328.217926,91.384 L328.217926,94.816 C326.633926,95.542 324.851926,95.872 323.333926,95.872 Z M343.712711,103 L355.790711,103 L355.790711,87.094 C355.790711,82.936 357.770711,80.692 361.070711,80.692 C363.974711,80.692 365.756711,82.408 365.756711,85.774 L365.756711,103 L377.834711,103 L377.834711,87.094 C377.834711,82.936 379.814711,80.692 383.180711,80.692 C386.084711,80.692 387.866711,82.408 387.866711,85.774 L387.866711,103 L399.944711,103 L399.944711,83.332 C399.944711,75.808 395.192711,71.452 387.734711,71.452 C383.180711,71.452 378.824711,73.432 376.118711,76.6 C374.138711,73.3 370.574711,71.452 366.218711,71.452 C362.390711,71.452 358.298711,73.036 355.460711,76.138 L355.130711,72.112 L343.712711,72.112 L343.712711,103 Z M425.339496,71.452 C421.973496,71.452 418.673496,72.64 415.967496,75.148 L415.571496,72.112 L404.945496,72.112 L404.945496,117.322 L416.693496,117.322 L416.693496,110.722 C416.693496,107.752 416.627496,104.452 416.561496,101.68 C418.937496,103.066 421.775496,103.66 424.943496,103.66 C433.523496,103.66 440.717496,96.994 440.717496,87.754 C440.717496,78.184 434.381496,71.452 425.339496,71.452 Z M422.633496,80.692 C427.187496,80.692 429.365496,84.058 429.365496,87.556 C429.365496,91.054 427.187496,94.42 422.633496,94.42 C420.389496,94.42 418.079496,93.43 416.693496,91.78 L416.693496,82.936 C418.277496,81.484 420.455496,80.692 422.633496,80.692 Z" id="eurucamp" fill="#FFFFFF" sketch:type="MSShapeGroup"></path>
            </g>
        </g>
    </g>
</svg>