<?xml version="1.0" encoding="UTF-8" standalone="no"?>
<svg width="1120px" height="1394px" viewBox="0 0 1120 1394" version="1.1" xmlns="http://www.w3.org/2000/svg" xmlns:xlink="http://www.w3.org/1999/xlink" xmlns:sketch="http://www.bohemiancoding.com/sketch/ns">
    <!-- Generator: Sketch 3.3.2 (12043) - http://www.bohemiancoding.com/sketch -->
    <title>eurucamp-2015-cover-portrait-name</title>
    <desc>Created with Sketch.</desc>
    <defs></defs>
    <g id="Page-1" stroke="none" stroke-width="1" fill="none" fill-rule="evenodd" sketch:type="MSPage">
        <g id="eurucamp-2015-cover-portrait-name" sketch:type="MSLayerGroup" transform="translate(-11.000000, 0.000000)">
            <g id="Page-1" sketch:type="MSShapeGroup">
                <g id="Mask" transform="translate(11.989399, 0.000000)" fill="#913BBE">
                    <rect id="path-1" x="0" y="0" width="1119.0106" height="1394"></rect>
                </g>
                <g id="Group-Clipped" transform="translate(0.000000, 22.000000)">
                    <g id="Group">
                        <g transform="translate(565.295823, 655.998679) rotate(-5.000000) translate(-565.295823, -655.998679) translate(52.249445, 42.498679)">
                            <g id="cover" transform="translate(0.757822, 0.028653)">
                                <g id="Group" transform="translate(0.999117, 0.000000)">
                                    <g id="flag-link" transform="translate(157.240482, 0.315452)">
                                        <g id="flag" transform="translate(0.758570, 0.290402)">
                                            <path d="M8.17488991,4.43875847 L0.0646939272,5.24659074 C0.0646939272,5.24659074 0.569056773,3.83443912 0.569056773,2.62441832 C0.569056773,1.41439752 0.0646939272,0.15375764 0.0646939272,0.15375764 L8.17488991,0.96124439 L5.95652191,2.64964148 L8.17488991,4.43875847 L8.17488991,4.43875847 Z" id="flag-background" fill="#4FB79B"></path>
                                            <path d="M1.04597483,0.251713349 L5.757504,4.67941509 L8.17488991,4.43858571 L5.95652191,2.64964148 L8.17488991,0.96124439 L1.04597483,0.251713349 L1.04597483,0.251713349 Z" id="flag-highlight" fill="#7DC5B1"></path>
                                            <path d="M2.84956393,2.31241124 C2.91170309,2.05050497 3.12366667,1.90089361 3.37256852,1.90089361 C3.6218156,1.90089361 3.82756526,2.05050497 3.89609095,2.31241124 L2.84956393,2.31241124 L2.84956393,2.31241124 Z M3.36652722,1.190326 C2.45118288,1.190326 1.7907817,1.83248009 1.7907817,2.72997553 C1.7907817,3.6340359 2.40734024,4.22626195 3.3975968,4.22626195 C3.96461663,4.22626195 4.52507733,4.01428373 4.79935267,3.55923022 L4.08302625,3.06686025 C3.90230487,3.33481317 3.6905139,3.4407159 3.42883899,3.4407159 C3.13626711,3.4407159 2.86837829,3.26622689 2.83730871,2.94817317 L4.88013359,2.94195376 C4.89273403,2.85453649 4.89273403,2.77368416 4.89273403,2.69283183 C4.89273403,1.80138304 4.33210071,1.190326 3.36652722,1.190326 L3.36652722,1.190326 L3.36652722,1.190326 Z" id="flag-e" fill="#FFFFFF"></path>
                                        </g>
                                    </g>
                                    <g id="flag-link" transform="translate(273.372643, 57.088511)">
                                        <g id="flag" transform="translate(0.139708, 0.139832)">
                                            <path d="M13.1486204,7.18541695 L0.019917909,8.49312759 C0.019917909,8.49312759 0.836375341,6.20715094 0.836375341,4.24838161 C0.836375341,2.28961229 0.019917909,0.248901299 0.019917909,0.248901299 L13.1486204,1.55605262 L9.55754898,4.28921261 L13.1486204,7.18541695 L13.1486204,7.18541695 Z" id="flag-background" fill="#4FB79B"></path>
                                            <path d="M1.60840542,0.407471003 L9.2353808,7.57498943 L13.1486204,7.18513728 L9.55754898,4.28921261 L13.1486204,1.55605262 L1.60840542,0.407471003 L1.60840542,0.407471003 Z" id="flag-highlight" fill="#7DC5B1"></path>
                                            <path d="M4.52803708,3.74330774 C4.62862731,3.31933654 4.97175179,3.07714719 5.37467158,3.07714719 C5.7781502,3.07714719 6.11121566,3.31933654 6.22214434,3.74330774 L4.52803708,3.74330774 L4.52803708,3.74330774 Z M5.36489198,1.92688759 C3.88314188,1.92688759 2.81409119,2.96640009 2.81409119,4.41925655 C2.81409119,5.88274026 3.81216988,6.84142976 5.4151871,6.84142976 C6.33307302,6.84142976 7.24034107,6.49828156 7.68433522,5.76164558 L6.5247533,4.9646021 C6.23220336,5.39836155 5.8893583,5.56979582 5.46576163,5.56979582 C4.99214925,5.56979582 4.55849356,5.28733479 4.50819845,4.77247267 L7.81510253,4.76240475 C7.83549999,4.62089457 7.83549999,4.49001164 7.83549999,4.35912871 C7.83549999,2.9160605 6.92795251,1.92688759 5.36489198,1.92688759 L5.36489198,1.92688759 L5.36489198,1.92688759 Z" id="flag-e" fill="#FFFFFF"></path>
                                        </g>
                                    </g>
                                    <g id="flag-link-copy-3" transform="translate(749.674105, 616.779515)">
                                        <g id="flag" transform="translate(0.268527, 0.268764)">
                                            <path d="M25.2722858,13.8107196 L0.0382831864,16.3242028 C0.0382831864,16.3242028 1.60755394,11.9304449 1.60755394,8.16559536 C1.60755394,4.40074578 0.0382831864,0.47840036 0.0382831864,0.47840036 L25.2722858,2.99080854 L18.3700724,8.24407452 L25.2722858,13.8107196 L25.2722858,13.8107196 Z" id="flag-background" fill="#4FB79B"></path>
                                            <path d="M3.09143317,0.783179016 L17.7508495,14.5594968 L25.2722858,13.8101821 L18.3700724,8.24407452 L25.2722858,2.99080854 L3.09143317,0.783179016 L3.09143317,0.783179016 Z" id="flag-highlight" fill="#7DC5B1"></path>
                                            <path d="M8.70310671,7.1948189 C8.89644602,6.3799257 9.5559479,5.91442602 10.3303793,5.91442602 C11.1058847,5.91442602 11.7460527,6.3799257 11.9592629,7.1948189 L8.70310671,7.1948189 L8.70310671,7.1948189 Z M10.3115824,3.70357133 C7.4635869,3.70357133 5.40881965,5.70156474 5.40881965,8.49402527 C5.40881965,11.3069119 7.32717527,13.1495596 10.408252,13.1495596 C12.1724732,13.1495596 13.9162865,12.4900121 14.7696647,11.074162 L12.5408921,9.54220583 C11.9785969,10.3759125 11.3196321,10.7054175 10.5054588,10.7054175 C9.59515281,10.7054175 8.76164556,10.1625137 8.6649759,9.17292376 L15.0210058,9.15357273 C15.0602108,8.88158331 15.0602108,8.63001998 15.0602108,8.37845664 C15.0602108,5.60480961 13.3158605,3.70357133 10.3115824,3.70357133 L10.3115824,3.70357133 L10.3115824,3.70357133 Z" id="flag-e" fill="#FFFFFF"></path>
                                        </g>
                                    </g>
                                    <g id="flag-link-copy-4" transform="translate(545.007240, 688.211425)">
                                        <g id="flag" transform="translate(0.429472, 0.429852)">
                                            <path d="M40.4196167,22.0883855 L0.0612287993,26.1083634 C0.0612287993,26.1083634 2.57106597,19.0811395 2.57106597,13.0597698 C2.57106597,7.03840004 0.0612287993,0.765136929 0.0612287993,0.765136929 L40.4196167,4.78339536 L29.380456,13.1852866 L40.4196167,22.0883855 L40.4196167,22.0883855 Z" id="flag-background" fill="#4FB79B"></path>
                                            <path d="M4.94433088,1.25258933 L28.3900924,23.2859538 L40.4196167,22.0875258 L29.380456,13.1852866 L40.4196167,4.78339536 L4.94433088,1.25258933 L4.94433088,1.25258933 Z" id="flag-highlight" fill="#7DC5B1"></path>
                                            <path d="M13.9194468,11.5071436 C14.2286669,10.2038317 15.2834514,9.45932767 16.5220499,9.45932767 C17.7623665,9.45932767 18.7862289,10.2038317 19.12723,11.5071436 L13.9194468,11.5071436 L13.9194468,11.5071436 Z M16.4919869,5.92336342 C11.9370018,5.92336342 8.65067838,9.11888473 8.65067838,13.5850492 C8.65067838,18.0838824 11.7188298,21.0309491 16.646597,21.0309491 C19.4682312,21.0309491 22.2572255,19.9760918 23.622089,17.7116303 L20.0574674,15.2614728 C19.1581521,16.5948743 18.1042266,17.1218731 16.8020661,17.1218731 C15.3461543,17.1218731 14.0130717,16.2535717 13.8584616,14.6708558 L24.0240753,14.6399065 C24.0867782,14.204896 24.0867782,13.8025544 24.0867782,13.4002127 C24.0867782,8.96413793 21.296925,5.92336342 16.4919869,5.92336342 L16.4919869,5.92336342 L16.4919869,5.92336342 Z" id="flag-e" fill="#FFFFFF"></path>
                                        </g>
                                    </g>
                                    <g id="flag-link" transform="translate(43.045186, 608.180497)">
                                        <g id="flag" transform="translate(0.346619, 0.468110)">
                                            <path d="M38.9518457,19.7202219 L2.92040463,23.3092056 C2.92040463,23.3092056 5.16115442,17.0353919 5.16115442,11.6595917 C5.16115442,6.28379157 2.92040463,0.683104249 2.92040463,0.683104249 L38.9518457,4.27055285 L29.0962275,11.7716515 L38.9518457,19.7202219 L38.9518457,19.7202219 Z" id="flag-background" fill="#4FB79B"></path>
                                            <path d="M7.27997432,1.11829539 L28.2120438,20.7893952 L38.9518457,19.7194544 L29.0962275,11.7716515 L38.9518457,4.27055285 L7.27997432,1.11829539 L7.27997432,1.11829539 Z" id="flag-highlight" fill="#7DC5B1"></path>
                                            <path d="M15.2928405,10.2734274 C15.5689082,9.10984757 16.510606,8.44516413 17.6164106,8.44516413 C18.723749,8.44516413 19.63784,9.10984757 19.9422813,10.2734274 L15.2928405,10.2734274 L15.2928405,10.2734274 Z M17.5895707,5.28830143 C13.5229395,5.28830143 10.5889529,8.14122111 10.5889529,12.1285543 C10.5889529,16.1450538 13.3281584,18.7761565 17.7276046,18.7761565 C20.2467227,18.7761565 22.7367003,17.8343937 23.9552327,15.8127121 L20.7727851,13.6252434 C19.9698881,14.8156869 19.0289572,15.2861845 17.8664053,15.2861845 C16.5665863,15.2861845 15.3764277,14.5109763 15.2383938,13.0979483 L24.3141207,13.0703172 C24.3701011,12.6819455 24.3701011,12.3227401 24.3701011,11.9635348 C24.3701011,8.00306517 21.8793566,5.28830143 17.5895707,5.28830143 L17.5895707,5.28830143 L17.5895707,5.28830143 Z" id="flag-e" fill="#FFFFFF"></path>
                                        </g>
                                    </g>
                                    <g id="flag-link" transform="translate(160.516827, 553.318358)">
                                        <g id="flag" transform="translate(0.192199, 0.192369)">
                                            <path d="M19.0074026,9.88505609 L0.94610389,11.6840878 C0.94610389,11.6840878 2.06931324,8.53924493 2.06931324,5.8445447 C2.06931324,3.14984448 0.94610389,0.342416219 0.94610389,0.342416219 L19.0074026,2.14067848 L14.0671265,5.90071635 L19.0074026,9.88505609 L19.0074026,9.88505609 Z" id="flag-background" fill="#4FB79B"></path>
                                            <path d="M3.1314034,0.560562282 L13.6239162,10.4209952 L19.0074026,9.88467135 L14.0671265,5.90071635 L19.0074026,2.14067848 L3.1314034,0.560562282 L3.1314034,0.560562282 Z" id="flag-highlight" fill="#7DC5B1"></path>
                                            <path d="M7.14797235,5.14970909 C7.2863554,4.56644731 7.75839553,4.23326479 8.31269664,4.23326479 C8.86776656,4.23326479 9.32596833,4.56644731 9.4785741,5.14970909 L7.14797235,5.14970909 L7.14797235,5.14970909 Z M8.29924273,2.65084017 C6.26078304,2.65084017 4.79007839,4.08090881 4.79007839,6.07961921 C4.79007839,8.09294963 6.16314609,9.41182918 8.36843425,9.41182918 C9.63117987,9.41182918 10.8793184,8.93975648 11.4901259,7.92635837 L9.89487651,6.82985699 C9.49241246,7.42658458 9.02075679,7.66242856 8.43801024,7.66242856 C7.78645652,7.66242856 7.18987171,7.27384387 7.12068018,6.56554245 L11.670024,6.55169191 C11.698085,6.35701482 11.698085,6.17695775 11.698085,5.99690068 C11.698085,4.01165609 10.4495621,2.65084017 8.29924273,2.65084017 L8.29924273,2.65084017 L8.29924273,2.65084017 Z" id="flag-e" fill="#FFFFFF"></path>
                                        </g>
                                    </g>
                                    <g id="flag-link" transform="translate(692.214955, 673.218328)">
                                        <g id="flag" transform="translate(0.030232, 0.030259)">
                                            <path d="M97.1021356,51.9408661 L0.372204758,61.5758441 C0.372204758,61.5758441 6.38771699,44.7331772 6.38771699,30.3013154 C6.38771699,15.8694536 0.372204758,0.833860227 0.372204758,0.833860227 L97.1021356,10.4647172 L70.6437635,30.6021509 L97.1021356,51.9408661 L97.1021356,51.9408661 Z" id="flag-background" fill="#4FB79B"></path>
                                            <path d="M12.0758964,2.00217343 L68.270086,54.8111664 L97.1021356,51.9388056 L70.6437635,30.6021509 L97.1021356,10.4647172 L12.0758964,2.00217343 L12.0758964,2.00217343 Z" id="flag-highlight" fill="#7DC5B1"></path>
                                            <path d="M33.58722,26.5800215 C34.3283508,23.4562776 36.8564306,21.6718697 39.8250714,21.6718697 C42.7978297,21.6718697 45.2517964,23.4562776 46.069099,26.5800215 L33.58722,26.5800215 L33.58722,26.5800215 Z M39.753017,13.1969629 C28.8357476,13.1969629 20.9591734,20.855905 20.9591734,31.5602914 C20.9591734,42.3429774 28.3128386,49.40643 40.1235825,49.40643 C46.8864017,49.40643 53.5709905,46.8781755 56.8422597,41.4507735 L48.2986677,35.5782997 C46.1432121,38.7741618 43.617191,40.0372587 40.4962066,40.0372587 C37.0067155,40.0372587 33.811618,37.9561365 33.4410525,34.1627245 L57.8057299,34.0885458 C57.9560147,33.0459242 57.9560147,32.0816022 57.9560147,31.1172802 C57.9560147,20.4850119 51.2693673,13.1969629 39.753017,13.1969629 L39.753017,13.1969629 L39.753017,13.1969629 Z" id="flag-e" fill="#FFFFFF"></path>
                                        </g>
                                    </g>
                                    <g id="flag-link-copy-2" transform="translate(867.984016, 723.544396)">
                                        <g id="flag" transform="translate(0.012163, 0.012174)">
                                            <path d="M39.0687569,20.8982538 L0.149755483,24.7748586 C0.149755483,24.7748586 2.57007902,17.9982615 2.57007902,12.1916446 C2.57007902,6.38502768 0.149755483,0.335501195 0.149755483,0.335501195 L39.0687569,4.21044799 L28.4233092,12.3126849 L39.0687569,20.8982538 L39.0687569,20.8982538 Z" id="flag-background" fill="#4FB79B"></path>
                                            <path d="M4.8587012,0.805568553 L27.4682671,22.0531106 L39.0687569,20.8974247 L28.4233092,12.3126849 L39.0687569,4.21044799 L4.8587012,0.805568553 L4.8587012,0.805568553 Z" id="flag-highlight" fill="#7DC5B1"></path>
                                            <path d="M13.5137185,10.694393 C13.8119104,9.43756386 14.8290757,8.71961266 16.0234996,8.71961266 C17.2195801,8.71961266 18.2069263,9.43756386 18.5357657,10.694393 L13.5137185,10.694393 L13.5137185,10.694393 Z M15.9945088,5.30975896 C11.6019777,5.30975896 8.43286139,8.39131165 8.43286139,12.6981898 C8.43286139,17.0365716 11.3915869,19.8785309 16.1436047,19.8785309 C18.864605,19.8785309 21.5541294,18.8612952 22.870315,16.677596 L19.432826,14.3148236 C18.5655848,15.6006692 17.5492477,16.1088726 16.2935289,16.1088726 C14.8895425,16.1088726 13.6040044,15.2715392 13.4549085,13.7452711 L23.2579643,13.7154255 C23.3184311,13.2959298 23.3184311,12.9079377 23.3184311,12.5199456 C23.3184311,8.24208391 20.6280782,5.30975896 15.9945088,5.30975896 L15.9945088,5.30975896 L15.9945088,5.30975896 Z" id="flag-e" fill="#FFFFFF"></path>
                                        </g>
                                    </g>
                                    <g id="flag-link" transform="translate(171.413508, 113.025240)">
                                        <g id="flag" transform="translate(0.242134, 0.242348)">
                                            <path d="M23.7529552,12.4533111 L0.999116608,14.7197526 C0.999116608,14.7197526 2.41414909,10.7578422 2.41414909,7.36302685 C2.41414909,3.96821149 0.999116608,0.431380021 0.999116608,0.431380021 L23.7529552,2.69685218 L17.5291367,7.43379256 L23.7529552,12.4533111 L23.7529552,12.4533111 Z" id="flag-background" fill="#4FB79B"></path>
                                            <path d="M3.75218289,0.706203023 L16.9707752,13.1284935 L23.7529552,12.4528264 L17.5291367,7.43379256 L23.7529552,2.69685218 L3.75218289,0.706203023 L3.75218289,0.706203023 Z" id="flag-highlight" fill="#7DC5B1"></path>
                                            <path d="M8.81230419,6.4876647 C8.98664084,5.75286457 9.58132253,5.33311727 10.2796377,5.33311727 C10.9789214,5.33311727 11.5561693,5.75286457 11.748424,6.4876647 L8.81230419,6.4876647 L8.81230419,6.4876647 Z M10.2626883,3.33955994 C7.69461255,3.33955994 5.84180137,5.14117739 5.84180137,7.6591765 C5.84180137,10.1955941 7.57160836,11.8571342 10.3498566,11.8571342 C11.9406786,11.8571342 13.5130983,11.2624114 14.2826009,9.98572044 L12.2728867,8.60433498 C11.7658576,9.35609949 11.1716602,9.65321853 10.4375092,9.65321853 C9.61667412,9.65321853 8.86508945,9.16367491 8.77792113,8.27134838 L14.5092385,8.2538993 C14.5445902,8.00864279 14.5445902,7.78180476 14.5445902,7.55496672 C14.5445902,5.053932 12.9716861,3.33955994 10.2626883,3.33955994 L10.2626883,3.33955994 L10.2626883,3.33955994 Z" id="flag-e" fill="#FFFFFF"></path>
                                        </g>
                                    </g>
                                    <g id="flag-link" transform="translate(402.269450, 67.088511)">
                                        <g id="flag" transform="translate(0.086294, 0.086370)">
                                            <path d="M9.10832696,4.43821902 L0.999116608,5.24595312 C0.999116608,5.24595312 1.50341816,3.83397311 1.50341816,2.62409937 C1.50341816,1.41422563 0.999116608,0.153738953 0.999116608,0.153738953 L9.10832696,0.961127569 L6.89022855,2.64931947 L9.10832696,4.43821902 L9.10832696,4.43821902 Z" id="flag-background" fill="#4FB79B"></path>
                                            <path d="M1.98027825,0.251682759 L6.69123483,4.67884639 L9.10832696,4.43804628 L6.89022855,2.64931947 L9.10832696,0.961127569 L1.98027825,0.251682759 L1.98027825,0.251682759 Z" id="flag-highlight" fill="#7DC5B1"></path>
                                            <path d="M3.78364817,2.31213021 C3.84577977,2.05025577 4.05771759,1.90066259 4.3065892,1.90066259 C4.55580598,1.90066259 4.76153064,2.05025577 4.83004799,2.31213021 L3.78364817,2.31213021 L3.78364817,2.31213021 Z M4.30054863,1.19018134 C3.38531552,1.19018134 2.7249946,1.83225739 2.7249946,2.72964375 C2.7249946,3.63359425 3.34147822,4.22574833 4.33161443,4.22574833 C4.89856535,4.22574833 5.45895794,4.01379587 5.73319995,3.55879766 L5.01696058,3.06648753 C4.83626116,3.33440788 4.62449592,3.44029775 4.36285282,3.44029775 C4.0703165,3.44029775 3.80246024,3.26582995 3.77139443,2.94781488 L5.81397104,2.94159622 C5.82656995,2.85418958 5.82656995,2.77334707 5.82656995,2.69250457 C5.82656995,1.80116412 5.26600478,1.19018134 4.30054863,1.19018134 L4.30054863,1.19018134 L4.30054863,1.19018134 Z" id="flag-e" fill="#FFFFFF"></path>
                                        </g>
                                    </g>
                                    <g id="flag-link" transform="translate(0.267753, 508.845326)">
                                        <g id="flag" transform="translate(0.160942, 0.161084)">
                                            <path d="M15.123971,8.27743919 L0,9.78389253 C0,9.78389253 0.940540652,7.15049869 0.940540652,4.89404035 C0.940540652,2.63758201 0,0.286728715 0,0.286728715 L15.123971,1.79253772 L10.9871371,4.94107675 L15.123971,8.27743919 L15.123971,8.27743919 Z" id="flag-background" fill="#4FB79B"></path>
                                            <path d="M1.82990199,0.469397458 L10.6160066,8.72621795 L15.123971,8.27711702 L10.9871371,4.94107675 L15.123971,1.79253772 L1.82990199,0.469397458 L1.82990199,0.469397458 Z" id="flag-highlight" fill="#7DC5B1"></path>
                                            <path d="M5.19325219,4.31220658 C5.30912989,3.82380126 5.70440159,3.54480455 6.16855615,3.54480455 C6.63335448,3.54480455 7.01703841,3.82380126 7.14482576,4.31220658 L5.19325219,4.31220658 L5.19325219,4.31220658 Z M6.15729026,2.21973129 C4.45034738,2.21973129 3.21882496,3.41722638 3.21882496,5.09088445 C3.21882496,6.77678486 4.36858923,7.88117366 6.21522911,7.88117366 C7.27261311,7.88117366 8.31776557,7.48587463 8.82923685,6.6372865 L7.4934245,5.71911028 C7.15641353,6.21879145 6.7614637,6.41627988 6.27348984,6.41627988 C5.72789901,6.41627988 5.22833737,6.09089111 5.17039853,5.49778149 L8.97987786,5.48618347 C9.00337529,5.32316692 9.00337529,5.17239272 9.00337529,5.02161852 C9.00337529,3.35923631 7.95790095,2.21973129 6.15729026,2.21973129 L6.15729026,2.21973129 L6.15729026,2.21973129 Z" id="flag-e" fill="#FFFFFF"></path>
                                        </g>
                                    </g>
                                    <g id="flag-link" transform="translate(183.902465, 605.279515)">
                                        <g id="flag" transform="translate(0.695017, 0.695632)">
                                            <path d="M65.3122113,34.7457614 L0,41.2513147 C0,41.2513147 4.06168394,29.8791178 4.06168394,20.1347006 C4.06168394,10.3902833 0,0.2382255 0,0.2382255 L65.3122113,6.74099625 L47.4474741,20.3378252 L65.3122113,34.7457614 L65.3122113,34.7457614 Z" id="flag-background" fill="#4FB79B"></path>
                                            <path d="M7.90235221,1.02707253 L45.8447631,36.683793 L65.3122113,34.7443702 L47.4474741,20.3378252 L65.3122113,6.74099625 L7.90235221,1.02707253 L7.90235221,1.02707253 Z" id="flag-highlight" fill="#7DC5B1"></path>
                                            <path d="M22.4268339,17.6220767 C22.9272466,15.5129196 24.6342104,14.3080844 26.6386416,14.3080844 C28.645853,14.3080844 30.3027754,15.5129196 30.8546196,17.6220767 L22.4268339,17.6220767 L22.4268339,17.6220767 Z M26.5899904,8.58581311 C19.2186318,8.58581311 13.9003557,13.7571436 13.9003557,20.9847632 C13.9003557,28.2652509 18.8655628,33.034506 26.8401968,33.034506 C31.4064636,33.034506 35.9199092,31.3274243 38.1286756,27.6628333 L32.360028,23.6977292 C30.9046608,25.8555806 29.1990871,26.7084258 27.0917933,26.7084258 C24.735683,26.7084258 22.5783477,25.3032486 22.3281414,22.7419304 L38.7792124,22.6918449 C38.8806849,21.987865 38.8806849,21.3367532 38.8806849,20.6856414 C38.8806849,13.506716 34.3658494,8.58581311 26.5899904,8.58581311 L26.5899904,8.58581311 L26.5899904,8.58581311 Z" id="flag-e" fill="#FFFFFF"></path>
                                        </g>
                                    </g>
                                    <g id="flag-link" transform="translate(328.494513, 637.653574)">
                                        <g id="flag" transform="translate(0.295885, 0.296147)">
                                            <path d="M27.8049125,15.2177939 L0,17.9873577 C0,17.9873577 1.72915239,13.1459516 1.72915239,8.99752877 C1.72915239,4.84910592 0,0.52714111 0,0.52714111 L27.8049125,3.29552038 L20.1994825,9.0840036 L27.8049125,15.2177939 L27.8049125,15.2177939 Z" id="flag-background" fill="#4FB79B"></path>
                                            <path d="M3.36421333,0.862971458 L19.5171714,16.0428585 L27.8049125,15.2172016 L20.1994825,9.0840036 L27.8049125,3.29552038 L3.36421333,0.862971458 L3.36421333,0.862971458 Z" id="flag-highlight" fill="#7DC5B1"></path>
                                            <path d="M9.54761968,7.92784692 C9.76065693,7.02993015 10.4873507,6.51700408 11.3406833,6.51700408 C12.1951993,6.51700408 12.9005893,7.02993015 13.1355221,7.92784692 L9.54761968,7.92784692 L9.54761968,7.92784692 Z M11.3199713,4.0809014 C8.18181416,4.0809014 5.91770155,6.2824559 5.91770155,9.35942002 C5.91770155,12.4588913 8.03150454,14.489273 11.4264899,14.489273 C13.3704549,14.489273 15.2919326,13.762529 16.2322554,12.2024283 L13.7764092,10.5143921 C13.1568259,11.4330392 12.4307239,11.796115 11.5336003,11.796115 C10.5305499,11.796115 9.61212263,11.1978987 9.505604,10.1074866 L16.5092038,10.086164 C16.552403,9.78646355 16.552403,9.50927025 16.552403,9.23207695 C16.552403,6.1758431 14.6303335,4.0809014 11.3199713,4.0809014 L11.3199713,4.0809014 L11.3199713,4.0809014 Z" id="flag-e" fill="#FFFFFF"></path>
                                        </g>
                                    </g>
                                    <g id="flag-link" transform="translate(318.718198, 129.025240)">
                                        <g id="flag" transform="translate(0.304429, 0.304698)">
                                            <path d="M29.6069493,15.6572369 L0.999116608,18.5067772 C0.999116608,18.5067772 2.7782016,13.5255662 2.7782016,9.25734968 C2.7782016,4.98913316 0.999116608,0.542363322 0.999116608,0.542363322 L29.6069493,3.39068486 L21.7818979,9.34632164 L29.6069493,15.6572369 L29.6069493,15.6572369 Z" id="flag-background" fill="#4FB79B"></path>
                                            <path d="M4.46047805,0.887891415 L21.0798838,16.5061269 L29.6069493,15.6566275 L21.7818979,9.34632164 L29.6069493,3.39068486 L4.46047805,0.887891415 L4.46047805,0.887891415 Z" id="flag-highlight" fill="#7DC5B1"></path>
                                            <path d="M10.8224421,8.15677872 C11.0416313,7.23293288 11.7893097,6.70519509 12.6672838,6.70519509 C13.5464758,6.70519509 14.2722353,7.23293288 14.5139522,8.15677872 L10.8224421,8.15677872 L10.8224421,8.15677872 Z M12.6459738,4.19874527 C9.41719636,4.19874527 7.08770315,6.46387388 7.08770315,9.62969125 C7.08770315,12.8186657 9.26254626,14.9076786 12.7555684,14.9076786 C14.755669,14.9076786 16.7326331,14.1599485 17.7001095,12.5547968 L15.173346,10.8180154 C14.5358711,11.7631901 13.7888015,12.1367505 12.8657717,12.1367505 C11.8337563,12.1367505 10.8888077,11.5212595 10.7792132,10.3993596 L17.9850553,10.3774214 C18.029502,10.0690665 18.029502,9.78386868 18.029502,9.49867089 C18.029502,6.35418242 16.0519291,4.19874527 12.6459738,4.19874527 L12.6459738,4.19874527 L12.6459738,4.19874527 Z" id="flag-e" fill="#FFFFFF"></path>
                                        </g>
                                    </g>
                                    <g id="flag-link" transform="translate(53.758011, 293.365441)">
                                        <g id="flag" transform="translate(0.292495, 0.292754)">
                                            <path d="M28.4854821,15.0434512 L0.999116608,17.7812856 C0.999116608,17.7812856 2.70845896,12.995345 2.70845896,8.89444858 C2.70845896,4.79355214 0.999116608,0.521101918 0.999116608,0.521101918 L28.4854821,3.25776525 L20.9671837,8.97993271 L28.4854821,15.0434512 L28.4854821,15.0434512 Z" id="flag-background" fill="#4FB79B"></path>
                                            <path d="M4.32478783,0.853084825 L20.2926896,15.8590635 L28.4854821,15.0428657 L20.9671837,8.97993271 L28.4854821,3.25776525 L4.32478783,0.853084825 L4.32478783,0.853084825 Z" id="flag-highlight" fill="#7DC5B1"></path>
                                            <path d="M10.437354,7.83702154 C10.6479506,6.94939176 11.366319,6.44234203 12.2098754,6.44234203 C13.0546017,6.44234203 13.7519103,6.94939176 13.9841516,7.83702154 L10.437354,7.83702154 L10.437354,7.83702154 Z M12.1894007,4.03414856 C9.08719581,4.03414856 6.84902201,6.21048095 6.84902201,9.25219383 C6.84902201,12.316156 8.93860821,14.3232766 12.294699,14.3232766 C14.2163928,14.3232766 16.1158572,13.6048586 17.0454071,12.0626311 L14.6176964,10.393934 C14.0052113,11.3020565 13.2874279,11.6609728 12.4005822,11.6609728 C11.4090232,11.6609728 10.501118,11.06961 10.3958197,9.99169015 L17.3191826,9.97061187 C17.361887,9.67434493 17.361887,9.40032729 17.361887,9.12630966 C17.361887,6.10508955 15.4618378,4.03414856 12.1894007,4.03414856 L12.1894007,4.03414856 L12.1894007,4.03414856 Z" id="flag-e" fill="#FFFFFF"></path>
                                        </g>
                                    </g>
                                    <g id="flag-link" transform="translate(34.774795, 497.745362)">
                                        <g id="flag" transform="translate(0.507508, 0.507957)">
                                            <path d="M47.69161,26.1019016 L0,30.8523197 C0,30.8523197 2.96588099,22.5482313 2.96588099,15.4327633 C2.96588099,8.3172953 0,0.904164263 0,0.904164263 L47.69161,5.65255052 L34.6466057,15.5810869 L47.69161,26.1019016 L47.69161,26.1019016 Z" id="flag-background" fill="#4FB79B"></path>
                                            <path d="M5.77037421,1.48018801 L33.4762906,27.517071 L47.69161,26.1008857 L34.6466057,15.5810869 L47.69161,5.65255052 L5.77037421,1.48018801 L5.77037421,1.48018801 Z" id="flag-highlight" fill="#7DC5B1"></path>
                                            <path d="M16.3762915,13.598021 C16.7416978,12.057894 17.9881393,11.1781117 19.4517944,11.1781117 C20.9174796,11.1781117 22.1273805,12.057894 22.5303424,13.598021 L16.3762915,13.598021 L16.3762915,13.598021 Z M19.4162689,6.99965368 C14.0336312,6.99965368 10.1501745,10.7758094 10.1501745,16.0534873 C10.1501745,21.36977 13.7758169,24.8523262 19.5989719,24.8523262 C22.9333043,24.8523262 26.229066,23.6057987 27.8419287,20.9298788 L23.6296062,18.0345213 C22.566883,19.6102054 21.3214565,20.2329612 19.7826901,20.2329612 C18.0622356,20.2329612 16.4869285,19.2068871 16.3042253,17.3365878 L28.3169568,17.3000149 C28.3910531,16.7859619 28.3910531,16.3105138 28.3910531,15.8350656 C28.3910531,10.5929447 25.0942764,6.99965368 19.4162689,6.99965368 L19.4162689,6.99965368 L19.4162689,6.99965368 Z" id="flag-e" fill="#FFFFFF"></path>
                                        </g>
                                    </g>
                                    <g id="flag-link" transform="translate(227.629119, 680.496805)">
                                        <g id="flag" transform="translate(0.392510, 0.392857)">
                                            <path d="M36.8849075,20.1873291 L0,23.861324 C0,23.861324 2.29382582,17.4389044 2.29382582,11.9357691 C2.29382582,6.43263393 0,0.699284744 0,0.699284744 L36.8849075,4.37170822 L26.795842,12.0504833 L36.8849075,20.1873291 L36.8849075,20.1873291 Z" id="flag-background" fill="#4FB79B"></path>
                                            <path d="M4.46283359,1.14478413 L25.890715,21.2818276 L36.8849075,20.1865434 L26.795842,12.0504833 L36.8849075,4.37170822 L4.46283359,1.14478413 L4.46283359,1.14478413 Z" id="flag-highlight" fill="#7DC5B1"></path>
                                            <path d="M12.6654982,10.5167711 C12.948105,9.32562991 13.9121085,8.64520229 15.0441061,8.64520229 C16.1776736,8.64520229 17.1134165,9.32562991 17.425069,10.5167711 L12.6654982,10.5167711 L12.6654982,10.5167711 Z M15.0166304,5.41356391 C10.8536741,5.41356391 7.85019102,8.33405986 7.85019102,12.4158399 C7.85019102,16.5274771 10.6542793,19.2209019 15.1579339,19.2209019 C17.7367216,19.2209019 20.2856786,18.2568318 21.5330739,16.1872632 L18.2752447,13.9479806 C17.4533297,15.1666218 16.4901113,15.648264 15.3000223,15.648264 C13.9694149,15.648264 12.7510652,14.8546937 12.6097619,13.4081957 L21.9004629,13.37991 C21.9577693,12.9823391 21.9577693,12.6146253 21.9577693,12.2469116 C21.9577693,8.19263148 19.4080272,5.41356391 15.0166304,5.41356391 L15.0166304,5.41356391 L15.0166304,5.41356391 Z" id="flag-e" fill="#FFFFFF"></path>
                                        </g>
                                    </g>
                                    <g id="flag-link" transform="translate(455.222630, 149.025240)">
                                        <g id="flag" transform="translate(0.767902, 0.768581)">
                                            <path d="M73.1603664,38.4942809 L0.999116608,45.6820463 C0.999116608,45.6820463 5.4867336,33.1172912 5.4867336,22.3510147 C5.4867336,11.5847382 0.999116608,0.368073404 0.999116608,0.368073404 L73.1603664,7.55276452 L53.4222235,22.5754402 L73.1603664,38.4942809 L73.1603664,38.4942809 Z" id="flag-background" fill="#4FB79B"></path>
                                            <path d="M9.73015787,1.23964376 L51.6514424,40.6355463 L73.1603664,38.4927437 L53.4222235,22.5754402 L73.1603664,7.55276452 L9.73015787,1.23964376 L9.73015787,1.23964376 Z" id="flag-highlight" fill="#7DC5B1"></path>
                                            <path d="M25.7777656,19.5749017 C26.3306548,17.2445654 28.2166211,15.9133839 30.4312494,15.9133839 C32.6489492,15.9133839 34.4796266,17.2445654 35.0893405,19.5749017 L25.7777656,19.5749017 L25.7777656,19.5749017 Z M30.3774962,9.59104018 C22.2331319,9.59104018 16.3571487,15.3046681 16.3571487,23.2902202 C16.3571487,31.3341843 21.8430378,36.6035727 30.6539408,36.6035727 C35.6990543,36.6035727 40.6858074,34.717476 43.1261988,30.6685936 L36.7526154,26.2876844 C35.1446295,28.6718213 33.2601989,29.614101 30.9319212,29.614101 C28.3287348,29.614101 25.9451682,28.0615683 25.6687236,25.2316547 L43.8449547,25.1763169 C43.9570682,24.3985133 43.9570682,23.6791219 43.9570682,22.9597305 C43.9570682,15.0279791 38.9687794,9.59104018 30.3774962,9.59104018 L30.3774962,9.59104018 L30.3774962,9.59104018 Z" id="flag-e" fill="#FFFFFF"></path>
                                        </g>
                                    </g>
                                    <g id="flag-link" transform="translate(94.795694, 212.025240)">
                                        <g id="flag" transform="translate(0.780063, 0.780753)">
                                            <path d="M74.1197006,39.3033913 L0.815637146,46.604989 C0.815637146,46.604989 5.37432428,33.8412466 5.37432428,22.9044651 C5.37432428,11.9676836 0.815637146,0.573381196 0.815637146,0.573381196 L74.1197006,7.87185587 L54.0689659,23.1324449 L74.1197006,39.3033913 L74.1197006,39.3033913 Z" id="flag-background" fill="#4FB79B"></path>
                                            <path d="M9.68495142,1.45875457 L52.2701409,41.4785679 L74.1197006,39.3018298 L54.0689659,23.1324449 L74.1197006,7.87185587 L9.68495142,1.45875457 L9.68495142,1.45875457 Z" id="flag-highlight" fill="#7DC5B1"></path>
                                            <path d="M25.9867042,20.084387 C26.5483495,17.7171453 28.4641838,16.3648819 30.713885,16.3648819 C32.9667064,16.3648819 34.8263761,17.7171453 35.445746,20.084387 L25.9867042,20.084387 L25.9867042,20.084387 Z M30.6592806,9.94241158 C22.3859343,9.94241158 16.4168936,15.7465259 16.4168936,23.8585447 C16.4168936,32.0299007 21.9896623,37.3827401 30.9401032,37.3827401 C36.0651159,37.3827401 41.1308439,35.4667734 43.6098835,31.353769 L37.1353621,26.9034796 C35.5019106,29.3253739 33.5876364,30.2825765 31.2224859,30.2825765 C28.5780729,30.2825765 26.156758,28.7054564 25.8759354,25.8307256 L44.3400223,25.7745114 C44.4539115,24.9843899 44.4539115,24.2536055 44.4539115,23.5228211 C44.4539115,15.465455 39.3866234,9.94241158 30.6592806,9.94241158 L30.6592806,9.94241158 L30.6592806,9.94241158 Z" id="flag-e" fill="#FFFFFF"></path>
                                        </g>
                                    </g>
                                    <g id="flag-link" transform="translate(132.762125, 481.919673)">
                                        <g id="flag" transform="translate(0.720623, 0.721260)">
                                            <path d="M67.7183903,36.0626775 L0,42.8079031 C0,42.8079031 4.21132117,31.016741 4.21132117,20.9133279 C4.21132117,10.8099148 0,0.283843187 0,0.283843187 L67.7183903,7.0261837 L49.1954952,21.1239359 L67.7183903,36.0626775 L67.7183903,36.0626775 Z" id="flag-background" fill="#F741CD"></path>
                                            <path d="M8.19348421,1.10175227 L47.5337384,38.0721085 L67.7183903,36.061235 L49.1954952,21.1239359 L67.7183903,7.0261837 L8.19348421,1.10175227 L8.19348421,1.10175227 Z" id="flag-highlight" fill="#FF67DC"></path>
                                        </g>
                                    </g>
                                    <g id="flag-link" transform="translate(484.558694, 834.690795)">
                                        <g id="flag" transform="translate(0.780828, 0.781518)">
                                            <path d="M73.3759477,39.1590923 L0,46.4678502 C0,46.4678502 4.56315753,33.6915913 4.56315753,22.7440848 C4.56315753,11.7965784 0,0.39110233 0,0.39110233 L73.3759477,7.69673412 L53.3055507,22.9722881 L73.3759477,39.1590923 L73.3759477,39.1590923 Z" id="flag-background" fill="#4FB79B"></path>
                                            <path d="M8.87801182,1.27734393 L51.5049618,41.3364019 L73.3759477,39.1575293 L53.3055507,22.9722881 L73.3759477,7.69673412 L8.87801182,1.27734393 L8.87801182,1.27734393 Z" id="flag-highlight" fill="#7DC5B1"></path>
                                            <path d="M25.1957507,19.9212412 C25.7579467,17.5516782 27.6756597,16.1980887 29.927567,16.1980887 C32.1825976,16.1980887 34.044091,17.5516782 34.6640683,19.9212412 L25.1957507,19.9212412 L25.1957507,19.9212412 Z M29.8729091,9.7693203 C21.5914497,9.7693203 15.6165556,15.5791263 15.6165556,23.6991 C15.6165556,31.8784691 21.1947891,37.2365577 30.154007,37.2365577 C35.2840456,37.2365577 40.3547411,35.3187121 42.8362118,31.2016744 L36.3553413,26.7470209 C34.7202879,29.1712902 32.8041366,30.1294315 30.4366667,30.1294315 C27.7896605,30.1294315 25.3659712,28.5507648 25.0848731,25.6732149 L43.5670666,25.6169456 C43.6810675,24.8260492 43.6810675,24.0945482 43.6810675,23.3630472 C43.6810675,15.2977798 38.6088102,9.7693203 29.8729091,9.7693203 L29.8729091,9.7693203 L29.8729091,9.7693203 Z" id="flag-e" fill="#FFFFFF"></path>
                                        </g>
                                    </g>
                                    <g id="flag-link" transform="translate(255.773852, 196.025240)">
                                        <g id="flag" transform="translate(0.317245, 0.317526)">
                                            <path d="M124.700315,65.7024012 L0.999116608,78.0239062 C0.999116608,78.0239062 8.69193792,56.4849879 8.69193792,38.0290809 C8.69193792,19.5731739 0.999116608,0.345196631 0.999116608,0.345196631 L124.700315,12.6614315 L90.8645384,38.4137986 L124.700315,65.7024012 L124.700315,65.7024012 Z" id="flag-background" fill="#4FB79B"></path>
                                            <path d="M15.9661561,1.83927134 L87.8290069,69.3730291 L124.700315,65.6997661 L90.8645384,38.4137986 L124.700315,12.6614315 L15.9661561,1.83927134 L15.9661561,1.83927134 Z" id="flag-highlight" fill="#7DC5B1"></path>
                                            <path d="M43.4754954,33.2701763 C44.4232763,29.2754369 47.6562621,26.9934815 51.452651,26.9934815 C55.2543053,26.9934815 58.3925131,29.2754369 59.4377048,33.2701763 L43.4754954,33.2701763 L43.4754954,33.2701763 Z M51.3605056,16.155511 C37.3991671,16.155511 27.3263627,25.9500007 27.3263627,39.6390979 C27.3263627,53.4283271 36.730455,62.4612867 51.8343961,62.4612867 C60.4828964,62.4612867 69.0313532,59.2280774 73.2147527,52.2873494 L62.2889455,44.7774501 C59.5324829,48.8644164 56.3021298,50.4797035 52.3109193,50.4797035 C47.848451,50.4797035 43.7624624,47.8183006 43.288572,42.9671691 L74.4468678,42.8723072 C74.6390566,41.5389707 74.6390566,40.3057662 74.6390566,39.0725617 C74.6390566,25.4756913 66.0879671,16.155511 51.3605056,16.155511 L51.3605056,16.155511 L51.3605056,16.155511 Z" id="flag-e" fill="#FFFFFF"></path>
                                        </g>
                                    </g>
                                    <g id="flag-link" transform="translate(235.215026, 507.906998)">
                                        <g id="flag" transform="translate(0.221460, 0.221656)">
                                            <path d="M114.700071,60.776031 L0,72.2009608 C0,72.2009608 7.13305261,52.2293235 7.13305261,35.1163619 C7.13305261,18.0034004 0,0.174548227 0,0.174548227 L114.700071,11.5945914 L83.3263579,35.4730856 L114.700071,60.776031 L114.700071,60.776031 Z" id="flag-background" fill="#F741CD"></path>
                                            <path d="M13.8779617,1.55990648 L80.511707,64.1795655 L114.700071,60.7735877 L83.3263579,35.4730856 L114.700071,11.5945914 L13.8779617,1.55990648 L13.8779617,1.55990648 Z" id="flag-highlight" fill="#FF67DC"></path>
                                        </g>
                                    </g>
                                    <g id="flag-link" transform="translate(6.993816, 353.283280)">
                                        <g id="flag">
                                            <path d="M187.777972,99.772 L0,118.476 C0,118.476 11.6776749,85.78 11.6776749,57.764 C11.6776749,29.748 0,0.56 0,0.56 L187.777972,19.256 L136.415385,58.348 L187.777972,99.772 L187.777972,99.772 Z" id="flag-background" fill="#4FB79B"></path>
                                            <path d="M22.7199117,2.828 L131.807459,105.344 L187.777972,99.768 L136.415385,58.348 L187.777972,19.256 L22.7199117,2.828 L22.7199117,2.828 Z" id="flag-highlight" fill="#7DC5B1"></path>
                                            <path d="M64.4789894,50.54 C65.9177173,44.476 70.8253781,41.012 76.5882827,41.012 C82.3591802,41.012 87.1229682,44.476 88.7095654,50.54 L64.4789894,50.54 L64.4789894,50.54 Z M76.4484064,24.56 C55.2551449,24.56 39.9646643,39.428 39.9646643,60.208 C39.9646643,81.14 54.2400424,94.852 77.1677703,94.852 C90.2961625,94.852 103.272689,89.944 109.623074,79.408 L93.0377385,68.008 C88.8534382,74.212 83.9497739,76.664 77.8911307,76.664 C71.1171201,76.664 64.9146042,72.624 64.1952403,65.26 L111.49342,65.116 C111.785163,63.092 111.785163,61.22 111.785163,59.348 C111.785163,38.708 98.8046396,24.56 76.4484064,24.56 L76.4484064,24.56 L76.4484064,24.56 Z" id="flag-e" fill="#FFFFFF"></path>
                                        </g>
                                    </g>
                                    <g id="flag-link" transform="translate(220.919021, 331.228703)">
                                        <g id="flag" transform="translate(0.424326, 0.424701)">
                                            <path d="M133.763733,71.209686 L0,84.5334899 C0,84.5334899 8.31859761,61.2424778 8.31859761,41.285266 C8.31859761,21.3280543 0,0.5359678 0,0.5359678 L133.763733,13.8540728 L97.1755685,41.7012787 L133.763733,71.209686 L133.763733,71.209686 Z" id="flag-background" fill="#4FB79B"></path>
                                            <path d="M16.1845406,2.15157874 L93.8931101,75.178903 L133.763733,71.2068366 L97.1755685,41.7012787 L133.763733,13.8540728 L16.1845406,2.15157874 L16.1845406,2.15157874 Z" id="flag-highlight" fill="#7DC5B1"></path>
                                            <path d="M45.9316406,36.139246 C46.9565192,31.8195525 50.4524938,29.3519704 54.5577018,29.3519704 C58.6686036,29.3519704 62.0620904,31.8195525 63.1923037,36.139246 L45.9316406,36.139246 L45.9316406,36.139246 Z M54.4580608,17.6323799 C39.3610303,17.6323799 28.4688488,28.2236072 28.4688488,43.0262507 C28.4688488,57.9371714 38.6379216,67.7049215 54.9705001,67.7049215 C64.3225169,67.7049215 73.5663521,64.2087053 78.0900522,56.7033804 L66.27548,48.5825846 C63.2947914,53.0020071 59.8016638,54.7486906 55.4857862,54.7486906 C50.6603164,54.7486906 46.2419511,51.8707945 45.7295118,46.6250454 L79.4223943,46.5224669 C79.6302169,45.0806695 79.6302169,43.7471494 79.6302169,42.4136292 C79.6302169,27.7107148 70.3835349,17.6323799 54.4580608,17.6323799 L54.4580608,17.6323799 L54.4580608,17.6323799 Z" id="flag-e" fill="#FFFFFF"></path>
                                        </g>
                                    </g>
                                    <g id="flag-link-copy" transform="translate(381.662544, 454.000000)">
                                        <g id="flag" transform="translate(0.000000, 1.000000)">
                                            <path d="M330.609088,175.229815 L3.97903932e-13,208.079697 C3.97903932e-13,208.079697 20.5601617,150.65563 20.5601617,101.451059 C20.5601617,52.2464874 3.97903932e-13,0.983529412 3.97903932e-13,0.983529412 L330.609088,33.8193613 L240.178152,102.476739 L330.609088,175.229815 L330.609088,175.229815 Z" id="flag-background" fill="#F741CD"></path>
                                            <path d="M40.0015466,4.96682353 L232.065261,185.015933 L330.609088,175.22279 L240.178152,102.476739 L330.609088,33.8193613 L40.0015466,4.96682353 L40.0015466,4.96682353 Z" id="flag-highlight" fill="#FF67DC"></path>
                                            <path d="M113.524178,88.7635294 C116.057257,78.1133109 124.697873,72.029479 134.844263,72.029479 C145.004727,72.029479 153.392035,78.1133109 156.185458,88.7635294 L113.524178,88.7635294 L113.524178,88.7635294 Z M134.597992,43.1347899 C97.2843242,43.1347899 70.3633185,69.2474958 70.3633185,105.743462 C70.3633185,142.506387 95.4970959,166.588807 135.864532,166.588807 C158.978882,166.588807 181.825851,157.968874 193.006583,139.464471 L163.805805,119.442622 C156.438766,130.338723 147.805187,134.645176 137.138108,134.645176 C125.211525,134.645176 114.291138,127.549714 113.024599,114.616303 L196.299586,114.363395 C196.813238,110.808639 196.813238,107.52084 196.813238,104.233042 C196.813238,67.982958 173.959233,43.1347899 134.597992,43.1347899 L134.597992,43.1347899 L134.597992,43.1347899 Z" id="flag-e" fill="#FFFFFF"></path>
                                        </g>
                                    </g>
                                    <g id="flag-link" transform="translate(876.225265, 807.681813)">
                                        <g id="flag">
                                            <path d="M137.785143,73.209329 L0,86.9336935 C0,86.9336935 8.56868405,62.9424713 8.56868405,42.3852752 C8.56868405,21.8280792 0,0.410909115 0,0.410909115 L137.785143,14.1294034 L100.097009,42.8137947 L137.785143,73.209329 L137.785143,73.209329 Z" id="flag-background" fill="#4FB79B"></path>
                                            <path d="M16.671105,2.07509103 L96.7158688,77.2978747 L137.785143,73.206394 L100.097009,42.8137947 L137.785143,14.1294034 L16.671105,2.07509103 L16.671105,2.07509103 Z" id="flag-highlight" fill="#7DC5B1"></path>
                                            <path d="M47.312508,37.0845477 C48.368198,32.6349889 51.969274,30.0932226 56.1978991,30.0932226 C60.4323891,30.0932226 63.927896,32.6349889 65.0920875,37.0845477 L47.312508,37.0845477 L47.312508,37.0845477 Z M56.0952625,18.0212998 C40.544362,18.0212998 29.324723,28.9309368 29.324723,44.1786 C29.324723,59.5377957 39.799514,69.5991989 56.6231076,69.5991989 C66.256279,69.5991989 75.7780166,65.997874 80.4377151,58.2669125 L68.267955,49.901977 C65.1976565,54.454263 61.599513,56.2534579 57.153885,56.2534579 C52.1833445,56.2534579 47.6321475,53.2890421 47.1043025,47.8855873 L81.8101121,47.7799249 C82.0241826,46.294782 82.0241826,44.9211715 82.0241826,43.547561 C82.0241826,28.4026251 72.4995126,18.0212998 56.0952625,18.0212998 L56.0952625,18.0212998 L56.0952625,18.0212998 Z" id="flag-e" fill="#FFFFFF"></path>
                                        </g>
                                    </g>
                                    <g id="flag-link" transform="translate(797.687969, 562.441030)">
                                        <g id="flag" transform="translate(0.229885, 0.230088)">
                                            <path d="M115.491741,61.2093164 L0,72.713102 C0,72.713102 7.18228552,52.6036188 7.18228552,35.3725422 C7.18228552,18.1414655 0,0.18955714 0,0.18955714 L115.491741,11.6884224 L83.9014833,35.7317279 L115.491741,61.2093164 L115.491741,61.2093164 Z" id="flag-background" fill="#F741CD"></path>
                                            <path d="M13.9737486,1.58447725 L81.0674056,64.6363424 L115.491741,61.2068562 L83.9014833,35.7317279 L115.491741,11.6884224 L13.9737486,1.58447725 L13.9737486,1.58447725 Z" id="flag-highlight" fill="#FF67DC"></path>
                                        </g>
                                    </g>
                                    <g id="flag-link" transform="translate(327.335705, 895.681813)">
                                        <g id="flag" transform="translate(0.148817, 0.586916)">
                                            <path d="M126.008352,66.4182974 L0.999116608,78.870092 C0.999116608,78.870092 8.77328307,57.1034177 8.77328307,38.452355 C8.77328307,19.8012922 0.999116608,0.369995123 0.999116608,0.369995123 L126.008352,12.8164639 L91.81479,38.8411407 L126.008352,66.4182974 L126.008352,66.4182974 Z" id="flag-background" fill="#4FB79B"></path>
                                            <path d="M16.1244199,1.87986842 L88.7471604,70.1277392 L126.008352,66.4156345 L91.81479,38.8411407 L126.008352,12.8164639 L16.1244199,1.87986842 L16.1244199,1.87986842 Z" id="flag-highlight" fill="#7DC5B1"></path>
                                            <path d="M43.9246476,33.6431289 C44.8824504,29.6061484 48.1496224,27.3000633 51.9861549,27.3000633 C55.8280086,27.3000633 58.9994002,29.6061484 60.0556439,33.6431289 L43.9246476,33.6431289 L43.9246476,33.6431289 Z M51.8930352,16.3474903 C37.7840671,16.3474903 27.6047513,26.2455486 27.6047513,40.0793966 C27.6047513,54.0144353 37.108284,63.1429109 52.3719366,63.1429109 C61.1118876,63.1429109 69.7507373,59.8755131 73.9783726,52.8613927 L62.9370342,45.2720825 C60.1514242,49.402265 56.8869128,51.0346324 52.8534986,51.0346324 C48.3438436,51.0346324 44.214649,48.3450874 43.7357476,43.4426593 L75.2235163,43.3467943 C75.4177375,41.9993589 75.4177375,40.7531143 75.4177375,39.5068696 C75.4177375,25.7662238 66.7762272,16.3474903 51.8930352,16.3474903 L51.8930352,16.3474903 L51.8930352,16.3474903 Z" id="flag-e" fill="#FFFFFF"></path>
                                        </g>
                                    </g>
                                    <g id="flag-link" transform="translate(571.983389, 346.592355)">
                                        <g id="flag" transform="translate(0.926491, 0.927310)">
                                            <path d="M87.0641927,46.6507501 L0,55.322953 C0,55.322953 5.41441219,40.1632896 5.41441219,27.1735315 C5.41441219,14.1837734 0,0.65061175 0,0.65061175 L87.0641927,9.3191053 L63.2496733,27.444306 L87.0641927,46.6507501 L87.0641927,46.6507501 Z" id="flag-background" fill="#4FB79B"></path>
                                            <path d="M10.5342003,1.70218125 L61.1131856,49.2342357 L87.0641927,46.6488955 L63.2496733,27.444306 L87.0641927,9.3191053 L10.5342003,1.70218125 L10.5342003,1.70218125 Z" id="flag-highlight" fill="#7DC5B1"></path>
                                            <path d="M29.8960049,23.8240879 C30.5630782,21.0124841 32.8385396,19.4063832 35.510539,19.4063832 C38.1862444,19.4063832 40.3949985,21.0124841 41.1306322,23.8240879 L29.8960049,23.8240879 L29.8960049,23.8240879 Z M35.4456847,11.7783314 C25.6193234,11.7783314 18.5298158,18.6719537 18.5298158,28.3067043 C18.5298158,38.0119304 25.148666,44.3695676 35.7792214,44.3695676 C41.8662659,44.3695676 47.8828971,42.0939489 50.8272849,37.20888 L43.1374113,31.9232132 C41.1973395,34.7997287 38.9237312,35.9366107 36.114611,35.9366107 C32.9738072,35.9366107 30.0979799,34.0634446 29.7644432,30.6490893 L51.6944802,30.582323 C51.8297478,29.6438853 51.8297478,28.7759231 51.8297478,27.907961 C51.8297478,18.3381221 45.8112637,11.7783314 35.4456847,11.7783314 L35.4456847,11.7783314 L35.4456847,11.7783314 Z" id="flag-e" fill="#FFFFFF"></path>
                                        </g>
                                    </g>
                                    <g id="flag-link" transform="translate(764.660854, 488.891298)">
                                        <g id="flag" transform="translate(0.815176, 0.815897)">
                                            <path d="M76.6037355,40.9256798 L0,48.5559479 C0,48.5559479 4.76388957,35.2176648 4.76388957,23.7885806 C4.76388957,12.3594964 0,0.45229654 0,0.45229654 L76.6037355,8.07930106 L55.6504472,24.0268225 L76.6037355,40.9256798 L76.6037355,40.9256798 Z" id="flag-background" fill="#4FB79B"></path>
                                            <path d="M9.26855311,1.37752366 L53.7706508,43.1987686 L76.6037355,40.924048 L55.6504472,24.0268225 L76.6037355,8.07930106 L9.26855311,1.37752366 L9.26855311,1.37752366 Z" id="flag-highlight" fill="#7DC5B1"></path>
                                            <path d="M26.3041048,20.8415609 C26.8910317,18.3677614 28.8931044,16.9546279 31.2440724,16.9546279 C33.5983013,16.9546279 35.5416812,18.3677614 36.1889311,20.8415609 L26.3041048,20.8415609 L26.3041048,20.8415609 Z M31.1870101,10.2430597 C22.5412516,10.2430597 16.3035235,16.3084375 16.3035235,24.7856066 C16.3035235,33.3247839 22.1271421,38.9185733 31.4804735,38.9185733 C36.836181,38.9185733 42.129935,36.9163622 44.720565,32.6182172 L37.9546028,27.9676047 C36.2476238,30.498517 34.2471815,31.4988066 31.7755673,31.4988066 C29.0121201,31.4988066 26.4818132,29.8506948 26.1883498,26.8465623 L45.4835698,26.7878177 C45.6025856,25.96213 45.6025856,25.1984505 45.6025856,24.434771 C45.6025856,16.0147146 40.3072011,10.2430597 31.1870101,10.2430597 L31.1870101,10.2430597 L31.1870101,10.2430597 Z" id="flag-e" fill="#FFFFFF"></path>
                                        </g>
                                    </g>
                                    <g id="flag-link" transform="translate(958.693513, 531.353959)">
                                        <g id="flag" transform="translate(0.675629, 0.676226)">
                                            <path d="M63.4901492,33.748536 L0,40.0725992 C0,40.0725992 3.94837219,29.0176607 3.94837219,19.5450905 C3.94837219,10.0725203 0,0.20368182 0,0.20368182 L63.4901492,6.52504006 L46.1237976,19.7425484 L63.4901492,33.748536 L63.4901492,33.748536 Z" id="flag-background" fill="#4FB79B"></path>
                                            <path d="M7.68189456,0.97052181 L44.5657985,35.6325009 L63.4901492,33.7471836 L46.1237976,19.7425484 L63.4901492,6.52504006 L7.68189456,0.97052181 L7.68189456,0.97052181 Z" id="flag-highlight" fill="#7DC5B1"></path>
                                            <path d="M21.8011763,17.1025631 C22.2876287,15.0522467 23.9469719,13.8810237 25.8954842,13.8810237 C27.8466989,13.8810237 29.457397,15.0522467 29.9938458,17.1025631 L21.8011763,17.1025631 L21.8011763,17.1025631 Z M25.8481902,8.31839073 C18.6824757,8.31839073 13.5125674,13.3454529 13.5125674,20.3714384 C13.5125674,27.448817 18.3392565,32.0850207 26.0914164,32.0850207 C30.5302948,32.0850207 34.9178254,30.4255627 37.0649723,26.8632055 L31.4572569,23.0087188 C30.0424911,25.106371 28.3844991,25.9354238 26.3359938,25.9354238 C24.0456137,25.9354238 21.9484633,24.5694478 21.705237,22.0795846 L37.6973605,22.0308963 C37.7960023,21.3465559 37.7960023,20.7136086 37.7960023,20.0806613 C37.7960023,13.1020116 33.4071204,8.31839073 25.8481902,8.31839073 L25.8481902,8.31839073 L25.8481902,8.31839073 Z" id="flag-e" fill="#FFFFFF"></path>
                                        </g>
                                    </g>
                                    <g id="flag-link" transform="translate(776.650254, 1049.583530)">
                                        <g id="flag" transform="translate(0.901558, 0.902355)">
                                            <path d="M84.7211996,45.3684161 L0,53.8072404 C0,53.8072404 5.2687044,39.0555402 5.2687044,26.4153508 C5.2687044,13.7751614 0,0.60619197 0,0.60619197 L84.7211996,9.0414069 L61.5475552,26.6788385 L84.7211996,45.3684161 L84.7211996,45.3684161 Z" id="flag-background" fill="#4FB79B"></path>
                                            <path d="M10.2507134,1.62946259 L59.4685627,47.8823772 L84.7211996,45.3666114 L61.5475552,26.6788385 L84.7211996,9.0414069 L10.2507134,1.62946259 L10.2507134,1.62946259 Z" id="flag-highlight" fill="#7DC5B1"></path>
                                            <path d="M29.0914705,23.1560444 C29.7405923,20.4201039 31.9548184,18.857225 34.5549115,18.857225 C37.1586106,18.857225 39.3079248,20.4201039 40.0237618,23.1560444 L29.0914705,23.1560444 L29.0914705,23.1560444 Z M34.4918024,11.4344525 C24.9298793,11.4344525 18.0311581,18.1425598 18.0311581,27.5180287 C18.0311581,36.9620765 24.4718878,43.1486227 34.8163632,43.1486227 C40.7395987,43.1486227 46.5943158,40.9342434 49.4594668,36.1806371 L41.9765362,31.0372133 C40.0886739,33.8363187 37.8762507,34.942606 35.1427272,34.942606 C32.0864459,34.942606 29.2880101,33.1198488 28.9634493,29.7973775 L50.3033249,29.732408 C50.4349525,28.8192247 50.4349525,27.9746203 50.4349525,27.130016 C50.4349525,17.817712 44.5784322,11.4344525 34.4918024,11.4344525 L34.4918024,11.4344525 L34.4918024,11.4344525 Z" id="flag-e" fill="#FFFFFF"></path>
                                        </g>
                                    </g>
                                    <g id="flag-link" transform="translate(479.980317, 349.068580)">
                                        <g id="flag" transform="translate(0.363926, 0.364248)">
                                            <path d="M34.1988732,18.7172465 L1.13686838e-13,22.1236936 C1.13686838e-13,22.1236936 2.12678473,16.1689677 2.12678473,11.066582 C2.12678473,5.96419638 1.13686838e-13,0.648361399 1.13686838e-13,0.648361399 L34.1988732,4.05335149 L24.844514,11.1729424 L34.1988732,18.7172465 L34.1988732,18.7172465 Z" id="flag-background" fill="#4FB79B"></path>
                                            <path d="M4.13784093,1.0614186 L24.0053003,19.7320414 L34.1988732,18.716518 L24.844514,11.1729424 L34.1988732,4.05335149 L4.13784093,1.0614186 L4.13784093,1.0614186 Z" id="flag-highlight" fill="#7DC5B1"></path>
                                            <path d="M11.7431707,9.75091834 C12.0051976,8.64651848 12.8990003,8.01564098 13.9485636,8.01564098 C14.9995824,8.01564098 15.8671825,8.64651848 16.1561399,9.75091834 L11.7431707,9.75091834 L11.7431707,9.75091834 Z M13.9230887,5.01933712 C10.0632874,5.01933712 7.27852406,7.72715658 7.27852406,11.5116931 C7.27852406,15.3239124 9.87841286,17.8211965 14.0541021,17.8211965 C16.4450973,17.8211965 18.808434,16.927332 19.9649915,15.0084736 L16.944404,12.9322602 C16.1823425,14.0621574 15.2892676,14.5087254 14.1858434,14.5087254 C12.9521336,14.5087254 11.8225067,13.7729445 11.6914932,12.4317835 L20.3056264,12.4055576 C20.3587596,12.0369386 20.3587596,11.6960025 20.3587596,11.3550664 C20.3587596,7.59602731 17.9946951,5.01933712 13.9230887,5.01933712 L13.9230887,5.01933712 L13.9230887,5.01933712 Z" id="flag-e" fill="#FFFFFF"></path>
                                        </g>
                                    </g>
                                    <g id="flag-link" transform="translate(872.477518, 437.699715)">
                                        <g id="flag" transform="translate(0.516063, 0.516519)">
                                            <path d="M48.4954318,26.5418381 L0,31.3723225 C0,31.3723225 3.01586966,22.9282722 3.01586966,15.692876 C3.01586966,8.4574798 0,0.91940357 0,0.91940357 L48.4954318,5.74782187 L35.2305596,15.8436995 L48.4954318,26.5418381 L48.4954318,26.5418381 Z" id="flag-background" fill="#4FB79B"></path>
                                            <path d="M5.86763143,1.50513596 L34.0405193,27.9808596 L48.4954318,26.5408051 L35.2305596,15.8436995 L48.4954318,5.74782187 L5.86763143,1.50513596 L5.86763143,1.50513596 Z" id="flag-highlight" fill="#7DC5B1"></path>
                                            <path d="M16.6523071,13.8272099 C17.023872,12.2611247 18.2913218,11.366514 19.7796462,11.366514 C21.2700349,11.366514 22.5003281,12.2611247 22.9100817,13.8272099 L16.6523071,13.8272099 L16.6523071,13.8272099 Z M19.7435218,7.11762988 C14.2701622,7.11762988 10.3212514,10.9574311 10.3212514,16.324062 C10.3212514,21.7299484 14.0080024,25.2712017 19.9293043,25.2712017 C23.3198354,25.2712017 26.6711458,24.0036644 28.3111926,21.2826431 L24.0278733,18.3384856 C22.9472383,19.9407271 21.6808207,20.5739792 20.116119,20.5739792 C18.3666669,20.5739792 16.7648087,19.5306111 16.5790262,17.6287887 L28.7942272,17.5915993 C28.8695723,17.0688822 28.8695723,16.5854206 28.8695723,16.1019589 C28.8695723,10.7714843 25.5172298,7.11762988 19.7435218,7.11762988 L19.7435218,7.11762988 L19.7435218,7.11762988 Z" id="flag-e" fill="#FFFFFF"></path>
                                        </g>
                                    </g>
                                    <g id="flag-link" transform="translate(515.948515, 1066.583530)">
                                        <g id="flag" transform="translate(0.321731, 0.322015)">
                                            <path d="M30.2336536,16.5470583 L1.77635684e-15,19.5585418 C1.77635684e-15,19.5585418 1.88019273,14.294242 1.88019273,9.78345708 C1.88019273,5.27267218 1.77635684e-15,0.573186545 1.77635684e-15,0.573186545 L30.2336536,3.58338195 L21.9638942,9.87748543 L30.2336536,16.5470583 L30.2336536,16.5470583 Z" id="flag-background" fill="#4FB79B"></path>
                                            <path d="M3.65807519,0.938351456 L21.2219838,17.4441918 L30.2336536,16.5464143 L21.9638942,9.87748543 L30.2336536,3.58338195 L3.65807519,0.938351456 L3.65807519,0.938351456 Z" id="flag-highlight" fill="#7DC5B1"></path>
                                            <path d="M10.3815981,8.62033921 C10.613244,7.64399 11.403414,7.08626017 12.3312846,7.08626017 C13.2604421,7.08626017 14.0274475,7.64399 14.2829014,8.62033921 L10.3815981,8.62033921 L10.3815981,8.62033921 Z M12.3087634,4.4373655 C8.89649033,4.4373655 6.43460894,6.83122436 6.43460894,10.1769593 C6.43460894,13.5471674 8.73305126,15.7549016 12.4245864,15.7549016 C14.5383555,15.7549016 16.627673,14.964677 17.6501323,13.2683025 L14.9797696,11.4328175 C14.3060661,12.4317077 13.5165395,12.826498 12.5410528,12.826498 C11.4503866,12.826498 10.4517354,12.1760279 10.3359124,10.990369 L17.9512721,10.9671839 C17.9982446,10.6413048 17.9982446,10.3398988 17.9982446,10.0384929 C17.9982446,6.71529899 15.9082837,4.4373655 12.3087634,4.4373655 L12.3087634,4.4373655 L12.3087634,4.4373655 Z" id="flag-e" fill="#FFFFFF"></path>
                                        </g>
                                    </g>
                                    <g id="flag-link-copy-6" transform="translate(689.390459, 926.681813)">
                                        <g id="flag" transform="translate(0.472307, 0.472725)">
                                            <path d="M44.8512846,24.2914496 L0.467608792,28.7123743 C0.467608792,28.7123743 3.22777354,20.9842651 3.22777354,14.3623326 C3.22777354,7.74040002 0.467608792,0.841450594 0.467608792,0.841450594 L44.8512846,5.26048439 L32.7110939,14.5003683 L44.8512846,24.2914496 L44.8512846,24.2914496 Z" id="flag-background" fill="#4FB79B"></path>
                                            <path d="M5.83774451,1.3775208 L31.6219529,25.6084616 L44.8512846,24.2905041 L32.7110939,14.5003683 L44.8512846,5.26048439 L5.83774451,1.3775208 L5.83774451,1.3775208 Z" id="flag-highlight" fill="#7DC5B1"></path>
                                            <path d="M15.7080256,12.6548497 C16.048087,11.2215473 17.2080741,10.4027875 18.5702088,10.4027875 C19.9342327,10.4027875 21.0602136,11.2215473 21.4352257,12.6548497 L15.7080256,12.6548497 L15.7080256,12.6548497 Z M18.5371472,6.51415123 C13.5278544,6.51415123 9.91375782,10.0283893 9.91375782,14.9400026 C9.91375782,19.887543 13.2879223,23.1285459 18.7071779,23.1285459 C21.8102379,23.1285459 24.8774025,21.9684787 26.3783955,19.4781631 L22.4582437,16.7836303 C21.4692319,18.2500234 20.3101895,18.8295843 18.8781532,18.8295843 C17.277031,18.8295843 15.8109886,17.8746797 15.640958,16.1341061 L26.8204754,16.1000699 C26.8894323,15.6216721 26.8894323,15.1792015 26.8894323,14.7367308 C26.8894323,9.85820825 23.821323,6.51415123 18.5371472,6.51415123 L18.5371472,6.51415123 L18.5371472,6.51415123 Z" id="flag-e" fill="#FFFFFF"></path>
                                        </g>
                                    </g>
                                    <g id="flag-link" transform="translate(937.338873, 1005.106971)">
                                        <g id="flag" transform="translate(0.465564, 0.465976)">
                                            <path d="M43.7500382,23.9446559 L0,28.3024659 C0,28.3024659 2.72075963,20.6846861 2.72075963,14.1572906 C2.72075963,7.62989523 0,0.829437738 0,0.829437738 L43.7500382,5.18538379 L31.7831653,14.2933557 L43.7500382,23.9446559 L43.7500382,23.9446559 Z" id="flag-background" fill="#4FB79B"></path>
                                            <path d="M5.2934697,1.35785481 L30.7095733,25.2428658 L43.7500382,23.943724 L31.7831653,14.2933557 L43.7500382,5.18538379 L5.2934697,1.35785481 L5.2934697,1.35785481 Z" id="flag-highlight" fill="#7DC5B1"></path>
                                            <path d="M15.0228391,12.4741844 C15.3580456,11.0613444 16.5014723,10.2542735 17.8441607,10.2542735 C19.1887113,10.2542735 20.2986173,11.0613444 20.6682757,12.4741844 L15.0228391,12.4741844 L15.0228391,12.4741844 Z M17.8115711,6.42115282 C12.8737928,6.42115282 9.31129234,9.88522032 9.31129234,14.7267136 C9.31129234,19.6036211 12.6372859,22.7983544 17.9791744,22.7983544 C21.0379339,22.7983544 24.0613105,21.6548486 25.5408749,19.2000857 L21.6766886,16.544021 C20.7017962,17.9894794 19.5593007,18.5607663 18.1477088,18.5607663 C16.5694447,18.5607663 15.1243322,17.6194942 14.9567289,15.9037697 L25.9766433,15.8702194 C26.0446158,15.3986514 26.0446158,14.9624976 26.0446158,14.5263438 C26.0446158,9.71746886 23.0203081,6.42115282 17.8115711,6.42115282 L17.8115711,6.42115282 L17.8115711,6.42115282 Z" id="flag-e" fill="#FFFFFF"></path>
                                        </g>
                                    </g>
                                    <g id="flag-link" transform="translate(690.207319, 534.999554)">
                                        <g id="flag" transform="translate(0.604486, 0.605020)">
                                            <path d="M56.8046728,30.089535 L0,35.747678 C0,35.747678 3.53261086,25.8568182 3.53261086,17.3817042 C3.53261086,8.90659026 0,0.0769348146 0,0.0769348146 L56.8046728,5.73265765 L41.266988,17.5583699 L56.8046728,30.089535 L56.8046728,30.089535 Z" id="flag-background" fill="#F741CD"></path>
                                            <path d="M6.87299546,0.763026994 L39.8730454,31.7751195 L56.8046728,30.088325 L41.266988,17.5583699 L56.8046728,5.73265765 L6.87299546,0.763026994 L6.87299546,0.763026994 Z" id="flag-highlight" fill="#FF67DC"></path>
                                        </g>
                                    </g>
                                    <g id="flag-link" transform="translate(937.338873, 510.111762)">
                                        <g id="flag" transform="translate(0.121400, 0.121507)">
                                            <path d="M11.4082102,6.24378121 L0,7.38011877 C0,7.38011877 0.70946218,5.39371517 0.70946218,3.69163898 C0.70946218,1.98956279 0,0.21628324 0,0.21628324 L11.4082102,1.35213477 L8.28774198,3.72711915 L11.4082102,6.24378121 L11.4082102,6.24378121 Z" id="flag-background" fill="#4FB79B"></path>
                                            <path d="M1.38031913,0.354072674 L8.00779334,6.58230093 L11.4082102,6.24353819 L8.28774198,3.72711915 L11.4082102,1.35213477 L1.38031913,0.354072674 L1.38031913,0.354072674 Z" id="flag-highlight" fill="#7DC5B1"></path>
                                            <path d="M3.9173384,3.25275411 C4.00474647,2.88434356 4.30290512,2.67389268 4.653023,2.67389268 C5.00362649,2.67389268 5.29304433,2.88434356 5.389436,3.25275411 L3.9173384,3.25275411 L3.9173384,3.25275411 Z M4.644525,1.6743725 C3.35695554,1.6743725 2.42800199,2.57765879 2.42800199,3.84012107 C2.42800199,5.11181792 3.2952843,5.94487291 4.68822903,5.94487291 C5.48582769,5.94487291 6.27419993,5.64669366 6.66000945,5.00659247 L5.65238862,4.31400008 C5.39817682,4.69091615 5.10026097,4.83988427 4.73217587,4.83988427 C4.32062953,4.83988427 3.94380362,4.59443924 3.90009959,4.14704886 L6.77363994,4.13830032 C6.79136435,4.0153348 6.79136435,3.90160383 6.79136435,3.78787287 C6.79136435,2.53391611 6.00274931,1.6743725 4.644525,1.6743725 L4.644525,1.6743725 L4.644525,1.6743725 Z" id="flag-e" fill="#FFFFFF"></path>
                                        </g>
                                    </g>
                                    <g id="flag-link" transform="translate(856.136290, 1198.110451)">
                                        <g id="flag" transform="translate(0.219403, 0.219597)">
                                            <path d="M20.6176962,11.2841876 L4.54747351e-13,13.3378545 C4.54747351e-13,13.3378545 1.28218848,9.74789027 1.28218848,6.67178198 C1.28218848,3.5956737 4.54747351e-13,0.390881836 4.54747351e-13,0.390881836 L20.6176962,2.44367026 L14.9781731,6.73590417 L20.6176962,11.2841876 L20.6176962,11.2841876 Z" id="flag-background" fill="#4FB79B"></path>
                                            <path d="M2.49460696,0.639904309 L14.4722308,11.8959836 L20.6176962,11.2837485 L14.9781731,6.73590417 L20.6176962,2.44367026 L2.49460696,0.639904309 L2.49460696,0.639904309 Z" id="flag-highlight" fill="#7DC5B1"></path>
                                            <path d="M7.07968138,5.87859929 C7.23765122,5.21278259 7.77650387,4.83244139 8.40926083,4.83244139 C9.04289537,4.83244139 9.56595105,5.21278259 9.74015667,5.87859929 L7.07968138,5.87859929 L7.07968138,5.87859929 Z M8.39390265,3.02604028 C6.06691923,3.02604028 4.38805094,4.65852093 4.38805094,6.94012895 C4.38805094,9.23842631 5.95546274,10.7439802 8.47288756,10.7439802 C9.9143623,10.7439802 11.3391624,10.2050903 12.0364237,9.04825571 L10.2153826,7.79655545 C9.75595366,8.4777439 9.21753981,8.74696926 8.55231128,8.74696926 C7.80853665,8.74696926 7.12751114,8.30338425 7.04852622,7.4948298 L12.2417845,7.47901885 C12.2738173,7.25678716 12.2738173,7.0512448 12.2738173,6.84570244 C12.2738173,4.57946618 10.8485784,3.02604028 8.39390265,3.02604028 L8.39390265,3.02604028 L8.39390265,3.02604028 Z" id="flag-e" fill="#FFFFFF"></path>
                                        </g>
                                    </g>
                                    <g id="flag-link-copy-5" transform="translate(741.671227, 404.940193)">
                                        <g id="flag" transform="translate(0.395799, 0.396149)">
                                            <path d="M37.194058,20.356529 L8.2067686e-13,24.0613174 C8.2067686e-13,24.0613174 2.31305149,17.5850683 2.31305149,12.0358087 C2.31305149,6.48654898 8.2067686e-13,0.705145791 8.2067686e-13,0.705145791 L37.194058,4.40834964 L27.0204311,12.1514843 L37.194058,20.356529 L37.194058,20.356529 Z" id="flag-background" fill="#4FB79B"></path>
                                            <path d="M4.50023879,1.15437912 L26.1077178,21.460201 L37.194058,20.3557367 L27.0204311,12.1514843 L37.194058,4.40834964 L4.50023879,1.15437912 L4.50023879,1.15437912 Z" id="flag-highlight" fill="#7DC5B1"></path>
                                            <path d="M12.7716539,10.6049173 C13.0566295,9.40379257 14.0287127,8.71766195 15.1701981,8.71766195 C16.3132666,8.71766195 17.2568524,9.40379257 17.571117,10.6049173 L12.7716539,10.6049173 L12.7716539,10.6049173 Z M15.1424921,5.45893764 C10.944644,5.45893764 7.91598731,8.40391169 7.91598731,12.5199031 C7.91598731,16.6660019 10.743578,19.3820017 15.2849799,19.3820017 C17.8853817,19.3820017 20.4557028,18.4098512 21.7135532,16.3229366 L18.4284185,14.0648855 C17.5996146,15.2937407 16.628323,15.7794197 15.4282592,15.7794197 C14.0864994,15.7794197 12.8579382,14.9791981 12.7154504,13.5205763 L22.0840214,13.4920536 C22.1418081,13.0911504 22.1418081,12.7203547 22.1418081,12.3495589 C22.1418081,8.26129793 19.5706954,5.45893764 15.1424921,5.45893764 L15.1424921,5.45893764 L15.1424921,5.45893764 Z" id="flag-e" fill="#FFFFFF"></path>
                                        </g>
                                    </g>
                                    <g id="flag-link" transform="translate(768.713587, 863.690795)">
                                        <g id="flag" transform="translate(0.292241, 0.292499)">
                                            <path d="M27.4624695,15.0303728 L5.89750471e-13,17.7658269 C5.89750471e-13,17.7658269 1.70785629,12.9840472 1.70785629,8.88671594 C1.70785629,4.78938473 5.89750471e-13,0.520648883 5.89750471e-13,0.520648883 L27.4624695,3.25493302 L19.9507073,8.97212576 L27.4624695,15.0303728 L27.4624695,15.0303728 Z" id="flag-background" fill="#4FB79B"></path>
                                            <path d="M3.32277996,0.852343172 L19.2767996,15.845276 L27.4624695,15.0297878 L19.9507073,8.97212576 L27.4624695,3.25493302 L3.32277996,0.852343172 L3.32277996,0.852343172 Z" id="flag-highlight" fill="#7DC5B1"></path>
                                            <path d="M9.43003198,7.83020821 C9.64044549,6.94335011 10.3581894,6.4367412 11.2010124,6.4367412 C12.0450042,6.4367412 12.7417068,6.94335011 12.9737462,7.83020821 L9.43003198,7.83020821 L9.43003198,7.83020821 Z M11.1805555,4.03064136 C8.0810476,4.03064136 5.84481962,6.20508169 5.84481962,9.24415018 C5.84481962,12.3054486 7.93258919,14.3108243 11.2857622,14.3108243 C13.2057855,14.3108243 15.1035984,13.5930308 16.0323402,12.0521442 L13.6067401,10.3848977 C12.9947875,11.2922308 12.277628,11.650835 11.3915534,11.650835 C10.4008565,11.650835 9.49374051,11.0599863 9.38853376,9.98300359 L16.3058778,9.96194364 C16.348545,9.66593427 16.348545,9.39215486 16.348545,9.11837545 C16.348545,6.09978192 14.4501476,4.03064136 11.1805555,4.03064136 L11.1805555,4.03064136 L11.1805555,4.03064136 Z" id="flag-e" fill="#FFFFFF"></path>
                                        </g>
                                    </g>
                                    <g id="flag-link" transform="translate(575.672606, 302.865441)">
                                        <g id="flag" transform="translate(0.309809, 0.310083)">
                                            <path d="M29.1133372,15.9339025 L0,18.8337946 C0,18.8337946 1.81052167,13.7645649 1.81052167,9.42092836 C1.81052167,5.07729185 0,0.551946958 0,0.551946958 L29.1133372,3.45059873 L21.150016,9.51147247 L29.1133372,15.9339025 L29.1133372,15.9339025 Z" id="flag-background" fill="#4FB79B"></path>
                                            <path d="M3.52252419,0.903580582 L20.4355973,16.7977925 L29.1133372,15.9332823 L21.150016,9.51147247 L29.1133372,3.45059873 L3.52252419,0.903580582 L3.52252419,0.903580582 Z" id="flag-highlight" fill="#7DC5B1"></path>
                                            <path d="M9.9969051,8.30091015 C10.2199673,7.36073982 10.9808573,6.82367683 11.8743454,6.82367683 C12.7690727,6.82367683 13.5076565,7.36073982 13.7536446,8.30091015 L9.9969051,8.30091015 L9.9969051,8.30091015 Z M11.8526588,4.27293769 C8.56682841,4.27293769 6.19617272,6.57809144 6.19617272,9.79984925 C6.19617272,13.0451733 8.40944562,15.1710994 11.9641899,15.1710994 C13.9996327,15.1710994 16.0115299,14.4101568 16.9961018,12.7766418 L14.4246901,11.0091712 C13.7759508,11.9710473 13.0156804,12.3512086 12.0763406,12.3512086 C11.0260893,12.3512086 10.0644434,11.7248418 9.95291224,10.5831178 L17.2860827,10.5607919 C17.3313147,10.2469883 17.3313147,9.95675102 17.3313147,9.66651375 C17.3313147,6.46646172 15.3187978,4.27293769 11.8526588,4.27293769 L11.8526588,4.27293769 L11.8526588,4.27293769 Z" id="flag-e" fill="#FFFFFF"></path>
                                        </g>
                                    </g>
                                    <g id="flag-link" transform="translate(986.169220, 673.496805)">
                                        <g id="flag" transform="translate(0.881967, 0.812151)">
                                            <path d="M8.35294501,4.57161645 L2.49933407e-12,5.40362822 C2.49933407e-12,5.40362822 0.519459101,3.94920901 0.519459101,2.70297067 C0.519459101,1.45673233 2.49933407e-12,0.158359812 2.49933407e-12,0.158359812 L8.35294501,0.990015721 L6.06817829,2.7289488 L8.35294501,4.57161645 L8.35294501,4.57161645 Z" id="flag-background" fill="#4FB79B"></path>
                                            <path d="M1.01065195,0.259247467 L5.86320349,4.81947624 L8.35294501,4.57143852 L6.06817829,2.7289488 L8.35294501,0.990015721 L1.01065195,0.259247467 L1.01065195,0.259247467 Z" id="flag-highlight" fill="#7DC5B1"></path>
                                            <path d="M2.86822489,2.4439753 C2.93222396,2.13454748 3.15053189,1.9577899 3.40688371,1.9577899 C3.66359109,1.9577899 3.87549911,2.13454748 3.94607587,2.4439753 L2.86822489,2.4439753 L2.86822489,2.4439753 Z M3.40066159,1.22595405 C2.45791975,1.22595405 1.77775189,1.88732868 1.77775189,2.81168735 C1.77775189,3.74280746 2.41276486,4.35275963 3.43266111,4.35275963 C4.01665261,4.35275963 4.59388865,4.13443661 4.87637342,3.66576274 L4.13860638,3.15865548 C3.95247577,3.43462859 3.73434561,3.54370113 3.46483842,3.54370113 C3.16350948,3.54370113 2.88760239,3.36398944 2.85560285,3.03641594 L4.95957221,3.03001037 C4.97254979,2.93997659 4.97254979,2.85670424 4.97254979,2.77343189 C4.97254979,1.85530085 4.39513599,1.22595405 3.40066159,1.22595405 L3.40066159,1.22595405 L3.40066159,1.22595405 Z" id="flag-e" fill="#FFFFFF"></path>
                                        </g>
                                    </g>
                                    <g id="flag-link" transform="translate(636.957340, 1013.106971)">
                                        <g id="flag" transform="translate(0.789433, 0.843771)">
                                            <path d="M19.028186,10.4142393 L3.40882877e-12,12.3095797 C3.40882877e-12,12.3095797 1.18333885,8.99638192 1.18333885,6.15742454 C1.18333885,3.31846717 3.40882877e-12,0.360747011 3.40882877e-12,0.360747011 L19.028186,2.25527682 L13.8234389,6.21660327 L19.028186,10.4142393 L19.028186,10.4142393 Z" id="flag-background" fill="#4FB79B"></path>
                                            <path d="M2.30228658,0.59057123 L13.3565019,10.9788691 L19.028186,10.4138339 L13.8234389,6.21660327 L19.028186,2.25527682 L2.30228658,0.59057123 L2.30228658,0.59057123 Z" id="flag-highlight" fill="#7DC5B1"></path>
                                            <path d="M6.53387716,5.42539184 C6.6796684,4.81090592 7.1769785,4.45988692 7.76095338,4.45988692 C8.34573822,4.45988692 8.8284692,4.81090592 8.98924454,5.42539184 L6.53387716,5.42539184 L6.53387716,5.42539184 Z M7.74677923,2.79274933 C5.59919335,2.79274933 4.04975651,4.29937477 4.04975651,6.40508345 C4.04975651,8.5261948 5.49632954,9.9156788 7.81967485,9.9156788 C9.15001987,9.9156788 10.4649758,9.41833432 11.1084821,8.3506853 L9.42783316,7.1954842 C9.00382366,7.8241568 8.50691853,8.07262637 7.89297545,8.07262637 C7.20654172,8.07262637 6.57801951,7.66323931 6.50512389,6.91701993 L11.2980107,6.90242792 C11.327574,6.69732906 11.327574,6.50763288 11.327574,6.3179367 C11.327574,4.2264147 10.0122131,2.79274933 7.74677923,2.79274933 L7.74677923,2.79274933 L7.74677923,2.79274933 Z" id="flag-e" fill="#FFFFFF"></path>
                                        </g>
                                    </g>
                                    <g id="flag-link" transform="translate(675.229973, 1213.110451)">
                                        <g id="flag" transform="translate(0.165038, 0.165184)">
                                            <path d="M15.508934,8.48813174 L2.58282284e-12,10.0329301 C2.58282284e-12,10.0329301 0.964481018,7.33250629 0.964481018,5.01861244 C0.964481018,2.70471858 2.58282284e-12,0.29402706 2.58282284e-12,0.29402706 L15.508934,1.83816468 L11.2668019,5.06684609 L15.508934,8.48813174 L15.508934,8.48813174 Z" id="flag-background" fill="#4FB79B"></path>
                                            <path d="M1.87648001,0.481345423 L10.8862247,8.94833365 L15.508934,8.48780138 L11.2668019,5.06684609 L15.508934,1.83816468 L1.87648001,0.481345423 L1.87648001,0.481345423 Z" id="flag-highlight" fill="#7DC5B1"></path>
                                            <path d="M5.32544036,4.42196876 C5.44426759,3.92113166 5.84960048,3.63503342 6.32556955,3.63503342 C6.80219877,3.63503342 7.19564893,3.92113166 7.32668896,4.42196876 L5.32544036,4.42196876 L5.32544036,4.42196876 Z M6.31401689,2.27623196 C4.56362578,2.27623196 3.30075639,3.50420789 3.30075639,5.22046697 C3.30075639,6.94928001 4.47978657,8.08177974 6.37343051,8.08177974 C7.45772899,8.08177974 8.52948459,7.67641884 9.05397478,6.80623089 L7.68416088,5.86468356 C7.33857168,6.37708353 6.93356887,6.57959879 6.43317421,6.57959879 C5.87369599,6.57959879 5.36141861,6.24592764 5.30200499,5.6377211 L9.20845017,5.62582787 C9.2325457,5.45866192 9.2325457,5.30404994 9.2325457,5.14943796 C9.2325457,3.44474175 8.16046002,2.27623196 6.31401689,2.27623196 L6.31401689,2.27623196 L6.31401689,2.27623196 Z" id="flag-e" fill="#FFFFFF"></path>
                                        </g>
                                    </g>
                                </g>
                            </g>
                            <path d="M151.064378,517.028653 L151.064378,516.45614 L160.827955,507.532829 C162.57686,505.900829 163.783324,504.548527 164.447382,503.475882 C165.11144,502.403236 165.443465,501.3668 165.443465,500.366542 C165.443465,499.405768 165.1739,498.649005 164.634764,498.096231 C164.095627,497.543457 163.365832,497.267074 162.445355,497.267074 C161.432832,497.267074 160.670163,497.619133 160.157325,498.323262 C159.644489,499.027391 159.466971,499.991441 159.624767,501.215441 L151.813905,501.215441 C151.616661,498.227828 152.556848,495.783155 154.634495,493.881349 C156.712142,491.979542 159.480104,491.028653 162.938465,491.028653 C166.094385,491.028653 168.619083,491.83148 170.512634,493.437157 C172.406186,495.042835 173.352948,497.220996 173.352948,499.971705 C173.352948,501.682673 172.991337,503.219231 172.268105,504.581424 C171.544874,505.943618 170.236503,507.467015 168.342951,509.15166 L166.883345,510.395396 L174.003853,510.395396 L174.003853,517.028653 L151.064378,517.028653 L151.064378,517.028653 Z" id="2" fill="#FFFFFF"></path>
                            <path d="M263.248391,544.728465 C263.248391,538.257794 265.145686,533.015331 268.940333,529.000918 C272.73498,524.986506 277.724164,522.979329 283.908033,522.979329 C290.308123,522.979329 295.308117,524.916173 298.908167,528.789919 C302.508217,532.663665 304.308214,537.97646 304.308214,544.728465 C304.308214,551.264058 302.437946,556.506521 298.697354,560.456011 C294.956761,564.4055 289.962172,566.380215 283.713437,566.380215 C277.270104,566.380215 272.248489,564.454192 268.648439,560.602087 C265.048389,556.749982 263.248391,551.458828 263.248391,544.728465 L263.248391,544.728465 L263.248391,544.728465 Z M276.480941,544.728465 C276.480941,548.039543 277.113373,550.6743 278.378255,552.632814 C279.643137,554.591328 281.443136,555.570571 283.778303,555.570571 C286.199958,555.570571 288.032389,554.612969 289.275648,552.697737 C290.518909,550.782505 291.140531,548.126108 291.140531,544.728465 C291.140531,541.482309 290.481072,538.852962 289.162134,536.840345 C287.843197,534.827729 286.048605,533.821436 283.778303,533.821436 C281.335025,533.821436 279.508001,534.773627 278.297173,536.678038 C277.086346,538.58245 276.480941,541.265898 276.480941,544.728465 L276.480941,544.728465 L276.480941,544.728465 Z" id="0" fill="#FFFFFF"></path>
                            <path d="M710.097443,548.667204 L710.097443,543.247403 L720.142451,543.247403 L720.142451,564.028653 L713.782215,564.028653 L713.782215,548.667204 L710.097443,548.667204 L710.097443,548.667204 Z" id="1" fill="#FFFFFF"></path>
                            <path d="M831.269596,617.146659 L833.645865,606.979135 C837.626136,609.734092 841.39842,611.11155 844.962839,611.11155 C846.96287,611.11155 848.576743,610.551648 849.804488,609.431827 C851.032232,608.312006 851.646089,606.820586 851.646089,604.957522 C851.646089,602.876439 850.844109,601.271057 849.240117,600.141326 C847.636135,599.011596 845.299491,598.446739 842.230135,598.446739 C839.556818,598.446739 837.02216,598.853039 834.626078,599.665652 L834.00231,599.07106 L838.517218,577.457639 L860.79472,577.457639 L860.79472,587.417056 L845.883644,587.417056 L845.022246,591.63866 C846.923265,591.341362 848.428225,591.192716 849.537154,591.192716 C851.517383,591.192716 853.31937,591.450369 854.943164,591.965685 C856.566949,592.481001 858.017456,593.268827 859.294697,594.329189 C860.571947,595.38955 861.567008,596.806647 862.279887,598.580522 C862.992767,600.354397 863.349212,602.420584 863.349212,604.779144 C863.349212,606.384551 863.126439,607.955249 862.680883,609.491286 C862.235327,611.027324 861.532358,612.489014 860.571947,613.876403 C859.611537,615.263791 858.458067,616.482693 857.111507,617.533144 C855.764948,618.583595 854.11148,619.420971 852.151043,620.045295 C850.190616,620.66962 848.061899,620.981778 845.76483,620.981778 C840.378602,620.981778 835.546904,619.703418 831.269596,617.146659 L831.269596,617.146659 L831.269596,617.146659 Z" id="5" fill="#FFFFFF"></path>
                        </g>
                    </g>
                </g>
            </g>
            <path d="M396.421369,866.40772 C405.563167,866.40772 414.604507,862.957268 419.024717,855.548946 L407.471894,847.53172 C404.558574,851.895526 401.142957,853.620752 396.923665,853.620752 C392.202077,853.620752 387.882326,850.779204 387.380029,845.603526 L420.330688,845.502042 C420.531606,844.081268 420.531606,842.761978 420.531606,841.442688 C420.531606,826.930494 411.490267,816.985075 395.919072,816.985075 C381.151551,816.985075 370.502863,827.437913 370.502863,842.051591 C370.502863,856.766752 380.448336,866.40772 396.421369,866.40772 L396.421369,866.40772 L396.421369,866.40772 Z M396.019531,828.554236 C400.037904,828.554236 403.353062,830.989849 404.458115,835.252171 L387.580948,835.252171 C388.585541,830.989849 392.001158,828.554236 396.019531,828.554236 L396.019531,828.554236 L396.019531,828.554236 Z M476.66521,817.89843 L458.381613,817.89843 L458.381613,842.356042 C458.381613,848.749526 455.267374,852.199978 450.244408,852.199978 C445.824197,852.199978 443.111795,849.561397 443.111795,844.38572 L443.111795,817.89843 L424.727739,817.89843 L424.727739,848.242107 C424.727739,859.6083 432.06127,866.40772 442.40858,866.40772 C448.335681,866.40772 454.463699,864.073591 458.88391,859.303849 L459.386206,865.392881 L476.66521,865.392881 L476.66521,817.89843 L476.66521,817.89843 Z M485.78385,817.89843 L485.78385,865.392881 L504.167906,865.392881 L504.167906,844.081268 C504.167906,836.26701 508.588116,833.323978 515.720729,833.323978 C518.232212,833.323978 520.844155,833.729913 523.355637,834.237333 L523.456096,817.492494 C521.949206,817.086559 520.341858,816.883591 518.834968,816.883591 C513.410164,816.883591 508.286738,819.522171 503.766068,825.205268 L503.163312,817.89843 L485.78385,817.89843 L485.78385,817.89843 Z M578.585108,817.89843 L560.301511,817.89843 L560.301511,842.356042 C560.301511,848.749526 557.187272,852.199978 552.164306,852.199978 C547.744095,852.199978 545.031694,849.561397 545.031694,844.38572 L545.031694,817.89843 L526.647637,817.89843 L526.647637,848.242107 C526.647637,859.6083 533.981168,866.40772 544.328478,866.40772 C550.255579,866.40772 556.383597,864.073591 560.803808,859.303849 L561.306104,865.392881 L578.585108,865.392881 L578.585108,817.89843 L578.585108,817.89843 Z M631.905856,827.437913 C626.782426,820.232559 619.951191,816.883591 610.407555,816.883591 C595.338656,816.883591 584.288131,826.82901 584.288131,841.848623 C584.288131,856.259333 594.93682,866.40772 610.005718,866.40772 C619.951191,866.40772 626.983348,862.7543 632.910447,855.14301 L620.353028,846.21243 C618.243383,849.764365 614.928225,851.895526 610.909852,851.895526 C605.28413,851.895526 601.567134,847.836171 601.567134,841.645655 C601.567134,835.556623 605.183671,831.497268 610.508015,831.497268 C613.622254,831.497268 616.937411,833.019526 619.247975,836.77443 L631.905856,827.437913 L631.905856,827.437913 Z M666.440701,865.392881 L680.605467,865.392881 L680.605467,835.658107 C680.605467,823.277075 672.769635,816.883591 658.805792,816.883591 C652.577309,816.883591 644.641026,818.405849 638.613465,820.739978 L643.234599,831.2943 C647.052054,829.97501 651.572717,828.858688 655.591094,828.858688 C660.714514,828.858688 664.732891,830.685397 664.933813,836.165526 C661.417732,834.643268 657.399365,833.831397 653.380988,833.831397 C642.029085,833.831397 634.494637,840.833784 634.494637,850.271784 C634.494637,860.014236 640.72311,866.40772 653.380988,866.40772 C657.600277,866.40772 662.020489,865.291397 665.737483,862.348365 L666.440701,865.392881 L666.440701,865.392881 Z M657.198443,854.432623 C652.476857,854.432623 649.965368,853.011849 649.965368,850.068817 C649.965368,847.227268 652.376396,845.502042 656.796608,845.502042 C659.308087,845.502042 662.221412,846.313913 664.63243,847.53172 L664.63243,852.808881 C662.221412,853.925204 659.50901,854.432623 657.198443,854.432623 L657.198443,854.432623 L657.198443,854.432623 Z M688.217217,865.392881 L706.601272,865.392881 L706.601272,840.935268 C706.601272,834.541784 709.615047,831.091333 714.638016,831.091333 C719.058228,831.091333 721.77063,833.729913 721.77063,838.905591 L721.77063,865.392881 L740.154685,865.392881 L740.154685,840.935268 C740.154685,834.541784 743.16846,831.091333 748.29189,831.091333 C752.712102,831.091333 755.424504,833.729913 755.424504,838.905591 L755.424504,865.392881 L773.808559,865.392881 L773.808559,835.150688 C773.808559,823.581526 766.575484,816.883591 755.223581,816.883591 C748.29189,816.883591 741.661573,819.928107 737.542744,824.799333 C734.528959,819.725139 729.104156,816.883591 722.473848,816.883591 C716.6472,816.883591 710.418727,819.319204 706.098976,824.088946 L705.59668,817.89843 L688.217217,817.89843 L688.217217,865.392881 L688.217217,865.392881 Z M812.462243,816.883591 C807.338813,816.883591 802.315844,818.7103 798.197016,822.566688 L797.594258,817.89843 L781.420309,817.89843 L781.420309,887.414881 L799.302068,887.414881 L799.302068,877.266494 C799.302068,872.69972 799.201607,867.625526 799.101146,863.363204 C802.717688,865.494365 807.037439,866.40772 811.859486,866.40772 C824.919198,866.40772 835.869267,856.157849 835.869267,841.950107 C835.869267,827.234946 826.225164,816.883591 812.462243,816.883591 L812.462243,816.883591 L812.462243,816.883591 Z M808.343404,831.091333 C815.275106,831.091333 818.590254,836.26701 818.590254,841.645655 C818.590254,847.0243 815.275106,852.199978 808.343404,852.199978 C804.927794,852.199978 801.411713,850.67772 799.302068,848.140623 L799.302068,834.541784 C801.713097,832.309139 805.028246,831.091333 808.343404,831.091333 L808.343404,831.091333 L808.343404,831.091333 Z" id="eurucamp-copy" fill="#DEFDF5" sketch:type="MSShapeGroup"></path>
        </g>
    </g>
</svg>