<?xml version="1.0" encoding="UTF-8" standalone="no"?>
<svg width="1120px" height="1394px" viewBox="0 0 1120 1394" version="1.1" xmlns="http://www.w3.org/2000/svg" xmlns:xlink="http://www.w3.org/1999/xlink" xmlns:sketch="http://www.bohemiancoding.com/sketch/ns">
    <!-- Generator: Sketch 3.3.2 (12043) - http://www.bohemiancoding.com/sketch -->
    <title>eurucamp-2015-cover-portrait</title>
    <desc>Created with Sketch.</desc>
    <defs></defs>
    <g id="Page-1" stroke="none" stroke-width="1" fill="none" fill-rule="evenodd" sketch:type="MSPage">
        <g id="eurucamp-2015-cover-portrait" sketch:type="MSLayerGroup" transform="translate(-12.000000, 0.000000)">
            <g id="Page-1" sketch:type="MSShapeGroup">
                <g id="Mask" transform="translate(12.000000, 0.000000)" fill="#913BBE">
                    <rect id="path-1" x="0" y="0" width="1120" height="1394"></rect>
                </g>
                <g id="Group-Clipped" transform="translate(0.000000, 21.000000)">
                    <g id="Group">
                        <g transform="translate(565.725886, 656.001115) rotate(-5.000000) translate(-565.725886, -656.001115) translate(52.225886, 42.501115)">
                            <g id="cover" transform="translate(0.741040, 1.028501)">
                                <g id="Group" transform="translate(1.000000, 0.000000)">
                                    <g id="flag-link" transform="translate(157.379510, 0.315452)">
                                        <g id="flag" transform="translate(0.759241, 0.290402)">
                                            <path d="M8.18211793,4.43875847 L0.0647511278,5.24659074 C0.0647511278,5.24659074 0.569559918,3.83443912 0.569559918,2.62441832 C0.569559918,1.41439752 0.0647511278,0.15375764 0.0647511278,0.15375764 L8.18211793,0.96124439 L5.96178851,2.64964148 L8.18211793,4.43875847 L8.18211793,4.43875847 Z" id="flag-background" fill="#4FB79B"></path>
                                            <path d="M1.04689965,0.251713349 L5.76259463,4.67941509 L8.18211793,4.43858571 L5.96178851,2.64964148 L8.18211793,0.96124439 L1.04689965,0.251713349 L1.04689965,0.251713349 Z" id="flag-highlight" fill="#7DC5B1"></path>
                                            <path d="M2.85208344,2.31241124 C2.91427754,2.05050497 3.12642853,1.90089361 3.37555046,1.90089361 C3.62501791,1.90089361 3.83094949,2.05050497 3.89953577,2.31241124 L2.85208344,2.31241124 L2.85208344,2.31241124 Z M3.36950381,1.190326 C2.45335015,1.190326 1.79236506,1.83248009 1.79236506,2.72997553 C1.79236506,3.6340359 2.40946875,4.22626195 3.40060086,4.22626195 C3.96812204,4.22626195 4.52907828,4.01428373 4.80359613,3.55923022 L4.08663635,3.06686025 C3.90575518,3.33481317 3.69377695,3.4407159 3.43187068,3.4407159 C3.13904011,3.4407159 2.87091443,3.26622689 2.83981738,2.94817317 L4.88444847,2.94195376 C4.89706005,2.85453649 4.89706005,2.77368416 4.89706005,2.69283183 C4.89706005,1.80138304 4.33593104,1.190326 3.36950381,1.190326 L3.36950381,1.190326 L3.36950381,1.190326 Z" id="flag-e" fill="#FFFFFF"></path>
                                        </g>
                                    </g>
                                    <g id="flag-link" transform="translate(273.614352, 57.088511)">
                                        <g id="flag" transform="translate(0.139832, 0.139832)">
                                            <path d="M13.1602461,7.18541695 L0.0199355199,8.49312759 C0.0199355199,8.49312759 0.837114842,6.20715094 0.837114842,4.24838161 C0.837114842,2.28961229 0.0199355199,0.248901299 0.0199355199,0.248901299 L13.1602461,1.55605262 L9.56599951,4.28921261 L13.1602461,7.18541695 L13.1602461,7.18541695 Z" id="flag-background" fill="#4FB79B"></path>
                                            <path d="M1.60982753,0.407471003 L9.24354648,7.57498943 L13.1602461,7.18513728 L9.56599951,4.28921261 L13.1602461,1.55605262 L1.60982753,0.407471003 L1.60982753,0.407471003 Z" id="flag-highlight" fill="#7DC5B1"></path>
                                            <path d="M4.53204065,3.74330774 C4.63271982,3.31933654 4.97614768,3.07714719 5.37942372,3.07714719 C5.78325909,3.07714719 6.11661903,3.31933654 6.22764579,3.74330774 L4.53204065,3.74330774 L4.53204065,3.74330774 Z M5.36963547,1.92688759 C3.88657525,1.92688759 2.81657933,2.96640009 2.81657933,4.41925655 C2.81657933,5.88274026 3.8155405,6.84142976 5.41997506,6.84142976 C6.33867255,6.84142976 7.24674279,6.49828156 7.6911295,5.76164558 L6.53052231,4.9646021 C6.23771371,5.39836155 5.89456551,5.56979582 5.47059431,5.56979582 C4.99656318,5.56979582 4.56252406,5.28733479 4.51218448,4.77247267 L7.82201243,4.76240475 C7.84242793,4.62089457 7.84242793,4.49001164 7.84242793,4.35912871 C7.84242793,2.9160605 6.93407802,1.92688759 5.36963547,1.92688759 L5.36963547,1.92688759 L5.36963547,1.92688759 Z" id="flag-e" fill="#FFFFFF"></path>
                                        </g>
                                    </g>
                                    <g id="flag-link-copy-3" transform="translate(750.336947, 616.779515)">
                                        <g id="flag" transform="translate(0.268764, 0.268764)">
                                            <path d="M25.2946309,13.8107196 L0.0383170354,16.3242028 C0.0383170354,16.3242028 1.6089753,11.9304449 1.6089753,8.16559536 C1.6089753,4.40074578 0.0383170354,0.47840036 0.0383170354,0.47840036 L25.2946309,2.99080854 L18.3863147,8.24407452 L25.2946309,13.8107196 L25.2946309,13.8107196 Z" id="flag-background" fill="#4FB79B"></path>
                                            <path d="M3.09416653,0.783179016 L17.7665443,14.5594968 L25.2946309,13.8101821 L18.3863147,8.24407452 L25.2946309,2.99080854 L3.09416653,0.783179016 L3.09416653,0.783179016 Z" id="flag-highlight" fill="#7DC5B1"></path>
                                            <path d="M8.71080176,7.1948189 C8.90431202,6.3799257 9.56439701,5.91442602 10.3395131,5.91442602 C11.1157042,5.91442602 11.7564382,6.3799257 11.969837,7.1948189 L8.71080176,7.1948189 L8.71080176,7.1948189 Z M10.3206996,3.70357133 C7.470186,3.70357133 5.41360198,5.70156474 5.41360198,8.49402527 C5.41360198,11.3069119 7.33365376,13.1495596 10.4174547,13.1495596 C12.1832358,13.1495596 13.9285909,12.4900121 14.7827236,11.074162 L12.5519804,9.54220583 C11.9891881,10.3759125 11.3296406,10.7054175 10.5147474,10.7054175 C9.60363659,10.7054175 8.76939237,10.1625137 8.67263724,9.17292376 L15.034287,9.15357273 C15.0735266,8.88158331 15.0735266,8.63001998 15.0735266,8.37845664 C15.0735266,5.60480961 13.327634,3.70357133 10.3206996,3.70357133 L10.3206996,3.70357133 L10.3206996,3.70357133 Z" id="flag-e" fill="#FFFFFF"></path>
                                        </g>
                                    </g>
                                    <g id="flag-link-copy-4" transform="translate(545.489121, 688.211425)">
                                        <g id="flag" transform="translate(0.429852, 0.429852)">
                                            <path d="M40.4553546,22.0883855 L0.0612829362,26.1083634 C0.0612829362,26.1083634 2.57333924,19.0811395 2.57333924,13.0597698 C2.57333924,7.03840004 0.0612829362,0.765136929 0.0612829362,0.765136929 L40.4553546,4.78339536 L29.4064334,13.1852866 L40.4553546,22.0883855 L40.4553546,22.0883855 Z" id="flag-background" fill="#4FB79B"></path>
                                            <path d="M4.94870253,1.25258933 L28.4151942,23.2859538 L40.4553546,22.0875258 L29.4064334,13.1852866 L40.4553546,4.78339536 L4.94870253,1.25258933 L4.94870253,1.25258933 Z" id="flag-highlight" fill="#7DC5B1"></path>
                                            <path d="M13.931754,11.5071436 C14.2412475,10.2038317 15.2969646,9.45932767 16.5366583,9.45932767 C17.7780715,9.45932767 18.8028392,10.2038317 19.1441418,11.5071436 L13.931754,11.5071436 L13.931754,11.5071436 Z M16.5065687,5.92336342 C11.9475562,5.92336342 8.65832708,9.11888473 8.65832708,13.5850492 C8.65832708,18.0838824 11.7291913,21.0309491 16.6613155,21.0309491 C19.4854445,21.0309491 22.2769047,19.9760918 23.642975,17.7116303 L20.0752017,15.2614728 C19.1750912,16.5948743 18.1202339,17.1218731 16.816922,17.1218731 C15.359723,17.1218731 14.0254617,16.2535717 13.8707149,14.6708558 L24.0453167,14.6399065 C24.1080751,14.204896 24.1080751,13.8025544 24.1080751,13.4002127 C24.1080751,8.96413793 21.3157552,5.92336342 16.5065687,5.92336342 L16.5065687,5.92336342 L16.5065687,5.92336342 Z" id="flag-e" fill="#FFFFFF"></path>
                                        </g>
                                    </g>
                                    <g id="flag-link" transform="translate(43.083245, 608.180497)">
                                        <g id="flag" transform="translate(0.346926, 0.468110)">
                                            <path d="M38.9862859,19.7202219 L2.92298677,23.3092056 C2.92298677,23.3092056 5.16571778,17.0353919 5.16571778,11.6595917 C5.16571778,6.28379157 2.92298677,0.683104249 2.92298677,0.683104249 L38.9862859,4.27055285 L29.1219536,11.7716515 L38.9862859,19.7202219 L38.9862859,19.7202219 Z" id="flag-background" fill="#4FB79B"></path>
                                            <path d="M7.28641108,1.11829539 L28.2369882,20.7893952 L38.9862859,19.7194544 L29.1219536,11.7716515 L38.9862859,4.27055285 L7.28641108,1.11829539 L7.28641108,1.11829539 Z" id="flag-highlight" fill="#7DC5B1"></path>
                                            <path d="M15.306362,10.2734274 C15.5826738,9.10984757 16.5252042,8.44516413 17.6319866,8.44516413 C18.740304,8.44516413 19.6552032,9.10984757 19.9599138,10.2734274 L15.306362,10.2734274 L15.306362,10.2734274 Z M17.6051229,5.28830143 C13.5348961,5.28830143 10.5983154,8.14122111 10.5983154,12.1285543 C10.5983154,16.1450538 13.3399428,18.7761565 17.7432789,18.7761565 C20.2646243,18.7761565 22.7568035,17.8343937 23.9764133,15.8127121 L20.7911519,13.6252434 C19.9875449,14.8156869 19.0457821,15.2861845 17.8822023,15.2861845 C16.5812341,15.2861845 15.3900231,14.5109763 15.2518672,13.0979483 L24.3356186,13.0703172 C24.3916485,12.6819455 24.3916485,12.3227401 24.3916485,11.9635348 C24.3916485,8.00306517 21.8987018,5.28830143 17.6051229,5.28830143 L17.6051229,5.28830143 L17.6051229,5.28830143 Z" id="flag-e" fill="#FFFFFF"></path>
                                        </g>
                                    </g>
                                    <g id="flag-link" transform="translate(160.658752, 553.318358)">
                                        <g id="flag" transform="translate(0.192369, 0.192369)">
                                            <path d="M19.0242084,9.88505609 L0.94694041,11.6840878 C0.94694041,11.6840878 2.07114287,8.53924493 2.07114287,5.8445447 C2.07114287,3.14984448 0.94694041,0.342416219 0.94694041,0.342416219 L19.0242084,2.14067848 L14.0795643,5.90071635 L19.0242084,9.88505609 L19.0242084,9.88505609 Z" id="flag-background" fill="#4FB79B"></path>
                                            <path d="M3.1341721,0.560562282 L13.6359621,10.4209952 L19.0242084,9.88467135 L14.0795643,5.90071635 L19.0242084,2.14067848 L3.1341721,0.560562282 L3.1341721,0.560562282 Z" id="flag-highlight" fill="#7DC5B1"></path>
                                            <path d="M7.1542924,5.14970909 C7.2927978,4.56644731 7.7652553,4.23326479 8.3200465,4.23326479 C8.8756072,4.23326479 9.3342141,4.56644731 9.4869548,5.14970909 L7.1542924,5.14970909 L7.1542924,5.14970909 Z M8.3065807,2.65084017 C6.26631866,2.65084017 4.79431365,4.08090881 4.79431365,6.07961921 C4.79431365,8.09294963 6.16859538,9.41182918 8.3758334,9.41182918 C9.6396955,9.41182918 10.8889376,8.93975648 11.5002852,7.92635837 L9.9036253,6.82985699 C9.5008054,7.42658458 9.0287327,7.66242856 8.4454709,7.66242856 C7.7933411,7.66242856 7.1962288,7.27384387 7.1269761,6.56554245 L11.6803423,6.55169191 C11.7084281,6.35701482 11.7084281,6.17695775 11.7084281,5.99690068 C11.7084281,4.01165609 10.4588013,2.65084017 8.3065807,2.65084017 L8.3065807,2.65084017 L8.3065807,2.65084017 Z" id="flag-e" fill="#FFFFFF"></path>
                                        </g>
                                    </g>
                                    <g id="flag-link" transform="translate(692.826993, 673.218328)">
                                        <g id="flag" transform="translate(0.030259, 0.030259)">
                                            <path d="M97.1879907,51.9408661 L0.372533852,61.5758441 C0.372533852,61.5758441 6.39336484,44.7331772 6.39336484,30.3013154 C6.39336484,15.8694536 0.372533852,0.833860227 0.372533852,0.833860227 L97.1879907,10.4647172 L70.7062248,30.6021509 L97.1879907,51.9408661 L97.1879907,51.9408661 Z" id="flag-background" fill="#4FB79B"></path>
                                            <path d="M12.0865736,2.00217343 L68.3304486,54.8111664 L97.1879907,51.9388056 L70.7062248,30.6021509 L97.1879907,10.4647172 L12.0865736,2.00217343 L12.0865736,2.00217343 Z" id="flag-highlight" fill="#7DC5B1"></path>
                                            <path d="M33.6169169,26.5800215 C34.358703,23.4562776 36.8890181,21.6718697 39.8602837,21.6718697 C42.8356704,21.6718697 45.2918068,23.4562776 46.1098321,26.5800215 L33.6169169,26.5800215 L33.6169169,26.5800215 Z M39.7881656,13.1969629 C28.8612434,13.1969629 20.9777049,20.855905 20.9777049,31.5602914 C20.9777049,42.3429774 28.3378721,49.40643 40.1590587,49.40643 C46.9278574,49.40643 53.6183565,46.8781755 56.8925181,41.4507735 L48.3413721,35.5782997 C46.1840107,38.7741618 43.6557562,40.0372587 40.5320123,40.0372587 C37.0394358,40.0372587 33.8415133,37.9561365 33.4706202,34.1627245 L57.8568402,34.0885458 C58.0072579,33.0459242 58.0072579,32.0816022 58.0072579,31.1172802 C58.0072579,20.4850119 51.3146983,13.1969629 39.7881656,13.1969629 L39.7881656,13.1969629 L39.7881656,13.1969629 Z" id="flag-e" fill="#FFFFFF"></path>
                                        </g>
                                    </g>
                                    <g id="flag-link-copy-2" transform="translate(868.751464, 723.544396)">
                                        <g id="flag" transform="translate(0.012174, 0.012174)">
                                            <path d="M39.1033005,20.8982538 L0.149887893,24.7748586 C0.149887893,24.7748586 2.57235142,17.9982615 2.57235142,12.1916446 C2.57235142,6.38502768 0.149887893,0.335501195 0.149887893,0.335501195 L39.1033005,4.21044799 L28.4484403,12.3126849 L39.1033005,20.8982538 L39.1033005,20.8982538 Z" id="flag-background" fill="#4FB79B"></path>
                                            <path d="M4.86299713,0.805568553 L27.4925538,22.0531106 L39.1033005,20.8974247 L28.4484403,12.3126849 L39.1033005,4.21044799 L4.86299713,0.805568553 L4.86299713,0.805568553 Z" id="flag-highlight" fill="#7DC5B1"></path>
                                            <path d="M13.525667,10.694393 C13.8241225,9.43756386 14.8421872,8.71961266 16.0376672,8.71961266 C17.2348052,8.71961266 18.2230244,9.43756386 18.5521545,10.694393 L13.525667,10.694393 L13.525667,10.694393 Z M16.0086507,5.30975896 C11.6122359,5.30975896 8.4403175,8.39131165 8.4403175,12.6981898 C8.4403175,17.0365716 11.401659,19.8785309 16.1578784,19.8785309 C18.8812846,19.8785309 21.573187,18.8612952 22.8905363,16.677596 L19.450008,14.3148236 C18.582,15.6006692 17.5647643,16.1088726 16.3079352,16.1088726 C14.9027074,16.1088726 13.6160327,15.2715392 13.466805,13.7452711 L23.2785284,13.7154255 C23.3390486,13.2959298 23.3390486,12.9079377 23.3390486,12.5199456 C23.3390486,8.24208391 20.646317,5.30975896 16.0086507,5.30975896 L16.0086507,5.30975896 L16.0086507,5.30975896 Z" id="flag-e" fill="#FFFFFF"></path>
                                        </g>
                                    </g>
                                    <g id="flag-link" transform="translate(171.565067, 113.025240)">
                                        <g id="flag" transform="translate(0.242348, 0.242348)">
                                            <path d="M23.7739569,12.4533111 L1,14.7197526 C1,14.7197526 2.41628362,10.7578422 2.41628362,7.36302685 C2.41628362,3.96821149 1,0.431380021 1,0.431380021 L23.7739569,2.69685218 L17.5446355,7.43379256 L23.7739569,12.4533111 L23.7739569,12.4533111 Z" id="flag-background" fill="#4FB79B"></path>
                                            <path d="M3.75550047,0.706203023 L16.9857803,13.1284935 L23.7739569,12.4528264 L17.5446355,7.43379256 L23.7739569,2.69685218 L3.75550047,0.706203023 L3.75550047,0.706203023 Z" id="flag-highlight" fill="#7DC5B1"></path>
                                            <path d="M8.82009579,6.4876647 C8.99458659,5.75286457 9.58979408,5.33311727 10.2887266,5.33311727 C10.9886286,5.33311727 11.566387,5.75286457 11.7588116,6.4876647 L8.82009579,6.4876647 L8.82009579,6.4876647 Z M10.2717623,3.33955994 C7.70141592,3.33955994 5.84696653,5.14117739 5.84696653,7.6591765 C5.84696653,10.1955941 7.57830297,11.8571342 10.3590077,11.8571342 C11.9512362,11.8571342 13.5250462,11.2624114 14.2952292,9.98572044 L12.2837381,8.60433498 C11.7762607,9.35609949 11.1815379,9.65321853 10.4467378,9.65321853 C9.62517693,9.65321853 8.87292773,9.16367491 8.78568233,8.27134838 L14.5220672,8.2538993 C14.5574501,8.00864279 14.5574501,7.78180476 14.5574501,7.55496672 C14.5574501,5.053932 12.9831553,3.33955994 10.2717623,3.33955994 L10.2717623,3.33955994 L10.2717623,3.33955994 Z" id="flag-e" fill="#FFFFFF"></path>
                                        </g>
                                    </g>
                                    <g id="flag-link" transform="translate(402.625126, 67.088511)">
                                        <g id="flag" transform="translate(0.086370, 0.086370)">
                                            <path d="M9.1163803,4.43821902 L1,5.24595312 C1,5.24595312 1.50474744,3.83397311 1.50474744,2.62409937 C1.50474744,1.41422563 1,0.153738953 1,0.153738953 L9.1163803,0.961127569 L6.89632071,2.64931947 L9.1163803,4.43821902 L9.1163803,4.43821902 Z" id="flag-background" fill="#4FB79B"></path>
                                            <path d="M1.98202916,0.251682759 L6.69715104,4.67884639 L9.1163803,4.43804628 L6.89632071,2.64931947 L9.1163803,0.961127569 L1.98202916,0.251682759 L1.98202916,0.251682759 Z" id="flag-highlight" fill="#7DC5B1"></path>
                                            <path d="M3.78699357,2.31213021 C3.84918011,2.05025577 4.06130532,1.90066259 4.31039697,1.90066259 C4.5598341,1.90066259 4.76574066,2.05025577 4.83431859,2.31213021 L3.78699357,2.31213021 L3.78699357,2.31213021 Z M4.30435106,1.19018134 C3.38830873,1.19018134 2.72740397,1.83225739 2.72740397,2.72964375 C2.72740397,3.63359425 3.34443267,4.22574833 4.33544433,4.22574833 C4.90289653,4.22574833 5.4637846,4.01379587 5.73826909,3.55879766 L5.02139644,3.06648753 C4.84053725,3.33440788 4.62858478,3.44029775 4.36671034,3.44029775 C4.07391537,3.44029775 3.80582227,3.26582995 3.774729,2.94781488 L5.8191116,2.94159622 C5.83172165,2.85418958 5.83172165,2.77334707 5.83172165,2.69250457 C5.83172165,1.80116412 5.27066084,1.19018134 4.30435106,1.19018134 L4.30435106,1.19018134 L4.30435106,1.19018134 Z" id="flag-e" fill="#FFFFFF"></path>
                                        </g>
                                    </g>
                                    <g id="flag-link" transform="translate(0.267990, 508.845326)">
                                        <g id="flag" transform="translate(0.161084, 0.161084)">
                                            <path d="M15.1373432,8.27743919 L0,9.78389253 C0,9.78389253 0.941372253,7.15049869 0.941372253,4.89404035 C0.941372253,2.63758201 0,0.286728715 0,0.286728715 L15.1373432,1.79253772 L10.9968516,4.94107675 L15.1373432,8.27743919 L15.1373432,8.27743919 Z" id="flag-background" fill="#4FB79B"></path>
                                            <path d="M1.83151994,0.469397458 L10.625393,8.72621795 L15.1373432,8.27711702 L10.9968516,4.94107675 L15.1373432,1.79253772 L1.83151994,0.469397458 L1.83151994,0.469397458 Z" id="flag-highlight" fill="#7DC5B1"></path>
                                            <path d="M5.19784392,4.31220658 C5.31382408,3.82380126 5.70944527,3.54480455 6.17401022,3.54480455 C6.63921951,3.54480455 7.02324269,3.82380126 7.15114302,4.31220658 L5.19784392,4.31220658 L5.19784392,4.31220658 Z M6.16273437,2.21973129 C4.45428226,2.21973129 3.22167096,3.41722638 3.22167096,5.09088445 C3.22167096,6.77678486 4.37245182,7.88117366 6.22072445,7.88117366 C7.27904336,7.88117366 8.32511992,7.48587463 8.83704343,6.6372865 L7.50004999,5.71911028 C7.16274104,6.21879145 6.76744201,6.41627988 6.27903669,6.41627988 C5.73296347,6.41627988 5.23296013,6.09089111 5.17497006,5.49778149 L8.98781763,5.48618347 C9.01133583,5.32316692 9.01133583,5.17239272 9.01133583,5.02161852 C9.01133583,3.35923631 7.96493711,2.21973129 6.16273437,2.21973129 L6.16273437,2.21973129 L6.16273437,2.21973129 Z" id="flag-e" fill="#FFFFFF"></path>
                                        </g>
                                    </g>
                                    <g id="flag-link" transform="translate(184.065067, 605.279515)">
                                        <g id="flag" transform="translate(0.695632, 0.695632)">
                                            <path d="M65.3699586,34.7457614 L0,41.2513147 C0,41.2513147 4.06527517,29.8791178 4.06527517,20.1347006 C4.06527517,10.3902833 0,0.2382255 0,0.2382255 L65.3699586,6.74099625 L47.4894259,20.3378252 L65.3699586,34.7457614 L65.3699586,34.7457614 Z" id="flag-background" fill="#4FB79B"></path>
                                            <path d="M7.90933926,1.02707253 L45.8852978,36.683793 L65.3699586,34.7443702 L47.4894259,20.3378252 L65.3699586,6.74099625 L7.90933926,1.02707253 L7.90933926,1.02707253 Z" id="flag-highlight" fill="#7DC5B1"></path>
                                            <path d="M22.4466631,17.6220767 C22.9475183,15.5129196 24.6559913,14.3080844 26.6621948,14.3080844 C28.6711809,14.3080844 30.3295683,15.5129196 30.8819004,17.6220767 L22.4466631,17.6220767 L22.4466631,17.6220767 Z M26.6135006,8.58581311 C19.2356244,8.58581311 13.912646,13.7571436 13.912646,20.9847632 C13.912646,28.2652509 18.8822432,33.034506 26.8639282,33.034506 C31.4342324,33.034506 35.9516686,31.3274243 38.162388,27.6628333 L32.3886399,23.6977292 C30.9319859,25.8555806 29.2249042,26.7084258 27.1157471,26.7084258 C24.7575536,26.7084258 22.5983109,25.3032486 22.3478833,22.7419304 L38.8134999,22.6918449 C38.9150622,21.987865 38.9150622,21.3367532 38.9150622,20.6856414 C38.9150622,13.506716 34.3962348,8.58581311 26.6135006,8.58581311 L26.6135006,8.58581311 L26.6135006,8.58581311 Z" id="flag-e" fill="#FFFFFF"></path>
                                        </g>
                                    </g>
                                    <g id="flag-link" transform="translate(328.784959, 637.653574)">
                                        <g id="flag" transform="translate(0.296147, 0.296147)">
                                            <path d="M27.8294969,15.2177939 L0,17.9873577 C0,17.9873577 1.73068126,13.1459516 1.73068126,8.99752877 C1.73068126,4.84910592 0,0.52714111 0,0.52714111 L27.8294969,3.29552038 L20.2173423,9.0840036 L27.8294969,15.2177939 L27.8294969,15.2177939 Z" id="flag-background" fill="#4FB79B"></path>
                                            <path d="M3.36718788,0.862971458 L19.534428,16.0428585 L27.8294969,15.2172016 L20.2173423,9.0840036 L27.8294969,3.29552038 L3.36718788,0.862971458 L3.36718788,0.862971458 Z" id="flag-highlight" fill="#7DC5B1"></path>
                                            <path d="M9.55606143,7.92784692 C9.76928704,7.02993015 10.4966233,6.51700408 11.3507104,6.51700408 C12.205982,6.51700408 12.9119957,7.02993015 13.1471362,7.92784692 L9.55606143,7.92784692 L9.55606143,7.92784692 Z M11.3299801,4.0809014 C8.1890483,4.0809014 5.92293382,6.2824559 5.92293382,9.35942002 C5.92293382,12.4588913 8.03860578,14.489273 11.4365929,14.489273 C13.3822767,14.489273 15.3054533,13.762529 16.2466075,12.2024283 L13.7885899,10.5143921 C13.1684588,11.4330392 12.4417148,11.796115 11.543798,11.796115 C10.5398607,11.796115 9.62062141,11.1978987 9.5140086,10.1074866 L16.5238008,10.086164 C16.5670382,9.78646355 16.5670382,9.50927025 16.5670382,9.23207695 C16.5670382,6.1758431 14.6432693,4.0809014 11.3299801,4.0809014 L11.3299801,4.0809014 L11.3299801,4.0809014 Z" id="flag-e" fill="#FFFFFF"></path>
                                        </g>
                                    </g>
                                    <g id="flag-link" transform="translate(319.000000, 129.025240)">
                                        <g id="flag" transform="translate(0.304698, 0.304698)">
                                            <path d="M29.633127,15.6572369 L1,18.5067772 C1,18.5067772 2.78065801,13.5255662 2.78065801,9.25734968 C2.78065801,4.98913316 1,0.542363322 1,0.542363322 L29.633127,3.39068486 L21.8011569,9.34632164 L29.633127,15.6572369 L29.633127,15.6572369 Z" id="flag-background" fill="#4FB79B"></path>
                                            <path d="M4.46442189,0.887891415 L21.0985221,16.5061269 L29.633127,15.6566275 L21.8011569,9.34632164 L29.633127,3.39068486 L4.46442189,0.887891415 L4.46442189,0.887891415 Z" id="flag-highlight" fill="#7DC5B1"></path>
                                            <path d="M10.832011,8.15677872 C11.051394,7.23293288 11.7997335,6.70519509 12.6784839,6.70519509 C13.5584532,6.70519509 14.2848544,7.23293288 14.526785,8.15677872 L10.832011,8.15677872 L10.832011,8.15677872 Z M12.657155,4.19874527 C9.42552279,4.19874527 7.09396991,6.46387388 7.09396991,9.62969125 C7.09396991,12.8186657 9.27073596,14.9076786 12.7668465,14.9076786 C14.7687156,14.9076786 16.7474276,14.1599485 17.7157595,12.5547968 L15.1867619,10.8180154 C14.5487233,11.7631901 13.8009932,12.1367505 12.8771473,12.1367505 C11.8442194,12.1367505 10.8984353,11.5212595 10.7887439,10.3993596 L18.0009572,10.3774214 C18.0454432,10.0690665 18.0454432,9.78386868 18.0454432,9.49867089 C18.0454432,6.35418242 16.0661218,4.19874527 12.657155,4.19874527 L12.657155,4.19874527 L12.657155,4.19874527 Z" id="flag-e" fill="#FFFFFF"></path>
                                        </g>
                                    </g>
                                    <g id="flag-link" transform="translate(53.805542, 293.365441)">
                                        <g id="flag" transform="translate(0.292754, 0.292754)">
                                            <path d="M28.5106682,15.0434512 L1,17.7812856 C1,17.7812856 2.71085371,12.995345 2.71085371,8.89444858 C2.71085371,4.79355214 1,0.521101918 1,0.521101918 L28.5106682,3.25776525 L20.9857223,8.97993271 L28.5106682,15.0434512 L28.5106682,15.0434512 Z" id="flag-background" fill="#4FB79B"></path>
                                            <path d="M4.32861169,0.853084825 L20.3106319,15.8590635 L28.5106682,15.0428657 L20.9857223,8.97993271 L28.5106682,3.25776525 L4.32861169,0.853084825 L4.32861169,0.853084825 Z" id="flag-highlight" fill="#7DC5B1"></path>
                                            <path d="M10.4465824,7.83702154 C10.6573652,6.94939176 11.3763688,6.44234203 12.220671,6.44234203 C13.0661442,6.44234203 13.7640694,6.94939176 13.996516,7.83702154 L10.4465824,7.83702154 L10.4465824,7.83702154 Z M12.2001782,4.03414856 C9.09523047,4.03414856 6.85507773,6.21048095 6.85507773,9.25219383 C6.85507773,12.316156 8.94651149,14.3232766 12.3055696,14.3232766 C14.2289626,14.3232766 16.1301064,13.6048586 17.0604782,12.0626311 L14.630621,10.393934 C14.0175943,11.3020565 13.2991763,11.6609728 12.4115465,11.6609728 C11.4191108,11.6609728 10.5104028,11.06961 10.4050114,9.99169015 L17.3344958,9.97061187 C17.3772379,9.67434493 17.3772379,9.40032729 17.3772379,9.12630966 C17.3772379,6.10508955 15.4755087,4.03414856 12.2001782,4.03414856 L12.2001782,4.03414856 L12.2001782,4.03414856 Z" id="flag-e" fill="#FFFFFF"></path>
                                        </g>
                                    </g>
                                    <g id="flag-link" transform="translate(34.805542, 497.745362)">
                                        <g id="flag" transform="translate(0.507957, 0.507957)">
                                            <path d="M47.7337776,26.1019016 L0,30.8523197 C0,30.8523197 2.96850334,22.5482313 2.96850334,15.4327633 C2.96850334,8.3172953 0,0.904164263 0,0.904164263 L47.7337776,5.65255052 L34.6772393,15.5810869 L47.7337776,26.1019016 L47.7337776,26.1019016 Z" id="flag-background" fill="#4FB79B"></path>
                                            <path d="M5.77547622,1.48018801 L33.5058894,27.517071 L47.7337776,26.1008857 L34.6772393,15.5810869 L47.7337776,5.65255052 L5.77547622,1.48018801 L5.77547622,1.48018801 Z" id="flag-highlight" fill="#7DC5B1"></path>
                                            <path d="M16.390771,13.598021 C16.7565004,12.057894 18.0040439,11.1781117 19.4689932,11.1781117 C20.9359743,11.1781117 22.1469449,12.057894 22.5502631,13.598021 L16.390771,13.598021 L16.390771,13.598021 Z M19.4334362,6.99965368 C14.0460394,6.99965368 10.159149,10.7758094 10.159149,16.0534873 C10.159149,21.36977 13.7879971,24.8523262 19.6163008,24.8523262 C22.9535813,24.8523262 26.252257,23.6057987 27.8665458,20.9298788 L23.6504989,18.0345213 C22.586836,19.6102054 21.3403084,20.2329612 19.8001814,20.2329612 C18.0782057,20.2329612 16.5015058,19.2068871 16.3186411,17.3365878 L28.3419939,17.3000149 C28.4161557,16.7859619 28.4161557,16.3105138 28.4161557,15.8350656 C28.4161557,10.5929447 25.1164641,6.99965368 19.4334362,6.99965368 L19.4334362,6.99965368 L19.4334362,6.99965368 Z" id="flag-e" fill="#FFFFFF"></path>
                                        </g>
                                    </g>
                                    <g id="flag-link" transform="translate(227.830383, 680.496805)">
                                        <g id="flag" transform="translate(0.392857, 0.392857)">
                                            <path d="M36.9175202,20.1873291 L0,23.861324 C0,23.861324 2.29585396,17.4389044 2.29585396,11.9357691 C2.29585396,6.43263393 0,0.699284744 0,0.699284744 L36.9175202,4.37170822 L26.8195342,12.0504833 L36.9175202,20.1873291 L36.9175202,20.1873291 Z" id="flag-background" fill="#4FB79B"></path>
                                            <path d="M4.46677951,1.14478413 L25.9136069,21.2818276 L36.9175202,20.1865434 L26.8195342,12.0504833 L36.9175202,4.37170822 L4.46677951,1.14478413 L4.46677951,1.14478413 Z" id="flag-highlight" fill="#7DC5B1"></path>
                                            <path d="M12.6766967,10.5167711 C12.9595534,9.32562991 13.9244092,8.64520229 15.0574077,8.64520229 C16.1919775,8.64520229 17.1285477,9.32562991 17.4404758,10.5167711 L12.6766967,10.5167711 L12.6766967,10.5167711 Z M15.0299077,5.41356391 C10.8632706,5.41356391 7.85713195,8.33405986 7.85713195,12.4158399 C7.85713195,16.5274771 10.6636995,19.2209019 15.1713361,19.2209019 C17.7524039,19.2209019 20.3036147,18.2568318 21.5521129,16.1872632 L18.2914032,13.9479806 C17.4687615,15.1666218 16.5046914,15.648264 15.3135502,15.648264 C13.9817663,15.648264 12.7623394,14.8546937 12.6209111,13.4081957 L21.9198267,13.37991 C21.9771838,12.9823391 21.9771838,12.6146253 21.9771838,12.2469116 C21.9771838,8.19263148 19.4251873,5.41356391 15.0299077,5.41356391 L15.0299077,5.41356391 L15.0299077,5.41356391 Z" id="flag-e" fill="#FFFFFF"></path>
                                        </g>
                                    </g>
                                    <g id="flag-link" transform="translate(413.625126, 755.550039)">
                                        <g id="flag" transform="translate(0.428383, 0.428383)">
                                            <path d="M40.255987,22.0128778 L0,26.0191136 C0,26.0191136 2.50346899,19.0159118 2.50346899,13.0151258 C2.50346899,7.01433972 0,0.762521357 0,0.762521357 L40.255987,4.76704363 L29.2448359,13.1402135 L40.255987,22.0128778 L40.255987,22.0128778 Z" id="flag-background" fill="#4FB79B"></path>
                                            <path d="M4.87071226,1.24830743 L28.2569852,23.2063522 L40.255987,22.012021 L29.2448359,13.1402135 L40.255987,4.76704363 L4.87071226,1.24830743 L4.87071226,1.24830743 Z" id="flag-highlight" fill="#7DC5B1"></path>
                                            <path d="M13.8230557,11.4678071 C14.1314913,10.1689505 15.1835994,9.42699156 16.4190554,9.42699156 C17.6562249,9.42699156 18.6774894,10.1689505 19.0176253,11.4678071 L13.8230557,11.4678071 L13.8230557,11.4678071 Z M16.3890686,5.90311477 C11.8456408,5.90311477 8.56765569,9.08771239 8.56765569,13.5386095 C8.56765569,18.0220638 11.6280223,20.9590561 16.5432864,20.9590561 C19.3577613,20.9590561 22.1396791,19.9078048 23.5010796,17.6510843 L19.9455025,15.2093024 C19.0484689,16.5381458 17.9972175,17.0633431 16.6983609,17.0633431 C15.2461433,17.0633431 13.9164431,16.1980099 13.7622253,14.6207044 L23.9020459,14.5898609 C23.9645897,14.1563375 23.9645897,13.7553712 23.9645897,13.3544049 C23.9645897,8.93349459 21.1818152,5.90311477 16.3890686,5.90311477 L16.3890686,5.90311477 L16.3890686,5.90311477 Z" id="flag-e" fill="#FFFFFF"></path>
                                        </g>
                                    </g>
                                    <g id="flag-link" transform="translate(455.625126, 149.025240)">
                                        <g id="flag" transform="translate(0.768581, 0.768581)">
                                            <path d="M73.2250528,38.4942809 L1,45.6820463 C1,45.6820463 5.49158482,33.1172912 5.49158482,22.3510147 C5.49158482,11.5847382 1,0.368073404 1,0.368073404 L73.2250528,7.55276452 L53.469458,22.5754402 L73.2250528,38.4942809 L73.2250528,38.4942809 Z" id="flag-background" fill="#4FB79B"></path>
                                            <path d="M9.73876102,1.23964376 L51.6971112,40.6355463 L73.2250528,38.4927437 L53.469458,22.5754402 L73.2250528,7.55276452 L9.73876102,1.23964376 L9.73876102,1.23964376 Z" id="flag-highlight" fill="#7DC5B1"></path>
                                            <path d="M25.8005576,19.5749017 C26.3539357,17.2445654 28.2415695,15.9133839 30.4581559,15.9133839 C32.6778165,15.9133839 34.5101126,17.2445654 35.1203656,19.5749017 L25.8005576,19.5749017 L25.8005576,19.5749017 Z M30.4043552,9.59104018 C22.2527898,9.59104018 16.3716113,15.3046681 16.3716113,23.2902202 C16.3716113,31.3341843 21.8623508,36.6035727 30.6810442,36.6035727 C35.7306185,36.6035727 40.7217807,34.717476 43.1643298,30.6685936 L36.7851111,26.2876844 C35.1757034,28.6718213 33.2896067,29.614101 30.9592704,29.614101 C28.3537823,29.614101 25.9681082,28.0615683 25.6914192,25.2316547 L43.8837212,25.1763169 C43.9959339,24.3985133 43.9959339,23.6791219 43.9959339,22.9597305 C43.9959339,15.0279791 39.0032346,9.59104018 30.4043552,9.59104018 L30.4043552,9.59104018 L30.4043552,9.59104018 Z" id="flag-e" fill="#FFFFFF"></path>
                                        </g>
                                    </g>
                                    <g id="flag-link" transform="translate(94.879510, 212.025240)">
                                        <g id="flag" transform="translate(0.780753, 0.780753)">
                                            <path d="M74.1852353,39.3033913 L0.816358311,46.604989 C0.816358311,46.604989 5.37907611,33.8412466 5.37907611,22.9044651 C5.37907611,11.9676836 0.816358311,0.573381196 0.816358311,0.573381196 L74.1852353,7.87185587 L54.1167722,23.1324449 L74.1852353,39.3033913 L74.1852353,39.3033913 Z" id="flag-background" fill="#4FB79B"></path>
                                            <path d="M9.6935146,1.45875457 L52.3163568,41.4785679 L74.1852353,39.3018298 L54.1167722,23.1324449 L74.1852353,7.87185587 L9.6935146,1.45875457 L9.6935146,1.45875457 Z" id="flag-highlight" fill="#7DC5B1"></path>
                                            <path d="M26.009681,20.084387 C26.5718228,17.7171453 28.4893511,16.3648819 30.7410414,16.3648819 C32.9958547,16.3648819 34.8571687,17.7171453 35.4770862,20.084387 L26.009681,20.084387 L26.009681,20.084387 Z M30.6863887,9.94241158 C22.4057273,9.94241158 16.431409,15.7465259 16.431409,23.8585447 C16.431409,32.0299007 22.009105,37.3827401 30.9674596,37.3827401 C36.0970037,37.3827401 41.1672107,35.4667734 43.6484422,31.353769 L37.1681962,26.9034796 C35.5333004,29.3253739 33.6173337,30.2825765 31.250092,30.2825765 C28.6033409,30.2825765 26.1798851,28.7054564 25.8988142,25.8307256 L44.3792266,25.7745114 C44.4932165,24.9843899 44.4932165,24.2536055 44.4932165,23.5228211 C44.4932165,15.465455 39.421448,9.94241158 30.6863887,9.94241158 L30.6863887,9.94241158 L30.6863887,9.94241158 Z" id="flag-e" fill="#FFFFFF"></path>
                                        </g>
                                    </g>
                                    <g id="flag-link" transform="translate(132.879510, 481.919673)">
                                        <g id="flag" transform="translate(0.721260, 0.721260)">
                                            <path d="M67.7782651,36.0626775 L0,42.8079031 C0,42.8079031 4.21504471,31.016741 4.21504471,20.9133279 C4.21504471,10.8099148 0,0.283843187 0,0.283843187 L67.7782651,7.0261837 L49.2389925,21.1239359 L67.7782651,36.0626775 L67.7782651,36.0626775 Z" id="flag-background" fill="#F741CD"></path>
                                            <path d="M8.20072867,1.10175227 L47.5757665,38.0721085 L67.7782651,36.061235 L49.2389925,21.1239359 L67.7782651,7.0261837 L8.20072867,1.10175227 L8.20072867,1.10175227 Z" id="flag-highlight" fill="#FF67DC"></path>
                                        </g>
                                    </g>
                                    <g id="flag-link" transform="translate(484.987128, 834.690795)">
                                        <g id="flag" transform="translate(0.781518, 0.781518)">
                                            <path d="M73.4408248,39.1590923 L0,46.4678502 C0,46.4678502 4.56719215,33.6915913 4.56719215,22.7440848 C4.56719215,11.7965784 0,0.39110233 0,0.39110233 L73.4408248,7.69673412 L53.352682,22.9722881 L73.4408248,39.1590923 L73.4408248,39.1590923 Z" id="flag-background" fill="#4FB79B"></path>
                                            <path d="M8.88586152,1.27734393 L51.5505011,41.3364019 L73.4408248,39.1575293 L53.352682,22.9722881 L73.4408248,7.69673412 L8.88586152,1.27734393 L8.88586152,1.27734393 Z" id="flag-highlight" fill="#7DC5B1"></path>
                                            <path d="M25.2180281,19.9212412 C25.7807212,17.5516782 27.7001298,16.1980887 29.9540282,16.1980887 C32.2110526,16.1980887 34.0741919,17.5516782 34.6947173,19.9212412 L25.2180281,19.9212412 L25.2180281,19.9212412 Z M29.8993219,9.7693203 C21.6105403,9.7693203 15.6303633,15.5791263 15.6303633,23.6991 C15.6303633,31.8784691 21.213529,37.2365577 30.1806684,37.2365577 C35.3152428,37.2365577 40.3904217,35.3187121 42.8740864,31.2016744 L36.3874857,26.7470209 C34.7509867,29.1712902 32.8331411,30.1294315 30.463578,30.1294315 C27.8142314,30.1294315 25.3883991,28.5507648 25.1070525,25.6732149 L43.6055874,25.6169456 C43.7196891,24.8260492 43.7196891,24.0945482 43.7196891,23.3630472 C43.7196891,15.2977798 38.6429471,9.7693203 29.8993219,9.7693203 L29.8993219,9.7693203 L29.8993219,9.7693203 Z" id="flag-e" fill="#FFFFFF"></path>
                                        </g>
                                    </g>
                                    <g id="flag-link" transform="translate(256.000000, 196.025240)">
                                        <g id="flag" transform="translate(0.317526, 0.317526)">
                                            <path d="M124.810572,65.7024012 L1,78.0239062 C1,78.0239062 8.6996231,56.4849879 8.6996231,38.0290809 C8.6996231,19.5731739 1,0.345196631 1,0.345196631 L124.810572,12.6614315 L90.9448784,38.4137986 L124.810572,65.7024012 L124.810572,65.7024012 Z" id="flag-background" fill="#4FB79B"></path>
                                            <path d="M15.9802729,1.83927134 L87.906663,69.3730291 L124.810572,65.6997661 L90.9448784,38.4137986 L124.810572,12.6614315 L15.9802729,1.83927134 L15.9802729,1.83927134 Z" id="flag-highlight" fill="#7DC5B1"></path>
                                            <path d="M43.5139353,33.2701763 C44.4625542,29.2754369 47.6983985,26.9934815 51.4981441,26.9934815 C55.3031597,26.9934815 58.4441422,29.2754369 59.490258,33.2701763 L43.5139353,33.2701763 L43.5139353,33.2701763 Z M51.4059172,16.155511 C37.4322344,16.155511 27.3505239,25.9500007 27.3505239,39.6390979 C27.3505239,53.4283271 36.7629311,62.4612867 51.8802267,62.4612867 C60.5363738,62.4612867 69.0923889,59.2280774 73.2794872,52.2873494 L62.3440197,44.7774501 C59.5851199,48.8644164 56.3519106,50.4797035 52.3571712,50.4797035 C47.8907573,50.4797035 43.801156,47.8183006 43.3268466,42.9671691 L74.5126917,42.8723072 C74.7050505,41.5389707 74.7050505,40.3057662 74.7050505,39.0725617 C74.7050505,25.4756913 66.1464003,16.155511 51.4059172,16.155511 L51.4059172,16.155511 L51.4059172,16.155511 Z" id="flag-e" fill="#FFFFFF"></path>
                                        </g>
                                    </g>
                                    <g id="flag-link" transform="translate(235.422997, 507.906998)">
                                        <g id="flag" transform="translate(0.221656, 0.221656)">
                                            <path d="M114.801486,60.776031 L0,72.2009608 C0,72.2009608 7.13935946,52.2293235 7.13935946,35.1163619 C7.13935946,18.0034004 0,0.174548227 0,0.174548227 L114.801486,11.5945914 L83.4000328,35.4730856 L114.801486,60.776031 L114.801486,60.776031 Z" id="flag-background" fill="#F741CD"></path>
                                            <path d="M13.8902322,1.55990648 L80.5828933,64.1795655 L114.801486,60.7735877 L83.4000328,35.4730856 L114.801486,11.5945914 L13.8902322,1.55990648 L13.8902322,1.55990648 Z" id="flag-highlight" fill="#FF67DC"></path>
                                        </g>
                                    </g>
                                    <g id="flag-link" transform="translate(599.520521, 752.200250)">
                                        <g id="flag" transform="translate(0.240458, 0.240458)">
                                            <path d="M116.568309,61.7421691 L0,73.3429312 C0,73.3429312 7.2492359,53.0639257 7.2492359,35.6875916 C7.2492359,18.3112575 0,0.20801504 0,0.20801504 L116.568309,11.8038154 L84.6835791,36.0498053 L116.568309,61.7421691 L116.568309,61.7421691 Z" id="flag-background" fill="#4FB79B"></path>
                                            <path d="M14.1040062,1.61469429 L81.8230832,65.1980847 L116.568309,61.7396881 L84.6835791,36.0498053 L116.568309,11.8038154 L14.1040062,1.61469429 L14.1040062,1.61469429 Z" id="flag-highlight" fill="#7DC5B1"></path>
                                            <path d="M40.0270951,31.2070577 C40.9202248,27.4459894 43.9667894,25.2975163 47.54427,25.2975163 C51.1267123,25.2975163 54.0839639,27.4459894 55.0688875,31.2070577 L40.0270951,31.2070577 L40.0270951,31.2070577 Z M47.4574379,15.0935097 C34.3011415,15.0935097 24.8091578,24.3150736 24.8091578,37.2034311 C24.8091578,50.1860634 33.6709889,58.6906427 47.9040027,58.6906427 C56.0538111,58.6906427 64.1093446,55.646559 68.0515198,49.1118268 L57.7557193,42.0412169 C55.1582005,45.8891172 52.1141168,47.4099186 48.3530485,47.4099186 C44.1478963,47.4099186 40.297515,44.9041937 39.8509501,40.3368277 L69.2125884,40.2475148 C69.3936952,38.9921714 69.3936952,37.8311028 69.3936952,36.6700342 C69.3936952,23.8685088 61.3356808,15.0935097 47.4574379,15.0935097 L47.4574379,15.0935097 L47.4574379,15.0935097 Z" id="flag-e" fill="#FFFFFF"></path>
                                        </g>
                                    </g>
                                    <g id="flag-link" transform="translate(7.000000, 353.283280)">
                                        <g id="flag">
                                            <path d="M187.944,99.772 L0,118.476 C0,118.476 11.688,85.78 11.688,57.764 C11.688,29.748 0,0.56 0,0.56 L187.944,19.256 L136.536,58.348 L187.944,99.772 L187.944,99.772 Z" id="flag-background" fill="#4FB79B"></path>
                                            <path d="M22.74,2.828 L131.924,105.344 L187.944,99.768 L136.536,58.348 L187.944,19.256 L22.74,2.828 L22.74,2.828 Z" id="flag-highlight" fill="#7DC5B1"></path>
                                            <path d="M64.536,50.54 C65.976,44.476 70.888,41.012 76.656,41.012 C82.432,41.012 87.2,44.476 88.788,50.54 L64.536,50.54 L64.536,50.54 Z M76.516,24.56 C55.304,24.56 40,39.428 40,60.208 C40,81.14 54.288,94.852 77.236,94.852 C90.376,94.852 103.364,89.944 109.72,79.408 L93.12,68.008 C88.932,74.212 84.024,76.664 77.96,76.664 C71.18,76.664 64.972,72.624 64.252,65.26 L111.592,65.116 C111.884,63.092 111.884,61.22 111.884,59.348 C111.884,38.708 98.892,24.56 76.516,24.56 L76.516,24.56 L76.516,24.56 Z" id="flag-e" fill="#FFFFFF"></path>
                                        </g>
                                    </g>
                                    <g id="flag-link" transform="translate(221.114352, 331.228703)">
                                        <g id="flag" transform="translate(0.424701, 0.424701)">
                                            <path d="M133.882003,71.209686 L0,84.5334899 C0,84.5334899 8.32595269,61.2424778 8.32595269,41.285266 C8.32595269,21.3280543 0,0.5359678 0,0.5359678 L133.882003,13.8540728 L97.2614885,41.7012787 L133.882003,71.209686 L133.882003,71.209686 Z" id="flag-background" fill="#4FB79B"></path>
                                            <path d="M16.1988505,2.15157874 L93.9761279,75.178903 L133.882003,71.2068366 L97.2614885,41.7012787 L133.882003,13.8540728 L16.1988505,2.15157874 L16.1988505,2.15157874 Z" id="flag-highlight" fill="#7DC5B1"></path>
                                            <path d="M45.9722521,36.139246 C46.9980369,31.8195525 50.4971025,29.3519704 54.6059403,29.3519704 C58.7204768,29.3519704 62.116964,31.8195525 63.2481766,36.139246 L45.9722521,36.139246 L45.9722521,36.139246 Z M54.5062112,17.6323799 C39.3958323,17.6323799 28.4940202,28.2236072 28.4940202,43.0262507 C28.4940202,57.9371714 38.6720842,67.7049215 55.0191035,67.7049215 C64.3793892,67.7049215 73.6313975,64.2087053 78.1590973,56.7033804 L66.334079,48.5825846 C63.350755,53.0020071 59.8545388,54.7486906 55.5348453,54.7486906 C50.7051089,54.7486906 46.282837,51.8707945 45.7699446,46.6250454 L79.4926175,46.5224669 C79.7006238,45.0806695 79.7006238,43.7471494 79.7006238,42.4136292 C79.7006238,27.7107148 70.4457661,17.6323799 54.5062112,17.6323799 L54.5062112,17.6323799 L54.5062112,17.6323799 Z" id="flag-e" fill="#FFFFFF"></path>
                                        </g>
                                    </g>
                                    <g id="flag-link-copy" transform="translate(382.000000, 455.000000)">
                                        <g id="flag">
                                            <path d="M330.901404,175.229815 L0,208.079697 C0,208.079697 20.5783404,150.65563 20.5783404,101.451059 C20.5783404,52.2464874 0,0.983529412 0,0.983529412 L330.901404,33.8193613 L240.390511,102.476739 L330.901404,175.229815 L330.901404,175.229815 Z" id="flag-background" fill="#F741CD"></path>
                                            <path d="M40.0369149,4.96682353 L232.270447,185.015933 L330.901404,175.22279 L240.390511,102.476739 L330.901404,33.8193613 L40.0369149,4.96682353 L40.0369149,4.96682353 Z" id="flag-highlight" fill="#FF67DC"></path>
                                            <path d="M113.624553,88.7635294 C116.159872,78.1133109 124.808128,72.029479 134.963489,72.029479 C145.132936,72.029479 153.52766,78.1133109 156.323553,88.7635294 L113.624553,88.7635294 L113.624553,88.7635294 Z M134.717,43.1347899 C97.3703404,43.1347899 70.4255319,69.2474958 70.4255319,105.743462 C70.4255319,142.506387 95.5815319,166.588807 135.98466,166.588807 C159.119447,166.588807 181.986617,157.968874 193.177234,139.464471 L163.950638,119.442622 C156.577085,130.338723 147.935872,134.645176 137.259362,134.645176 C125.322234,134.645176 114.392191,127.549714 113.124532,114.616303 L196.473149,114.363395 C196.987255,110.808639 196.987255,107.52084 196.987255,104.233042 C196.987255,67.982958 174.113043,43.1347899 134.717,43.1347899 L134.717,43.1347899 L134.717,43.1347899 Z" id="flag-e" fill="#FFFFFF"></path>
                                        </g>
                                    </g>
                                    <g id="flag-link" transform="translate(877.000000, 807.681813)">
                                        <g id="flag">
                                            <path d="M137.906969,73.209329 L0,86.9336935 C0,86.9336935 8.57626025,62.9424713 8.57626025,42.3852752 C8.57626025,21.8280792 0,0.410909115 0,0.410909115 L137.906969,14.1294034 L100.185512,42.8137947 L137.906969,73.209329 L137.906969,73.209329 Z" id="flag-background" fill="#4FB79B"></path>
                                            <path d="M16.6858451,2.07509103 L96.8013824,77.2978747 L137.906969,73.206394 L100.185512,42.8137947 L137.906969,14.1294034 L16.6858451,2.07509103 L16.6858451,2.07509103 Z" id="flag-highlight" fill="#7DC5B1"></path>
                                            <path d="M47.3543405,37.0845477 C48.4109639,32.6349889 52.0152239,30.0932226 56.2475878,30.0932226 C60.4858218,30.0932226 63.9844194,32.6349889 65.1496402,37.0845477 L47.3543405,37.0845477 L47.3543405,37.0845477 Z M56.1448605,18.0212998 C40.5802102,18.0212998 29.3506511,28.9309368 29.3506511,44.1786 C29.3506511,59.5377957 39.8347037,69.5991989 56.6731722,69.5991989 C66.3148611,69.5991989 75.8450175,65.997874 80.5088359,58.2669125 L68.3283157,49.901977 C65.2553026,54.454263 61.6539777,56.2534579 57.204419,56.2534579 C52.2294836,56.2534579 47.6742626,53.2890421 47.1459508,47.8855873 L81.8824464,47.7799249 C82.0967062,46.294782 82.0967062,44.9211715 82.0967062,43.547561 C82.0967062,28.4026251 72.5636147,18.0212998 56.1448605,18.0212998 L56.1448605,18.0212998 L56.1448605,18.0212998 Z" id="flag-e" fill="#FFFFFF"></path>
                                        </g>
                                    </g>
                                    <g id="flag-link" transform="translate(798.393263, 562.441030)">
                                        <g id="flag" transform="translate(0.230088, 0.230088)">
                                            <path d="M115.593856,61.2093164 L0,72.713102 C0,72.713102 7.18863591,52.6036188 7.18863591,35.3725422 C7.18863591,18.1414655 0,0.18955714 0,0.18955714 L115.593856,11.6884224 L83.9756668,35.7317279 L115.593856,61.2093164 L115.593856,61.2093164 Z" id="flag-background" fill="#F741CD"></path>
                                            <path d="M13.9861038,1.58447725 L81.1390832,64.6363424 L115.593856,61.2068562 L83.9756668,35.7317279 L115.593856,11.6884224 L13.9861038,1.58447725 L13.9861038,1.58447725 Z" id="flag-highlight" fill="#FF67DC"></path>
                                        </g>
                                    </g>
                                    <g id="flag-link" transform="translate(327.625126, 895.681813)">
                                        <g id="flag" transform="translate(0.148949, 0.586916)">
                                            <path d="M126.119765,66.4182974 L1,78.870092 C1,78.870092 8.78104017,57.1034177 8.78104017,38.452355 C8.78104017,19.8012922 1,0.369995123 1,0.369995123 L126.119765,12.8164639 L91.8959702,38.8411407 L126.119765,66.4182974 L126.119765,66.4182974 Z" id="flag-background" fill="#4FB79B"></path>
                                            <path d="M16.1386767,1.87986842 L88.8256283,70.1277392 L126.119765,66.4156345 L91.8959702,38.8411407 L126.119765,12.8164639 L16.1386767,1.87986842 L16.1386767,1.87986842 Z" id="flag-highlight" fill="#7DC5B1"></path>
                                            <path d="M43.9634846,33.6431289 C44.9221343,29.6061484 48.192195,27.3000633 52.0321197,27.3000633 C55.8773702,27.3000633 59.0515659,29.6061484 60.1087435,33.6431289 L43.9634846,33.6431289 L43.9634846,33.6431289 Z M51.9389176,16.3474903 C37.8174748,16.3474903 27.6291587,26.2455486 27.6291587,40.0793966 C27.6291587,54.0144353 37.1410942,63.1429109 52.4182425,63.1429109 C61.1659211,63.1429109 69.812409,59.8755131 74.0437823,52.8613927 L62.9926814,45.2720825 C60.2046085,49.402265 56.9372107,51.0346324 52.9002303,51.0346324 C48.3865879,51.0346324 44.2537424,48.3450874 43.7744176,43.4426593 L75.2900269,43.3467943 C75.4844198,41.9993589 75.4844198,40.7531143 75.4844198,39.5068696 C75.4844198,25.7662238 66.835269,16.3474903 51.9389176,16.3474903 L51.9389176,16.3474903 L51.9389176,16.3474903 Z" id="flag-e" fill="#FFFFFF"></path>
                                        </g>
                                    </g>
                                    <g id="flag-link" transform="translate(572.489121, 346.592355)">
                                        <g id="flag" transform="translate(0.927310, 0.927310)">
                                            <path d="M87.1411725,46.6507501 L0,55.322953 C0,55.322953 5.41919947,40.1632896 5.41919947,27.1735315 C5.41919947,14.1837734 0,0.65061175 0,0.65061175 L87.1411725,9.3191053 L63.305597,27.444306 L87.1411725,46.6507501 L87.1411725,46.6507501 Z" id="flag-background" fill="#4FB79B"></path>
                                            <path d="M10.5435144,1.70218125 L61.1672202,49.2342357 L87.1411725,46.6488955 L63.305597,27.444306 L87.1411725,9.3191053 L10.5435144,1.70218125 L10.5435144,1.70218125 Z" id="flag-highlight" fill="#7DC5B1"></path>
                                            <path d="M29.9224381,23.8240879 C30.5901013,21.0124841 32.8675746,19.4063832 35.5419365,19.4063832 C38.2200077,19.4063832 40.4307147,21.0124841 41.1669988,23.8240879 L29.9224381,23.8240879 L29.9224381,23.8240879 Z M35.4770248,11.7783314 C25.6419753,11.7783314 18.5461994,18.6719537 18.5461994,28.3067043 C18.5461994,38.0119304 25.1709018,44.3695676 35.8108564,44.3695676 C41.9032829,44.3695676 47.9252339,42.0939489 50.872225,37.20888 L43.1755522,31.9232132 C41.2337651,34.7997287 38.9581465,35.9366107 36.1465426,35.9366107 C33.0029618,35.9366107 30.1245917,34.0634446 29.7907601,30.6490893 L51.7401871,30.582323 C51.8755743,29.6438853 51.8755743,28.7759231 51.8755743,27.907961 C51.8755743,18.3381221 45.8517688,11.7783314 35.4770248,11.7783314 L35.4770248,11.7783314 L35.4770248,11.7783314 Z" id="flag-e" fill="#FFFFFF"></path>
                                        </g>
                                    </g>
                                    <g id="flag-link" transform="translate(765.336947, 488.891298)">
                                        <g id="flag" transform="translate(0.815897, 0.815897)">
                                            <path d="M76.6714665,40.9256798 L0,48.5559479 C0,48.5559479 4.76810167,35.2176648 4.76810167,23.7885806 C4.76810167,12.3594964 0,0.45229654 0,0.45229654 L76.6714665,8.07930106 L55.6996518,24.0268225 L76.6714665,40.9256798 L76.6714665,40.9256798 Z" id="flag-background" fill="#4FB79B"></path>
                                            <path d="M9.27674812,1.37752366 L53.8181934,43.1987686 L76.6714665,40.924048 L55.6996518,24.0268225 L76.6714665,8.07930106 L9.27674812,1.37752366 L9.27674812,1.37752366 Z" id="flag-highlight" fill="#7DC5B1"></path>
                                            <path d="M26.3273622,20.8415609 C26.914808,18.3677614 28.9186509,16.9546279 31.2716976,16.9546279 C33.628008,16.9546279 35.5731062,18.3677614 36.2209284,20.8415609 L26.3273622,20.8415609 L26.3273622,20.8415609 Z M31.2145848,10.2430597 C22.561182,10.2430597 16.3179386,16.3084375 16.3179386,24.7856066 C16.3179386,33.3247839 22.1467063,38.9185733 31.5083077,38.9185733 C36.8687506,38.9185733 42.1671852,36.9163622 44.7601057,32.6182172 L37.9881612,27.9676047 C36.279673,30.498517 34.2774619,31.4988066 31.8036624,31.4988066 C29.0377718,31.4988066 26.5052277,29.8506948 26.2115048,26.8465623 L45.5237852,26.7878177 C45.6429062,25.96213 45.6429062,25.1984505 45.6429062,24.434771 C45.6429062,16.0147146 40.3428397,10.2430597 31.2145848,10.2430597 L31.2145848,10.2430597 L31.2145848,10.2430597 Z" id="flag-e" fill="#FFFFFF"></path>
                                        </g>
                                    </g>
                                    <g id="flag-link" transform="translate(959.541164, 531.353959)">
                                        <g id="flag" transform="translate(0.676226, 0.676226)">
                                            <path d="M63.5462855,33.748536 L0,40.0725992 C0,40.0725992 3.95186324,29.0176607 3.95186324,19.5450905 C3.95186324,10.0725203 0,0.20368182 0,0.20368182 L63.5462855,6.52504006 L46.164579,19.7425484 L63.5462855,33.748536 L63.5462855,33.748536 Z" id="flag-background" fill="#4FB79B"></path>
                                            <path d="M7.68868669,0.97052181 L44.6052024,35.6325009 L63.5462855,33.7471836 L46.164579,19.7425484 L63.5462855,6.52504006 L7.68868669,0.97052181 L7.68868669,0.97052181 Z" id="flag-highlight" fill="#7DC5B1"></path>
                                            <path d="M21.8204523,17.1025631 C22.3073348,15.0522467 23.9681452,13.8810237 25.9183803,13.8810237 C27.8713202,13.8810237 29.4834424,15.0522467 30.0203656,17.1025631 L21.8204523,17.1025631 L21.8204523,17.1025631 Z M25.8710445,8.31839073 C18.6989942,8.31839073 13.5245149,13.3454529 13.5245149,20.3714384 C13.5245149,27.448817 18.3554716,32.0850207 26.1144857,32.0850207 C30.5572889,32.0850207 34.9486988,30.4255627 37.0977442,26.8632055 L31.4850706,23.0087188 C30.0690539,25.106371 28.4095959,25.9354238 26.3592794,25.9354238 C24.0668742,25.9354238 21.9678695,24.5694478 21.7244282,22.0795846 L37.7306915,22.0308963 C37.8294205,21.3465559 37.8294205,20.7136086 37.8294205,20.0806613 C37.8294205,13.1020116 33.4366581,8.31839073 25.8710445,8.31839073 L25.8710445,8.31839073 L25.8710445,8.31839073 Z" id="flag-e" fill="#FFFFFF"></path>
                                        </g>
                                    </g>
                                    <g id="flag-link" transform="translate(777.336947, 1049.583530)">
                                        <g id="flag" transform="translate(0.902355, 0.902355)">
                                            <path d="M84.7961078,45.3684161 L0,53.8072404 C0,53.8072404 5.27336285,39.0555402 5.27336285,26.4153508 C5.27336285,13.7751614 0,0.60619197 0,0.60619197 L84.7961078,9.0414069 L61.6019739,26.6788385 L84.7961078,45.3684161 L84.7961078,45.3684161 Z" id="flag-background" fill="#4FB79B"></path>
                                            <path d="M10.2597768,1.62946259 L59.5211432,47.8823772 L84.7961078,45.3666114 L61.6019739,26.6788385 L84.7961078,9.0414069 L10.2597768,1.62946259 L10.2597768,1.62946259 Z" id="flag-highlight" fill="#7DC5B1"></path>
                                            <path d="M29.1171924,23.1560444 C29.7668881,20.4201039 31.983072,18.857225 34.585464,18.857225 C37.1914653,18.857225 39.3426798,20.4201039 40.0591497,23.1560444 L29.1171924,23.1560444 L29.1171924,23.1560444 Z M34.5222991,11.4344525 C24.9519216,11.4344525 18.0471008,18.1425598 18.0471008,27.5180287 C18.0471008,36.9620765 24.4935252,43.1486227 34.8471469,43.1486227 C40.7756196,43.1486227 46.6355132,40.9342434 49.5031975,36.1806371 L42.0136507,31.0372133 C40.1241192,33.8363187 37.9097399,34.942606 35.1737995,34.942606 C32.1148159,34.942606 29.3139058,33.1198488 28.989058,29.7973775 L50.3478018,29.732408 C50.4795457,28.8192247 50.4795457,27.9746203 50.4795457,27.130016 C50.4795457,17.817712 44.6178473,11.4344525 34.5222991,11.4344525 L34.5222991,11.4344525 L34.5222991,11.4344525 Z" id="flag-e" fill="#FFFFFF"></path>
                                        </g>
                                    </g>
                                    <g id="flag-link" transform="translate(480.404703, 349.068580)">
                                        <g id="flag" transform="translate(0.364248, 0.364248)">
                                            <path d="M34.2291109,18.7172465 L1.13686838e-13,22.1236936 C1.13686838e-13,22.1236936 2.12866518,16.1689677 2.12866518,11.066582 C2.12866518,5.96419638 1.13686838e-13,0.648361399 1.13686838e-13,0.648361399 L34.2291109,4.05335149 L24.8664809,11.1729424 L34.2291109,18.7172465 L34.2291109,18.7172465 Z" id="flag-background" fill="#4FB79B"></path>
                                            <path d="M4.1414995,1.0614186 L24.0265251,19.7320414 L34.2291109,18.716518 L24.8664809,11.1729424 L34.2291109,4.05335149 L4.1414995,1.0614186 L4.1414995,1.0614186 Z" id="flag-highlight" fill="#7DC5B1"></path>
                                            <path d="M11.7535537,9.75091834 C12.0158123,8.64651848 12.9104053,8.01564098 13.9608965,8.01564098 C15.0128446,8.01564098 15.8812118,8.64651848 16.1704247,9.75091834 L11.7535537,9.75091834 L11.7535537,9.75091834 Z M13.9353991,5.01933712 C10.0721851,5.01933712 7.28495954,7.72715658 7.28495954,11.5116931 C7.28495954,15.3239124 9.88714709,17.8211965 14.0665284,17.8211965 C16.4596376,17.8211965 18.8250639,16.927332 19.982644,15.0084736 L16.9593858,12.9322602 C16.1966505,14.0621574 15.302786,14.5087254 14.1983861,14.5087254 C12.9635855,14.5087254 11.8329598,13.7729445 11.7018305,12.4317835 L20.3235801,12.4055576 C20.3767603,12.0369386 20.3767603,11.6960025 20.3767603,11.3550664 C20.3767603,7.59602731 18.0106055,5.01933712 13.9353991,5.01933712 L13.9353991,5.01933712 L13.9353991,5.01933712 Z" id="flag-e" fill="#FFFFFF"></path>
                                        </g>
                                    </g>
                                    <g id="flag-link" transform="translate(873.248939, 437.699715)">
                                        <g id="flag" transform="translate(0.516519, 0.516519)">
                                            <path d="M48.5383102,26.5418381 L0,31.3723225 C0,31.3723225 3.01853621,22.9282722 3.01853621,15.692876 C3.01853621,8.4574798 0,0.91940357 0,0.91940357 L48.5383102,5.74782187 L35.2617095,15.8436995 L48.5383102,26.5418381 L48.5383102,26.5418381 Z" id="flag-background" fill="#4FB79B"></path>
                                            <path d="M5.87281943,1.50513596 L34.070617,27.9808596 L48.5383102,26.5408051 L35.2617095,15.8436995 L48.5383102,5.74782187 L5.87281943,1.50513596 L5.87281943,1.50513596 Z" id="flag-highlight" fill="#7DC5B1"></path>
                                            <path d="M16.6670306,13.8272099 C17.0389241,12.2611247 18.3074945,11.366514 19.7971348,11.366514 C21.2888413,11.366514 22.5202223,12.2611247 22.9303382,13.8272099 L16.6670306,13.8272099 L16.6670306,13.8272099 Z M19.7609785,7.11762988 C14.2827795,7.11762988 10.3303772,10.9574311 10.3303772,16.324062 C10.3303772,21.7299484 14.0203879,25.2712017 19.9469253,25.2712017 C23.3404542,25.2712017 26.6947277,24.0036644 28.3362246,21.2826431 L24.0491181,18.3384856 C22.9675276,19.9407271 21.6999903,20.5739792 20.1339051,20.5739792 C18.3829062,20.5739792 16.7796317,19.5306111 16.5936849,17.6287887 L28.8196863,17.5915993 C28.895098,17.0688822 28.895098,16.5854206 28.895098,16.1019589 C28.895098,10.7714843 25.5397915,7.11762988 19.7609785,7.11762988 L19.7609785,7.11762988 L19.7609785,7.11762988 Z" id="flag-e" fill="#FFFFFF"></path>
                                        </g>
                                    </g>
                                    <g id="flag-link" transform="translate(516.404703, 1066.583530)">
                                        <g id="flag" transform="translate(0.322015, 0.322015)">
                                            <path d="M30.2603854,16.5470583 L1.77635684e-15,19.5585418 C1.77635684e-15,19.5585418 1.88185515,14.294242 1.88185515,9.78345708 C1.88185515,5.27267218 1.77635684e-15,0.573186545 1.77635684e-15,0.573186545 L30.2603854,3.58338195 L21.9833141,9.87748543 L30.2603854,16.5470583 L30.2603854,16.5470583 Z" id="flag-background" fill="#4FB79B"></path>
                                            <path d="M3.66130956,0.938351456 L21.2407477,17.4441918 L30.2603854,16.5464143 L21.9833141,9.87748543 L30.2603854,3.58338195 L3.66130956,0.938351456 L3.66130956,0.938351456 Z" id="flag-highlight" fill="#7DC5B1"></path>
                                            <path d="M10.3907772,8.62033921 C10.6226279,7.64399 11.4134966,7.08626017 12.3421876,7.08626017 C13.2721666,7.08626017 14.0398502,7.64399 14.29553,8.62033921 L10.3907772,8.62033921 L10.3907772,8.62033921 Z M12.3196465,4.4373655 C8.90435637,4.4373655 6.44029825,6.83122436 6.44029825,10.1769593 C6.44029825,13.5471674 8.74077279,15.7549016 12.4355719,15.7549016 C14.5512099,15.7549016 16.6423747,14.964677 17.6657381,13.2683025 L14.9930143,11.4328175 C14.3187151,12.4317077 13.5284905,12.826498 12.5521413,12.826498 C11.4605107,12.826498 10.4609765,12.1760279 10.3450511,10.990369 L17.9671441,10.9671839 C18.0141582,10.6413048 18.0141582,10.3398988 18.0141582,10.0384929 C18.0141582,6.71529899 15.9223494,4.4373655 12.3196465,4.4373655 L12.3196465,4.4373655 L12.3196465,4.4373655 Z" id="flag-e" fill="#FFFFFF"></path>
                                        </g>
                                    </g>
                                    <g id="flag-link-copy-6" transform="translate(690.000000, 926.681813)">
                                        <g id="flag" transform="translate(0.472725, 0.472725)">
                                            <path d="M44.8909409,24.2914496 L0.468022239,28.7123743 C0.468022239,28.7123743 3.23062745,20.9842651 3.23062745,14.3623326 C3.23062745,7.74040002 0.468022239,0.841450594 0.468022239,0.841450594 L44.8909409,5.26048439 L32.7400162,14.5003683 L44.8909409,24.2914496 L44.8909409,24.2914496 Z" id="flag-background" fill="#4FB79B"></path>
                                            <path d="M5.84290609,1.3775208 L31.6499122,25.6084616 L44.8909409,24.2905041 L32.7400162,14.5003683 L44.8909409,5.26048439 L5.84290609,1.3775208 L5.84290609,1.3775208 Z" id="flag-highlight" fill="#7DC5B1"></path>
                                            <path d="M15.7219142,12.6548497 C16.0622763,11.2215473 17.223289,10.4027875 18.5866281,10.4027875 C19.951858,10.4027875 21.0788345,11.2215473 21.4541782,12.6548497 L15.7219142,12.6548497 L15.7219142,12.6548497 Z M18.5535373,6.51415123 C13.5398154,6.51415123 9.9225233,10.0283893 9.9225233,14.9400026 C9.9225233,19.887543 13.2996711,23.1285459 18.7237183,23.1285459 C21.8295219,23.1285459 24.8993984,21.9684787 26.4017186,19.4781631 L22.4781007,16.7836303 C21.4882144,18.2500234 20.3281472,18.8295843 18.8948448,18.8295843 C17.2923069,18.8295843 15.8249683,17.8746797 15.6547873,16.1341061 L26.8441893,16.1000699 C26.9132072,15.6216721 26.9132072,15.1792015 26.9132072,14.7367308 C26.9132072,9.85820825 23.8423852,6.51415123 18.5535373,6.51415123 L18.5535373,6.51415123 L18.5535373,6.51415123 Z" id="flag-e" fill="#FFFFFF"></path>
                                        </g>
                                    </g>
                                    <g id="flag-link" transform="translate(938.167643, 1005.106971)">
                                        <g id="flag" transform="translate(0.465976, 0.465976)">
                                            <path d="M43.7887208,23.9446559 L0,28.3024659 C0,28.3024659 2.72316525,20.6846861 2.72316525,14.1572906 C2.72316525,7.62989523 0,0.829437738 0,0.829437738 L43.7887208,5.18538379 L31.8112671,14.2933557 L43.7887208,23.9446559 L43.7887208,23.9446559 Z" id="flag-background" fill="#4FB79B"></path>
                                            <path d="M5.29815004,1.35785481 L30.7367259,25.2428658 L43.7887208,23.943724 L31.8112671,14.2933557 L43.7887208,5.18538379 L5.29815004,1.35785481 L5.29815004,1.35785481 Z" id="flag-highlight" fill="#7DC5B1"></path>
                                            <path d="M15.0361219,12.4741844 C15.3716248,11.0613444 16.5160625,10.2542735 17.859938,10.2542735 C19.2056774,10.2542735 20.3165648,11.0613444 20.68655,12.4741844 L15.0361219,12.4741844 L15.0361219,12.4741844 Z M17.8273196,6.42115282 C12.8851755,6.42115282 9.31952514,9.88522032 9.31952514,14.7267136 C9.31952514,19.6036211 12.6484595,22.7983544 17.9950711,22.7983544 C21.0565351,22.7983544 24.0825849,21.6548486 25.5634575,19.2000857 L21.6958545,16.544021 C20.7201002,17.9894794 19.5765945,18.5607663 18.1637545,18.5607663 C16.584095,18.5607663 15.1377047,17.6194942 14.9699532,15.9037697 L25.9996112,15.8702194 C26.0676438,15.3986514 26.0676438,14.9624976 26.0676438,14.5263438 C26.0676438,9.71746886 23.040662,6.42115282 17.8273196,6.42115282 L17.8273196,6.42115282 L17.8273196,6.42115282 Z" id="flag-e" fill="#FFFFFF"></path>
                                        </g>
                                    </g>
                                    <g id="flag-link" transform="translate(690.817582, 534.999554)">
                                        <g id="flag" transform="translate(0.605020, 0.605020)">
                                            <path d="M56.854898,30.089535 L0,35.747678 C0,35.747678 3.5357343,25.8568182 3.5357343,17.3817042 C3.5357343,8.90659026 0,0.0769348146 0,0.0769348146 L56.854898,5.73265765 L41.3034752,17.5583699 L56.854898,30.089535 L56.854898,30.089535 Z" id="flag-background" fill="#F741CD"></path>
                                            <path d="M6.87907238,0.763026994 L39.9083001,31.7751195 L56.854898,30.088325 L41.3034752,17.5583699 L56.854898,5.73265765 L6.87907238,0.763026994 L6.87907238,0.763026994 Z" id="flag-highlight" fill="#FF67DC"></path>
                                        </g>
                                    </g>
                                    <g id="flag-link" transform="translate(938.167643, 510.111762)">
                                        <g id="flag" transform="translate(0.121507, 0.121507)">
                                            <path d="M11.418297,6.24378121 L0,7.38011877 C0,7.38011877 0.710089468,5.39371517 0.710089468,3.69163898 C0.710089468,1.98956279 0,0.21628324 0,0.21628324 L11.418297,1.35213477 L8.29506978,3.72711915 L11.418297,6.24378121 L11.418297,6.24378121 Z" id="flag-background" fill="#4FB79B"></path>
                                            <path d="M1.38153957,0.354072674 L8.01487362,6.58230093 L11.418297,6.24353819 L8.29506978,3.72711915 L11.418297,1.35213477 L1.38153957,0.354072674 L1.38153957,0.354072674 Z" id="flag-highlight" fill="#7DC5B1"></path>
                                            <path d="M3.92080201,3.25275411 C4.00828736,2.88434356 4.30670963,2.67389268 4.65713708,2.67389268 C5.00805056,2.67389268 5.2977243,2.88434356 5.3942012,3.25275411 L3.92080201,3.25275411 L3.92080201,3.25275411 Z M4.64863156,1.6743725 C3.35992367,1.6743725 2.43014876,2.57765879 2.43014876,3.84012107 C2.43014876,5.11181792 3.2981979,5.94487291 4.69237424,5.94487291 C5.49067811,5.94487291 6.27974741,5.64669366 6.66589805,5.00659247 L5.65738631,4.31400008 C5.40294974,4.69091615 5.10477048,4.83988427 4.73635993,4.83988427 C4.32444972,4.83988427 3.94729063,4.59443924 3.90354795,4.14704886 L6.77962901,4.13830032 C6.79736909,4.0153348 6.79736909,3.90160383 6.79736909,3.78787287 C6.79736909,2.53391611 6.00805678,1.6743725 4.64863156,1.6743725 L4.64863156,1.6743725 L4.64863156,1.6743725 Z" id="flag-e" fill="#FFFFFF"></path>
                                        </g>
                                    </g>
                                    <g id="flag-link" transform="translate(856.893263, 1198.110451)">
                                        <g id="flag" transform="translate(0.219597, 0.219597)">
                                            <path d="M20.6359258,11.2841876 L4.54747351e-13,13.3378545 C4.54747351e-13,13.3378545 1.28332216,9.74789027 1.28332216,6.67178198 C1.28332216,3.5956737 4.54747351e-13,0.390881836 4.54747351e-13,0.390881836 L20.6359258,2.44367026 L14.9914164,6.73590417 L20.6359258,11.2841876 L20.6359258,11.2841876 Z" id="flag-background" fill="#4FB79B"></path>
                                            <path d="M2.49681262,0.639904309 L14.4850268,11.8959836 L20.6359258,11.2837485 L14.9914164,6.73590417 L20.6359258,2.44367026 L2.49681262,0.639904309 L2.49681262,0.639904309 Z" id="flag-highlight" fill="#7DC5B1"></path>
                                            <path d="M7.08594105,5.87859929 C7.24405056,5.21278259 7.78337965,4.83244139 8.41669607,4.83244139 C9.05089086,4.83244139 9.57440901,5.21278259 9.74876866,5.87859929 L7.08594105,5.87859929 L7.08594105,5.87859929 Z M8.40132431,3.02604028 C6.07228344,3.02604028 4.39193074,4.65852093 4.39193074,6.94012895 C4.39193074,9.23842631 5.9607284,10.7439802 8.48037906,10.7439802 C9.92312831,10.7439802 11.3491882,10.2050903 12.047066,9.04825571 L10.2244148,7.79655545 C9.76457961,8.4777439 9.22568971,8.74696926 8.55987301,8.74696926 C7.81544075,8.74696926 7.1338131,8.30338425 7.05475834,7.4948298 L12.2526084,7.47901885 C12.2846695,7.25678716 12.2846695,7.0512448 12.2846695,6.84570244 C12.2846695,4.57946618 10.8581704,3.02604028 8.40132431,3.02604028 L8.40132431,3.02604028 L8.40132431,3.02604028 Z" id="flag-e" fill="#FFFFFF"></path>
                                        </g>
                                    </g>
                                    <g id="flag-link-copy-5" transform="translate(742.326993, 404.940193)">
                                        <g id="flag" transform="translate(0.396149, 0.396149)">
                                            <path d="M37.226944,20.356529 L8.2067686e-13,24.0613174 C8.2067686e-13,24.0613174 2.31509663,17.5850683 2.31509663,12.0358087 C2.31509663,6.48654898 8.2067686e-13,0.705145791 8.2067686e-13,0.705145791 L37.226944,4.40834964 L27.0443218,12.1514843 L37.226944,20.356529 L37.226944,20.356529 Z" id="flag-background" fill="#4FB79B"></path>
                                            <path d="M4.50421778,1.15437912 L26.1308015,21.460201 L37.226944,20.3557367 L27.0443218,12.1514843 L37.226944,4.40834964 L4.50421778,1.15437912 L4.50421778,1.15437912 Z" id="flag-highlight" fill="#7DC5B1"></path>
                                            <path d="M12.7829463,10.6049173 C13.0681738,9.40379257 14.0411165,8.71766195 15.1836112,8.71766195 C16.3276904,8.71766195 17.2721104,9.40379257 17.5866529,10.6049173 L12.7829463,10.6049173 L12.7829463,10.6049173 Z M15.1558807,5.45893764 C10.954321,5.45893764 7.92298641,8.40391169 7.92298641,12.5199031 C7.92298641,16.6660019 10.7530772,19.3820017 15.2984945,19.3820017 C17.9011955,19.3820017 20.4737892,18.4098512 21.7327517,16.3229366 L18.4447124,14.0648855 C17.6151757,15.2937407 16.6430253,15.7794197 15.4419005,15.7794197 C14.0989543,15.7794197 12.8693068,14.9791981 12.7266931,13.5205763 L22.1035475,13.4920536 C22.1613853,13.0911504 22.1613853,12.7203547 22.1613853,12.3495589 C22.1613853,8.26129793 19.5879993,5.45893764 15.1558807,5.45893764 L15.1558807,5.45893764 L15.1558807,5.45893764 Z" id="flag-e" fill="#FFFFFF"></path>
                                        </g>
                                    </g>
                                    <g id="flag-link" transform="translate(769.393263, 863.690795)">
                                        <g id="flag" transform="translate(0.292499, 0.292499)">
                                            <path d="M27.4867511,15.0303728 L5.89750471e-13,17.7658269 C5.89750471e-13,17.7658269 1.70936633,12.9840472 1.70936633,8.88671594 C1.70936633,4.78938473 5.89750471e-13,0.520648883 5.89750471e-13,0.520648883 L27.4867511,3.25493302 L19.9683472,8.97212576 L27.4867511,15.0303728 L27.4867511,15.0303728 Z" id="flag-background" fill="#4FB79B"></path>
                                            <path d="M3.32571787,0.852343172 L19.2938436,15.845276 L27.4867511,15.0297878 L19.9683472,8.97212576 L27.4867511,3.25493302 L3.32571787,0.852343172 L3.32571787,0.852343172 Z" id="flag-highlight" fill="#7DC5B1"></path>
                                            <path d="M9.43836976,7.83020821 C9.64896931,6.94335011 10.3673478,6.4367412 11.210916,6.4367412 C12.0556541,6.4367412 12.7529727,6.94335011 12.9852172,7.83020821 L9.43836976,7.83020821 L9.43836976,7.83020821 Z M11.190441,4.03064136 C8.08819265,4.03064136 5.84998745,6.20508169 5.84998745,9.24415018 C5.84998745,12.3054486 7.93960297,14.3108243 11.2957408,14.3108243 C13.2174617,14.3108243 15.1169526,13.5930308 16.0465156,12.0521442 L13.6187708,10.3848977 C13.0062771,11.2922308 12.2884836,11.650835 11.4016255,11.650835 C10.4100527,11.650835 9.50213462,11.0599863 9.39683485,9.98300359 L16.320295,9.96194364 C16.3629999,9.66593427 16.3629999,9.39215486 16.3629999,9.11837545 C16.3629999,6.09978192 14.462924,4.03064136 11.190441,4.03064136 L11.190441,4.03064136 L11.190441,4.03064136 Z" id="flag-e" fill="#FFFFFF"></path>
                                        </g>
                                    </g>
                                    <g id="flag-link" transform="translate(576.181600, 302.865441)">
                                        <g id="flag" transform="translate(0.310083, 0.310083)">
                                            <path d="M29.1390784,15.9339025 L0,18.8337946 C0,18.8337946 1.81212248,13.7645649 1.81212248,9.42092836 C1.81212248,5.07729185 0,0.551946958 0,0.551946958 L29.1390784,3.45059873 L21.1687163,9.51147247 L29.1390784,15.9339025 L29.1390784,15.9339025 Z" id="flag-background" fill="#4FB79B"></path>
                                            <path d="M3.52563871,0.903580582 L20.4536659,16.7977925 L29.1390784,15.9332823 L21.1687163,9.51147247 L29.1390784,3.45059873 L3.52563871,0.903580582 L3.52563871,0.903580582 Z" id="flag-highlight" fill="#7DC5B1"></path>
                                            <path d="M10.0057441,8.30091015 C10.2290035,7.36073982 10.9905663,6.82367683 11.8848444,6.82367683 C12.7803628,6.82367683 13.5195996,7.36073982 13.7658052,8.30091015 L10.0057441,8.30091015 L10.0057441,8.30091015 Z M11.8631386,4.27293769 C8.57440297,4.27293769 6.20165121,6.57809144 6.20165121,9.79984925 C6.20165121,13.0451733 8.41688103,15.1710994 11.9747683,15.1710994 C14.0120108,15.1710994 16.0256869,14.4101568 17.0111293,12.7766418 L14.437444,11.0091712 C13.7881311,11.9710473 13.0271885,12.3512086 12.0870182,12.3512086 C11.0358383,12.3512086 10.0733421,11.7248418 9.96171234,10.5831178 L17.3013666,10.5607919 C17.3466386,10.2469883 17.3466386,9.95675102 17.3466386,9.66651375 C17.3466386,6.46646172 15.3323423,4.27293769 11.8631386,4.27293769 L11.8631386,4.27293769 L11.8631386,4.27293769 Z" id="flag-e" fill="#FFFFFF"></path>
                                        </g>
                                    </g>
                                    <g id="flag-link" transform="translate(987.041164, 673.496805)">
                                        <g id="flag" transform="translate(0.882747, 0.812151)">
                                            <path d="M8.36033046,4.57161645 L2.50111043e-12,5.40362822 C2.50111043e-12,5.40362822 0.519918393,3.94920901 0.519918393,2.70297067 C0.519918393,1.45673233 2.50111043e-12,0.158359812 2.50111043e-12,0.158359812 L8.36033046,0.990015721 L6.07354361,2.7289488 L8.36033046,4.57161645 L8.36033046,4.57161645 Z" id="flag-background" fill="#4FB79B"></path>
                                            <path d="M1.01154554,0.259247467 L5.86838758,4.81947624 L8.36033046,4.57143852 L6.07354361,2.7289488 L8.36033046,0.990015721 L1.01154554,0.259247467 L1.01154554,0.259247467 Z" id="flag-highlight" fill="#7DC5B1"></path>
                                            <path d="M2.8707609,2.4439753 C2.93481655,2.13454748 3.15331751,1.9577899 3.40989599,1.9577899 C3.66683034,1.9577899 3.87892572,2.13454748 3.94956488,2.4439753 L2.8707609,2.4439753 L2.8707609,2.4439753 Z M3.40366836,1.22595405 C2.46009298,1.22595405 1.77932373,1.88732868 1.77932373,2.81168735 C1.77932373,3.74280746 2.41489816,4.35275963 3.43569618,4.35275963 C4.02020403,4.35275963 4.59795044,4.13443661 4.88068498,3.66576274 L4.14226563,3.15865548 C3.95597044,3.43462859 3.73764742,3.54370113 3.46790194,3.54370113 C3.16630657,3.54370113 2.89015553,3.36398944 2.8581277,3.03641594 L4.96395733,3.03001037 C4.97694639,2.93997659 4.97694639,2.85670424 4.97694639,2.77343189 C4.97694639,1.85530085 4.39902205,1.22595405 3.40366836,1.22595405 L3.40366836,1.22595405 L3.40366836,1.22595405 Z" id="flag-e" fill="#FFFFFF"></path>
                                        </g>
                                    </g>
                                    <g id="flag-link" transform="translate(637.520521, 1013.106971)">
                                        <g id="flag" transform="translate(0.790131, 0.843771)">
                                            <path d="M19.0450102,10.4142393 L3.41238149e-12,12.3095797 C3.41238149e-12,12.3095797 1.18438513,8.99638192 1.18438513,6.15742454 C1.18438513,3.31846717 3.41238149e-12,0.360747011 3.41238149e-12,0.360747011 L19.0450102,2.25527682 L13.8356612,6.21660327 L19.0450102,10.4142393 L19.0450102,10.4142393 Z" id="flag-background" fill="#4FB79B"></path>
                                            <path d="M2.3043222,0.59057123 L13.3683114,10.9788691 L19.0450102,10.4138339 L13.8356612,6.21660327 L19.0450102,2.25527682 L2.3043222,0.59057123 L2.3043222,0.59057123 Z" id="flag-highlight" fill="#7DC5B1"></path>
                                            <path d="M6.53965424,5.42539184 C6.68557438,4.81090592 7.18332419,4.45988692 7.76781541,4.45988692 C8.3531173,4.45988692 8.8362751,4.81090592 8.99719259,5.42539184 L6.53965424,5.42539184 L6.53965424,5.42539184 Z M7.75362873,2.79274933 C5.60414401,2.79274933 4.0533372,4.29937477 4.0533372,6.40508345 C4.0533372,8.5261948 5.50118925,9.9156788 7.8265888,9.9156788 C9.15811007,9.9156788 10.4742287,9.41833432 11.1183039,8.3506853 L9.436169,7.1954842 C9.0117846,7.8241568 8.51444012,8.07262637 7.89995421,8.07262637 C7.21291355,8.07262637 6.58383562,7.66323931 6.51087555,6.91701993 L11.3080001,6.90242792 C11.3375895,6.69732906 11.3375895,6.50763288 11.3375895,6.3179367 C11.3375895,4.2264147 10.0210656,2.79274933 7.75362873,2.79274933 L7.75362873,2.79274933 L7.75362873,2.79274933 Z" id="flag-e" fill="#FFFFFF"></path>
                                        </g>
                                    </g>
                                    <g id="flag-link" transform="translate(675.826993, 1213.110451)">
                                        <g id="flag" transform="translate(0.165184, 0.165184)">
                                            <path d="M15.5226466,8.48813174 L2.58548738e-12,10.0329301 C2.58548738e-12,10.0329301 0.965333786,7.33250629 0.965333786,5.01861244 C0.965333786,2.70471858 2.58548738e-12,0.29402706 2.58548738e-12,0.29402706 L15.5226466,1.83816468 L11.2767637,5.06684609 L15.5226466,8.48813174 L15.5226466,8.48813174 Z" id="flag-background" fill="#4FB79B"></path>
                                            <path d="M1.87813914,0.481345423 L10.89585,8.94833365 L15.5226466,8.48780138 L11.2767637,5.06684609 L15.5226466,1.83816468 L1.87813914,0.481345423 L1.87813914,0.481345423 Z" id="flag-highlight" fill="#7DC5B1"></path>
                                            <path d="M5.33014897,4.42196876 C5.44908127,3.92113166 5.85477254,3.63503342 6.33116245,3.63503342 C6.80821309,3.63503342 7.20201113,3.92113166 7.33316702,4.42196876 L5.33014897,4.42196876 L5.33014897,4.42196876 Z M6.31959958,2.27623196 C4.56766082,2.27623196 3.30367483,3.50420789 3.30367483,5.22046697 C3.30367483,6.94928001 4.48374748,8.08177974 6.37906573,8.08177974 C7.46432291,8.08177974 8.53702613,7.67641884 9.06198006,6.80623089 L7.69095501,5.86468356 C7.34506025,6.37708353 6.93969935,6.57959879 6.43886225,6.57959879 C5.87888936,6.57959879 5.36615903,6.24592764 5.30669288,5.6377211 L9.21659204,5.62582787 C9.24070887,5.45866192 9.24070887,5.30404994 9.24070887,5.14943796 C9.24070887,3.44474175 8.16767528,2.27623196 6.31959958,2.27623196 L6.31959958,2.27623196 L6.31959958,2.27623196 Z" id="flag-e" fill="#FFFFFF"></path>
                                        </g>
                                    </g>
                                </g>
                            </g>
                            <path d="M151.180493,518.028501 L151.180493,517.455988 L160.952703,508.532677 C162.703154,506.900677 163.910685,505.548375 164.57533,504.47573 C165.239975,503.403084 165.572293,502.366648 165.572293,501.36639 C165.572293,500.405616 165.30249,499.648853 164.762877,499.096079 C164.223264,498.543305 163.492824,498.266922 162.571533,498.266922 C161.558114,498.266922 160.794771,498.618981 160.28148,499.32311 C159.76819,500.027239 159.590515,500.991289 159.748451,502.215289 L151.930683,502.215289 C151.733264,499.227676 152.674282,496.783003 154.753766,494.881197 C156.83325,492.97939 159.60366,492.028501 163.065079,492.028501 C166.223789,492.028501 168.750719,492.831328 170.645945,494.437005 C172.541171,496.042683 173.48877,498.220844 173.48877,500.971553 C173.48877,502.682521 173.126839,504.219079 172.402968,505.581272 C171.679097,506.943466 170.369569,508.466863 168.474343,510.151508 L167.013447,511.395244 L174.14025,511.395244 L174.14025,518.028501 L151.180493,518.028501 L151.180493,518.028501 Z" id="2" fill="#FFFFFF"></path>
                            <path d="M263.463696,545.728313 C263.463696,539.257642 265.362669,534.015179 269.160671,530.000766 C272.958673,525.986354 277.952268,523.979177 284.141605,523.979177 C290.547353,523.979177 295.551768,525.916021 299.155001,529.789767 C302.758234,533.663513 304.559823,538.976308 304.559823,545.728313 C304.559823,552.263906 302.687901,557.506369 298.944002,561.455859 C295.200102,565.405348 290.201097,567.380063 283.946837,567.380063 C277.497807,567.380063 272.471752,565.45404 268.868519,561.601935 C265.265286,557.74983 263.463696,552.458676 263.463696,545.728313 L263.463696,545.728313 L263.463696,545.728313 Z M276.707946,545.728313 C276.707946,549.039391 277.340937,551.674148 278.606937,553.632662 C279.872938,555.591176 281.674528,556.570419 284.01176,556.570419 C286.435556,556.570419 288.269607,555.612817 289.513966,553.697585 C290.758326,551.782353 291.380497,549.125956 291.380497,545.728313 C291.380497,542.482157 290.720455,539.85281 289.400351,537.840193 C288.080248,535.827577 286.284069,534.821284 284.01176,534.821284 C281.566322,534.821284 279.737682,535.773475 278.525784,537.677886 C277.313886,539.582298 276.707946,542.265746 276.707946,545.728313 L276.707946,545.728313 L276.707946,545.728313 Z" id="0" fill="#FFFFFF"></path>
                            <path d="M710.70784,549.667052 L710.70784,544.247251 L720.76173,544.247251 L720.76173,565.028501 L714.39587,565.028501 L714.39587,549.667052 L710.70784,549.667052 L710.70784,549.667052 Z" id="1" fill="#FFFFFF"></path>
                            <path d="M831.98713,618.146507 L834.3655,607.978983 C838.34929,610.73394 842.12491,612.111398 845.69248,612.111398 C847.69428,612.111398 849.30958,611.551496 850.53841,610.431675 C851.76724,609.311854 852.38164,607.820434 852.38164,605.95737 C852.38164,603.876287 851.57895,602.270905 849.97354,601.141174 C848.36814,600.011444 846.02943,599.446587 842.95736,599.446587 C840.28168,599.446587 837.74478,599.852887 835.34658,600.6655 L834.72226,600.070908 L839.24116,578.457487 L861.53836,578.457487 L861.53836,588.416904 L846.6141,588.416904 L845.75194,592.638508 C847.65464,592.34121 849.16093,592.192564 850.27084,592.192564 C852.25282,592.192564 854.0564,592.450217 855.68163,592.965533 C857.30685,593.480849 858.75864,594.268675 860.03701,595.329037 C861.31539,596.389398 862.31133,597.806495 863.02484,599.58037 C863.73835,601.354245 864.09511,603.420432 864.09511,605.778992 C864.09511,607.384399 863.87214,608.955097 863.42619,610.491134 C862.98024,612.027172 862.27665,613.488862 861.31539,614.876251 C860.35413,616.263639 859.19964,617.482541 857.85189,618.532992 C856.50414,619.583443 854.84921,620.420819 852.88704,621.045143 C850.92488,621.669468 848.79428,621.981626 846.49518,621.981626 C841.10419,621.981626 836.26822,620.703266 831.98713,618.146507 L831.98713,618.146507 L831.98713,618.146507 Z" id="5" fill="#FFFFFF"></path>
                        </g>
                    </g>
                </g>
            </g>
        </g>
    </g>
</svg>