<?xml version="1.0" encoding="UTF-8" standalone="no"?>
<svg width="2000px" height="730px" viewBox="0 0 2000 730" version="1.1" xmlns="http://www.w3.org/2000/svg" xmlns:xlink="http://www.w3.org/1999/xlink" xmlns:sketch="http://www.bohemiancoding.com/sketch/ns">
    <!-- Generator: Sketch 3.3.2 (12043) - http://www.bohemiancoding.com/sketch -->
    <title>eurucamp-2015-cover-name</title>
    <desc>Created with Sketch.</desc>
    <defs>
        <rect id="path-1" x="0" y="0" width="1891.05447" height="731"></rect>
        <rect id="path-3" x="0" y="0" width="1891.05447" height="731"></rect>
    </defs>
    <g id="Page-1" stroke="none" stroke-width="1" fill="none" fill-rule="evenodd" sketch:type="MSPage">
        <g id="eurucamp-2015-cover-name" sketch:type="MSLayerGroup">
            <g id="Page-1">
                <g id="mask-2" transform="translate(19.990005, 0.000000)" fill="#FFFFFF" sketch:type="MSShapeGroup">
                    <rect id="path-1" x="0" y="0" width="1891.05447" height="730"></rect>
                </g>
                <g id="Mask" fill="#913BBE" sketch:type="MSShapeGroup">
                    <rect id="path-1" x="0" y="0" width="2000" height="730"></rect>
                </g>
                <g id="Group-Clipped" transform="translate(19.990005, 0.000000)">
                    <mask id="mask-2" sketch:name="path-1" fill="white">
                        <use xlink:href="#path-1"></use>
                    </mask>
                    <g id="path-1"></g>
                    <g id="Group" mask="url(#mask-2)">
                        <g transform="translate(5.997001, -204.000000)">
                            <g transform="translate(1580.995473, 742.265511) rotate(-5.000000) translate(-1580.995473, -742.265511) translate(48.261840, 131.765511)">
                                <g id="cover" transform="translate(0.990626, 0.017376)">
                                    <g id="Group" transform="translate(0.999500, 1.000000)">
                                        <g id="flag-link" transform="translate(0.459379, 105.805747)" sketch:type="MSShapeGroup">
                                            <g id="flag" transform="translate(0.758862, 0.290402)">
                                                <path d="M8.17802892,4.43875847 L0.0647187684,5.24659074 C0.0647187684,5.24659074 0.56927528,3.83443912 0.56927528,2.62441832 C0.56927528,1.41439752 0.0647187684,0.15375764 0.0647187684,0.15375764 L8.17802892,0.96124439 L5.95880911,2.64964148 L8.17802892,4.43875847 L8.17802892,4.43875847 Z" id="flag-background" fill="#4FB79B"></path>
                                                <path d="M1.04637646,0.251713349 L5.75971477,4.67941509 L8.17802892,4.43858571 L5.95880911,2.64964148 L8.17802892,0.96124439 L1.04637646,0.251713349 L1.04637646,0.251713349 Z" id="flag-highlight" fill="#7DC5B1"></path>
                                                <path d="M2.85065811,2.31241124 C2.91282113,2.05050497 3.1248661,1.90089361 3.37386353,1.90089361 C3.62320631,1.90089361 3.82903497,2.05050497 3.89758698,2.31241124 L2.85065811,2.31241124 L2.85065811,2.31241124 Z M3.3678199,1.190326 C2.45212409,1.190326 1.79146933,1.83248009 1.79146933,2.72997553 C1.79146933,3.6340359 2.40826462,4.22626195 3.39890141,4.22626195 C3.96613897,4.22626195 4.52681487,4.01428373 4.80119553,3.55923022 L4.08459405,3.06686025 C3.90380328,3.33481317 3.69193098,3.4407159 3.4301556,3.4407159 C3.13747137,3.4407159 2.86947969,3.26622689 2.83839818,2.94817317 L4.88200747,2.94195376 C4.89461274,2.85453649 4.89461274,2.77368416 4.89461274,2.69283183 C4.89461274,1.80138304 4.33376416,1.190326 3.3678199,1.190326 L3.3678199,1.190326 L3.3678199,1.190326 Z" id="flag-e" fill="#FFFFFF"></path>
                                            </g>
                                        </g>
                                        <g id="flag-link" transform="translate(152.450984, 152.940193)" sketch:type="MSShapeGroup">
                                            <g id="flag" transform="translate(0.139762, 0.139832)">
                                                <path d="M13.1536693,7.18541695 L0.0199255571,8.49312759 C0.0199255571,8.49312759 0.836696494,6.20715094 0.836696494,4.24838161 C0.836696494,2.28961229 0.0199255571,0.248901299 0.0199255571,0.248901299 L13.1536693,1.55605262 L9.5612189,4.28921261 L13.1536693,7.18541695 L13.1536693,7.18541695 Z" id="flag-background" fill="#4FB79B"></path>
                                                <path d="M1.60902302,0.407471003 L9.23892702,7.57498943 L13.1536693,7.18513728 L9.5612189,4.28921261 L13.1536693,1.55605262 L1.60902302,0.407471003 L1.60902302,0.407471003 Z" id="flag-highlight" fill="#7DC5B1"></path>
                                                <path d="M4.52977576,3.74330774 C4.63040462,3.31933654 4.97366085,3.07714719 5.37673535,3.07714719 C5.78036891,3.07714719 6.11356225,3.31933654 6.22453352,3.74330774 L4.52977576,3.74330774 L4.52977576,3.74330774 Z M5.36695199,1.92688759 C3.88463293,1.92688759 2.81517174,2.96640009 2.81517174,4.41925655 C2.81517174,5.88274026 3.81363368,6.84142976 5.41726643,6.84142976 C6.3355048,6.84142976 7.24312123,6.49828156 7.68728586,5.76164558 L6.52725868,4.9646021 C6.23459641,5.39836155 5.8916197,5.56979582 5.46786038,5.56979582 C4.99406615,5.56979582 4.56024394,5.28733479 4.50992952,4.77247267 L7.81810338,4.76240475 C7.83850868,4.62089457 7.83850868,4.49001164 7.83850868,4.35912871 C7.83850868,2.9160605 6.93061271,1.92688759 5.36695199,1.92688759 L5.36695199,1.92688759 L5.36695199,1.92688759 Z" id="flag-e" fill="#FFFFFF"></path>
                                            </g>
                                        </g>
                                        <g id="flag-link-copy-3" transform="translate(1140.766564, 364.779515)" sketch:type="MSShapeGroup">
                                            <g id="flag" transform="translate(0.268630, 0.268764)">
                                                <path d="M25.2819899,13.8107196 L0.0382978865,16.3242028 C0.0382978865,16.3242028 1.60817121,11.9304449 1.60817121,8.16559536 C1.60817121,4.40074578 0.0382978865,0.47840036 0.0382978865,0.47840036 L25.2819899,2.99080854 L18.3771261,8.24407452 L25.2819899,13.8107196 L25.2819899,13.8107196 Z" id="flag-background" fill="#4FB79B"></path>
                                                <path d="M3.09262022,0.783179016 L17.7576655,14.5594968 L25.2819899,13.8101821 L18.3771261,8.24407452 L25.2819899,2.99080854 L3.09262022,0.783179016 L3.09262022,0.783179016 Z" id="flag-highlight" fill="#7DC5B1"></path>
                                                <path d="M8.70644854,7.1948189 C8.89986209,6.3799257 9.5596172,5.91442602 10.3343459,5.91442602 C11.1101491,5.91442602 11.7505629,6.3799257 11.9638551,7.1948189 L8.70644854,7.1948189 L8.70644854,7.1948189 Z M10.3155418,3.70357133 C7.46645277,3.70357133 5.41089653,5.70156474 5.41089653,8.49402527 C5.41089653,11.3069119 7.32998877,13.1495596 10.4122486,13.1495596 C12.1771472,13.1495596 13.9216301,12.4900121 14.7753359,11.074162 L12.5457075,9.54220583 C11.9831965,10.3759125 11.3239786,10.7054175 10.5094927,10.7054175 C9.59883717,10.7054175 8.76500987,10.1625137 8.66830309,9.17292376 L15.0267736,9.15357273 C15.0659936,8.88158331 15.0659936,8.63001998 15.0659936,8.37845664 C15.0659936,5.60480961 13.3209735,3.70357133 10.3155418,3.70357133 L10.3155418,3.70357133 L10.3155418,3.70357133 Z" id="flag-e" fill="#FFFFFF"></path>
                                            </g>
                                        </g>
                                        <g id="flag-link-copy-4" transform="translate(936.021110, 436.211425)" sketch:type="MSShapeGroup">
                                            <g id="flag" transform="translate(0.429637, 0.429852)">
                                                <path d="M40.435137,22.0883855 L0.06125231,26.1083634 C0.06125231,26.1083634 2.57205321,19.0811395 2.57205321,13.0597698 C2.57205321,7.03840004 0.06125231,0.765136929 0.06125231,0.765136929 L40.435137,4.78339536 L29.3917375,13.1852866 L40.435137,22.0883855 L40.435137,22.0883855 Z" id="flag-background" fill="#4FB79B"></path>
                                                <path d="M4.94622942,1.25258933 L28.4009937,23.2859538 L40.435137,22.0875258 L29.3917375,13.1852866 L40.435137,4.78339536 L4.94622942,1.25258933 L4.94622942,1.25258933 Z" id="flag-highlight" fill="#7DC5B1"></path>
                                                <path d="M13.9247916,11.5071436 C14.2341304,10.2038317 15.2893199,9.45932767 16.5283941,9.45932767 C17.7691869,9.45932767 18.7934425,10.2038317 19.1345745,11.5071436 L13.9247916,11.5071436 L13.9247916,11.5071436 Z M16.4983195,5.92336342 C11.9415854,5.92336342 8.65400008,9.11888473 8.65400008,13.5850492 C8.65400008,18.0838824 11.7233296,21.0309491 16.652989,21.0309491 C19.4757066,21.0309491 22.2657718,19.9760918 23.6311594,17.7116303 L20.0651691,15.2614728 C19.1655084,16.5948743 18.1111783,17.1218731 16.8085177,17.1218731 C15.352047,17.1218731 14.0184525,16.2535717 13.863783,14.6708558 L24.0333,14.6399065 C24.0960271,14.204896 24.0960271,13.8025544 24.0960271,13.4002127 C24.0960271,8.96413793 21.3051026,5.92336342 16.4983195,5.92336342 L16.4983195,5.92336342 L16.4983195,5.92336342 Z" id="flag-e" fill="#FFFFFF"></path>
                                            </g>
                                        </g>
                                        <g id="flag-link" transform="translate(325.920285, 292.180497)" sketch:type="MSShapeGroup">
                                            <g id="flag" transform="translate(0.126253, 0.215607)">
                                                <path d="M10.183682,5.15373229 L0.763518941,6.09168629 C0.763518941,6.09168629 1.34934698,4.45207209 1.34934698,3.04714697 C1.34934698,1.64222186 0.763518941,0.178524179 0.763518941,0.178524179 L10.183682,1.116077 L7.60700094,3.07643296 L10.183682,5.15373229 L10.183682,5.15373229 Z" id="flag-background" fill="#4FB79B"></path>
                                                <path d="M1.90329731,0.292258123 L7.37583744,5.43315272 L10.183682,5.1535317 L7.60700094,3.07643296 L10.183682,1.116077 L1.90329731,0.292258123 L1.90329731,0.292258123 Z" id="flag-highlight" fill="#7DC5B1"></path>
                                                <path d="M3.99820396,2.6848833 C4.0703799,2.38079043 4.31658005,2.20708039 4.60568479,2.20708039 C4.89519049,2.20708039 5.13417305,2.38079043 5.21376708,2.6848833 L3.99820396,2.6848833 L3.99820396,2.6848833 Z M4.59866768,1.38205797 C3.53547599,1.38205797 2.76840615,2.12764716 2.76840615,3.16970683 C2.76840615,4.21938889 3.48455185,4.90700786 4.63475565,4.90700786 C5.2933611,4.90700786 5.94434798,4.6608852 6.26292456,4.13253386 L5.43089636,3.56085531 C5.22098467,3.8719688 4.97498501,3.99492983 4.67104411,3.99492983 C4.33121572,3.99492983 4.02005723,3.79233498 3.98396927,3.42305069 L6.35675327,3.41582949 C6.37138896,3.31433148 6.37138896,3.22045584 6.37138896,3.1265802 C6.37138896,2.09154114 5.72020159,1.38205797 4.59866768,1.38205797 L4.59866768,1.38205797 L4.59866768,1.38205797 Z" id="flag-e" fill="#FFFFFF"></path>
                                            </g>
                                        </g>
                                        <g id="flag-link" transform="translate(551.383060, 301.318358)" sketch:type="MSShapeGroup">
                                            <g id="flag" transform="translate(0.192273, 0.192369)">
                                                <path d="M19.014701,9.88505609 L0.946467176,11.6840878 C0.946467176,11.6840878 2.07010782,8.53924493 2.07010782,5.8445447 C2.07010782,3.14984448 0.946467176,0.342416219 0.946467176,0.342416219 L19.014701,2.14067848 L14.072528,5.90071635 L19.014701,9.88505609 L19.014701,9.88505609 Z" id="flag-background" fill="#4FB79B"></path>
                                                <path d="M3.1326058,0.560562282 L13.6291475,10.4209952 L19.014701,9.88467135 L14.072528,5.90071635 L19.014701,2.14067848 L3.1326058,0.560562282 L3.1326058,0.560562282 Z" id="flag-highlight" fill="#7DC5B1"></path>
                                                <path d="M7.15071704,5.14970909 C7.28915322,4.56644731 7.76137461,4.23326479 8.31588856,4.23326479 C8.87117161,4.23326479 9.32954933,4.56644731 9.48221369,5.14970909 L7.15071704,5.14970909 L7.15071704,5.14970909 Z M8.30242949,2.65084017 C6.26318707,2.65084017 4.79191769,4.08090881 4.79191769,6.07961921 C4.79191769,8.09294963 6.16551262,9.41182918 8.37164758,9.41182918 C9.63487806,9.41182918 10.8834959,8.93975648 11.4945379,7.92635837 L9.89867596,6.82985699 C9.49605737,7.42658458 9.02422059,7.66242856 8.44125027,7.66242856 C7.78944638,7.66242856 7.19263248,7.27384387 7.12341439,6.56554245 L11.674505,6.55169191 C11.7025768,6.35701482 11.7025768,6.17695775 11.7025768,5.99690068 C11.7025768,4.01165609 10.4535745,2.65084017 8.30242949,2.65084017 L8.30242949,2.65084017 L8.30242949,2.65084017 Z" id="flag-e" fill="#FFFFFF"></path>
                                            </g>
                                        </g>
                                        <g id="flag-link" transform="translate(1083.285350, 421.218328)" sketch:type="MSShapeGroup">
                                            <g id="flag" transform="translate(0.030244, 0.030259)">
                                                <path d="M97.139421,51.9408661 L0.372347678,61.5758441 C0.372347678,61.5758441 6.39016976,44.7331772 6.39016976,30.3013154 C6.39016976,15.8694536 0.372347678,0.833860227 0.372347678,0.833860227 L97.139421,10.4647172 L70.6708894,30.6021509 L97.139421,51.9408661 L97.139421,51.9408661 Z" id="flag-background" fill="#4FB79B"></path>
                                                <path d="M12.0805333,2.00217343 L68.2963004,54.8111664 L97.139421,51.9388056 L70.6708894,30.6021509 L97.139421,10.4647172 L12.0805333,2.00217343 L12.0805333,2.00217343 Z" id="flag-highlight" fill="#7DC5B1"></path>
                                                <path d="M33.6001168,26.5800215 C34.3415322,23.4562776 36.8705828,21.6718697 39.8403635,21.6718697 C42.8142633,21.6718697 45.2691722,23.4562776 46.0867887,26.5800215 L33.6001168,26.5800215 L33.6001168,26.5800215 Z M39.7682815,13.1969629 C28.84682,13.1969629 20.9672213,20.855905 20.9672213,31.5602914 C20.9672213,42.3429774 28.3237102,49.40643 40.1389892,49.40643 C46.9044052,49.40643 53.5915607,46.8781755 56.8640861,41.4507735 L48.3172135,35.5782997 C46.1609302,38.7741618 43.6339392,40.0372587 40.5117564,40.0372587 C37.0209253,40.0372587 33.824601,37.9561365 33.4538933,34.1627245 L57.8279262,34.0885458 C57.9782688,33.0459242 57.9782688,32.0816022 57.9782688,31.1172802 C57.9782688,20.4850119 51.2890538,13.1969629 39.7682815,13.1969629 L39.7682815,13.1969629 L39.7682815,13.1969629 Z" id="flag-e" fill="#FFFFFF"></path>
                                            </g>
                                        </g>
                                        <g id="flag-link-copy-2" transform="translate(1259.121903, 471.544396)" sketch:type="MSShapeGroup">
                                            <g id="flag" transform="translate(0.012168, 0.012174)">
                                                <path d="M39.0837586,20.8982538 L0.149812987,24.7748586 C0.149812987,24.7748586 2.57106589,17.9982615 2.57106589,12.1916446 C2.57106589,6.38502768 0.149812987,0.335501195 0.149812987,0.335501195 L39.0837586,4.21044799 L28.4342232,12.3126849 L39.0837586,20.8982538 L39.0837586,20.8982538 Z" id="flag-background" fill="#4FB79B"></path>
                                                <path d="M4.86056685,0.805568553 L27.4788144,22.0531106 L39.0837586,20.8974247 L28.4342232,12.3126849 L39.0837586,4.21044799 L4.86056685,0.805568553 L4.86056685,0.805568553 Z" id="flag-highlight" fill="#7DC5B1"></path>
                                                <path d="M13.5189075,10.694393 C13.8172139,9.43756386 14.8347698,8.71961266 16.0296524,8.71961266 C17.2261921,8.71961266 18.2139174,9.43756386 18.5428831,10.694393 L13.5189075,10.694393 L13.5189075,10.694393 Z M16.0006504,5.30975896 C11.6064327,5.30975896 8.43609945,8.39131165 8.43609945,12.6981898 C8.43609945,17.0365716 11.395961,19.8785309 16.1498035,19.8785309 C18.8718487,19.8785309 21.5624058,18.8612952 22.8790968,16.677596 L19.4402879,14.3148236 C18.5727136,15.6006692 17.5559863,16.1088726 16.2997853,16.1088726 C14.8952598,16.1088726 13.6092281,15.2715392 13.460075,13.7452711 L23.266895,13.7154255 C23.3273849,13.2959298 23.3273849,12.9079377 23.3273849,12.5199456 C23.3273849,8.24208391 20.635999,5.30975896 16.0006504,5.30975896 L16.0006504,5.30975896 L16.0006504,5.30975896 Z" id="flag-e" fill="#FFFFFF"></path>
                                            </g>
                                        </g>
                                        <g id="flag-link" transform="translate(12.361099, 48.025240)" sketch:type="MSShapeGroup">
                                            <g id="flag" transform="translate(0.242227, 0.242348)">
                                                <path d="M22.7625756,12.4533111 L0,14.7197526 C0,14.7197526 1.41557583,10.7578422 1.41557583,7.36302685 C1.41557583,3.96821149 0,0.431380021 0,0.431380021 L22.7625756,2.69685218 L16.5363673,7.43379256 L22.7625756,12.4533111 L22.7625756,12.4533111 Z" id="flag-background" fill="#4FB79B"></path>
                                                <path d="M2.75412341,0.706203023 L15.9777914,13.1284935 L22.7625756,12.4528264 L16.5363673,7.43379256 L22.7625756,2.69685218 L2.75412341,0.706203023 L2.75412341,0.706203023 Z" id="flag-highlight" fill="#7DC5B1"></path>
                                                <path d="M7.8161877,6.4876647 C7.99059129,5.75286457 8.58550133,5.33311727 9.28408461,5.33311727 C9.9836368,5.33311727 10.5611064,5.75286457 10.7534349,6.4876647 L7.8161877,6.4876647 L7.8161877,6.4876647 Z M9.26712871,3.33955994 C6.69806689,3.33955994 4.84454426,5.14117739 4.84454426,7.6591765 C4.84454426,10.1955941 6.57501546,11.8571342 9.3543305,11.8571342 C10.9457633,11.8571342 12.5187868,11.2624114 13.2885849,9.98572044 L11.2780991,8.60433498 C10.7708753,9.35609949 10.1764497,9.65321853 9.44201675,9.65321853 C8.6208665,9.65321853 7.86899323,9.16367491 7.78179143,8.27134838 L13.5153095,8.2538993 C13.5506748,8.00864279 13.5506748,7.78180476 13.5506748,7.55496672 C13.5506748,5.053932 11.9771667,3.33955994 9.26712871,3.33955994 L9.26712871,3.33955994 L9.26712871,3.33955994 Z" id="flag-e" fill="#FFFFFF"></path>
                                            </g>
                                        </g>
                                        <g id="flag-link" transform="translate(206.251104, 107.381013)" sketch:type="MSShapeGroup">
                                            <g id="flag" transform="translate(0.086327, 0.086370)">
                                                <path d="M9.11182439,4.43821902 L0.99950025,5.24595312 C0.99950025,5.24595312 1.50399544,3.83397311 1.50399544,2.62409937 C1.50399544,1.41422563 0.99950025,0.153738953 0.99950025,0.153738953 L9.11182439,0.961127569 L6.89287427,2.64931947 L9.11182439,4.43821902 L9.11182439,4.43821902 Z" id="flag-background" fill="#4FB79B"></path>
                                                <path d="M1.98103864,0.251682759 L6.69380414,4.67884639 L9.11182439,4.43804628 L6.89287427,2.64931947 L9.11182439,0.961127569 L1.98103864,0.251682759 L1.98103864,0.251682759 Z" id="flag-highlight" fill="#7DC5B1"></path>
                                                <path d="M3.78510102,2.31213021 C3.84725648,2.05025577 4.05927568,1.90066259 4.30824285,1.90066259 C4.55755532,1.90066259 4.76335898,2.05025577 4.83190264,2.31213021 L3.78510102,2.31213021 L3.78510102,2.31213021 Z M4.30219996,1.19018134 C3.38661542,1.19018134 2.72604095,1.83225739 2.72604095,2.72964375 C2.72604095,3.63359425 3.34276129,4.22574833 4.33327769,4.22574833 C4.90044631,4.22574833 5.46105407,4.01379587 5.73540139,3.55879766 L5.018887,3.06648753 C4.83811819,3.33440788 4.62627164,3.44029775 4.36452808,3.44029775 C4.07187943,3.44029775 3.80392031,3.26582995 3.77284258,2.94781488 L5.8162035,2.94159622 C5.82880725,2.85418958 5.82880725,2.77334707 5.82880725,2.69250457 C5.82880725,1.80116412 5.26802683,1.19018134 4.30219996,1.19018134 L4.30219996,1.19018134 L4.30219996,1.19018134 Z" id="flag-e" fill="#FFFFFF"></path>
                                            </g>
                                        </g>
                                        <g id="flag-link" transform="translate(391.072454, 256.845326)" sketch:type="MSShapeGroup">
                                            <g id="flag" transform="translate(0.161003, 0.161084)">
                                                <path d="M15.1297783,8.27743919 L0,9.78389253 C0,9.78389253 0.940901802,7.15049869 0.940901802,4.89404035 C0.940901802,2.63758201 0,0.286728715 0,0.286728715 L15.1297783,1.79253772 L10.9913559,4.94107675 L15.1297783,8.27743919 L15.1297783,8.27743919 Z" id="flag-background" fill="#4FB79B"></path>
                                                <path d="M1.83060464,0.469397458 L10.620083,8.72621795 L15.1297783,8.27711702 L10.9913559,4.94107675 L15.1297783,1.79253772 L1.83060464,0.469397458 L1.83060464,0.469397458 Z" id="flag-highlight" fill="#7DC5B1"></path>
                                                <path d="M5.1952463,4.31220658 C5.3111685,3.82380126 5.70659197,3.54480455 6.17092476,3.54480455 C6.63590156,3.54480455 7.01973282,3.82380126 7.14756924,4.31220658 L5.1952463,4.31220658 L5.1952463,4.31220658 Z M6.15965454,2.21973129 C4.45205623,2.21973129 3.22006093,3.41722638 3.22006093,5.09088445 C3.22006093,6.77678486 4.37026669,7.88117366 6.21761564,7.88117366 C7.27540566,7.88117366 8.32095944,7.48587463 8.83262712,6.6372865 L7.49630184,5.71911028 C7.15916146,6.21879145 6.76405998,6.41627988 6.27589874,6.41627988 C5.73009842,6.41627988 5.23034496,6.09089111 5.17238387,5.49778149 L8.98332597,5.48618347 C9.00683241,5.32316692 9.00683241,5.17239272 9.00683241,5.02161852 C9.00683241,3.35923631 7.96095663,2.21973129 6.15965454,2.21973129 L6.15965454,2.21973129 L6.15965454,2.21973129 Z" id="flag-e" fill="#FFFFFF"></path>
                                            </g>
                                        </g>
                                        <g id="flag-link" transform="translate(574.777678, 353.279515)" sketch:type="MSShapeGroup">
                                            <g id="flag" transform="translate(0.695284, 0.695632)">
                                                <path d="M65.33729,34.7457614 L0,41.2513147 C0,41.2513147 4.06324355,29.8791178 4.06324355,20.1347006 C4.06324355,10.3902833 0,0.2382255 0,0.2382255 L65.33729,6.74099625 L47.4656931,20.3378252 L65.33729,34.7457614 L65.33729,34.7457614 Z" id="flag-background" fill="#4FB79B"></path>
                                                <path d="M7.90538657,1.02707253 L45.8623666,36.683793 L65.33729,34.7443702 L47.4656931,20.3378252 L65.33729,6.74099625 L7.90538657,1.02707253 L7.90538657,1.02707253 Z" id="flag-highlight" fill="#7DC5B1"></path>
                                                <path d="M22.4354454,17.6220767 C22.9360503,15.5129196 24.6436695,14.3080844 26.6488704,14.3080844 C28.6568525,14.3080844 30.3144111,15.5129196 30.8664672,17.6220767 L22.4354454,17.6220767 L22.4354454,17.6220767 Z M26.6002005,8.58581311 C19.2260114,8.58581311 13.9056932,13.7571436 13.9056932,20.9847632 C13.9056932,28.2652509 18.8728068,33.034506 26.8505029,33.034506 C31.4185231,33.034506 35.9337017,31.3274243 38.1433163,27.6628333 L32.3724537,23.6977292 C30.9165276,25.8555806 29.2102991,26.7084258 27.102196,26.7084258 C24.745181,26.7084258 22.5870174,25.3032486 22.3367149,22.7419304 L38.7941028,22.6918449 C38.8956144,21.987865 38.8956144,21.3367532 38.8956144,20.6856414 C38.8956144,13.506716 34.3790453,8.58581311 26.6002005,8.58581311 L26.6002005,8.58581311 L26.6002005,8.58581311 Z" id="flag-e" fill="#FFFFFF"></path>
                                            </g>
                                        </g>
                                        <g id="flag-link" transform="translate(719.425246, 385.653574)" sketch:type="MSShapeGroup">
                                            <g id="flag" transform="translate(0.295999, 0.296147)">
                                                <path d="M27.8155891,15.2177939 L0,17.9873577 C0,17.9873577 1.72981635,13.1459516 1.72981635,8.99752877 C1.72981635,4.84910592 0,0.52714111 0,0.52714111 L27.8155891,3.29552038 L20.2072387,9.0840036 L27.8155891,15.2177939 L27.8155891,15.2177939 Z" id="flag-background" fill="#4FB79B"></path>
                                                <path d="M3.36550513,0.862971458 L19.5246657,16.0428585 L27.8155891,15.2172016 L20.2072387,9.0840036 L27.8155891,3.29552038 L3.36550513,0.862971458 L3.36550513,0.862971458 Z" id="flag-highlight" fill="#7DC5B1"></path>
                                                <path d="M9.55128579,7.92784692 C9.76440484,7.02993015 10.4913776,6.51700408 11.3450379,6.51700408 C12.1998821,6.51700408 12.9055429,7.02993015 13.1405659,7.92784692 L9.55128579,7.92784692 L9.55128579,7.92784692 Z M11.3243179,4.0809014 C8.18495582,4.0809014 5.91997383,6.2824559 5.91997383,9.35942002 C5.91997383,12.4588913 8.03458849,14.489273 11.4308775,14.489273 C13.3755889,14.489273 15.2978044,13.762529 16.2384883,12.2024283 L13.7816991,10.5143921 C13.1618779,11.4330392 12.4354971,11.796115 11.538029,11.796115 C10.5345934,11.796115 9.6158135,11.1978987 9.50925397,10.1074866 L16.515543,10.086164 C16.5587588,9.78646355 16.5587588,9.50927025 16.5587588,9.23207695 C16.5587588,6.1758431 14.6359513,4.0809014 11.3243179,4.0809014 L11.3243179,4.0809014 L11.3243179,4.0809014 Z" id="flag-e" fill="#FFFFFF"></path>
                                            </g>
                                        </g>
                                        <g id="flag-link" transform="translate(59.532206, 86.678841)" sketch:type="MSShapeGroup">
                                            <g id="flag" transform="translate(0.304546, 0.304698)">
                                                <path d="M29.6183178,15.6572369 L0.99950025,18.5067772 C0.99950025,18.5067772 2.77926838,13.5255662 2.77926838,9.25734968 C2.77926838,4.98913316 0.99950025,0.542363322 0.99950025,0.542363322 L29.6183178,3.39068486 L21.7902618,9.34632164 L29.6183178,15.6572369 L29.6183178,15.6572369 Z" id="flag-background" fill="#4FB79B"></path>
                                                <path d="M4.46219079,0.887891415 L21.0879781,16.5061269 L29.6183178,15.6566275 L21.7902618,9.34632164 L29.6183178,3.39068486 L4.46219079,0.887891415 L4.46219079,0.887891415 Z" id="flag-highlight" fill="#7DC5B1"></path>
                                                <path d="M10.8265978,8.15677872 C11.0458711,7.23293288 11.7938366,6.70519509 12.6721478,6.70519509 C13.5516774,6.70519509 14.2777155,7.23293288 14.5195252,8.15677872 L10.8265978,8.15677872 L10.8265978,8.15677872 Z M12.6508296,4.19874527 C9.42081238,4.19874527 7.0904247,6.46387388 7.0904247,9.62969125 C7.0904247,12.8186657 9.26610291,14.9076786 12.7604663,14.9076786 C14.7613349,14.9076786 16.7390581,14.1599485 17.706906,12.5547968 L15.1791723,10.8180154 C14.5414526,11.7631901 13.7940962,12.1367505 12.8707119,12.1367505 C11.8383002,12.1367505 10.8929888,11.5212595 10.7833522,10.3993596 L17.9919612,10.3774214 C18.036425,10.0690665 18.036425,9.78386868 18.036425,9.49867089 C18.036425,6.35418242 16.0580928,4.19874527 12.6508296,4.19874527 L12.6508296,4.19874527 L12.6508296,4.19874527 Z" id="flag-e" fill="#FFFFFF"></path>
                                            </g>
                                        </g>
                                        <g id="flag-link" transform="translate(247.511557, 71.055566)" sketch:type="MSShapeGroup">
                                            <g id="flag" transform="translate(0.292608, 0.292754)">
                                                <path d="M28.49642,15.0434512 L0.99950025,17.7812856 C0.99950025,17.7812856 2.70949896,12.995345 2.70949896,8.89444858 C2.70949896,4.79355214 0.99950025,0.521101918 0.99950025,0.521101918 L28.49642,3.25776525 L20.9752347,8.97993271 L28.49642,15.0434512 L28.49642,15.0434512 Z" id="flag-background" fill="#4FB79B"></path>
                                                <path d="M4.32644847,0.853084825 L20.3004817,15.8590635 L28.49642,15.0428657 L20.9752347,8.97993271 L28.49642,3.25776525 L4.32644847,0.853084825 L4.32644847,0.853084825 Z" id="flag-highlight" fill="#7DC5B1"></path>
                                                <path d="M10.4413617,7.83702154 C10.6520392,6.94939176 11.3706835,6.44234203 12.2145637,6.44234203 C13.0596144,6.44234203 13.7571908,6.94939176 13.9895212,7.83702154 L10.4413617,7.83702154 L10.4413617,7.83702154 Z M12.1940812,4.03414856 C9.09068513,4.03414856 6.8516519,6.21048095 6.8516519,9.25219383 C6.8516519,12.316156 8.94204047,14.3232766 12.2994199,14.3232766 C14.2218517,14.3232766 16.1220454,13.6048586 17.0519522,12.0626311 L14.6233093,10.393934 C14.010589,11.3020565 13.29253,11.6609728 12.4053438,11.6609728 C11.4134041,11.6609728 10.5051502,11.06961 10.3998115,9.99169015 L17.3258329,9.97061187 C17.3685536,9.67434493 17.3685536,9.40032729 17.3685536,9.12630966 C17.3685536,6.10508955 15.4677748,4.03414856 12.1940812,4.03414856 L12.1940812,4.03414856 L12.1940812,4.03414856 Z" id="flag-e" fill="#FFFFFF"></path>
                                            </g>
                                        </g>
                                        <g id="flag-link" transform="translate(425.592746, 245.745362)" sketch:type="MSShapeGroup">
                                            <g id="flag" transform="translate(0.507703, 0.507957)">
                                                <path d="M47.7099226,26.1019016 L0,30.8523197 C0,30.8523197 2.96701983,22.5482313 2.96701983,15.4327633 C2.96701983,8.3172953 0,0.904164263 0,0.904164263 L47.7099226,5.65255052 L34.6599093,15.5810869 L47.7099226,26.1019016 L47.7099226,26.1019016 Z" id="flag-background" fill="#4FB79B"></path>
                                                <path d="M5.77258993,1.48018801 L33.4891448,27.517071 L47.7099226,26.1008857 L34.6599093,15.5810869 L47.7099226,5.65255052 L5.77258993,1.48018801 L5.77258993,1.48018801 Z" id="flag-highlight" fill="#7DC5B1"></path>
                                                <path d="M16.3825797,13.598021 C16.7481263,12.057894 17.9950464,11.1781117 19.4592636,11.1781117 C20.9255115,11.1781117 22.135877,12.057894 22.5389936,13.598021 L16.3825797,13.598021 L16.3825797,13.598021 Z M19.4237243,6.99965368 C14.0390199,6.99965368 10.154072,10.7758094 10.154072,16.0534873 C10.154072,21.36977 13.7811065,24.8523262 19.6064976,24.8523262 C22.9421102,24.8523262 26.2391374,23.6057987 27.8526195,20.9298788 L23.6386796,18.0345213 C22.5755482,19.6102054 21.3296436,20.2329612 19.7902863,20.2329612 C18.0691711,20.2329612 16.4932592,19.2068871 16.3104859,17.3365878 L28.32783,17.3000149 C28.4019547,16.7859619 28.4019547,16.3105138 28.4019547,15.8350656 C28.4019547,10.5929447 25.1039121,6.99965368 19.4237243,6.99965368 L19.4237243,6.99965368 L19.4237243,6.99965368 Z" id="flag-e" fill="#FFFFFF"></path>
                                            </g>
                                        </g>
                                        <g id="flag-link" transform="translate(618.521122, 428.496805)" sketch:type="MSShapeGroup">
                                            <g id="flag" transform="translate(0.392661, 0.392857)">
                                                <path d="M36.8990707,20.1873291 L0,23.861324 C0,23.861324 2.29470661,17.4389044 2.29470661,11.9357691 C2.29470661,6.43263393 0,0.699284744 0,0.699284744 L36.8990707,4.37170822 L26.8061311,12.0504833 L36.8990707,20.1873291 L36.8990707,20.1873291 Z" id="flag-background" fill="#4FB79B"></path>
                                                <path d="M4.46454724,1.14478413 L25.9006566,21.2818276 L36.8990707,20.1865434 L26.8061311,12.0504833 L36.8990707,4.37170822 L4.46454724,1.14478413 L4.46454724,1.14478413 Z" id="flag-highlight" fill="#7DC5B1"></path>
                                                <path d="M12.6703615,10.5167711 C12.9530769,9.32562991 13.9174505,8.64520229 15.0498828,8.64520229 C16.1838856,8.64520229 17.1199877,9.32562991 17.4317599,10.5167711 L12.6703615,10.5167711 L12.6703615,10.5167711 Z M15.0223965,5.41356391 C10.8578417,5.41356391 7.85320535,8.33405986 7.85320535,12.4158399 C7.85320535,16.5274771 10.6583703,19.2209019 15.1637542,19.2209019 C17.7435321,19.2209019 20.293468,18.2568318 21.5413422,16.1872632 L18.2822621,13.9479806 C17.4600315,15.1666218 16.4964432,15.648264 15.3058973,15.648264 C13.9747789,15.648264 12.7559614,14.8546937 12.6146038,13.4081957 L21.9088723,13.37991 C21.9662007,12.9823391 21.9662007,12.6146253 21.9662007,12.2469116 C21.9662007,8.19263148 19.4154796,5.41356391 15.0223965,5.41356391 L15.0223965,5.41356391 L15.0223965,5.41356391 Z" id="flag-e" fill="#FFFFFF"></path>
                                            </g>
                                        </g>
                                        <g id="flag-link" transform="translate(125.545360, 207.078921)" sketch:type="MSShapeGroup">
                                            <g id="flag" transform="translate(0.768197, 0.768581)">
                                                <path d="M73.1884586,38.4942809 L0.99950025,45.6820463 C0.99950025,45.6820463 5.4888404,33.1172912 5.4888404,22.3510147 C5.4888404,11.5847382 0.99950025,0.368073404 0.99950025,0.368073404 L73.1884586,7.55276452 L53.4427366,22.5754402 L73.1884586,38.4942809 L73.1884586,38.4942809 Z" id="flag-background" fill="#4FB79B"></path>
                                                <path d="M9.73389407,1.23964376 L51.6712756,40.6355463 L73.1884586,38.4927437 L53.4427366,22.5754402 L73.1884586,7.55276452 L9.73389407,1.23964376 L9.73389407,1.23964376 Z" id="flag-highlight" fill="#7DC5B1"></path>
                                                <path d="M25.7876638,19.5749017 C26.3407653,17.2445654 28.2274558,15.9133839 30.4429344,15.9133839 C32.6614858,15.9133839 34.4928662,17.2445654 35.1028142,19.5749017 L25.7876638,19.5749017 L25.7876638,19.5749017 Z M30.3891606,9.59104018 C22.241669,9.59104018 16.3634296,15.3046681 16.3634296,23.2902202 C16.3634296,31.3341843 21.8514251,36.6035727 30.6657113,36.6035727 C35.7127621,36.6035727 40.70143,34.717476 43.1427584,30.6685936 L36.7667277,26.2876844 C35.1581243,28.6718213 33.2729702,29.614101 30.9437985,29.614101 C28.3396125,29.614101 25.9551306,28.0615683 25.6785799,25.2316547 L43.8617903,25.1763169 C43.9739469,24.3985133 43.9739469,23.6791219 43.9739469,22.9597305 C43.9739469,15.0279791 38.9837427,9.59104018 30.3891606,9.59104018 L30.3891606,9.59104018 L30.3891606,9.59104018 Z" id="flag-e" fill="#FFFFFF"></path>
                                            </g>
                                        </g>
                                        <g id="flag-link" transform="translate(319.840080, 0.025240)" sketch:type="MSShapeGroup">
                                            <g id="flag" transform="translate(0.780363, 0.780753)">
                                                <path d="M74.1481612,39.3033913 L0.815950336,46.604989 C0.815950336,46.604989 5.37638792,33.8412466 5.37638792,22.9044651 C5.37638792,11.9676836 0.815950336,0.573381196 0.815950336,0.573381196 L74.1481612,7.87185587 L54.0897273,23.1324449 L74.1481612,39.3033913 L74.1481612,39.3033913 Z" id="flag-background" fill="#4FB79B"></path>
                                                <path d="M9.68867026,1.45875457 L52.2902117,41.4785679 L74.1481612,39.3018298 L54.0897273,23.1324449 L74.1481612,7.87185587 L9.68867026,1.45875457 L9.68867026,1.45875457 Z" id="flag-highlight" fill="#7DC5B1"></path>
                                                <path d="M25.9966827,20.084387 C26.5585435,17.7171453 28.4751135,16.3648819 30.7256786,16.3648819 C32.979365,16.3648819 34.8397488,17.7171453 35.4593565,20.084387 L25.9966827,20.084387 L25.9966827,20.084387 Z M30.6710532,9.94241158 C22.39453,9.94241158 16.4231974,15.7465259 16.4231974,23.8585447 C16.4231974,32.0299007 21.9981059,37.3827401 30.9519836,37.3827401 C36.0789642,37.3827401 41.1466374,35.4667734 43.6266289,31.353769 L37.1496214,26.9034796 C35.5155426,29.3253739 33.6005334,30.2825765 31.2344748,30.2825765 C28.5890464,30.2825765 26.1668017,28.7054564 25.8858713,25.8307256 L44.3570481,25.7745114 C44.470981,24.9843899 44.470981,24.2536055 44.470981,23.5228211 C44.470981,15.465455 39.4017471,9.94241158 30.6710532,9.94241158 L30.6710532,9.94241158 L30.6710532,9.94241158 Z" id="flag-e" fill="#FFFFFF"></path>
                                            </g>
                                        </g>
                                        <g id="flag-link" transform="translate(523.617701, 229.919673)" sketch:type="MSShapeGroup">
                                            <g id="flag" transform="translate(0.720900, 0.721260)">
                                                <path d="M67.7443929,36.0626775 L0,42.8079031 C0,42.8079031 4.21293824,31.016741 4.21293824,20.9133279 C4.21293824,10.8099148 0,0.283843187 0,0.283843187 L67.7443929,7.0261837 L49.2143853,21.1239359 L67.7443929,36.0626775 L67.7443929,36.0626775 Z" id="flag-background" fill="#F741CD"></path>
                                                <path d="M8.19663035,1.10175227 L47.5519905,38.0721085 L67.7443929,36.061235 L49.2143853,21.1239359 L67.7443929,7.0261837 L8.19663035,1.10175227 L8.19663035,1.10175227 Z" id="flag-highlight" fill="#FF67DC"></path>
                                            </g>
                                        </g>
                                        <g id="flag-link" transform="translate(236.702892, 138.458748)" sketch:type="MSShapeGroup">
                                            <g id="flag" transform="translate(0.317367, 0.317526)">
                                                <path d="M123.748698,65.7024012 L2.84217094e-14,78.0239062 C2.84217094e-14,78.0239062 7.69577521,56.4849879 7.69577521,38.0290809 C7.69577521,19.5731739 2.84217094e-14,0.345196631 2.84217094e-14,0.345196631 L123.748698,12.6614315 L89.8999284,38.4137986 L123.748698,65.7024012 L123.748698,65.7024012 Z" id="flag-background" fill="#4FB79B"></path>
                                                <path d="M14.9727865,1.83927134 L86.8632314,69.3730291 L123.748698,65.6997661 L89.8999284,38.4137986 L123.748698,12.6614315 L14.9727865,1.83927134 L14.9727865,1.83927134 Z" id="flag-highlight" fill="#7DC5B1"></path>
                                                <path d="M42.492689,33.2701763 C43.4408338,29.2754369 46.675061,26.9934815 50.4729076,26.9934815 C54.2760217,26.9934815 57.4154345,29.2754369 58.4610275,33.2701763 L42.492689,33.2701763 L42.492689,33.2701763 Z M50.3807268,16.155511 C36.4140274,16.155511 26.3373552,25.9500007 26.3373552,39.6390979 C26.3373552,53.4283271 35.7450586,62.4612867 50.8547993,62.4612867 C59.5066205,62.4612867 68.0583597,59.2280774 72.2433655,52.2873494 L61.313363,44.7774501 C58.555842,48.8644164 55.3242485,50.4797035 51.3315054,50.4797035 C46.8673236,50.4797035 42.7797661,47.8183006 42.3056938,42.9671691 L73.4759537,42.8723072 C73.6682164,41.5389707 73.6682164,40.3057662 73.6682164,39.0725617 C73.6682164,25.4756913 65.1138434,16.155511 50.3807268,16.155511 L50.3807268,16.155511 L50.3807268,16.155511 Z" id="flag-e" fill="#FFFFFF"></path>
                                            </g>
                                        </g>
                                        <g id="flag-link" transform="translate(626.109942, 255.906998)" sketch:type="MSShapeGroup">
                                            <g id="flag" transform="translate(0.221545, 0.221656)">
                                                <path d="M114.744114,60.776031 L0,72.2009608 C0,72.2009608 7.13579156,52.2293235 7.13579156,35.1163619 C7.13579156,18.0034004 0,0.174548227 0,0.174548227 L114.744114,11.5945914 L83.3583536,35.4730856 L114.744114,60.776031 L114.744114,60.776031 Z" id="flag-background" fill="#F741CD"></path>
                                                <path d="M13.8832906,1.55990648 L80.542622,64.1795655 L114.744114,60.7735877 L83.3583536,35.4730856 L114.744114,11.5945914 L13.8832906,1.55990648 L13.8832906,1.55990648 Z" id="flag-highlight" fill="#FF67DC"></path>
                                            </g>
                                        </g>
                                        <g id="flag-link" transform="translate(397.801099, 101.283280)" sketch:type="MSShapeGroup">
                                            <g id="flag">
                                                <path d="M187.850075,99.772 L0,118.476 C0,118.476 11.6821589,85.78 11.6821589,57.764 C11.6821589,29.748 0,0.56 0,0.56 L187.850075,19.256 L136.467766,58.348 L187.850075,99.772 L187.850075,99.772 Z" id="flag-background" fill="#4FB79B"></path>
                                                <path d="M22.7286357,2.828 L131.858071,105.344 L187.850075,99.768 L136.467766,58.348 L187.850075,19.256 L22.7286357,2.828 L22.7286357,2.828 Z" id="flag-highlight" fill="#7DC5B1"></path>
                                                <path d="M64.5037481,50.54 C65.9430285,44.476 70.8525737,41.012 76.6176912,41.012 C82.3908046,41.012 87.1564218,44.476 88.7436282,50.54 L64.5037481,50.54 L64.5037481,50.54 Z M76.4777611,24.56 C55.2763618,24.56 39.98001,39.428 39.98001,60.208 C39.98001,81.14 54.2608696,94.852 77.1974013,94.852 C90.3308346,94.852 103.312344,89.944 109.665167,79.408 L93.0734633,68.008 C88.8875562,74.212 83.982009,76.664 77.9210395,76.664 C71.1444278,76.664 64.9395302,72.624 64.2198901,65.26 L111.536232,65.116 C111.828086,63.092 111.828086,61.22 111.828086,59.348 C111.828086,38.708 98.8425787,24.56 76.4777611,24.56 L76.4777611,24.56 L76.4777611,24.56 Z" id="flag-e" fill="#FFFFFF"></path>
                                            </g>
                                        </g>
                                        <g id="flag-link" transform="translate(611.808448, 79.228703)" sketch:type="MSShapeGroup">
                                            <g id="flag" transform="translate(0.424489, 0.424701)">
                                                <path d="M133.815095,71.209686 L0,84.5334899 C0,84.5334899 8.32179179,61.2424778 8.32179179,41.285266 C8.32179179,21.3280543 0,0.5359678 0,0.5359678 L133.815095,13.8540728 L97.2128821,41.7012787 L133.815095,71.209686 L133.815095,71.209686 Z" id="flag-background" fill="#4FB79B"></path>
                                                <path d="M16.1907551,2.15157874 L93.9291633,75.178903 L133.815095,71.2068366 L97.2128821,41.7012787 L133.815095,13.8540728 L16.1907551,2.15157874 L16.1907551,2.15157874 Z" id="flag-highlight" fill="#7DC5B1"></path>
                                                <path d="M45.9492775,36.139246 C46.9745496,31.8195525 50.4718666,29.3519704 54.578651,29.3519704 C58.6911312,29.3519704 62.085921,31.8195525 63.2165683,36.139246 L45.9492775,36.139246 L45.9492775,36.139246 Z M54.4789717,17.6323799 C39.3761442,17.6323799 28.4797803,28.2236072 28.4797803,43.0262507 C28.4797803,57.9371714 38.6527578,67.7049215 54.9916077,67.7049215 C64.3472156,67.7049215 73.5946002,64.2087053 78.1200373,56.7033804 L66.3009285,48.5825846 C63.3190955,53.0020071 59.8246265,54.7486906 55.5070918,54.7486906 C50.679769,54.7486906 46.2597071,51.8707945 45.7470711,46.6250454 L79.4528911,46.5224669 C79.6607934,45.0806695 79.6607934,43.7471494 79.6607934,42.4136292 C79.6607934,27.7107148 70.4105608,17.6323799 54.4789717,17.6323799 L54.4789717,17.6323799 L54.4789717,17.6323799 Z" id="flag-e" fill="#FFFFFF"></path>
                                            </g>
                                        </g>
                                        <g id="flag-link-copy" transform="translate(770.614693, 203.000000)" sketch:type="MSShapeGroup">
                                            <g id="flag" transform="translate(0.999500, 0.000000)">
                                                <path d="M331.735536,175.229815 L0.99950025,208.079697 C0.99950025,208.079697 21.5675566,150.65563 21.5675566,101.451059 C21.5675566,52.2464874 0.99950025,0.983529412 0.99950025,0.983529412 L331.735536,33.8193613 L241.269876,102.476739 L331.735536,175.229815 L331.735536,175.229815 Z" id="flag-background" fill="#F741CD"></path>
                                                <path d="M41.0164067,4.96682353 L233.15387,185.015933 L331.735536,175.22279 L241.269876,102.476739 L331.735536,33.8193613 L41.0164067,4.96682353 L41.0164067,4.96682353 Z" id="flag-highlight" fill="#FF67DC"></path>
                                                <path d="M114.567269,88.7635294 C117.101321,78.1133109 125.745255,72.029479 135.895541,72.029479 C146.059906,72.029479 154.450435,78.1133109 157.244931,88.7635294 L114.567269,88.7635294 L114.567269,88.7635294 Z M135.649175,43.1347899 C98.3211798,43.1347899 71.389837,69.2474958 71.389837,105.743462 C71.389837,142.506387 96.5332653,166.588807 136.916202,166.588807 C160.039427,166.588807 182.895169,157.968874 194.080194,139.464471 L164.868204,119.442622 C157.498336,130.338723 148.861441,134.645176 138.190267,134.645176 C126.259104,134.645176 115.334524,127.549714 114.067498,114.616303 L197.374462,114.363395 C197.888311,110.808639 197.888311,107.52084 197.888311,104.233042 C197.888311,67.982958 175.02553,43.1347899 135.649175,43.1347899 L135.649175,43.1347899 L135.649175,43.1347899 Z" id="flag-e" fill="#FFFFFF"></path>
                                            </g>
                                        </g>
                                        <g id="flag-link" transform="translate(1265.367316, 555.681813)" sketch:type="MSShapeGroup">
                                            <g id="flag" transform="translate(0.999500, 0.000000)">
                                                <path d="M188.849575,99.772 L0.99950025,118.476 C0.99950025,118.476 12.6816592,85.78 12.6816592,57.764 C12.6816592,29.748 0.99950025,0.56 0.99950025,0.56 L188.849575,19.256 L137.467266,58.348 L188.849575,99.772 L188.849575,99.772 Z" id="flag-background" fill="#4FB79B"></path>
                                                <path d="M23.7281359,2.828 L132.857571,105.344 L188.849575,99.768 L137.467266,58.348 L188.849575,19.256 L23.7281359,2.828 L23.7281359,2.828 Z" id="flag-highlight" fill="#7DC5B1"></path>
                                                <path d="M65.5032484,50.54 C66.9425287,44.476 71.852074,41.012 77.6171914,41.012 C83.3903048,41.012 88.155922,44.476 89.7431284,50.54 L65.5032484,50.54 L65.5032484,50.54 Z M77.4772614,24.56 C56.2758621,24.56 40.9795102,39.428 40.9795102,60.208 C40.9795102,81.14 55.2603698,94.852 78.1969015,94.852 C91.3303348,94.852 104.311844,89.944 110.664668,79.408 L94.0729635,68.008 C89.8870565,74.212 84.9815092,76.664 78.9205397,76.664 C72.143928,76.664 65.9390305,72.624 65.2193903,65.26 L112.535732,65.116 C112.827586,63.092 112.827586,61.22 112.827586,59.348 C112.827586,38.708 99.842079,24.56 77.4772614,24.56 L77.4772614,24.56 L77.4772614,24.56 Z" id="flag-e" fill="#FFFFFF"></path>
                                            </g>
                                        </g>
                                        <g id="flag-link" transform="translate(1188.798864, 310.441030)" sketch:type="MSShapeGroup">
                                            <g id="flag" transform="translate(0.229973, 0.230088)">
                                                <path d="M115.536088,61.2093164 L0,72.713102 C0,72.713102 7.18504339,52.6036188 7.18504339,35.3725422 C7.18504339,18.1414655 0,0.18955714 0,0.18955714 L115.536088,11.6884224 L83.9337,35.7317279 L115.536088,61.2093164 L115.536088,61.2093164 Z" id="flag-background" fill="#F741CD"></path>
                                                <path d="M13.9791142,1.58447725 L81.0985339,64.6363424 L115.536088,61.2068562 L83.9337,35.7317279 L115.536088,11.6884224 L13.9791142,1.58447725 L13.9791142,1.58447725 Z" id="flag-highlight" fill="#FF67DC"></path>
                                            </g>
                                        </g>
                                        <g id="flag-link" transform="translate(1371.341848, 427.004451)" sketch:type="MSShapeGroup">
                                            <g id="flag" transform="translate(0.331292, 0.331458)">
                                                <path d="M125.057236,66.4182974 L0,78.870092 C0,78.870092 7.77715159,57.1034177 7.77715159,38.452355 C7.77715159,19.8012922 0,0.369995123 0,0.369995123 L125.057236,12.8164639 L90.8505449,38.8411407 L125.057236,66.4182974 L125.057236,66.4182974 Z" id="flag-background" fill="#4FB79B"></path>
                                                <path d="M15.1311111,1.87986842 L87.7817374,70.1277392 L125.057236,66.4156345 L90.8505449,38.8411407 L125.057236,12.8164639 L15.1311111,1.87986842 L15.1311111,1.87986842 Z" id="flag-highlight" fill="#7DC5B1"></path>
                                                <path d="M42.9420136,33.6431289 C43.9001842,29.6061484 47.1686107,27.3000633 51.0066164,27.3000633 C54.8499452,27.3000633 58.0225546,29.6061484 59.0792039,33.6431289 L42.9420136,33.6431289 L42.9420136,33.6431289 Z M50.9134609,16.3474903 C36.7990753,16.3474903 26.6158508,26.2455486 26.6158508,40.0793966 C26.6158508,54.0144353 36.1230327,63.1429109 51.3925462,63.1429109 C60.1358532,63.1429109 68.77802,59.8755131 73.0072787,52.8613927 L61.9617005,45.2720825 C59.175021,49.402265 55.9092561,51.0346324 51.8742932,51.0346324 C47.3629064,51.0346324 43.2321263,48.3450874 42.7530411,43.4426593 L74.2529004,43.3467943 C74.4471962,41.9993589 74.4471962,40.7531143 74.4471962,39.5068696 C74.4471962,25.7662238 65.8023678,16.3474903 50.9134609,16.3474903 L50.9134609,16.3474903 L50.9134609,16.3474903 Z" id="flag-e" fill="#FFFFFF"></path>
                                            </g>
                                        </g>
                                        <g id="flag-link" transform="translate(963.007617, 94.592355)" sketch:type="MSShapeGroup">
                                            <g id="flag" transform="translate(0.926847, 0.927310)">
                                                <path d="M87.0976237,46.6507501 L0,55.322953 C0,55.322953 5.41649122,40.1632896 5.41649122,27.1735315 C5.41649122,14.1837734 0,0.65061175 0,0.65061175 L87.0976237,9.3191053 L63.27396,27.444306 L87.0976237,46.6507501 L87.0976237,46.6507501 Z" id="flag-background" fill="#4FB79B"></path>
                                                <path d="M10.5382453,1.70218125 L61.1366519,49.2342357 L87.0976237,46.6488955 L63.27396,27.444306 L87.0976237,9.3191053 L10.5382453,1.70218125 L10.5382453,1.70218125 Z" id="flag-highlight" fill="#7DC5B1"></path>
                                                <path d="M29.9074844,23.8240879 C30.5748139,21.0124841 32.851149,19.4063832 35.5241744,19.4063832 C38.2009072,19.4063832 40.4105094,21.0124841 41.1464256,23.8240879 L29.9074844,23.8240879 L29.9074844,23.8240879 Z M35.4592952,11.7783314 C25.6291607,11.7783314 18.5369309,18.6719537 18.5369309,28.3067043 C18.5369309,38.0119304 25.1583226,44.3695676 35.7929599,44.3695676 C41.8823417,44.3695676 47.9012833,42.0939489 50.8468016,37.20888 L43.1539752,31.9232132 C41.2131585,34.7997287 38.9386772,35.9366107 36.1284784,35.9366107 C32.9864686,35.9366107 30.1095369,34.0634446 29.7758722,30.6490893 L51.7143299,30.582323 C51.8496495,29.6438853 51.8496495,28.7759231 51.8496495,27.907961 C51.8496495,18.3381221 45.8288544,11.7783314 35.4592952,11.7783314 L35.4592952,11.7783314 L35.4592952,11.7783314 Z" id="flag-e" fill="#FFFFFF"></path>
                                            </g>
                                        </g>
                                        <g id="flag-link" transform="translate(1155.759067, 236.891298)" sketch:type="MSShapeGroup">
                                            <g id="flag" transform="translate(0.815489, 0.815897)">
                                                <path d="M76.6331499,40.9256798 L0,48.5559479 C0,48.5559479 4.76571881,35.2176648 4.76571881,23.7885806 C4.76571881,12.3594964 0,0.45229654 0,0.45229654 L76.6331499,8.07930106 L55.6718159,24.0268225 L76.6331499,40.9256798 L76.6331499,40.9256798 Z" id="flag-background" fill="#4FB79B"></path>
                                                <path d="M9.27211206,1.37752366 L53.7912978,43.1987686 L76.6331499,40.924048 L55.6718159,24.0268225 L76.6331499,8.07930106 L9.27211206,1.37752366 L9.27211206,1.37752366 Z" id="flag-highlight" fill="#7DC5B1"></path>
                                                <path d="M26.3142051,20.8415609 C26.9013573,18.3677614 28.9041988,16.9546279 31.2560696,16.9546279 C33.6112024,16.9546279 35.5553285,18.3677614 36.202827,20.8415609 L26.3142051,20.8415609 L26.3142051,20.8415609 Z M31.1989853,10.2430597 C22.549907,10.2430597 16.3097837,16.3084375 16.3097837,24.7856066 C16.3097837,33.3247839 22.1356385,38.9185733 31.4925614,38.9185733 C36.8503254,38.9185733 42.1461121,36.9163622 44.7377368,32.6182172 L37.9691766,27.9676047 C36.2615422,30.498517 34.2603317,31.4988066 31.7877685,31.4988066 C29.0232602,31.4988066 26.4919817,29.8506948 26.1984056,26.8465623 L45.5010347,26.7878177 C45.6200962,25.96213 45.6200962,25.1984505 45.6200962,24.434771 C45.6200962,16.0147146 40.3226784,10.2430597 31.1989853,10.2430597 L31.1989853,10.2430597 L31.1989853,10.2430597 Z" id="flag-e" fill="#FFFFFF"></path>
                                            </g>
                                        </g>
                                        <g id="flag-link" transform="translate(1349.866231, 279.353959)" sketch:type="MSShapeGroup">
                                            <g id="flag" transform="translate(0.675888, 0.676226)">
                                                <path d="M63.5145282,33.748536 L0,40.0725992 C0,40.0725992 3.9498883,29.0176607 3.9498883,19.5450905 C3.9498883,10.0725203 0,0.20368182 0,0.20368182 L63.5145282,6.52504006 L46.1415082,19.7425484 L63.5145282,33.748536 L63.5145282,33.748536 Z" id="flag-background" fill="#4FB79B"></path>
                                                <path d="M7.68484427,0.97052181 L44.5829109,35.6325009 L63.5145282,33.7471836 L46.1415082,19.7425484 L63.5145282,6.52504006 L7.68484427,0.97052181 L7.68484427,0.97052181 Z" id="flag-highlight" fill="#7DC5B1"></path>
                                                <path d="M21.8095475,17.1025631 C22.2961867,15.0522467 23.9561671,13.8810237 25.9054276,13.8810237 C27.8573915,13.8810237 29.468708,15.0522467 30.0053629,17.1025631 L21.8095475,17.1025631 L21.8095475,17.1025631 Z M25.8581154,8.31839073 C18.6896494,8.31839073 13.517756,13.3454529 13.517756,20.3714384 C13.517756,27.448817 18.3462985,32.0850207 26.101435,32.0850207 C30.5420179,32.0850207 34.9312332,30.4255627 37.0792046,26.8632055 L31.4693359,23.0087188 C30.0540269,25.106371 28.3953982,25.9354238 26.3461063,25.9354238 C24.0548468,25.9354238 21.9568911,24.5694478 21.7135714,22.0795846 L37.7118356,22.0308963 C37.8105152,21.3465559 37.8105152,20.7136086 37.8105152,20.0806613 C37.8105152,13.1020116 33.4199481,8.31839073 25.8581154,8.31839073 L25.8581154,8.31839073 L25.8581154,8.31839073 Z" id="flag-e" fill="#FFFFFF"></path>
                                            </g>
                                        </g>
                                        <g id="flag-link" transform="translate(1526.423746, 524.672243)" sketch:type="MSShapeGroup">
                                            <g id="flag" transform="translate(0.901904, 0.902355)">
                                                <path d="M84.7537309,45.3684161 L0,53.8072404 C0,53.8072404 5.27072749,39.0555402 5.27072749,26.4153508 C5.27072749,13.7751614 0,0.60619197 0,0.60619197 L84.7537309,9.0414069 L61.5711883,26.6788385 L84.7537309,45.3684161 L84.7537309,45.3684161 Z" id="flag-background" fill="#4FB79B"></path>
                                                <path d="M10.2546495,1.62946259 L59.4913975,47.8823772 L84.7537309,45.3666114 L61.5711883,26.6788385 L84.7537309,9.0414069 L10.2546495,1.62946259 L10.2546495,1.62946259 Z" id="flag-highlight" fill="#7DC5B1"></path>
                                                <path d="M29.1026411,23.1560444 C29.7520121,20.4201039 31.9670885,18.857225 34.5681799,18.857225 C37.1728789,18.857225 39.3230183,20.4201039 40.0391301,23.1560444 L29.1026411,23.1560444 L29.1026411,23.1560444 Z M34.5050466,11.4344525 C24.9394519,11.4344525 18.0380818,18.1425598 18.0380818,27.5180287 C18.0380818,36.9620765 24.4812846,43.1486227 34.829732,43.1486227 C40.755242,43.1486227 46.6122071,40.9342434 49.4784583,36.1806371 L41.9926544,31.0372133 C40.1040672,33.8363187 37.8907945,34.942606 35.1562214,34.942606 C32.0987665,34.942606 29.2992562,33.1198488 28.9745707,29.7973775 L50.3226405,29.732408 C50.4543185,28.8192247 50.4543185,27.9746203 50.4543185,27.130016 C50.4543185,17.817712 44.5955495,11.4344525 34.5050466,11.4344525 L34.5050466,11.4344525 L34.5050466,11.4344525 Z" id="flag-e" fill="#FFFFFF"></path>
                                            </g>
                                        </g>
                                        <g id="flag-link" transform="translate(870.969218, 97.068580)" sketch:type="MSShapeGroup">
                                            <g id="flag" transform="translate(0.364066, 0.364248)">
                                                <path d="M34.2120049,18.7172465 L1.13686838e-13,22.1236936 C1.13686838e-13,22.1236936 2.12760138,16.1689677 2.12760138,11.066582 C2.12760138,5.96419638 1.13686838e-13,0.648361399 1.13686838e-13,0.648361399 L34.2120049,4.05335149 L24.8540539,11.1729424 L34.2120049,18.7172465 L34.2120049,18.7172465 Z" id="flag-background" fill="#4FB79B"></path>
                                                <path d="M4.13942979,1.0614186 L24.0145178,19.7320414 L34.2120049,18.716518 L24.8540539,11.1729424 L34.2120049,4.05335149 L4.13942979,1.0614186 L4.13942979,1.0614186 Z" id="flag-highlight" fill="#7DC5B1"></path>
                                                <path d="M11.7476799,9.75091834 C12.0098074,8.64651848 12.9039533,8.01564098 13.9539195,8.01564098 C15.0053419,8.01564098 15.8732752,8.64651848 16.1623435,9.75091834 L11.7476799,9.75091834 L11.7476799,9.75091834 Z M13.9284349,5.01933712 C10.0671515,5.01933712 7.28131888,7.72715658 7.28131888,11.5116931 C7.28131888,15.3239124 9.88220599,17.8211965 14.0594987,17.8211965 C16.4514119,17.8211965 18.8156561,16.927332 19.9726577,15.0084736 L16.9509103,12.9322602 C16.1885562,14.0621574 15.2951384,14.5087254 14.1912905,14.5087254 C12.9571069,14.5087254 11.8270463,13.7729445 11.6959825,12.4317835 L20.3134234,12.4055576 C20.366577,12.0369386 20.366577,11.6960025 20.366577,11.3550664 C20.366577,7.59602731 18.0016047,5.01933712 13.9284349,5.01933712 L13.9284349,5.01933712 L13.9284349,5.01933712 Z" id="flag-e" fill="#FFFFFF"></path>
                                            </g>
                                        </g>
                                        <g id="flag-link" transform="translate(1263.617130, 185.699715)" sketch:type="MSShapeGroup">
                                            <g id="flag" transform="translate(0.516261, 0.516519)">
                                                <path d="M48.5140532,26.5418381 L0,31.3723225 C0,31.3723225 3.0170277,22.9282722 3.0170277,15.692876 C3.0170277,8.4574798 0,0.91940357 0,0.91940357 L48.5140532,5.74782187 L35.2440875,15.8436995 L48.5140532,26.5418381 L48.5140532,26.5418381 Z" id="flag-background" fill="#4FB79B"></path>
                                                <path d="M5.86988449,1.50513596 L34.0535902,27.9808596 L48.5140532,26.5408051 L35.2440875,15.8436995 L48.5140532,5.74782187 L5.86988449,1.50513596 L5.86988449,1.50513596 Z" id="flag-highlight" fill="#7DC5B1"></path>
                                                <path d="M16.6587012,13.8272099 C17.0304089,12.2611247 18.2983453,11.366514 19.7872412,11.366514 C21.2782022,11.366514 22.5089678,12.2611247 22.9188788,13.8272099 L16.6587012,13.8272099 L16.6587012,13.8272099 Z M19.7511029,7.11762988 C14.2756417,7.11762988 10.3252146,10.9574311 10.3252146,16.324062 C10.3252146,21.7299484 14.0133812,25.2712017 19.9369568,25.2712017 C23.3287898,25.2712017 26.681387,24.0036644 28.3220636,21.2826431 L24.0370996,18.3384856 C22.9560496,19.9407271 21.6891457,20.5739792 20.1238432,20.5739792 C18.3737193,20.5739792 16.7712461,19.5306111 16.5853922,17.6287887 L28.8052837,17.5915993 C28.8806577,17.0688822 28.8806577,16.5854206 28.8806577,16.1019589 C28.8806577,10.7714843 25.527028,7.11762988 19.7511029,7.11762988 L19.7511029,7.11762988 L19.7511029,7.11762988 Z" id="flag-e" fill="#FFFFFF"></path>
                                            </g>
                                        </g>
                                        <g id="flag-link" transform="translate(1455.128220, 345.920507)" sketch:type="MSShapeGroup">
                                            <g id="flag" transform="translate(0.321854, 0.322015)">
                                                <path d="M30.2452628,16.5470583 L1.77635684e-15,19.5585418 C1.77635684e-15,19.5585418 1.88091469,14.294242 1.88091469,9.78345708 C1.88091469,5.27267218 1.77635684e-15,0.573186545 1.77635684e-15,0.573186545 L30.2452628,3.58338195 L21.9723279,9.87748543 L30.2452628,16.5470583 L30.2452628,16.5470583 Z" id="flag-background" fill="#4FB79B"></path>
                                                <path d="M3.65947982,0.938351456 L21.2301326,17.4441918 L30.2452628,16.5464143 L21.9723279,9.87748543 L30.2452628,3.58338195 L3.65947982,0.938351456 L3.65947982,0.938351456 Z" id="flag-highlight" fill="#7DC5B1"></path>
                                                <path d="M10.3855844,8.62033921 C10.6173192,7.64399 11.4077927,7.08626017 12.3360196,7.08626017 C13.2655338,7.08626017 14.0328338,7.64399 14.2883858,8.62033921 L10.3855844,8.62033921 L10.3855844,8.62033921 Z M12.3134898,4.4373655 C8.89990642,4.4373655 6.43707971,6.83122436 6.43707971,10.1769593 C6.43707971,13.5471674 8.73640459,15.7549016 12.4293572,15.7549016 C14.5439379,15.7549016 16.6340577,14.964677 17.6569096,13.2683025 L14.9855215,11.4328175 C14.3115593,12.4317077 13.5217296,12.826498 12.5458684,12.826498 C11.4547833,12.826498 10.4557486,12.1760279 10.3398812,10.990369 L17.958165,10.9671839 C18.0051556,10.6413048 18.0051556,10.3398988 18.0051556,10.0384929 C18.0051556,6.71529899 15.9143922,4.4373655 12.3134898,4.4373655 L12.3134898,4.4373655 L12.3134898,4.4373655 Z" id="flag-e" fill="#FFFFFF"></path>
                                            </g>
                                        </g>
                                        <g id="flag-link-copy-6" transform="translate(1441.135216, 718.073738)" sketch:type="MSShapeGroup">
                                            <g id="flag" transform="translate(0.472489, 0.472725)">
                                                <path d="M44.8685066,24.2914496 L0.467788345,28.7123743 C0.467788345,28.7123743 3.22901294,20.9842651 3.22901294,14.3623326 C3.22901294,7.74040002 0.467788345,0.841450594 0.467788345,0.841450594 L44.8685066,5.26048439 L32.7236544,14.5003683 L44.8685066,24.2914496 L44.8685066,24.2914496 Z" id="flag-background" fill="#4FB79B"></path>
                                                <path d="M5.8399861,1.3775208 L31.6340952,25.6084616 L44.8685066,24.2905041 L32.7236544,14.5003683 L44.8685066,5.26048439 L5.8399861,1.3775208 L5.8399861,1.3775208 Z" id="flag-highlight" fill="#7DC5B1"></path>
                                                <path d="M15.7140572,12.6548497 C16.0542492,11.2215473 17.2146817,10.4027875 18.5773394,10.4027875 C19.9418871,10.4027875 21.0683003,11.2215473 21.4434565,12.6548497 L15.7140572,12.6548497 L15.7140572,12.6548497 Z M18.5442652,6.51415123 C13.5330489,6.51415123 9.91756452,10.0283893 9.91756452,14.9400026 C9.91756452,19.887543 13.2930246,23.1285459 18.7143611,23.1285459 C21.8186126,23.1285459 24.8869549,21.9684787 26.3885243,19.4781631 L22.4668673,16.7836303 C21.4774757,18.2500234 20.3179882,18.8295843 18.8854021,18.8295843 C17.2836651,18.8295843 15.8170598,17.8746797 15.6469638,16.1341061 L26.8307739,16.1000699 C26.8997573,15.6216721 26.8997573,15.1792015 26.8997573,14.7367308 C26.8997573,9.85820825 23.83047,6.51415123 18.5442652,6.51415123 L18.5442652,6.51415123 L18.5442652,6.51415123 Z" id="flag-e" fill="#FFFFFF"></path>
                                            </g>
                                        </g>
                                        <g id="flag-link" transform="translate(1635.627826, 316.432174)" sketch:type="MSShapeGroup">
                                            <g id="flag" transform="translate(0.465743, 0.465976)">
                                                <path d="M43.7668374,23.9446559 L0,28.3024659 C0,28.3024659 2.72180435,20.6846861 2.72180435,14.1572906 C2.72180435,7.62989523 0,0.829437738 0,0.829437738 L43.7668374,5.18538379 L31.7953694,14.2933557 L43.7668374,23.9446559 L43.7668374,23.9446559 Z" id="flag-background" fill="#4FB79B"></path>
                                                <path d="M5.29550229,1.35785481 L30.7213652,25.2428658 L43.7668374,23.943724 L31.7953694,14.2933557 L43.7668374,5.18538379 L5.29550229,1.35785481 L5.29550229,1.35785481 Z" id="flag-highlight" fill="#7DC5B1"></path>
                                                <path d="M15.0286076,12.4741844 C15.3639428,11.0613444 16.5078086,10.2542735 17.8510125,10.2542735 C19.1960794,10.2542735 20.3064116,11.0613444 20.6762119,12.4741844 L15.0286076,12.4741844 L15.0286076,12.4741844 Z M17.8184104,6.42115282 C12.8787361,6.42115282 9.31486771,9.88522032 9.31486771,14.7267136 C9.31486771,19.6036211 12.6421384,22.7983544 17.9860781,22.7983544 C21.0460121,22.7983544 24.0705496,21.6548486 25.5506822,19.2000857 L21.685012,16.544021 C20.7097453,17.9894794 19.5668111,18.5607663 18.1546772,18.5607663 C16.5758071,18.5607663 15.1301396,17.6194942 14.962472,15.9037697 L25.9866179,15.8702194 C26.0546165,15.3986514 26.0546165,14.9624976 26.0546165,14.5263438 C26.0546165,9.71746886 23.0291474,6.42115282 17.8184104,6.42115282 L17.8184104,6.42115282 L17.8184104,6.42115282 Z" id="flag-e" fill="#FFFFFF"></path>
                                            </g>
                                        </g>
                                        <g id="flag-link" transform="translate(1081.276944, 282.999554)" sketch:type="MSShapeGroup">
                                            <g id="flag" transform="translate(0.604718, 0.605020)">
                                                <path d="M56.8264848,30.089535 L0,35.747678 C0,35.747678 3.53396732,25.8568182 3.53396732,17.3817042 C3.53396732,8.90659026 0,0.0769348146 0,0.0769348146 L56.8264848,5.73265765 L41.2828338,17.5583699 L56.8264848,30.089535 L56.8264848,30.089535 Z" id="flag-background" fill="#F741CD"></path>
                                                <path d="M6.87563456,0.763026994 L39.8883559,31.7751195 L56.8264848,30.088325 L41.2828338,17.5583699 L56.8264848,5.73265765 L6.87563456,0.763026994 L6.87563456,0.763026994 Z" id="flag-highlight" fill="#FF67DC"></path>
                                            </g>
                                        </g>
                                        <g id="flag-link" transform="translate(1328.503391, 258.111762)" sketch:type="MSShapeGroup">
                                            <g id="flag" transform="translate(0.121446, 0.121507)">
                                                <path d="M11.4125907,6.24378121 L0,7.38011877 C0,7.38011877 0.709734601,5.39371517 0.709734601,3.69163898 C0.709734601,1.98956279 0,0.21628324 0,0.21628324 L11.4125907,1.35213477 L8.29092432,3.72711915 L11.4125907,6.24378121 L11.4125907,6.24378121 Z" id="flag-background" fill="#4FB79B"></path>
                                                <path d="M1.38084915,0.354072674 L8.01086819,6.58230093 L11.4125907,6.24353819 L8.29092432,3.72711915 L11.4125907,1.35213477 L1.38084915,0.354072674 L1.38084915,0.354072674 Z" id="flag-highlight" fill="#7DC5B1"></path>
                                                <path d="M3.91884259,3.25275411 C4.00628422,2.88434356 4.30455735,2.67389268 4.65480968,2.67389268 C5.00554779,2.67389268 5.29507676,2.88434356 5.39150545,3.25275411 L3.91884259,3.25275411 L3.91884259,3.25275411 Z M4.64630841,1.6743725 C3.35824455,1.6743725 2.42893429,2.57765879 2.42893429,3.84012107 C2.42893429,5.11181792 3.29654963,5.94487291 4.69002923,5.94487291 C5.48793414,5.94487291 6.27660911,5.64669366 6.66256677,5.00659247 L5.65455903,4.31400008 C5.40024962,4.69091615 5.10221937,4.83988427 4.73399293,4.83988427 C4.32228858,4.83988427 3.94531797,4.59443924 3.90159715,4.14704886 L6.77624089,4.13830032 C6.7939721,4.0153348 6.7939721,3.90160383 6.7939721,3.78787287 C6.7939721,2.53391611 6.00505425,1.6743725 4.64630841,1.6743725 L4.64630841,1.6743725 L4.64630841,1.6743725 Z" id="flag-e" fill="#FFFFFF"></path>
                                            </g>
                                        </g>
                                        <g id="flag-link" transform="translate(1511.203764, 290.444043)" sketch:type="MSShapeGroup">
                                            <g id="flag" transform="translate(0.219487, 0.219597)">
                                                <path d="M20.625613,11.2841876 L4.54747351e-13,13.3378545 C4.54747351e-13,13.3378545 1.28268082,9.74789027 1.28268082,6.67178198 C1.28268082,3.5956737 4.54747351e-13,0.390881836 4.54747351e-13,0.390881836 L20.625613,2.44367026 L14.9839244,6.73590417 L20.625613,11.2841876 L20.625613,11.2841876 Z" id="flag-background" fill="#4FB79B"></path>
                                                <path d="M2.49556484,0.639904309 L14.4777879,11.8959836 L20.625613,11.2837485 L14.9839244,6.73590417 L20.625613,2.44367026 L2.49556484,0.639904309 L2.49556484,0.639904309 Z" id="flag-highlight" fill="#7DC5B1"></path>
                                                <path d="M7.08239985,5.87859929 C7.24043034,5.21278259 7.77948991,4.83244139 8.41248983,4.83244139 C9.04636768,4.83244139 9.5696242,5.21278259 9.74389671,5.87859929 L7.08239985,5.87859929 L7.08239985,5.87859929 Z M8.39712575,3.02604028 C6.06924882,3.02604028 4.38973587,4.65852093 4.38973587,6.94012895 C4.38973587,9.23842631 5.95774953,10.7439802 8.47614099,10.7439802 C9.91816923,10.7439802 11.3435164,10.2050903 12.0410455,9.04825571 L10.2193051,7.79655545 C9.75969976,8.4777439 9.22107917,8.74696926 8.55559521,8.74696926 C7.81153498,8.74696926 7.13024798,8.30338425 7.05123272,7.4948298 L12.2464852,7.47901885 C12.2785302,7.25678716 12.2785302,7.0512448 12.2785302,6.84570244 C12.2785302,4.57946618 10.852744,3.02604028 8.39712575,3.02604028 L8.39712575,3.02604028 L8.39712575,3.02604028 Z" id="flag-e" fill="#FFFFFF"></path>
                                            </g>
                                        </g>
                                        <g id="flag-link-copy-5" transform="translate(1132.760613, 152.940193)" sketch:type="MSShapeGroup">
                                            <g id="flag" transform="translate(0.395951, 0.396149)">
                                                <path d="M37.2083398,20.356529 L8.2067686e-13,24.0613174 C8.2067686e-13,24.0613174 2.31393966,17.5850683 2.31393966,12.0358087 C2.31393966,6.48654898 8.2067686e-13,0.705145791 8.2067686e-13,0.705145791 L37.2083398,4.40834964 L27.0308064,12.1514843 L37.2083398,20.356529 L37.2083398,20.356529 Z" id="flag-background" fill="#4FB79B"></path>
                                                <path d="M4.5019668,1.15437912 L26.1177426,21.460201 L37.2083398,20.3557367 L27.0308064,12.1514843 L37.2083398,4.40834964 L4.5019668,1.15437912 L4.5019668,1.15437912 Z" id="flag-highlight" fill="#7DC5B1"></path>
                                                <path d="M12.776558,10.6049173 C13.061643,9.40379257 14.0340995,8.71766195 15.1760232,8.71766195 C16.3195306,8.71766195 17.2634787,9.40379257 17.577864,10.6049173 L12.776558,10.6049173 L12.776558,10.6049173 Z M15.1483065,5.45893764 C10.9488466,5.45893764 7.9190269,8.40391169 7.9190269,12.5199031 C7.9190269,16.6660019 10.7477033,19.3820017 15.2908491,19.3820017 C17.8922494,19.3820017 20.4635574,18.4098512 21.7218908,16.3229366 L18.4354947,14.0648855 C17.6063725,15.2937407 16.6347079,15.7794197 15.4341834,15.7794197 C14.0919083,15.7794197 12.8628754,14.9791981 12.7203329,13.5205763 L22.0925012,13.4920536 C22.1503101,13.0911504 22.1503101,12.7203547 22.1503101,12.3495589 C22.1503101,8.26129793 19.5782102,5.45893764 15.1483065,5.45893764 L15.1483065,5.45893764 L15.1483065,5.45893764 Z" id="flag-e" fill="#FFFFFF"></path>
                                            </g>
                                        </g>
                                        <g id="flag-link" transform="translate(1694.176981, 565.873681)" sketch:type="MSShapeGroup">
                                            <g id="flag" transform="translate(0.292353, 0.292499)">
                                                <path d="M27.4730146,15.0303728 L5.89750471e-13,17.7658269 C5.89750471e-13,17.7658269 1.70851207,12.9840472 1.70851207,8.88671594 C1.70851207,4.78938473 5.89750471e-13,0.520648883 5.89750471e-13,0.520648883 L27.4730146,3.25493302 L19.958368,8.97212576 L27.4730146,15.0303728 L27.4730146,15.0303728 Z" id="flag-background" fill="#4FB79B"></path>
                                                <path d="M3.32405584,0.852343172 L19.2842015,15.845276 L27.4730146,15.0297878 L19.958368,8.97212576 L27.4730146,3.25493302 L3.32405584,0.852343172 L3.32405584,0.852343172 Z" id="flag-highlight" fill="#7DC5B1"></path>
                                                <path d="M9.43365293,7.83020821 C9.64414724,6.94335011 10.3621667,6.4367412 11.2053133,6.4367412 C12.0496293,6.4367412 12.7465994,6.94335011 12.9787278,7.83020821 L9.43365293,7.83020821 L9.43365293,7.83020821 Z M11.1848486,4.03064136 C8.08415057,4.03064136 5.84706392,6.20508169 5.84706392,9.24415018 C5.84706392,12.3054486 7.93563515,14.3108243 11.2900958,14.3108243 C13.2108563,14.3108243 15.1093979,13.5930308 16.0384964,12.0521442 L13.6119648,10.3848977 C12.9997772,11.2922308 12.2823424,11.650835 11.3959275,11.650835 C10.4048503,11.650835 9.49738593,11.0599863 9.39213878,9.98300359 L16.3121389,9.96194364 C16.3548225,9.66593427 16.3548225,9.39215486 16.3548225,9.11837545 C16.3548225,6.09978192 14.4556962,4.03064136 11.1848486,4.03064136 L11.1848486,4.03064136 L11.1848486,4.03064136 Z" id="flag-e" fill="#FFFFFF"></path>
                                            </g>
                                        </g>
                                        <g id="flag-link" transform="translate(966.698251, 50.865441)" sketch:type="MSShapeGroup">
                                            <g id="flag" transform="translate(0.309928, 0.310083)">
                                                <path d="M29.1245161,15.9339025 L0,18.8337946 C0,18.8337946 1.81121687,13.7645649 1.81121687,9.42092836 C1.81121687,5.07729185 0,0.551946958 0,0.551946958 L29.1245161,3.45059873 L21.1581372,9.51147247 L29.1245161,15.9339025 L29.1245161,15.9339025 Z" id="flag-background" fill="#4FB79B"></path>
                                                <path d="M3.52387677,0.903580582 L20.4434442,16.7977925 L29.1245161,15.9332823 L21.1581372,9.51147247 L29.1245161,3.45059873 L3.52387677,0.903580582 L3.52387677,0.903580582 Z" id="flag-highlight" fill="#7DC5B1"></path>
                                                <path d="M10.0007437,8.30091015 C10.2238916,7.36073982 10.9850738,6.82367683 11.8789049,6.82367683 C12.7739758,6.82367683 13.5128432,7.36073982 13.7589257,8.30091015 L10.0007437,8.30091015 L10.0007437,8.30091015 Z M11.85721,4.27293769 C8.57011791,4.27293769 6.19855193,6.57809144 6.19855193,9.79984925 C6.19855193,13.0451733 8.41267469,15.1710994 11.9687839,15.1710994 C14.0050083,15.1710994 16.0176781,14.4101568 17.002628,12.7766418 L14.4302289,11.0091712 C13.7812405,11.9710473 13.0206782,12.3512086 12.0809777,12.3512086 C11.0303231,12.3512086 10.0683079,11.7248418 9.95673397,10.5831178 L17.2927202,10.5607919 C17.3379696,10.2469883 17.3379696,9.95675102 17.3379696,9.66651375 C17.3379696,6.46646172 15.32468,4.27293769 11.85721,4.27293769 L11.85721,4.27293769 L11.85721,4.27293769 Z" id="flag-e" fill="#FFFFFF"></path>
                                            </g>
                                        </g>
                                        <g id="flag-link" transform="translate(1170.698881, 212.095052)">
                                            <g id="flag" transform="translate(0.008397, 0.008401)">
                                                <path id="flag-background" fill="#4FB79B" sketch:type="MSShapeGroup" d="M0.789107107,0.431717239 L0,0.510287659 C0,0.510287659 0.0490735744,0.37294065 0.0490735744,0.255253049 C0.0490735744,0.137565447 0,0.0149545924 0,0.0149545924 L0.789107107,0.0934914069 L0.573263994,0.257706274 L0.789107107,0.431717239 L0.789107107,0.431717239 Z"></path>
                                                <path id="flag-highlight" fill="#7DC5B1" sketch:type="MSShapeGroup" d="M0.0954768209,0.024481844 L0.553899917,0.455123696 L0.789107107,0.431700436 L0.573263994,0.257706274 L0.789107107,0.0934914069 L0.0954768209,0.024481844 L0.0954768209,0.024481844 Z"></path>
                                                <g id="flag-e"></g>
                                            </g>
                                        </g>
                                        <g id="flag-link" transform="translate(1456.580867, 267.414438)" sketch:type="MSShapeGroup">
                                            <g id="flag" transform="translate(0.882306, 0.812151)">
                                                <path d="M8.35615238,4.57161645 L2.20978791e-12,5.40362822 C2.20978791e-12,5.40362822 0.519658564,3.94920901 0.519658564,2.70297067 C0.519658564,1.45673233 2.20978791e-12,0.158359812 2.20978791e-12,0.158359812 L8.35615238,0.990015721 L6.07050836,2.7289488 L8.35615238,4.57161645 L8.35615238,4.57161645 Z" id="flag-background" fill="#4FB79B"></path>
                                                <path d="M1.01104002,0.259247467 L5.86545485,4.81947624 L8.35615238,4.57143852 L6.07050836,2.7289488 L8.35615238,0.990015721 L1.01104002,0.259247467 L1.01104002,0.259247467 Z" id="flag-highlight" fill="#7DC5B1"></path>
                                                <path d="M2.86932624,2.4439753 C2.93334988,2.13454748 3.15174164,1.9577899 3.40819189,1.9577899 C3.66499784,1.9577899 3.87698723,2.13454748 3.94759108,2.4439753 L2.86932624,2.4439753 L2.86932624,2.4439753 Z M3.40196738,1.22595405 C2.45886355,1.22595405 1.77843451,1.88732868 1.77843451,2.81168735 C1.77843451,3.74280746 2.41369131,4.35275963 3.43397919,4.35275963 C4.01819493,4.35275963 4.59565261,4.13443661 4.87824586,3.66576274 L4.14019553,3.15865548 C3.95399344,3.43462859 3.73577953,3.54370113 3.46616886,3.54370113 C3.16472421,3.54370113 2.88871117,3.36398944 2.85669935,3.03641594 L4.96147659,3.03001037 C4.97445916,2.93997659 4.97445916,2.85670424 4.97445916,2.77343189 C4.97445916,1.85530085 4.39682364,1.22595405 3.40196738,1.22595405 L3.40196738,1.22595405 L3.40196738,1.22595405 Z" id="flag-e" fill="#FFFFFF"></path>
                                            </g>
                                        </g>
                                        <g id="flag-link" transform="translate(1563.609590, 425.483285)" sketch:type="MSShapeGroup">
                                            <g id="flag" transform="translate(0.789736, 0.843771)">
                                                <path d="M19.0354925,10.4142393 L3.41060513e-12,12.3095797 C3.41060513e-12,12.3095797 1.18379323,8.99638192 1.18379323,6.15742454 C1.18379323,3.31846717 3.41060513e-12,0.360747011 3.41060513e-12,0.360747011 L19.0354925,2.25527682 L13.8287468,6.21660327 L19.0354925,10.4142393 L19.0354925,10.4142393 Z" id="flag-background" fill="#4FB79B"></path>
                                                <path d="M2.30317061,0.59057123 L13.3616306,10.9788691 L19.0354925,10.4138339 L13.8287468,6.21660327 L19.0354925,2.25527682 L2.30317061,0.59057123 L2.30317061,0.59057123 Z" id="flag-highlight" fill="#7DC5B1"></path>
                                                <path d="M6.53638605,5.42539184 C6.68223326,4.81090592 7.17973432,4.45988692 7.76393344,4.45988692 C8.34894283,4.45988692 8.83185917,4.81090592 8.99269624,5.42539184 L6.53638605,5.42539184 L6.53638605,5.42539184 Z M7.74975385,2.79274933 C5.60134334,2.79274933 4.05131154,4.29937477 4.05131154,6.40508345 C4.05131154,8.5261948 5.49844003,9.9156788 7.82267746,9.9156788 C9.1535333,9.9156788 10.4689942,9.41833432 11.1127475,8.3506853 L9.43145327,7.1954842 C9.00728096,7.8241568 8.51018503,8.07262637 7.89600621,8.07262637 C7.2093089,8.07262637 6.58054535,7.66323931 6.50762174,6.91701993 L11.3023489,6.90242792 C11.3319235,6.69732906 11.3319235,6.50763288 11.3319235,6.3179367 C11.3319235,4.2264147 10.0160576,2.79274933 7.74975385,2.79274933 L7.74975385,2.79274933 L7.74975385,2.79274933 Z" id="flag-e" fill="#FFFFFF"></path>
                                            </g>
                                        </g>
                                        <g id="flag-link" transform="translate(1731.926760, 360.946044)" sketch:type="MSShapeGroup">
                                            <g id="flag" transform="translate(0.165101, 0.165184)">
                                                <path d="M15.5148892,8.48813174 L2.5845992e-12,10.0329301 C2.5845992e-12,10.0329301 0.96485136,7.33250629 0.96485136,5.01861244 C0.96485136,2.70471858 2.5845992e-12,0.29402706 2.5845992e-12,0.29402706 L15.5148892,1.83816468 L11.2711281,5.06684609 L15.5148892,8.48813174 L15.5148892,8.48813174 Z" id="flag-background" fill="#4FB79B"></path>
                                                <path d="M1.87720054,0.481345423 L10.8904048,8.94833365 L15.5148892,8.48780138 L11.2711281,5.06684609 L15.5148892,1.83816468 L1.87720054,0.481345423 L1.87720054,0.481345423 Z" id="flag-highlight" fill="#7DC5B1"></path>
                                                <path d="M5.32748523,4.42196876 C5.44635809,3.92113166 5.85184662,3.63503342 6.32799845,3.63503342 C6.80481068,3.63503342 7.19841192,3.92113166 7.32950227,4.42196876 L5.32748523,4.42196876 L5.32748523,4.42196876 Z M6.31644136,2.27623196 C4.56537813,2.27623196 3.30202382,3.50420789 3.30202382,5.22046697 C3.30202382,6.94928001 4.48150673,8.08177974 6.37587779,8.08177974 C7.46059261,8.08177974 8.53275975,7.67641884 9.05745133,6.80623089 L7.68711145,5.86468356 C7.34138956,6.37708353 6.93623123,6.57959879 6.43564443,6.57959879 C5.87595138,6.57959879 5.36347729,6.24592764 5.30404086,5.6377211 L9.21198605,5.62582787 C9.23609082,5.45866192 9.23609082,5.30404994 9.23609082,5.14943796 C9.23609082,3.44474175 8.16359348,2.27623196 6.31644136,2.27623196 L6.31644136,2.27623196 L6.31644136,2.27623196 Z" id="flag-e" fill="#FFFFFF"></path>
                                            </g>
                                        </g>
                                    </g>
                                </g>
                                <path d="M542.159495,266.017376 L542.159495,265.444863 L551.926821,256.521552 C553.676397,254.889552 554.883325,253.53725 555.547638,252.464605 C556.211951,251.391959 556.544102,250.355523 556.544102,249.355265 C556.544102,248.394491 556.274434,247.637728 555.735091,247.084954 C555.195748,246.53218 554.465673,246.255797 553.544842,246.255797 C552.53193,246.255797 551.768968,246.607856 551.255934,247.311985 C550.7429,248.016114 550.565314,248.980164 550.723171,250.204164 L542.90931,250.204164 C542.711989,247.216551 543.652537,244.771878 545.730982,242.870072 C547.809427,240.968265 550.578452,240.017376 554.038141,240.017376 C557.195273,240.017376 559.72094,240.820203 561.615219,242.42588 C563.509498,244.031558 564.456623,246.209719 564.456623,248.960428 C564.456623,250.671396 564.094873,252.207954 563.371364,253.570147 C562.647855,254.932341 561.338981,256.455738 559.444702,258.140383 L557.984536,259.384119 L565.107778,259.384119 L565.107778,266.017376 L542.159495,266.017376 L542.159495,266.017376 Z" id="2" fill="#FFFFFF" sketch:type="MSShapeGroup"></path>
                                <path d="M654.386584,293.717188 C654.386584,287.246517 656.284608,282.004054 660.080712,277.989641 C663.876816,273.975229 668.867916,271.968052 675.054159,271.968052 C681.456706,271.968052 686.45862,273.904896 690.060052,277.778642 C693.661485,281.652388 695.462173,286.965183 695.462173,293.717188 C695.462173,300.252781 693.591187,305.495244 689.849159,309.444734 C686.10713,313.394223 681.110623,315.368938 674.859489,315.368938 C668.413682,315.368938 663.390138,313.442915 659.788706,309.59081 C656.187274,305.738705 654.386584,300.447551 654.386584,293.717188 L654.386584,293.717188 L654.386584,293.717188 Z M667.624215,293.717188 C667.624215,297.028266 668.25689,299.663023 669.522257,301.621537 C670.787626,303.580051 672.588315,304.559294 674.924379,304.559294 C677.346964,304.559294 679.180098,303.601692 680.423836,301.68646 C681.667574,299.771228 682.289434,297.114831 682.289434,293.717188 C682.289434,290.471032 681.629722,287.841685 680.310277,285.829068 C678.990834,283.816452 677.195553,282.810159 674.924379,282.810159 C672.480163,282.810159 670.652437,283.76235 669.441145,285.666761 C668.229853,287.571173 667.624215,290.254621 667.624215,293.717188 L667.624215,293.717188 L667.624215,293.717188 Z" id="0" fill="#FFFFFF" sketch:type="MSShapeGroup"></path>
                                <path d="M1101.40722,297.655927 L1101.40722,292.236126 L1111.45608,292.236126 L1111.45608,313.017376 L1105.0934,313.017376 L1105.0934,297.655927 L1101.40722,297.655927 L1101.40722,297.655927 Z" id="1" fill="#FFFFFF" sketch:type="MSShapeGroup"></path>
                                <path d="M1222.6259,366.135382 L1225.00308,355.967858 C1228.98488,358.722815 1232.75861,360.100273 1236.3244,360.100273 C1238.3252,360.100273 1239.93969,359.540371 1241.16791,358.42055 C1242.39612,357.300729 1243.01022,355.809309 1243.01022,353.946245 C1243.01022,351.865162 1242.20793,350.25978 1240.60332,349.130049 C1238.99872,348.000319 1236.66118,347.435462 1233.59065,347.435462 C1230.9163,347.435462 1228.38067,347.841762 1225.98367,348.654375 L1225.35966,348.059783 L1229.8763,326.446362 L1252.16236,326.446362 L1252.16236,336.405779 L1237.24556,336.405779 L1236.38383,340.627383 C1238.28558,340.330085 1239.79112,340.181439 1240.90047,340.181439 C1242.88146,340.181439 1244.68414,340.439092 1246.30856,340.954408 C1247.93297,341.469724 1249.38403,342.25755 1250.66176,343.317912 C1251.9395,344.378273 1252.93494,345.79537 1253.6481,347.569245 C1254.36125,349.34312 1254.71783,351.409307 1254.71783,353.767867 C1254.71783,355.373274 1254.49497,356.943972 1254.04925,358.480009 C1253.60352,360.016047 1252.90028,361.477737 1251.9395,362.865126 C1250.97872,364.252514 1249.82481,365.471416 1248.47773,366.521867 C1247.13066,367.572318 1245.47655,368.409694 1243.51536,369.034018 C1241.55418,369.658343 1239.42465,369.970501 1237.1267,369.970501 C1231.7384,369.970501 1226.90485,368.692141 1222.6259,366.135382 L1222.6259,366.135382 L1222.6259,366.135382 Z" id="5" fill="#FFFFFF" sketch:type="MSShapeGroup"></path>
                                <g id="badge-+-eurucamp-copy-2" transform="translate(623.302517, 489.446362)"></g>
                            </g>
                        </g>
                    </g>
                </g>
                <g id="eurucamp-Clipped" transform="translate(19.990005, 0.000000)">
                    <mask id="mask-4" sketch:name="path-1" fill="white">
                        <use xlink:href="#path-3"></use>
                    </mask>
                    <g id="path-1"></g>
                    <path d="M774.384682,547.368647 C783.52999,547.368647 792.574802,543.918195 796.996709,536.509873 L785.43945,528.492647 C782.525011,532.856453 779.108083,534.581679 774.88717,534.581679 C770.16377,534.581679 765.84236,531.740131 765.33987,526.564453 L798.303181,526.462969 C798.504177,525.042195 798.504177,523.722905 798.504177,522.403615 C798.504177,507.891421 789.459366,497.946002 773.882192,497.946002 C759.109,497.946002 748.456224,508.39884 748.456224,523.012518 C748.456224,537.727679 758.405515,547.368647 774.384682,547.368647 L774.384682,547.368647 L774.384682,547.368647 Z M773.98269,509.515163 C778.002606,509.515163 781.319036,511.950776 782.424514,516.213098 L765.540867,516.213098 C766.545845,511.950776 769.962774,509.515163 773.98269,509.515163 L773.98269,509.515163 L773.98269,509.515163 Z M854.659335,498.859357 L836.368718,498.859357 L836.368718,523.316969 C836.368718,529.710453 833.253282,533.160905 828.228388,533.160905 C823.80648,533.160905 821.093036,530.522324 821.093036,525.346647 L821.093036,498.859357 L802.701921,498.859357 L802.701921,529.203034 C802.701921,540.569227 810.038268,547.368647 820.389551,547.368647 C826.318928,547.368647 832.449299,545.034518 836.871207,540.264776 L837.373696,546.353808 L854.659335,546.353808 L854.659335,498.859357 L854.659335,498.859357 Z M863.781476,498.859357 L863.781476,546.353808 L882.172592,546.353808 L882.172592,525.042195 C882.172592,517.227937 886.594499,514.284905 893.72985,514.284905 C896.242298,514.284905 898.855243,514.69084 901.36769,515.19826 L901.468188,498.453421 C899.96072,498.047486 898.352754,497.844518 896.845285,497.844518 C891.418399,497.844518 886.293005,500.483098 881.7706,506.166195 L881.167612,498.859357 L863.781476,498.859357 L863.781476,498.859357 Z M956.618369,498.859357 L938.327751,498.859357 L938.327751,523.316969 C938.327751,529.710453 935.212316,533.160905 930.187421,533.160905 C925.765513,533.160905 923.05207,530.522324 923.05207,525.346647 L923.05207,498.859357 L904.660955,498.859357 L904.660955,529.203034 C904.660955,540.569227 911.997301,547.368647 922.348585,547.368647 C928.277961,547.368647 934.408333,545.034518 938.830241,540.264776 L939.33273,546.353808 L956.618369,546.353808 L956.618369,498.859357 L956.618369,498.859357 Z M1009.95959,508.39884 C1004.83419,501.193486 998.000335,497.844518 988.453034,497.844518 C973.37835,497.844518 962.323581,507.789937 962.323581,522.80955 C962.323581,537.22026 972.976359,547.368647 988.051043,547.368647 C998.000335,547.368647 1005.03519,543.715227 1010.96457,536.103937 L998.402327,527.173357 C996.291871,530.725292 992.97544,532.856453 988.955524,532.856453 C983.327642,532.856453 979.609219,528.797098 979.609219,522.606582 C979.609219,516.51755 983.227144,512.458195 988.553533,512.458195 C991.668968,512.458195 994.985398,513.980453 997.29685,517.735357 L1009.95959,508.39884 L1009.95959,508.39884 Z M1044.5077,546.353808 L1058.6779,546.353808 L1058.6779,516.619034 C1058.6779,504.238002 1050.83906,497.844518 1036.86986,497.844518 C1030.63898,497.844518 1022.69965,499.366776 1016.66978,501.700905 L1021.29268,512.255227 C1025.1116,510.935937 1029.634,509.819615 1033.65392,509.819615 C1038.77931,509.819615 1042.79923,511.646324 1043.00023,517.126453 C1039.4828,515.604195 1035.46289,514.792324 1031.44297,514.792324 C1020.08671,514.792324 1012.54937,521.794711 1012.54937,531.232711 C1012.54937,540.975163 1018.78023,547.368647 1031.44297,547.368647 C1035.66388,547.368647 1040.08579,546.252324 1043.80421,543.309292 L1044.5077,546.353808 L1044.5077,546.353808 Z M1035.26189,535.39355 C1030.53849,535.39355 1028.02604,533.972776 1028.02604,531.029744 C1028.02604,528.188195 1030.43799,526.462969 1034.8599,526.462969 C1037.37234,526.462969 1040.28679,527.27484 1042.69873,528.492647 L1042.69873,533.769808 C1040.28679,534.886131 1037.57334,535.39355 1035.26189,535.39355 L1035.26189,535.39355 L1035.26189,535.39355 Z M1066.29257,546.353808 L1084.68369,546.353808 L1084.68369,521.896195 C1084.68369,515.502711 1087.69862,512.05226 1092.72352,512.05226 C1097.14543,512.05226 1099.85887,514.69084 1099.85887,519.866518 L1099.85887,546.353808 L1118.24999,546.353808 L1118.24999,521.896195 C1118.24999,515.502711 1121.26492,512.05226 1126.39031,512.05226 C1130.81222,512.05226 1133.52567,514.69084 1133.52567,519.866518 L1133.52567,546.353808 L1151.91678,546.353808 L1151.91678,516.111615 C1151.91678,504.542453 1144.68093,497.844518 1133.32467,497.844518 C1126.39031,497.844518 1119.75745,500.889034 1115.63704,505.76026 C1112.6221,500.686066 1107.19521,497.844518 1100.56236,497.844518 C1094.73347,497.844518 1088.50261,500.280131 1084.1812,505.049873 L1083.67871,498.859357 L1066.29257,498.859357 L1066.29257,546.353808 L1066.29257,546.353808 Z M1190.58531,497.844518 C1185.45991,497.844518 1180.43501,499.671227 1176.3146,503.527615 L1175.71161,498.859357 L1159.53145,498.859357 L1159.53145,568.375808 L1177.42008,568.375808 L1177.42008,558.227421 C1177.42008,553.660647 1177.31958,548.586453 1177.21908,544.324131 C1180.83701,546.455292 1185.15842,547.368647 1189.98232,547.368647 C1203.04705,547.368647 1214.00132,537.118776 1214.00132,522.911034 C1214.00132,508.195873 1204.35351,497.844518 1190.58531,497.844518 L1190.58531,497.844518 L1190.58531,497.844518 Z M1186.46489,512.05226 C1193.39925,512.05226 1196.71567,517.227937 1196.71567,522.606582 C1196.71567,527.985227 1193.39925,533.160905 1186.46489,533.160905 C1183.04797,533.160905 1179.53053,531.638647 1177.42008,529.10155 L1177.42008,515.502711 C1179.83203,513.270066 1183.14846,512.05226 1186.46489,512.05226 L1186.46489,512.05226 L1186.46489,512.05226 Z" id="eurucamp" fill="#DEFDF5" sketch:type="MSShapeGroup" mask="url(#mask-4)"></path>
                </g>
            </g>
        </g>
    </g>
</svg>