<?xml version="1.0" encoding="UTF-8" standalone="no"?>
<svg width="736px" height="736px" viewBox="0 0 736 736" version="1.1" xmlns="http://www.w3.org/2000/svg" xmlns:xlink="http://www.w3.org/1999/xlink" xmlns:sketch="http://www.bohemiancoding.com/sketch/ns">
    <!-- Generator: Sketch 3.3.2 (12043) - http://www.bohemiancoding.com/sketch -->
    <title>eurucamp-2015-print</title>
    <desc>Created with Sketch.</desc>
    <defs></defs>
    <g id="Page-1" stroke="none" stroke-width="1" fill="none" fill-rule="evenodd" sketch:type="MSPage">
        <g id="eurucamp-flag-copy-3" sketch:type="MSLayerGroup" transform="translate(32.000000, 156.500000)">
            <g id="flag" transform="translate(0.175652, 0.000000)" sketch:type="MSShapeGroup">
                <path d="M671.6244,354.582311 L0.570499195,421.429878 C0.570499195,421.429878 42.3024938,304.575298 42.3024938,204.446905 C42.3024938,104.318512 0.570499195,0.00142418662 0.570499195,0.00142418662 L671.6244,66.8204002 L488.072177,206.534104 L671.6244,354.582311 L671.6244,354.582311 Z" id="flag-background" fill="#000000"></path>
                <path d="M81.7636509,8.10719214 L471.605035,374.496481 L671.6244,354.568015 L488.072177,206.534104 L671.6244,66.8204002 L81.7636509,8.10719214 L81.7636509,8.10719214 Z" id="flag-highlight" fill="#000000"></path>
                <path d="M230.996235,178.628533 C236.137754,156.955968 253.676046,144.57573 274.270685,144.57573 C294.893889,144.57573 311.918029,156.955968 317.587982,178.628533 L230.996235,178.628533 L230.996235,178.628533 Z M273.770816,85.7767465 C198.033387,85.7767465 143.390467,138.914559 143.390467,213.181692 C143.390467,287.992069 194.405759,336.99837 276.341575,336.99837 C323.257934,336.99837 369.631578,319.457316 392.325671,281.80195 L333.055384,241.058672 C318.102134,263.231592 300.578124,271.994971 278.926616,271.994971 C254.718632,271.994971 232.552973,257.556125 229.982213,231.237397 L399.009645,230.722745 C400.052231,223.489026 400.052231,216.798551 400.052231,210.108076 C400.052231,136.341299 353.664306,85.7767465 273.770816,85.7767465 L273.770816,85.7767465 L273.770816,85.7767465 Z" id="flag-e" fill="#FFFFFF"></path>
            </g>
        </g>
    </g>
</svg>