<?xml version="1.0" encoding="UTF-8" standalone="no"?>
<svg width="61px" height="90px" viewBox="0 0 61 90" version="1.1" xmlns="http://www.w3.org/2000/svg" xmlns:xlink="http://www.w3.org/1999/xlink" xmlns:sketch="http://www.bohemiancoding.com/sketch/ns">
    <!-- Generator: Sketch 3.0 (7573) - http://www.bohemiancoding.com/sketch -->
    <title>info--guide</title>
    <description>Created with Sketch.</description>
    <defs></defs>
    <g id="Page-1" stroke="none" stroke-width="1" fill="none" fill-rule="evenodd" sketch:type="MSPage">
        <g id="info--guide" sketch:type="MSLayerGroup">
            <path d="M0.589,62.292 L60.657,62.292 L60.657,0.221 L0.589,62.292 Z" id="Shape" opacity="0.204874067" fill="#000000" sketch:type="MSShapeGroup"></path>
            <path d="M20.64,11.645 L0.624,61.997 L31.577,89.873 L60.985,61.997 L20.64,11.645 Z" id="Shape" fill="$light-green" sketch:type="MSShapeGroup"></path>
            <g id="Group" transform="translate(16.000000, 48.000000)" fill-opacity="0.498046875" fill="#000000" sketch:type="MSShapeGroup">
                <path d="M29.403,20.476 C29.403,20.476 20.298,19.675 16.622,21.622 C15.995,21.953 15.321,22.842 14.306,22.837 C13.289,22.832 12.62,21.956 11.997,21.624 C8.321,19.675 -0.79,20.476 -0.79,20.476 L-0.79,3.364 C0.067,3.364 2.587,3.39 3.355,3.437 L3.355,0.119 C12.777,0.119 14.222,3.221 14.306,3.423 C14.39,3.221 15.835,0.119 25.259,0.119 L25.259,3.437 C26.025,3.39 28.546,3.364 29.404,3.364 L29.404,20.476 L29.403,20.476 Z M4.571,1.354 L4.571,17.602 L4.683,17.602 C7.063,17.602 10.892,17.867 13.465,19.343 L13.465,4.572 L13.19,3.908 C13.126,3.792 11.784,1.581 4.571,1.354 Z M15.423,3.907 L15.089,4.704 L15.089,19.376 C17.665,17.87 21.532,17.602 23.929,17.602 L24.04,17.602 L24.04,1.354 C16.825,1.581 15.485,3.794 15.423,3.907 Z" id="Shape"></path>
            </g>
        </g>
    </g>
</svg>
