<?xml version="1.0" encoding="UTF-8" standalone="no"?>
<svg width="60px" height="90px" viewBox="0 0 60 90" version="1.1" xmlns="http://www.w3.org/2000/svg" xmlns:xlink="http://www.w3.org/1999/xlink" xmlns:sketch="http://www.bohemiancoding.com/sketch/ns">
    <!-- Generator: Sketch 3.0 (7573) - http://www.bohemiancoding.com/sketch -->
    <title>info--blog</title>
    <description>Created with Sketch.</description>
    <defs></defs>
    <g id="Page-1" stroke="none" stroke-width="1" fill="none" fill-rule="evenodd" sketch:type="MSPage">
        <g id="info--blog" sketch:type="MSLayerGroup">
            <path d="M59.5504918,62.7868421 L0.467213115,62.7868421 L23.1068852,17.3328947 L59.5504918,62.7868421 Z" id="Shape" opacity="0.204874067" fill="#000000" sketch:type="MSShapeGroup"></path>
            <path d="M44.7983607,14.7809211 L0.501639344,62.4957237 L30.9472131,90.0049342 L59.8731148,62.4957237 L44.7983607,14.7809211 Z" id="Shape" fill="$light-tertiary-color" sketch:type="MSShapeGroup"></path>
            <path d="M25.2629508,69.4065789 C23.6567213,69.4065789 22.3544262,68.1009868 22.3544262,66.4884868 C22.3544262,64.8799342 23.6567213,63.5743421 25.2629508,63.5743421 C26.8672131,63.5743421 28.1695082,64.8799342 28.1695082,66.4884868 C28.1695082,68.1009868 26.8662295,69.4065789 25.2629508,69.4065789 L25.2629508,69.4065789 Z M32.5534426,69.4115132 C32.524918,66.6996711 31.4695082,64.1546053 29.5662295,62.2361842 C27.6413115,60.2970395 25.0819672,59.2282895 22.3583607,59.2282895 L22.3583607,55.0164474 C30.2596721,55.0164474 36.6914754,61.4644737 36.7514754,69.4115132 L32.5534426,69.4115132 L32.5534426,69.4115132 Z M39.9668852,69.4115132 C39.9068852,59.6703947 32.035082,51.7628289 22.3642623,51.7628289 L22.3642623,47.5509868 C34.3504918,47.5509868 44.1059016,57.3473684 44.164918,69.4105263 L39.9668852,69.4105263 L39.9668852,69.4115132 Z" id="Shape" fill-opacity="0.497848732" fill="#000000" sketch:type="MSShapeGroup"></path>
        </g>
    </g>
</svg>
